<svg width="40" height="40" viewBox="0 0 40 40" fill="none" xmlns="http://www.w3.org/2000/svg">
<path id="Vector" d="M6.43217 4.97129C6.43217 4.55808 6.78025 4.22316 7.20968 4.22316C7.63912 4.22316 7.9872 4.55808 7.9872 4.97129V9.52937C7.9872 9.94258 7.63912 10.2775 7.20968 10.2775C6.78025 10.2775 6.43217 9.94258 6.43217 9.52937V4.97129ZM20.0007 25.9061C22.0571 25.9061 23.9256 25.0977 25.2792 23.7965C26.6315 22.4927 27.4717 20.6949 27.4717 18.7187V8.68628C27.4717 6.71008 26.6302 4.91226 25.2766 3.60977L25.2432 3.5764C23.8922 2.29316 22.0371 1.49883 19.9993 1.49883C17.9469 1.49883 16.0784 2.30856 14.7234 3.61105C13.3698 4.91354 12.5283 6.71137 12.5283 8.68756V18.72C12.5283 20.6962 13.3685 22.494 14.7221 23.7965C16.0758 25.099 17.9442 25.9087 19.998 25.9087L20.0007 25.9061ZM26.3755 24.8526C24.7378 26.4258 22.4812 27.4037 20.0007 27.4037C17.5188 27.4037 15.2609 26.4271 13.6258 24.8526C11.9908 23.2793 10.9746 21.1068 10.9746 18.7187V8.68628C10.9746 6.29816 11.9908 4.12563 13.6258 2.55237C15.2622 0.977832 17.5188 0 20.0007 0C22.4612 0 24.7004 0.962433 26.3341 2.51259L26.3768 2.55109C28.0132 4.12563 29.0294 6.29688 29.0294 8.68628V18.7187C29.0294 21.1081 28.0145 23.2793 26.3768 24.8539L26.3755 24.8526ZM32.0141 18.7174C32.0141 18.3042 32.3622 17.9693 32.7917 17.9693C33.2211 17.9693 33.5692 18.3042 33.5692 18.7174C33.5692 22.313 32.0448 25.5763 29.5869 27.9414L29.5442 27.9799C27.7211 29.7187 25.3913 30.9672 22.792 31.4947V34.2485H26.0394C26.8596 34.2485 27.6051 34.5719 28.1479 35.0929C28.6934 35.6177 29.0281 36.3363 29.0281 37.1242C29.0281 37.9134 28.692 38.6333 28.1492 39.1543C27.6091 39.6766 26.8623 40 26.0394 40H13.9606C13.1377 40 12.3896 39.6753 11.8494 39.1556C11.308 38.6346 10.9719 37.9147 10.9719 37.1242C10.9719 36.3325 11.3093 35.6126 11.8494 35.0929L11.8961 35.0518C12.4349 34.5552 13.1644 34.2485 13.9606 34.2485H17.208V31.4947C14.5874 30.9634 12.2415 29.702 10.4131 27.9414L10.3731 27.9003C7.93919 25.5378 6.43083 22.2899 6.43083 18.7174C6.43083 18.3042 6.77892 17.9693 7.20835 17.9693C7.63778 17.9693 7.98586 18.3042 7.98586 18.7174C7.98586 21.8844 9.32218 24.7602 11.476 26.8519L11.5107 26.884C13.6859 28.9769 16.6906 30.2769 19.9967 30.2769C23.2881 30.2769 26.2781 28.9923 28.452 26.9186L28.4853 26.8852C30.6605 24.7923 32.0115 21.9011 32.0115 18.7187L32.0141 18.7174ZM21.237 31.7192C20.8289 31.7552 20.4168 31.7744 19.9993 31.7744C19.5832 31.7744 19.1711 31.7564 18.7644 31.7205V34.2485H21.237V31.7205V31.7192ZM26.0407 35.7448H22.0358H22.0158H17.9882H17.9682H13.9619C13.5818 35.7448 13.2351 35.8872 12.9804 36.1195L12.951 36.1503C12.6923 36.3992 12.5296 36.7444 12.5296 37.1242C12.5296 37.5041 12.691 37.8493 12.951 38.0982C13.2097 38.3472 13.5685 38.5037 13.9633 38.5037H26.0421C26.4355 38.5037 26.7943 38.3485 27.0543 38.0982C27.3144 37.8506 27.4757 37.5054 27.4757 37.1242C27.4757 36.7431 27.3157 36.3979 27.057 36.1503C26.7969 35.9 26.4382 35.7448 26.0421 35.7448H26.0407ZM15.3996 19.5772C14.9702 19.5772 14.6221 19.2422 14.6221 18.829C14.6221 18.4158 14.9702 18.0809 15.3996 18.0809H19.0324C19.4619 18.0809 19.81 18.4158 19.81 18.829C19.81 19.2422 19.4619 19.5772 19.0324 19.5772H15.3996ZM15.3996 16.1586C14.9702 16.1586 14.6221 15.8237 14.6221 15.4105C14.6221 14.9973 14.9702 14.6623 15.3996 14.6623H19.0324C19.4619 14.6623 19.81 14.9973 19.81 15.4105C19.81 15.8237 19.4619 16.1586 19.0324 16.1586H15.3996ZM15.3996 12.74C14.9702 12.74 14.6221 12.4051 14.6221 11.9919C14.6221 11.5787 14.9702 11.2438 15.3996 11.2438H19.0324C19.4619 11.2438 19.81 11.5787 19.81 11.9919C19.81 12.4051 19.4619 12.74 19.0324 12.74H15.3996ZM15.3996 9.32148C14.9702 9.32148 14.6221 8.98656 14.6221 8.57335C14.6221 8.16015 14.9702 7.82522 15.3996 7.82522H19.0324C19.4619 7.82522 19.81 8.16015 19.81 8.57335C19.81 8.98656 19.4619 9.32148 19.0324 9.32148H15.3996ZM38.445 0.867473C38.445 0.454268 38.7931 0.119342 39.2225 0.119342C39.6519 0.119342 40 0.454268 40 0.867473V13.6306C40 14.0438 39.6519 14.3787 39.2225 14.3787C38.7931 14.3787 38.445 14.0438 38.445 13.6306V0.867473ZM35.2296 2.9181C35.2296 2.50489 35.5776 2.16997 36.0071 2.16997C36.4365 2.16997 36.7846 2.50489 36.7846 2.9181V11.5787C36.7846 11.9919 36.4365 12.3268 36.0071 12.3268C35.5776 12.3268 35.2296 11.9919 35.2296 11.5787V2.9181ZM32.0141 4.97C32.0141 4.5568 32.3622 4.22187 32.7917 4.22187C33.2211 4.22187 33.5692 4.5568 33.5692 4.97V9.52809C33.5692 9.94129 33.2211 10.2762 32.7917 10.2762C32.3622 10.2762 32.0141 9.94129 32.0141 9.52809V4.97ZM0 0.867473C0 0.454268 0.348081 0.119342 0.777515 0.119342C1.20695 0.119342 1.55503 0.454268 1.55503 0.867473V13.6306C1.55503 14.0438 1.20695 14.3787 0.777515 14.3787C0.348081 14.3787 0 14.0438 0 13.6306V0.867473ZM3.21542 2.9181C3.21542 2.50489 3.5635 2.16997 3.99293 2.16997C4.42237 2.16997 4.77045 2.50489 4.77045 2.9181V11.5787C4.77045 11.9919 4.42237 12.3268 3.99293 12.3268C3.5635 12.3268 3.21542 11.9919 3.21542 11.5787V2.9181Z" fill="#998448"/>
</svg>
