<svg width="31" height="31" viewBox="0 0 31 31" fill="none" xmlns="http://www.w3.org/2000/svg">
<path d="M16.8516 6.67554L18.7796 12.0313L22.4215 7.74668L16.8516 6.67554Z" fill="#555555"/>
<path d="M15.5692 23.5996C10.8561 23.5996 7 19.7435 7 15.0305C7 12.2455 8.28539 9.67477 10.4277 8.17517L11.9273 10.1032C10.4277 11.1744 9.35653 13.1024 9.35653 15.0305C9.35653 18.4582 12.1415 21.2431 15.5692 21.2431C18.9968 21.2431 21.7818 18.4582 21.7818 15.0305C21.7818 12.8882 20.7106 10.9601 18.7826 9.88899L20.068 7.7467C22.6387 9.24631 24.1383 12.0313 24.1383 15.0305C24.1383 19.7435 20.2822 23.5996 15.5692 23.5996Z" fill="#555555"/>
</svg>
