<svg width="28" height="29" viewBox="0 0 28 29" fill="none" xmlns="http://www.w3.org/2000/svg">
<path fill-rule="evenodd" clip-rule="evenodd" d="M22.4738 4.47068C22.4712 2.91922 21.6516 2.12122 20.0874 2.11231C16.203 2.0945 12.3212 2.10468 8.43684 2.10722C6.17393 2.1085 5.52102 2.75631 5.51975 5.00268C5.5172 12.0192 5.51466 19.0358 5.52611 26.0498C5.52739 26.4647 5.53375 26.7332 5.51848 27.3696C8.03466 25.169 10.7099 23.0589 13.1485 20.8469C13.8103 20.2449 14.1896 20.2334 14.8616 20.8418C17.2976 23.0563 19.801 25.197 22.4814 27.5414C22.4801 19.6467 22.489 12.0587 22.4738 4.47068ZM20.0416 22.3487C18.149 20.7463 16.3799 19.284 14.6592 17.7694C14.1857 17.3532 13.9172 17.3621 13.4501 17.7732C11.7268 19.2852 9.83811 20.7272 8.06139 22.2329C8.07284 21.7963 8.06775 21.6118 8.06775 21.3292C8.06011 16.5361 8.06011 11.7405 8.06266 6.94486C8.06393 5.40868 8.52466 4.96577 10.1245 4.96577C12.8659 4.9645 15.6099 4.95686 18.3527 4.96959C19.4574 4.97468 20.0365 5.52068 20.0365 6.58213C20.0492 11.7672 20.0416 16.9536 20.0416 22.3487Z" fill="#8A0B00"/>
<path fill-rule="evenodd" clip-rule="evenodd" d="M17.7635 17.665C16.5735 16.6927 15.4612 15.803 14.3819 14.8829C14.0854 14.6296 13.9161 14.6347 13.6221 14.8854C12.539 15.803 11.3515 16.6799 10.2354 17.595C10.2417 17.3316 10.2392 17.217 10.2392 17.0452C10.2354 14.1319 10.2354 11.2161 10.2366 8.30159C10.2366 7.36868 10.5268 7.10013 11.531 7.10013C13.2543 7.09886 14.9775 7.09377 16.7021 7.1014C17.3957 7.10522 17.7597 7.4374 17.7597 8.08268C17.7674 11.234 17.7635 14.3878 17.7635 17.665Z" fill="#D7B962"/>
</svg>
