<svg width="122" height="38" viewBox="0 0 122 38" fill="none" xmlns="http://www.w3.org/2000/svg">
<rect x="0.5" y="0.5" width="121" height="37" rx="5.5" fill="#8A0B00" fill-opacity="0.11"/>
<rect x="0.5" y="0.5" width="121" height="37" rx="5.5" fill="url(#paint0_linear_587_3249)"/>
<rect x="0.5" y="0.5" width="121" height="37" rx="5.5" stroke="#D7B962"/>
<path d="M11.5039 24.25H26.5039V25.75H11.5039V24.25ZM11.5039 13.75L15.2539 16.375L19.0039 11.5L22.7539 16.375L26.5039 13.75V22.75H11.5039V13.75ZM13.0039 16.631V21.25H25.0039V16.631L22.4393 18.4262L19.0039 13.9602L15.5685 18.4262L13.0039 16.631Z" fill="white"/>
<path d="M43.284 14.576V23H41.232V17.948L39.348 23H37.692L35.796 17.936V23H33.744V14.576H36.168L38.532 20.408L40.872 14.576H43.284ZM51.0716 19.544C51.0716 19.736 51.0596 19.936 51.0356 20.144H46.3916C46.4236 20.56 46.5556 20.88 46.7876 21.104C47.0276 21.32 47.3196 21.428 47.6636 21.428C48.1756 21.428 48.5316 21.212 48.7316 20.78H50.9156C50.8036 21.22 50.5996 21.616 50.3036 21.968C50.0156 22.32 49.6516 22.596 49.2116 22.796C48.7716 22.996 48.2796 23.096 47.7356 23.096C47.0796 23.096 46.4956 22.956 45.9836 22.676C45.4716 22.396 45.0716 21.996 44.7836 21.476C44.4956 20.956 44.3516 20.348 44.3516 19.652C44.3516 18.956 44.4916 18.348 44.7716 17.828C45.0596 17.308 45.4596 16.908 45.9716 16.628C46.4836 16.348 47.0716 16.208 47.7356 16.208C48.3836 16.208 48.9596 16.344 49.4636 16.616C49.9676 16.888 50.3596 17.276 50.6396 17.78C50.9276 18.284 51.0716 18.872 51.0716 19.544ZM48.9716 19.004C48.9716 18.652 48.8516 18.372 48.6116 18.164C48.3716 17.956 48.0716 17.852 47.7116 17.852C47.3676 17.852 47.0756 17.952 46.8356 18.152C46.6036 18.352 46.4596 18.636 46.4036 19.004H48.9716ZM60.6982 16.232C61.5302 16.232 62.1902 16.484 62.6782 16.988C63.1742 17.492 63.4222 18.192 63.4222 19.088V23H61.3822V19.364C61.3822 18.932 61.2662 18.6 61.0342 18.368C60.8102 18.128 60.4982 18.008 60.0982 18.008C59.6982 18.008 59.3822 18.128 59.1502 18.368C58.9262 18.6 58.8142 18.932 58.8142 19.364V23H56.7742V19.364C56.7742 18.932 56.6582 18.6 56.4262 18.368C56.2022 18.128 55.8902 18.008 55.4902 18.008C55.0902 18.008 54.7742 18.128 54.5422 18.368C54.3182 18.6 54.2062 18.932 54.2062 19.364V23H52.1542V16.304H54.2062V17.144C54.4142 16.864 54.6862 16.644 55.0222 16.484C55.3582 16.316 55.7382 16.232 56.1622 16.232C56.6662 16.232 57.1142 16.34 57.5062 16.556C57.9062 16.772 58.2182 17.08 58.4422 17.48C58.6742 17.112 58.9902 16.812 59.3902 16.58C59.7902 16.348 60.2262 16.232 60.6982 16.232ZM66.9093 17.252C67.1013 16.94 67.3773 16.688 67.7373 16.496C68.0973 16.304 68.5093 16.208 68.9733 16.208C69.5253 16.208 70.0253 16.348 70.4733 16.628C70.9213 16.908 71.2733 17.308 71.5293 17.828C71.7933 18.348 71.9253 18.952 71.9253 19.64C71.9253 20.328 71.7933 20.936 71.5293 21.464C71.2733 21.984 70.9213 22.388 70.4733 22.676C70.0253 22.956 69.5253 23.096 68.9733 23.096C68.5013 23.096 68.0893 23.004 67.7373 22.82C67.3853 22.628 67.1093 22.376 66.9093 22.064V23H64.8573V14.12H66.9093V17.252ZM69.8373 19.64C69.8373 19.128 69.6933 18.728 69.4053 18.44C69.1253 18.144 68.7773 17.996 68.3613 17.996C67.9533 17.996 67.6053 18.144 67.3173 18.44C67.0373 18.736 66.8973 19.14 66.8973 19.652C66.8973 20.164 67.0373 20.568 67.3173 20.864C67.6053 21.16 67.9533 21.308 68.3613 21.308C68.7693 21.308 69.1173 21.16 69.4053 20.864C69.6933 20.56 69.8373 20.152 69.8373 19.64ZM79.3138 19.544C79.3138 19.736 79.3018 19.936 79.2778 20.144H74.6338C74.6658 20.56 74.7978 20.88 75.0298 21.104C75.2698 21.32 75.5618 21.428 75.9058 21.428C76.4178 21.428 76.7738 21.212 76.9738 20.78H79.1578C79.0458 21.22 78.8418 21.616 78.5458 21.968C78.2578 22.32 77.8938 22.596 77.4538 22.796C77.0138 22.996 76.5218 23.096 75.9778 23.096C75.3218 23.096 74.7378 22.956 74.2258 22.676C73.7138 22.396 73.3138 21.996 73.0258 21.476C72.7378 20.956 72.5938 20.348 72.5938 19.652C72.5938 18.956 72.7338 18.348 73.0138 17.828C73.3018 17.308 73.7018 16.908 74.2138 16.628C74.7258 16.348 75.3138 16.208 75.9778 16.208C76.6258 16.208 77.2018 16.344 77.7058 16.616C78.2098 16.888 78.6018 17.276 78.8818 17.78C79.1698 18.284 79.3138 18.872 79.3138 19.544ZM77.2138 19.004C77.2138 18.652 77.0938 18.372 76.8538 18.164C76.6138 17.956 76.3138 17.852 75.9538 17.852C75.6098 17.852 75.3178 17.952 75.0778 18.152C74.8458 18.352 74.7018 18.636 74.6458 19.004H77.2138ZM82.4483 17.42C82.6883 17.052 82.9883 16.764 83.3483 16.556C83.7083 16.34 84.1083 16.232 84.5483 16.232V18.404H83.9843C83.4723 18.404 83.0883 18.516 82.8323 18.74C82.5763 18.956 82.4483 19.34 82.4483 19.892V23H80.3963V16.304H82.4483V17.42ZM88.2532 23.096C87.6692 23.096 87.1492 22.996 86.6932 22.796C86.2372 22.596 85.8772 22.324 85.6132 21.98C85.3492 21.628 85.2012 21.236 85.1692 20.804H87.1972C87.2212 21.036 87.3292 21.224 87.5212 21.368C87.7132 21.512 87.9492 21.584 88.2292 21.584C88.4852 21.584 88.6812 21.536 88.8172 21.44C88.9612 21.336 89.0332 21.204 89.0332 21.044C89.0332 20.852 88.9332 20.712 88.7332 20.624C88.5332 20.528 88.2092 20.424 87.7612 20.312C87.2812 20.2 86.8812 20.084 86.5612 19.964C86.2412 19.836 85.9652 19.64 85.7332 19.376C85.5012 19.104 85.3852 18.74 85.3852 18.284C85.3852 17.9 85.4892 17.552 85.6972 17.24C85.9132 16.92 86.2252 16.668 86.6332 16.484C87.0492 16.3 87.5412 16.208 88.1092 16.208C88.9492 16.208 89.6092 16.416 90.0892 16.832C90.5772 17.248 90.8572 17.8 90.9292 18.488H89.0332C89.0012 18.256 88.8972 18.072 88.7212 17.936C88.5532 17.8 88.3292 17.732 88.0492 17.732C87.8092 17.732 87.6252 17.78 87.4972 17.876C87.3692 17.964 87.3052 18.088 87.3052 18.248C87.3052 18.44 87.4052 18.584 87.6052 18.68C87.8132 18.776 88.1332 18.872 88.5652 18.968C89.0612 19.096 89.4652 19.224 89.7772 19.352C90.0892 19.472 90.3612 19.672 90.5932 19.952C90.8332 20.224 90.9572 20.592 90.9652 21.056C90.9652 21.448 90.8532 21.8 90.6292 22.112C90.4132 22.416 90.0972 22.656 89.6812 22.832C89.2732 23.008 88.7972 23.096 88.2532 23.096ZM96.3366 16.232C97.1046 16.232 97.7206 16.488 98.1846 17C98.6486 17.504 98.8806 18.2 98.8806 19.088V23H96.8406V19.364C96.8406 18.916 96.7246 18.568 96.4926 18.32C96.2606 18.072 95.9486 17.948 95.5566 17.948C95.1646 17.948 94.8526 18.072 94.6206 18.32C94.3886 18.568 94.2726 18.916 94.2726 19.364V23H92.2206V14.12H94.2726V17.204C94.4806 16.908 94.7646 16.672 95.1246 16.496C95.4846 16.32 95.8886 16.232 96.3366 16.232ZM101.339 15.608C100.979 15.608 100.683 15.504 100.451 15.296C100.227 15.08 100.115 14.816 100.115 14.504C100.115 14.184 100.227 13.92 100.451 13.712C100.683 13.496 100.979 13.388 101.339 13.388C101.691 13.388 101.979 13.496 102.203 13.712C102.435 13.92 102.551 14.184 102.551 14.504C102.551 14.816 102.435 15.08 102.203 15.296C101.979 15.504 101.691 15.608 101.339 15.608ZM102.359 16.304V23H100.307V16.304H102.359ZM105.898 17.252C106.098 16.94 106.374 16.688 106.726 16.496C107.078 16.304 107.49 16.208 107.962 16.208C108.514 16.208 109.014 16.348 109.462 16.628C109.91 16.908 110.262 17.308 110.518 17.828C110.782 18.348 110.914 18.952 110.914 19.64C110.914 20.328 110.782 20.936 110.518 21.464C110.262 21.984 109.91 22.388 109.462 22.676C109.014 22.956 108.514 23.096 107.962 23.096C107.498 23.096 107.086 23 106.726 22.808C106.374 22.616 106.098 22.368 105.898 22.064V26.192H103.846V16.304H105.898V17.252ZM108.826 19.64C108.826 19.128 108.682 18.728 108.394 18.44C108.114 18.144 107.766 17.996 107.35 17.996C106.942 17.996 106.594 18.144 106.306 18.44C106.026 18.736 105.886 19.14 105.886 19.652C105.886 20.164 106.026 20.568 106.306 20.864C106.594 21.16 106.942 21.308 107.35 21.308C107.758 21.308 108.106 21.16 108.394 20.864C108.682 20.56 108.826 20.152 108.826 19.64Z" fill="white"/>
<defs>
<linearGradient id="paint0_linear_587_3249" x1="9.738" y1="7.125" x2="112.145" y2="32.6569" gradientUnits="userSpaceOnUse">
<stop stop-color="#8B0F00" stop-opacity="0.67"/>
<stop offset="1" stop-color="#F2BA15" stop-opacity="0.69"/>
</linearGradient>
</defs>
</svg>
