<svg width="16" height="16" viewBox="0 0 16 16" fill="none" xmlns="http://www.w3.org/2000/svg">
<path d="M0.292786 0.292959C0.480314 0.105488 0.734622 0.000172654 0.999786 0.000172654C1.26495 0.000172654 1.51926 0.105488 1.70679 0.292959L7.99979 6.58596L14.2928 0.292959C14.385 0.197449 14.4954 0.121267 14.6174 0.0688577C14.7394 0.0164487 14.8706 -0.0111375 15.0034 -0.0122913C15.1362 -0.0134452 15.2678 0.0118565 15.3907 0.0621374C15.5136 0.112418 15.6253 0.186671 15.7192 0.280564C15.8131 0.374457 15.8873 0.486109 15.9376 0.609005C15.9879 0.731901 16.0132 0.863581 16.012 0.99636C16.0109 1.12914 15.9833 1.26036 15.9309 1.38236C15.8785 1.50437 15.8023 1.61471 15.7068 1.70696L9.41379 7.99996L15.7068 14.293C15.8889 14.4816 15.9897 14.7342 15.9875 14.9964C15.9852 15.2586 15.88 15.5094 15.6946 15.6948C15.5092 15.8802 15.2584 15.9854 14.9962 15.9876C14.734 15.9899 14.4814 15.8891 14.2928 15.707L7.99979 9.41396L1.70679 15.707C1.51818 15.8891 1.26558 15.9899 1.00339 15.9876C0.741189 15.9854 0.490376 15.8802 0.304968 15.6948C0.11956 15.5094 0.0143908 15.2586 0.0121124 14.9964C0.00983399 14.7342 0.110628 14.4816 0.292786 14.293L6.58579 7.99996L0.292786 1.70696C0.105315 1.51943 0 1.26512 0 0.999959C0 0.734795 0.105315 0.480487 0.292786 0.292959Z" fill="white"/>
</svg>
