<svg width="21" height="20" viewBox="0 0 21 20" fill="none" xmlns="http://www.w3.org/2000/svg">
<path d="M13.8346 16.667V3.33366H3.83464V15.8337C3.83464 16.2939 4.20774 16.667 4.66797 16.667H13.8346ZM16.3346 18.3337H4.66797C3.28726 18.3337 2.16797 17.2144 2.16797 15.8337V2.50033C2.16797 2.04009 2.54107 1.66699 3.0013 1.66699H14.668C15.1282 1.66699 15.5013 2.04009 15.5013 2.50033V8.33366H18.8346V15.8337C18.8346 17.2144 17.7154 18.3337 16.3346 18.3337ZM15.5013 10.0003V15.8337C15.5013 16.2939 15.8744 16.667 16.3346 16.667C16.7949 16.667 17.168 16.2939 17.168 15.8337V10.0003H15.5013ZM5.5013 5.00033H10.5013V10.0003H5.5013V5.00033ZM7.16797 6.66699V8.33366H8.83464V6.66699H7.16797ZM5.5013 10.8337H12.168V12.5003H5.5013V10.8337ZM5.5013 13.3337H12.168V15.0003H5.5013V13.3337Z" fill="#5B0400"/>
</svg>
