<svg width="18" height="18" viewBox="0 0 18 18" fill="none" xmlns="http://www.w3.org/2000/svg">
<g clip-path="url(#clip0_204_81)">
<path d="M0 0.9934C0 0.44476 0.44495 0 0.9934 0H17.0066C17.5552 0 18 0.44495 18 0.9934V17.0066C18 17.5552 17.5551 18 17.0066 18H0.9934C0.44476 18 0 17.5551 0 17.0066V0.9934ZM2 2V16H16V2H2ZM7.6219 5.41459L12.5008 8.6672C12.6846 8.7897 12.7343 9.0381 12.6117 9.2219C12.5824 9.2658 12.5447 9.3035 12.5008 9.3328L7.6219 12.5854C7.4381 12.708 7.1897 12.6583 7.0672 12.4745C7.0234 12.4088 7 12.3316 7 12.2526V5.74741C7 5.52649 7.1791 5.34741 7.4 5.34741C7.479 5.34741 7.5562 5.37078 7.6219 5.41459Z" fill="white"/>
</g>
<defs>
<clipPath id="clip0_204_81">
<rect width="18" height="18" fill="white"/>
</clipPath>
</defs>
</svg>
