<svg width="28" height="28" viewBox="0 0 28 28" fill="none" xmlns="http://www.w3.org/2000/svg">
<g clip-path="url(#clip0_400_5653)">
<path d="M5.83333 12.9506L8.16667 10.6172L14.5833 17.0339L18.6667 12.9506L22.1667 16.4506V5.83333H5.83333V12.9506ZM5.83333 16.2504V22.1667H9.45058L12.9334 18.6838L8.16667 13.917L5.83333 16.2504ZM12.7504 22.1667H22.1667V19.7504L18.6667 16.2504L12.7504 22.1667ZM4.66667 3.5H23.3333C23.9777 3.5 24.5 4.02234 24.5 4.66667V23.3333C24.5 23.9777 23.9777 24.5 23.3333 24.5H4.66667C4.02234 24.5 3.5 23.9777 3.5 23.3333V4.66667C3.5 4.02234 4.02234 3.5 4.66667 3.5ZM18.0833 11.6667C17.1169 11.6667 16.3333 10.8832 16.3333 9.91667C16.3333 8.95016 17.1169 8.16667 18.0833 8.16667C19.0498 8.16667 19.8333 8.95016 19.8333 9.91667C19.8333 10.8832 19.0498 11.6667 18.0833 11.6667Z" fill="white"/>
</g>
<defs>
<clipPath id="clip0_400_5653">
<rect width="28" height="28" fill="white"/>
</clipPath>
</defs>
</svg>
