<svg width="120" height="32" viewBox="0 0 120 32" fill="none" xmlns="http://www.w3.org/2000/svg">
<rect x="0.5" y="0.5" width="118.842" height="31" rx="4.5" stroke="#6C757D"/>
<path d="M29.4418 19.5652C29.4418 19.9055 29.1613 20.1842 28.8184 20.1842H15.6225C15.2796 20.1842 14.999 19.9055 14.999 19.5652V6.61899C14.999 6.27871 15.2796 6 15.6225 6H28.8187C29.1616 6 29.4422 6.27871 29.4422 6.61899V19.5652H29.4418Z" fill="#0C9D58"/>
<path opacity="0.2" d="M29.4431 9.32409L24.4971 8.6875L29.4431 10.0144V9.32409Z" fill="#004D40"/>
<path opacity="0.2" d="M22.4592 6.67505L14.9697 10.0193L23.2472 7.00637V6.99817C23.1017 6.68624 22.7473 6.54073 22.4592 6.67505Z" fill="#004D40"/>
<path opacity="0.2" d="M28.8187 6H15.6225C15.2796 6 14.999 6.27871 14.999 6.61899V6.75779C14.999 6.41751 15.2796 6.1388 15.6225 6.1388H28.8187C29.1616 6.1388 29.4422 6.41751 29.4422 6.75779V6.61899C29.4418 6.27871 29.1616 6 28.8187 6Z" fill="white"/>
<path d="M18.2017 19.1643C18.1126 19.4967 18.2905 19.8359 18.5972 19.9179L30.8196 23.2051C31.1263 23.2871 31.4502 23.0823 31.539 22.7499L34.4183 12.0042C34.5075 11.6718 34.3295 11.3326 34.0228 11.2505L21.8004 7.96342C21.4937 7.88134 21.1698 8.08618 21.081 8.41862L18.2017 19.1643Z" fill="#EA4335"/>
<path opacity="0.2" d="M31.6641 15.8438L32.307 19.7495L31.6641 22.1499V15.8438Z" fill="#3E2723"/>
<path opacity="0.2" d="M24.5547 8.85156L25.1308 9.00642L25.4883 11.4169L24.5547 8.85156Z" fill="#3E2723"/>
<path opacity="0.2" d="M34.0238 11.2505L21.8014 7.96342C21.4947 7.88134 21.1708 8.08618 21.082 8.41862L18.2027 19.1643C18.1978 19.1822 18.1967 19.2004 18.1934 19.2184L21.051 8.55406C21.1402 8.22162 21.4641 8.01678 21.7704 8.09886L33.9928 11.386C34.2827 11.4636 34.4547 11.7714 34.3976 12.0859L34.4196 12.0042C34.5084 11.6718 34.3305 11.3326 34.0238 11.2505Z" fill="white"/>
<path d="M27.8274 17.8454C27.9449 18.1689 27.7972 18.5222 27.4991 18.6308L14.6017 23.3249C14.3032 23.4335 13.9629 23.2578 13.8454 22.9343L10.0404 12.4804C9.92287 12.1569 10.0706 11.8036 10.3687 11.695L23.2661 7.00087C23.5646 6.8923 23.9049 7.06803 24.0224 7.39152L27.8274 17.8454Z" fill="#FFC107"/>
<path opacity="0.2" d="M10.0895 12.6125C9.97195 12.289 10.1197 11.9357 10.4178 11.8271L23.3152 7.13258C23.6103 7.02512 23.9458 7.19638 24.067 7.51315L24.0226 7.39152C23.9047 7.06803 23.5644 6.8923 23.2663 7.00087L10.3689 11.6954C10.0705 11.8039 9.9227 12.1573 10.0406 12.4808L13.8456 22.9346C13.8467 22.938 13.849 22.941 13.8505 22.9447L10.0895 12.6125Z" fill="white"/>
<path d="M31.6643 25.3785C31.6643 25.7222 31.383 26.0035 31.0393 26.0035H13.4023C13.0587 26.0035 12.7773 25.7222 12.7773 25.3785V12.0468C12.7773 11.7032 13.0587 11.4219 13.4023 11.4219H31.0393C31.383 11.4219 31.6643 11.7032 31.6643 12.0468V25.3785Z" fill="#4285F4"/>
<path d="M28.2973 16.6935H23.0195V15.3047H28.2973C28.4507 15.3047 28.5749 15.4289 28.5749 15.5823V16.4155C28.5749 16.5689 28.4507 16.6935 28.2973 16.6935ZM28.2973 21.9709H23.0195V20.5821H28.2973C28.4507 20.5821 28.5749 20.7063 28.5749 20.8597V21.6929C28.5749 21.8467 28.4507 21.9709 28.2973 21.9709ZM29.1305 19.3321H23.0195V17.9432H29.1305C29.2839 17.9432 29.4082 18.0675 29.4082 18.2208V19.0541C29.4082 19.2078 29.2839 19.3321 29.1305 19.3321Z" fill="white"/>
<path opacity="0.2" d="M31.0393 25.8593H13.4023C13.0587 25.8593 12.7773 25.578 12.7773 25.2344V25.3732C12.7773 25.7168 13.0587 25.9981 13.4023 25.9981H31.0393C31.383 25.9981 31.6643 25.7168 31.6643 25.3732V25.2344C31.6643 25.578 31.383 25.8593 31.0393 25.8593Z" fill="#1A237E"/>
<path opacity="0.2" d="M13.4023 11.5607H31.0393C31.383 11.5607 31.6643 11.842 31.6643 12.1856V12.0468C31.6643 11.7032 31.383 11.4219 31.0393 11.4219H13.4023C13.0587 11.4219 12.7773 11.7032 12.7773 12.0468V12.1856C12.7773 11.842 13.0587 11.5607 13.4023 11.5607Z" fill="white"/>
<path d="M18.2976 18.0824V19.335H20.095C19.9465 20.0981 19.2756 20.6515 18.2976 20.6515C17.2065 20.6515 16.3217 19.7287 16.3217 18.6376C16.3217 17.5465 17.2065 16.6238 18.2976 16.6238C18.789 16.6238 19.2289 16.7928 19.5763 17.1238V17.1245L20.5275 16.1734C19.9498 15.6349 19.1965 15.3047 18.2972 15.3047C16.4565 15.3047 14.9639 16.7969 14.9639 18.638C14.9639 20.4791 16.4561 21.9713 18.2972 21.9713C20.2222 21.9713 21.4887 20.6179 21.4887 18.7137C21.4887 18.4955 21.4685 18.285 21.4361 18.0824H18.2976Z" fill="white"/>
<g opacity="0.2">
<path d="M18.333 19.3359V19.4747H20.0969C20.1099 19.4292 20.1211 19.383 20.1305 19.3359H18.333Z" fill="#1A237E"/>
<path d="M18.3333 21.9717C16.5157 21.9717 15.0388 20.5168 15.0019 18.7078C15.0015 18.7309 15 18.754 15 18.7772C15 20.6183 16.4922 22.1105 18.3333 22.1105C20.2584 22.1105 21.5248 20.7571 21.5248 18.8529C21.5248 18.8376 21.523 18.8234 21.523 18.8081C21.4815 20.6627 20.2267 21.9717 18.3333 21.9717ZM19.6121 17.1245C19.2647 16.7939 18.8244 16.6245 18.3333 16.6245C17.2422 16.6245 16.3575 17.5473 16.3575 18.6383C16.3575 18.6619 16.3601 18.6846 16.3609 18.7078C16.3978 17.6473 17.2654 16.7633 18.3333 16.7633C18.8247 16.7633 19.2647 16.9323 19.6121 17.2633V17.264L20.6326 16.2435C20.6088 16.2211 20.5823 16.2013 20.5576 16.1797L19.6125 17.1252L19.6121 17.1245Z" fill="#1A237E"/>
</g>
<path opacity="0.2" d="M28.5749 16.5607V16.4219C28.5749 16.5752 28.4507 16.6995 28.2973 16.6995H23.0195V16.8383H28.2973C28.4507 16.8387 28.5749 16.7144 28.5749 16.5607ZM28.2973 21.9773H23.0195V22.1161H28.2973C28.4507 22.1161 28.5749 21.9918 28.5749 21.8385V21.6997C28.5749 21.853 28.4507 21.9773 28.2973 21.9773ZM29.1305 19.3384H23.0195V19.4772H29.1305C29.2839 19.4772 29.4082 19.3529 29.4082 19.1996V19.0608C29.4082 19.2141 29.2839 19.3384 29.1305 19.3384Z" fill="#1A237E"/>
<path d="M34.0231 11.2538L29.4424 10.0218V6.61899C29.4424 6.27871 29.1619 6 28.819 6H15.6227C15.2798 6 14.9993 6.27871 14.9993 6.61899V10.0083L10.3689 11.6937C10.0705 11.8023 9.9227 12.1556 10.0406 12.4791L12.7774 19.9988V25.3727C12.7774 25.7164 13.0587 25.9977 13.4023 25.9977H31.0394C31.383 25.9977 31.6643 25.7164 31.6643 25.3727V22.2875L34.419 12.0075C34.5078 11.675 34.3298 11.3359 34.0231 11.2538Z" fill="url(#paint0_radial_7526_32574)"/>
<path d="M47.3894 11.033H45.6744V13H44.9534V8.282H47.6274V8.884H45.6744V10.431H47.3894V11.033ZM51.9754 8.856C52.3627 9.29467 52.5564 9.88267 52.5564 10.62C52.5564 11.3573 52.3604 11.9477 51.9684 12.391C51.581 12.8343 51.056 13.056 50.3934 13.056C49.7354 13.056 49.208 12.8343 48.8114 12.391C48.4194 11.9477 48.2234 11.3573 48.2234 10.62C48.2234 9.88733 48.4194 9.29933 48.8114 8.856C49.2034 8.41267 49.7284 8.191 50.3864 8.191C51.0584 8.191 51.588 8.41267 51.9754 8.856ZM49.3504 9.339C49.103 9.65167 48.9794 10.0787 48.9794 10.62C48.9794 11.1613 49.1077 11.5907 49.3644 11.908C49.621 12.2253 49.964 12.384 50.3934 12.384C50.8367 12.384 51.182 12.2277 51.4294 11.915C51.6767 11.6023 51.8004 11.1707 51.8004 10.62C51.8004 10.074 51.6744 9.64467 51.4224 9.332C51.175 9.01933 50.8297 8.863 50.3864 8.863C49.9477 8.863 49.6024 9.02167 49.3504 9.339ZM56.0419 13H53.3889V8.282H54.1099V12.363H56.0419V13ZM59.4052 13H56.7522V8.282H57.4732V12.363H59.4052V13ZM63.6785 8.856C64.0658 9.29467 64.2595 9.88267 64.2595 10.62C64.2595 11.3573 64.0635 11.9477 63.6715 12.391C63.2842 12.8343 62.7592 13.056 62.0965 13.056C61.4385 13.056 60.9112 12.8343 60.5145 12.391C60.1225 11.9477 59.9265 11.3573 59.9265 10.62C59.9265 9.88733 60.1225 9.29933 60.5145 8.856C60.9065 8.41267 61.4315 8.191 62.0895 8.191C62.7615 8.191 63.2912 8.41267 63.6785 8.856ZM61.0535 9.339C60.8062 9.65167 60.6825 10.0787 60.6825 10.62C60.6825 11.1613 60.8108 11.5907 61.0675 11.908C61.3242 12.2253 61.6672 12.384 62.0965 12.384C62.5398 12.384 62.8852 12.2277 63.1325 11.915C63.3798 11.6023 63.5035 11.1707 63.5035 10.62C63.5035 10.074 63.3775 9.64467 63.1255 9.332C62.8782 9.01933 62.5328 8.863 62.0895 8.863C61.6508 8.863 61.3055 9.02167 61.0535 9.339ZM66.9051 13H66.0371L64.7981 8.282H65.5471L65.9881 10.025L66.5061 12.237C66.7161 11.453 66.9214 10.7157 67.1221 10.025L67.6051 8.352H68.2421L68.7391 10.032L69.3761 12.251C69.5487 11.4017 69.7097 10.662 69.8591 10.032L70.2721 8.282H71.0001L69.8451 13H68.9841L68.5361 11.509L67.9271 9.402C67.8197 9.84533 67.6237 10.5477 67.3391 11.509L66.9051 13ZM77.0086 8.856C77.3959 9.29467 77.5896 9.88267 77.5896 10.62C77.5896 11.3573 77.3936 11.9477 77.0016 12.391C76.6142 12.8343 76.0892 13.056 75.4266 13.056C74.7686 13.056 74.2412 12.8343 73.8446 12.391C73.4526 11.9477 73.2566 11.3573 73.2566 10.62C73.2566 9.88733 73.4526 9.29933 73.8446 8.856C74.2366 8.41267 74.7616 8.191 75.4196 8.191C76.0916 8.191 76.6212 8.41267 77.0086 8.856ZM74.3836 9.339C74.1362 9.65167 74.0126 10.0787 74.0126 10.62C74.0126 11.1613 74.1409 11.5907 74.3976 11.908C74.6542 12.2253 74.9972 12.384 75.4266 12.384C75.8699 12.384 76.2152 12.2277 76.4626 11.915C76.7099 11.6023 76.8336 11.1707 76.8336 10.62C76.8336 10.074 76.7076 9.64467 76.4556 9.332C76.2082 9.01933 75.8629 8.863 75.4196 8.863C74.9809 8.863 74.6356 9.02167 74.3836 9.339ZM79.1431 13H78.4221V8.282H79.2761L80.4381 10.256C80.6528 10.6247 80.8465 10.9653 81.0191 11.278C81.1965 11.5907 81.3178 11.81 81.3831 11.936L81.4811 12.132C81.4531 11.7073 81.4391 11.0843 81.4391 10.263V8.282H82.1601V13H81.3061L80.1371 11.033C79.9271 10.6783 79.7335 10.3447 79.5561 10.032C79.3835 9.71467 79.2621 9.486 79.1921 9.346L79.0871 9.143C79.1245 9.60967 79.1431 10.2373 79.1431 11.026V13Z" fill="#6C757D"/>
<g clip-path="url(#clip0_7526_32574)">
<path d="M49.0265 15.1953H49.3385C50.4425 15.2193 51.5225 15.6633 52.2905 16.4433L51.4265 17.3073C50.9945 16.9113 50.4665 16.6113 49.8905 16.5033C49.0385 16.3233 48.1265 16.4913 47.4185 16.9713C46.6385 17.4753 46.1225 18.3393 46.0025 19.2513C45.8825 20.1633 46.1345 21.1113 46.7225 21.8193C47.2865 22.5033 48.1505 22.9353 49.0505 22.9593C49.8905 23.0073 50.7545 22.7553 51.3665 22.1673C51.8465 21.7593 52.0625 21.1353 52.1345 20.5233H49.1585V19.2993H53.3225C53.5385 20.6193 53.2265 22.1073 52.2305 23.0433C51.5585 23.7153 50.6345 24.0993 49.6985 24.1833C48.7865 24.2673 47.8385 24.0993 47.0345 23.6553C46.0745 23.1393 45.3065 22.2633 44.9225 21.2313C44.5625 20.2833 44.5625 19.2153 44.8985 18.2553C45.1985 17.3793 45.7865 16.6113 46.5305 16.0833C47.2505 15.5433 48.1265 15.2553 49.0265 15.1953Z" fill="#3780FF"/>
<path d="M72.9541 15.5078H74.2261V24.0278H72.9541V15.5078Z" fill="#38B137"/>
<path d="M56.1903 18.4578C56.9823 18.3138 57.8343 18.4698 58.4823 18.9498C59.0703 19.3698 59.4903 20.0178 59.6103 20.7378C59.7663 21.5658 59.5743 22.4778 59.0343 23.1258C58.4583 23.8578 57.5103 24.2538 56.5863 24.1938C55.7343 24.1578 54.9063 23.7258 54.4023 23.0418C53.8383 22.2738 53.6943 21.2298 54.0063 20.3298C54.3303 19.3698 55.2063 18.6378 56.1903 18.4578ZM56.3703 19.5978C56.0463 19.6818 55.7463 19.8618 55.5303 20.1258C54.9543 20.8218 54.9903 21.9498 55.6263 22.5858C55.9863 22.9578 56.5383 23.1258 57.0423 23.0298C57.5103 22.9458 57.9303 22.6338 58.1463 22.2138C58.5423 21.5058 58.4223 20.5218 57.8223 19.9698C57.4503 19.6098 56.8863 19.4658 56.3703 19.5978Z" fill="#FA3913"/>
<path d="M62.5139 18.4582C63.4139 18.2902 64.3979 18.5302 65.0699 19.1662C66.1619 20.1502 66.2819 21.9982 65.3459 23.1262C64.7819 23.8462 63.8579 24.2302 62.9579 24.1942C62.0939 24.1702 61.2419 23.7382 60.7259 23.0302C60.1499 22.2502 60.0179 21.1702 60.3539 20.2582C60.6779 19.3342 61.5419 18.6262 62.5139 18.4582ZM62.6939 19.5982C62.3699 19.6822 62.0699 19.8622 61.8539 20.1262C61.2779 20.8102 61.3019 21.9142 61.9139 22.5622C62.2739 22.9462 62.8499 23.1382 63.3659 23.0302C63.8339 22.9462 64.2539 22.6342 64.4699 22.2142C64.8539 21.4942 64.7459 20.5222 64.1339 19.9702C63.7619 19.6102 63.1979 19.4662 62.6939 19.5982Z" fill="#FCBD06"/>
<path d="M67.878 18.8003C68.562 18.3683 69.474 18.2483 70.218 18.6203C70.446 18.7163 70.638 18.8963 70.83 19.0643V18.5723H72.03V23.8283C72.03 24.6203 71.826 25.4603 71.25 26.0363C70.626 26.6723 69.666 26.8763 68.802 26.7443C67.878 26.6123 67.074 25.9283 66.714 25.0763C67.074 24.9083 67.446 24.7643 67.818 24.6083C68.022 25.1003 68.454 25.5203 68.982 25.6163C69.51 25.7123 70.122 25.5803 70.47 25.1363C70.842 24.6803 70.842 24.0683 70.818 23.5043C70.542 23.7683 70.23 24.0083 69.846 24.1043C69.018 24.3323 68.106 24.0563 67.47 23.4923C66.822 22.9283 66.438 22.0643 66.474 21.2123C66.498 20.2403 67.05 19.3043 67.878 18.8003ZM69.114 19.5683C68.754 19.6283 68.406 19.8323 68.178 20.1083C67.614 20.7803 67.614 21.8483 68.178 22.4963C68.502 22.8803 69.018 23.0963 69.522 23.0483C69.99 23.0003 70.434 22.7003 70.662 22.2923C71.058 21.5963 70.986 20.6483 70.458 20.0363C70.134 19.6643 69.606 19.4723 69.114 19.5683Z" fill="#3780FF"/>
<path d="M75.7627 19.1159C76.4827 18.4439 77.5867 18.2159 78.4987 18.5759C79.3747 18.8999 79.9267 19.7279 80.2027 20.5919C78.9067 21.1319 77.6227 21.6599 76.3267 22.1999C76.5067 22.5359 76.7827 22.8479 77.1547 22.9799C77.6707 23.1599 78.2947 23.0999 78.7267 22.7519C78.8947 22.6199 79.0387 22.4519 79.1707 22.2839C79.4947 22.4999 79.8307 22.7159 80.1547 22.9439C79.6867 23.6399 78.9067 24.1319 78.0667 24.2039C77.1307 24.3119 76.1467 23.9639 75.5467 23.2319C74.5507 22.0679 74.6467 20.1479 75.7627 19.1159ZM76.3987 20.2199C76.1947 20.5079 76.1107 20.8679 76.1227 21.2279L78.7147 20.1479C78.5707 19.8119 78.2227 19.6079 77.8747 19.5599C77.2987 19.4399 76.7107 19.7519 76.3987 20.2199Z" fill="#FA3913"/>
<path d="M83.4668 24.0447V16.3047H84.5108L88.5668 22.3767V16.3047H89.5508V24.0327H88.5068L84.4508 17.9607V24.0327H83.4668V24.0447ZM94.9988 22.2327L95.9828 22.3527C95.8268 22.9287 95.5388 23.3727 95.1188 23.6847C94.6988 23.9967 94.1708 24.1647 93.5108 24.1647C92.6948 24.1647 92.0468 23.9127 91.5668 23.4087C91.0868 22.9047 90.8468 22.1967 90.8468 21.2847C90.8468 20.3367 91.0868 19.6167 91.5788 19.0887C92.0588 18.5727 92.6948 18.3087 93.4628 18.3087C94.2068 18.3087 94.8188 18.5607 95.2988 19.0767C95.7788 19.5807 96.0068 20.3007 96.0068 21.2247V21.4767H91.8308C91.8668 22.0887 92.0348 22.5687 92.3588 22.8927C92.6828 23.2167 93.0668 23.3847 93.5348 23.3847C93.8828 23.3847 94.1828 23.2887 94.4228 23.1087C94.6628 22.9287 94.8548 22.6407 94.9988 22.2327ZM91.8788 20.6967H95.0108C94.9628 20.2287 94.8548 19.8687 94.6508 19.6407C94.3508 19.2807 93.9548 19.0887 93.4748 19.0887C93.0428 19.0887 92.6708 19.2327 92.3708 19.5207C92.0708 19.8207 91.9028 20.2167 91.8788 20.6967ZM98.2028 24.0447L96.4868 18.4407H97.4708L98.3588 21.6687L98.6948 22.8687C98.7068 22.8087 98.8028 22.4247 98.9828 21.7167L99.8708 18.4407H100.843L101.683 21.6927L101.959 22.7607L102.283 21.6807L103.243 18.4407H104.167L102.415 24.0447H101.431L100.543 20.6967L100.327 19.7367L99.1988 24.0447H98.2028ZM104.587 22.3647L105.523 22.2207C105.571 22.5927 105.727 22.8807 105.967 23.0847C106.207 23.2887 106.543 23.3847 106.975 23.3847C107.407 23.3847 107.731 23.3007 107.947 23.1207C108.163 22.9407 108.259 22.7367 108.259 22.4967C108.259 22.2807 108.163 22.1127 107.983 21.9927C107.851 21.9087 107.527 21.8007 107.011 21.6687C106.315 21.4887 105.835 21.3447 105.559 21.2127C105.295 21.0807 105.091 20.9127 104.947 20.6847C104.803 20.4567 104.743 20.2047 104.743 19.9287C104.743 19.6767 104.803 19.4487 104.911 19.2327C105.031 19.0167 105.175 18.8487 105.379 18.7047C105.523 18.5967 105.727 18.5007 105.979 18.4287C106.231 18.3567 106.507 18.3207 106.795 18.3207C107.239 18.3207 107.623 18.3807 107.947 18.5127C108.283 18.6447 108.523 18.8127 108.679 19.0287C108.835 19.2447 108.943 19.5327 109.003 19.8927L108.079 20.0247C108.031 19.7367 107.911 19.5087 107.707 19.3527C107.503 19.1967 107.215 19.1127 106.855 19.1127C106.423 19.1127 106.111 19.1847 105.919 19.3287C105.727 19.4727 105.643 19.6407 105.643 19.8327C105.643 19.9527 105.679 20.0607 105.763 20.1687C105.835 20.2767 105.967 20.3607 106.123 20.4207C106.219 20.4567 106.495 20.5407 106.963 20.6607C107.635 20.8407 108.103 20.9847 108.367 21.1047C108.631 21.2247 108.835 21.3807 108.991 21.6087C109.147 21.8367 109.219 22.1007 109.219 22.4247C109.219 22.7367 109.123 23.0367 108.943 23.3127C108.763 23.5887 108.487 23.8047 108.139 23.9607C107.791 24.1167 107.395 24.1887 106.963 24.1887C106.231 24.1887 105.679 24.0327 105.295 23.7327C104.935 23.4087 104.695 22.9647 104.587 22.3647Z" fill="#666A6E"/>
</g>
<defs>
<radialGradient id="paint0_radial_7526_32574" cx="0" cy="0" r="1" gradientUnits="userSpaceOnUse" gradientTransform="translate(15.5086 7.62019) scale(23.7694)">
<stop stop-color="white" stop-opacity="0.1"/>
<stop offset="1" stop-color="white" stop-opacity="0"/>
</radialGradient>
<clipPath id="clip0_7526_32574">
<rect width="65.4" height="12" fill="white" transform="translate(44.4424 15)"/>
</clipPath>
</defs>
</svg>
