<svg width="40" height="40" viewBox="0 0 40 40" fill="none" xmlns="http://www.w3.org/2000/svg">
<g id="noun-dot-grid-5100823 1" clip-path="url(#clip0_0_278)">
<path id="Vector" d="M2.85714 5.71429C4.4351 5.71429 5.71429 4.4351 5.71429 2.85714C5.71429 1.27919 4.4351 0 2.85714 0C1.27919 0 0 1.27919 0 2.85714C0 4.4351 1.27919 5.71429 2.85714 5.71429Z" fill="#998448"/>
<path id="Vector_2" d="M14.2857 5.71429C15.8637 5.71429 17.1429 4.4351 17.1429 2.85714C17.1429 1.27919 15.8637 0 14.2857 0C12.7078 0 11.4286 1.27919 11.4286 2.85714C11.4286 4.4351 12.7078 5.71429 14.2857 5.71429Z" fill="#998448"/>
<path id="Vector_3" d="M2.85714 17.1428C4.4351 17.1428 5.71429 15.8636 5.71429 14.2856C5.71429 12.7077 4.4351 11.4285 2.85714 11.4285C1.27919 11.4285 0 12.7077 0 14.2856C0 15.8636 1.27919 17.1428 2.85714 17.1428Z" fill="#998448"/>
<path id="Vector_4" d="M14.2857 17.1428C15.8637 17.1428 17.1429 15.8636 17.1429 14.2856C17.1429 12.7077 15.8637 11.4285 14.2857 11.4285C12.7078 11.4285 11.4286 12.7077 11.4286 14.2856C11.4286 15.8636 12.7078 17.1428 14.2857 17.1428Z" fill="#998448"/>
<path id="Vector_5" d="M25.7143 5.71429C27.2922 5.71429 28.5714 4.4351 28.5714 2.85714C28.5714 1.27919 27.2922 0 25.7143 0C24.1363 0 22.8571 1.27919 22.8571 2.85714C22.8571 4.4351 24.1363 5.71429 25.7143 5.71429Z" fill="#998448"/>
<path id="Vector_6" d="M25.7143 17.1428C27.2922 17.1428 28.5714 15.8636 28.5714 14.2856C28.5714 12.7077 27.2922 11.4285 25.7143 11.4285C24.1363 11.4285 22.8571 12.7077 22.8571 14.2856C22.8571 15.8636 24.1363 17.1428 25.7143 17.1428Z" fill="#998448"/>
<path id="Vector_7" d="M37.1428 5.71429C38.7208 5.71429 40 4.4351 40 2.85714C40 1.27919 38.7208 0 37.1428 0C35.5649 0 34.2857 1.27919 34.2857 2.85714C34.2857 4.4351 35.5649 5.71429 37.1428 5.71429Z" fill="#998448"/>
<path id="Vector_8" d="M37.1428 17.1428C38.7208 17.1428 40 15.8636 40 14.2856C40 12.7077 38.7208 11.4285 37.1428 11.4285C35.5649 11.4285 34.2857 12.7077 34.2857 14.2856C34.2857 15.8636 35.5649 17.1428 37.1428 17.1428Z" fill="#998448"/>
<path id="Vector_9" d="M2.85714 28.5715C4.4351 28.5715 5.71429 27.2923 5.71429 25.7143C5.71429 24.1364 4.4351 22.8572 2.85714 22.8572C1.27919 22.8572 0 24.1364 0 25.7143C0 27.2923 1.27919 28.5715 2.85714 28.5715Z" fill="#998448"/>
<path id="Vector_10" d="M14.2857 28.5715C15.8637 28.5715 17.1429 27.2923 17.1429 25.7143C17.1429 24.1364 15.8637 22.8572 14.2857 22.8572C12.7078 22.8572 11.4286 24.1364 11.4286 25.7143C11.4286 27.2923 12.7078 28.5715 14.2857 28.5715Z" fill="#998448"/>
<path id="Vector_11" d="M2.85714 39.9999C4.4351 39.9999 5.71429 38.7207 5.71429 37.1428C5.71429 35.5648 4.4351 34.2856 2.85714 34.2856C1.27919 34.2856 0 35.5648 0 37.1428C0 38.7207 1.27919 39.9999 2.85714 39.9999Z" fill="#998448"/>
<path id="Vector_12" d="M14.2857 39.9999C15.8637 39.9999 17.1429 38.7207 17.1429 37.1428C17.1429 35.5648 15.8637 34.2856 14.2857 34.2856C12.7078 34.2856 11.4286 35.5648 11.4286 37.1428C11.4286 38.7207 12.7078 39.9999 14.2857 39.9999Z" fill="#998448"/>
<path id="Vector_13" d="M25.7143 28.5715C27.2922 28.5715 28.5714 27.2923 28.5714 25.7143C28.5714 24.1364 27.2922 22.8572 25.7143 22.8572C24.1363 22.8572 22.8571 24.1364 22.8571 25.7143C22.8571 27.2923 24.1363 28.5715 25.7143 28.5715Z" fill="#998448"/>
<path id="Vector_14" d="M25.7143 39.9999C27.2922 39.9999 28.5714 38.7207 28.5714 37.1428C28.5714 35.5648 27.2922 34.2856 25.7143 34.2856C24.1363 34.2856 22.8571 35.5648 22.8571 37.1428C22.8571 38.7207 24.1363 39.9999 25.7143 39.9999Z" fill="#998448"/>
<path id="Vector_15" d="M37.1428 28.5715C38.7208 28.5715 40 27.2923 40 25.7143C40 24.1364 38.7208 22.8572 37.1428 22.8572C35.5649 22.8572 34.2857 24.1364 34.2857 25.7143C34.2857 27.2923 35.5649 28.5715 37.1428 28.5715Z" fill="#998448"/>
<path id="Vector_16" d="M37.1428 39.9999C38.7208 39.9999 40 38.7207 40 37.1428C40 35.5648 38.7208 34.2856 37.1428 34.2856C35.5649 34.2856 34.2857 35.5648 34.2857 37.1428C34.2857 38.7207 35.5649 39.9999 37.1428 39.9999Z" fill="#998448"/>
</g>
<defs>
<clipPath id="clip0_0_278">
<rect width="40" height="40" fill="white"/>
</clipPath>
</defs>
</svg>
