<svg width="28" height="28" viewBox="0 0 28 28" fill="none" xmlns="http://www.w3.org/2000/svg">
<g clip-path="url(#clip0_368_2157)">
<path d="M18.6667 4.66666C19.311 4.66666 19.8333 5.189 19.8333 5.83332V10.7333L25.9155 6.47582C26.1794 6.29107 26.5432 6.35526 26.7279 6.61919C26.7965 6.71724 26.8333 6.83402 26.8333 6.95371V21.0463C26.8333 21.3684 26.5721 21.6296 26.25 21.6296C26.1303 21.6296 26.0135 21.5928 25.9155 21.5242L19.8333 17.2667V22.1667C19.8333 22.811 19.311 23.3333 18.6667 23.3333H2.33334C1.68901 23.3333 1.16667 22.811 1.16667 22.1667V5.83332C1.16667 5.189 1.68901 4.66666 2.33334 4.66666H18.6667ZM17.5 6.99999H3.50001V21H17.5V6.99999ZM8.63334 10.3001C8.72209 10.3001 8.809 10.3254 8.88388 10.3731L13.9647 13.6062C14.1821 13.7446 14.2462 14.0331 14.1078 14.2506C14.0712 14.3081 14.0223 14.357 13.9647 14.3937L8.88388 17.6269C8.66644 17.7653 8.378 17.7012 8.23964 17.4838C8.19198 17.4089 8.16667 17.322 8.16667 17.2332V10.7668C8.16667 10.509 8.37561 10.3001 8.63334 10.3001ZM24.5 10.3149L19.8333 13.5812V14.4188L24.5 17.6851V10.3149Z" fill="#5B0400"/>
</g>
<defs>
<clipPath id="clip0_368_2157">
<rect width="28" height="28" fill="white"/>
</clipPath>
</defs>
</svg>
