<svg width="28" height="28" viewBox="0 0 28 28" fill="none" xmlns="http://www.w3.org/2000/svg">
<g clip-path="url(#clip0_368_2162)">
<path d="M14 23.3333H23.3333V25.6667H14C7.55667 25.6667 2.33333 20.4433 2.33333 14C2.33333 7.55669 7.55667 2.33334 14 2.33334C20.4433 2.33334 25.6667 7.55669 25.6667 14C25.6667 16.6264 24.7988 19.0502 23.3341 21H20.1735C22.1112 19.2898 23.3333 16.7876 23.3333 14C23.3333 8.84535 19.1547 4.66668 14 4.66668C8.84534 4.66668 4.66666 8.84535 4.66666 14C4.66666 19.1547 8.84534 23.3333 14 23.3333ZM14 11.6667C12.7113 11.6667 11.6667 10.622 11.6667 9.33334C11.6667 8.04468 12.7113 7.00001 14 7.00001C15.2887 7.00001 16.3333 8.04468 16.3333 9.33334C16.3333 10.622 15.2887 11.6667 14 11.6667ZM9.33333 16.3333C8.04466 16.3333 7 15.2887 7 14C7 12.7113 8.04466 11.6667 9.33333 11.6667C10.622 11.6667 11.6667 12.7113 11.6667 14C11.6667 15.2887 10.622 16.3333 9.33333 16.3333ZM18.6667 16.3333C17.378 16.3333 16.3333 15.2887 16.3333 14C16.3333 12.7113 17.378 11.6667 18.6667 11.6667C19.9554 11.6667 21 12.7113 21 14C21 15.2887 19.9554 16.3333 18.6667 16.3333ZM14 21C12.7113 21 11.6667 19.9554 11.6667 18.6667C11.6667 17.378 12.7113 16.3333 14 16.3333C15.2887 16.3333 16.3333 17.378 16.3333 18.6667C16.3333 19.9554 15.2887 21 14 21Z" fill="#5B0400"/>
</g>
<defs>
<clipPath id="clip0_368_2162">
<rect width="28" height="28" fill="white"/>
</clipPath>
</defs>
</svg>
