<svg width="40" height="40" viewBox="0 0 40 40" fill="none" xmlns="http://www.w3.org/2000/svg">
<g id="Group">
<path id="Vector" fill-rule="evenodd" clip-rule="evenodd" d="M4 17.8529L2.28498 19.6005C1.76921 20.1261 0.925027 20.1341 0.399447 19.6183C-0.126133 19.1025 -0.134086 18.2583 0.381687 17.7328L16.2199 1.5933C18.3047 -0.531105 21.6953 -0.531098 23.7801 1.59331L39.6183 17.7328C40.1341 18.2583 40.1261 19.1025 39.6005 19.6183C39.075 20.1341 38.2308 20.1261 37.715 19.6005L36 17.8529V34.6667C36 37.6122 33.6122 40 30.6667 40H9.33334C6.3878 40 4 37.6122 4 34.6667V17.8529ZM18.1232 3.46107C19.1627 2.40187 20.8373 2.40187 21.8768 3.46108L33.3461 15.1485C33.3377 15.2089 33.3333 15.2706 33.3333 15.3333V34.6667C33.3333 36.1394 32.1394 37.3333 30.6667 37.3333H28V25.3333C28 23.1242 26.2091 21.3333 24 21.3333H16C13.7909 21.3333 12 23.1242 12 25.3333V37.3333H9.33334C7.8606 37.3333 6.66667 36.1394 6.66667 34.6667V15.3333C6.66667 15.2706 6.66234 15.2089 6.65394 15.1485L18.1232 3.46107ZM25.3333 37.3333H14.6667V25.3333C14.6667 24.5969 15.2636 24 16 24H24C24.7364 24 25.3333 24.5969 25.3333 25.3333V37.3333Z" fill="#998448"/>
</g>
</svg>
