<svg width="24" height="24" viewBox="0 0 24 24" fill="none" xmlns="http://www.w3.org/2000/svg">
<path d="M17.4643 11.8956L16.5989 11.0301C16.3538 10.785 16.3538 10.3876 16.5989 10.1424L18.7963 7.94499C18.9093 7.83205 18.9093 7.64895 18.7963 7.53602L17.7033 6.44289C17.4581 6.19775 17.4581 5.80032 17.7033 5.55518L18.5687 4.68977C18.8138 4.44462 19.2113 4.44462 19.4564 4.68977L20.5495 5.78284C20.6624 5.89578 20.8455 5.89578 20.9584 5.78284L22.0632 4.67808C22.3083 4.43294 22.7058 4.43294 22.9509 4.67808L23.8163 5.54349C24.0615 5.78863 24.0615 6.18607 23.8163 6.43121L22.7116 7.53597C22.5986 7.64891 22.5986 7.832 22.7116 7.94494L23.8046 9.03801C24.0498 9.28315 24.0498 9.68059 23.8046 9.92573L22.9392 10.7911C22.6941 11.0363 22.2967 11.0363 22.0515 10.7911L20.9584 9.69807C20.8455 9.58513 20.6624 9.58513 20.5495 9.69807L18.352 11.8955C18.1069 12.1407 17.7094 12.1407 17.4643 11.8956Z" fill="#F38BDF"/>
<path d="M20.9582 8.24942L22.0513 9.34249C22.2964 9.58764 22.6939 9.58764 22.939 9.34249L23.5239 8.75757L23.8044 9.03806C24.0496 9.2832 24.0496 9.68063 23.8044 9.92578L22.939 10.7912C22.6939 11.0363 22.2964 11.0363 22.0513 10.7912L20.9582 9.69811C20.8453 9.58517 20.6622 9.58517 20.5492 9.69811L18.3518 11.8956C18.1067 12.1407 17.7092 12.1407 17.4641 11.8956L17.1836 11.6151L20.5492 8.24942C20.6622 8.13643 20.8453 8.13643 20.9582 8.24942Z" fill="#EAACDE"/>
<path d="M7.40129 12.7429L6.53588 11.8775C6.29074 11.6323 5.8933 11.6323 5.64816 11.8775L3.45072 14.0749C3.33778 14.1878 3.15468 14.1878 3.04174 14.0749L1.94862 12.9818C1.70348 12.7367 1.30605 12.7367 1.0609 12.9818L0.195542 13.8472C-0.0496006 14.0924 -0.0496006 14.4898 0.195542 14.735L1.28861 15.828C1.40155 15.941 1.40155 16.1241 1.28861 16.237L0.183857 17.3418C-0.0612856 17.5869 -0.0612856 17.9843 0.183857 18.2295L1.04927 19.0949C1.29441 19.34 1.69184 19.34 1.93698 19.0949L3.04174 17.9901C3.15468 17.8772 3.33778 17.8772 3.45072 17.9901L4.54379 19.0832C4.78893 19.3283 5.18636 19.3283 5.43151 19.0832L6.29692 18.2178C6.54206 17.9726 6.54206 17.5752 6.29692 17.3301L5.20384 16.237C5.0909 16.1241 5.0909 15.941 5.20384 15.828L7.40129 13.6306C7.64643 13.3854 7.64643 12.988 7.40129 12.7429Z" fill="#B8EC7D"/>
<path d="M3.7556 16.237L4.84868 17.3301C5.09382 17.5752 5.09382 17.9726 4.84868 18.2178L4.26375 18.8027L4.54424 19.0832C4.78938 19.3283 5.18681 19.3283 5.43196 19.0832L6.29737 18.2178C6.54251 17.9726 6.54251 17.5752 6.29737 17.3301L5.20429 16.237C5.09136 16.124 5.09136 15.941 5.20429 15.828L7.40174 13.6306C7.64688 13.3854 7.64688 12.988 7.40174 12.7429L7.12125 12.4624L3.7556 15.828C3.64266 15.941 3.64266 16.124 3.7556 16.237Z" fill="#B2E49E"/>
<path d="M8.07152 14.6973L8.77412 13.4547L8.63887 12.2428C8.3186 12.0855 8.01812 11.8747 7.75212 11.6087C6.45031 10.3069 6.45036 8.18883 7.75212 6.88702C9.05393 5.58526 11.172 5.58521 12.4739 6.88702C13.0496 7.46272 13.3706 8.1981 13.4372 8.95187L10.0617 13.1749L10.5656 15.0481C11.9003 14.9446 13.2061 14.3827 14.227 13.3618C14.7076 12.8812 15.0861 12.3374 15.3634 11.7572C15.3633 11.7571 15.3633 11.7571 15.3632 11.7571C15.7334 10.9825 15.9223 10.1433 15.9301 9.30237C15.9302 9.30242 15.9303 9.30247 15.9304 9.30247C15.9445 7.79535 15.3769 6.28379 14.227 5.13384C11.9549 2.86175 8.27109 2.86175 5.99899 5.13384C3.7269 7.40594 3.7269 11.0897 5.99899 13.3618C6.6068 13.9697 7.31572 14.4147 8.07152 14.6973Z" fill="#B8EC7D"/>
<path d="M12.7784 13.3619C12.1296 14.0107 11.3656 14.4737 10.5522 14.7519C10.5522 14.8506 10.5571 14.9493 10.5657 15.0477C11.9004 14.9443 13.2062 14.3827 14.2271 13.3619C14.7076 12.8813 15.0866 12.3376 15.3638 11.7574L16.0592 10.8049L15.9308 9.30242C15.9449 7.7953 15.377 6.28379 14.227 5.13389C12.9064 3.81325 11.1088 3.26048 9.38867 3.47511C10.6279 3.62972 11.8269 4.18248 12.7783 5.13389C15.0505 7.40598 15.0505 11.0898 12.7784 13.3619Z" fill="#B2E49E"/>
<path d="M18.0033 10.6381C17.3953 10.0301 16.6861 9.58498 15.9301 9.30242C15.9223 10.1432 15.7333 10.9826 15.3632 11.7571C15.6836 11.9144 15.9841 12.1252 16.2502 12.3912C17.552 13.6931 17.552 15.8112 16.2502 17.113C14.9484 18.4147 12.8303 18.4148 11.5285 17.113C10.2266 15.8112 10.2266 13.693 11.5285 12.3912C11.7466 12.1731 11.988 11.9924 12.2444 11.8473L12.2443 11.835C12.3176 11.7738 12.4051 11.6776 12.4739 11.6087C13.2 10.8826 13.5203 9.90265 13.4361 8.95197C12.1016 9.05558 10.7961 9.61748 9.77537 10.6381C8.65328 11.7602 8.08535 13.2267 8.07155 14.6973C8.05745 16.2045 8.62537 17.7161 9.77537 18.8661C12.0475 21.1382 15.7313 21.1382 18.0034 18.8661C20.2754 16.594 20.2754 12.9102 18.0033 10.6381Z" fill="#F38BDF"/>
<path d="M18.0033 10.6381C17.3954 10.0302 16.6863 9.58547 15.9304 9.3029C15.928 9.55466 15.9096 9.80632 15.8747 10.0561C16.1122 10.2302 16.34 10.4234 16.5547 10.6381C18.8268 12.9102 18.8268 16.594 16.5547 18.8661C15.6032 19.8175 14.4043 20.3703 13.165 20.5249C14.8851 20.7395 16.6827 20.1867 18.0034 18.8661C20.2754 16.594 20.2754 12.9102 18.0033 10.6381Z" fill="#EAACDE"/>
</svg>
