<svg width="45" height="46" viewBox="0 0 45 46" fill="none" xmlns="http://www.w3.org/2000/svg">
<rect y="0.821777" width="45" height="45" rx="5.71429" fill="white"/>
<path d="M28.2073 13.1147L26.793 14.529L29.0859 16.8219H24.0002V18.8218H29.0859L26.793 21.1147L28.2073 22.5289L32.9144 17.8218L28.2073 13.1147ZM20.5001 17.8218C20.5001 16.4411 19.3809 15.3218 18.0001 15.3218C16.6194 15.3218 15.5001 16.4411 15.5001 17.8218C15.5001 19.2026 16.6194 20.3218 18.0001 20.3218C19.3809 20.3218 20.5001 19.2026 20.5001 17.8218ZM22.5002 17.8218C22.5002 20.3071 20.4854 22.3218 18.0001 22.3218C15.5149 22.3218 13.5001 20.3071 13.5001 17.8218C13.5001 15.3366 15.5149 13.3218 18.0001 13.3218C20.4854 13.3218 22.5002 15.3366 22.5002 17.8218ZM16.9144 28.8218L19.2073 31.1147L17.793 32.5289L13.0859 27.8218L17.793 23.1147L19.2073 24.5289L16.9144 26.8218H22.0002V28.8218H16.9144ZM26.0002 29.8218H30.0002V25.8218H26.0002V29.8218ZM24.0002 24.8218C24.0002 24.2695 24.4479 23.8218 25.0002 23.8218H31.0002C31.5524 23.8218 32.0002 24.2695 32.0002 24.8218V30.8218C32.0002 31.3741 31.5524 31.8218 31.0002 31.8218H25.0002C24.4479 31.8218 24.0002 31.3741 24.0002 30.8218V24.8218Z" fill="#8A0B00"/>
<path d="M26.793 14.529L28.2073 13.1147L32.9144 17.8218L28.2073 22.5289L26.793 21.1147L29.0859 18.8218H24.0002V16.8219H29.0859L26.793 14.529Z" fill="#D7B962"/>
</svg>
