<svg width="45" height="46" viewBox="0 0 45 46" fill="none" xmlns="http://www.w3.org/2000/svg">
<rect y="0.821777" width="45" height="45" rx="5.71429" fill="white"/>
<g clip-path="url(#clip0_4819_2166)">
<path d="M11.1667 22.9998C11.1667 22.0633 11.2856 21.1545 11.509 20.2876C12.6902 20.3489 13.8626 19.761 14.4945 18.6665C15.126 17.5728 15.0495 16.2646 14.4072 15.2726C15.6989 14.0032 17.3074 13.0552 19.1032 12.5581C19.6408 13.6117 20.7361 14.3331 22.0001 14.3331C23.264 14.3331 24.3593 13.6117 24.8969 12.5581C26.6927 13.0552 28.3013 14.0032 29.5929 15.2726C28.9507 16.2646 28.8741 17.5728 29.5057 18.6665C30.1376 19.761 31.3101 20.3489 32.4912 20.2876C32.7145 21.1545 32.8334 22.0633 32.8334 22.9998C32.8334 23.9363 32.7145 24.8452 32.4912 25.7119C31.3101 25.6507 30.1376 26.2386 29.5057 27.3331C28.8741 28.4269 28.9507 29.7349 29.5929 30.727C28.3013 31.9963 26.6927 32.9444 24.8969 33.4415C24.3593 32.388 23.264 31.6665 22.0001 31.6665C20.7361 31.6665 19.6408 32.388 19.1032 33.4415C17.3074 32.9444 15.6989 31.9963 14.4072 30.727C15.0495 29.7349 15.126 28.4269 14.4945 27.3331C13.8626 26.2386 12.6902 25.6507 11.509 25.7119C11.2856 24.8452 11.1667 23.9363 11.1667 22.9998ZM16.3709 26.2498C17.0535 27.4322 17.2492 28.7914 16.9823 30.0673C17.424 30.3816 17.8943 30.6539 18.387 30.8802C19.3587 30.0104 20.6342 29.4998 22.0001 29.4998C23.3659 29.4998 24.6414 30.0104 25.6131 30.8802C26.1058 30.6539 26.5761 30.3816 27.0178 30.0673C26.751 28.7914 26.9466 27.4322 27.6293 26.2498C28.3118 25.0676 29.3911 24.2186 30.6293 23.8118C30.6542 23.5433 30.6667 23.2725 30.6667 22.9998C30.6667 22.7271 30.6542 22.4562 30.6293 22.188C29.3911 21.7812 28.3118 20.9322 27.6293 19.7498C26.9466 18.5675 26.751 17.2083 27.0178 15.9324C26.5761 15.618 26.1058 15.3457 25.6131 15.1193C24.6414 15.9891 23.3659 16.4998 22.0001 16.4998C20.6342 16.4998 19.3587 15.9891 18.387 15.1193C17.8943 15.3457 17.424 15.618 16.9823 15.9324C17.2492 17.2083 17.0535 18.5675 16.3709 19.7498C15.6883 20.9322 14.6091 21.7812 13.3708 22.188C13.3459 22.4562 13.3334 22.7271 13.3334 22.9998C13.3334 23.2725 13.3459 23.5433 13.3708 23.8118C14.6091 24.2186 15.6883 25.0676 16.3709 26.2498ZM22.0001 26.2498C20.2051 26.2498 18.7501 24.7947 18.7501 22.9998C18.7501 21.2049 20.2051 19.7498 22.0001 19.7498C23.795 19.7498 25.2501 21.2049 25.2501 22.9998C25.2501 24.7947 23.795 26.2498 22.0001 26.2498ZM22.0001 24.0831C22.5984 24.0831 23.0834 23.5981 23.0834 22.9998C23.0834 22.4014 22.5984 21.9165 22.0001 21.9165C21.4017 21.9165 20.9167 22.4014 20.9167 22.9998C20.9167 23.5981 21.4017 24.0831 22.0001 24.0831Z" fill="#8A0B00"/>
<path d="M22 26.2498C20.205 26.2498 18.75 24.7947 18.75 22.9998C18.75 21.2048 20.205 19.7498 22 19.7498C23.7949 19.7498 25.25 21.2048 25.25 22.9998C25.25 24.7947 23.7949 26.2498 22 26.2498ZM22 24.083C22.5983 24.083 23.0833 23.598 23.0833 22.9998C23.0833 22.4014 22.5983 21.9164 22 21.9164C21.4016 21.9164 20.9166 22.4014 20.9166 22.9998C20.9166 23.598 21.4016 24.083 22 24.083Z" fill="#D7B962"/>
</g>
<defs>
<clipPath id="clip0_4819_2166">
<rect width="24" height="24" fill="white" transform="translate(11 10.8218)"/>
</clipPath>
</defs>
</svg>
