<svg width="24" height="24" viewBox="0 0 24 24" fill="none" xmlns="http://www.w3.org/2000/svg">
<g clip-path="url(#clip0_587_2807)">
<path d="M12.9488 16.6889H6.75844L3.19406 17.7417C2.20734 18.0328 1.44047 18.8123 1.16484 19.8037L0 24H4.40719L5.11031 23.2969L5.81344 24H12L12.9488 16.6889Z" fill="#9CEDFF"/>
<path d="M24 24H19.5923L18.8892 23.2969L18.1861 24H12V16.6889H17.2416L20.8059 17.7417C21.7927 18.0328 22.5595 18.8123 22.8352 19.8037L24 24Z" fill="#45BBE4"/>
<path d="M12.9491 15.9623H9.21879L6.75879 16.6889C6.89613 19.2647 8.7852 20.7848 8.7852 20.7848L12.0004 18.4627L12.9491 15.9623Z" fill="#45BBE4"/>
<path d="M17.2416 16.6889C17.1042 19.2647 15.2152 20.7848 15.2152 20.7848L12 18.4627V15.9623H14.7816L17.2416 16.6889Z" fill="#3877CF"/>
<path d="M12.9491 16.3126L12.0003 13.5225L9.75031 13.523L9.21875 15.9623C9.22203 17.61 10.6114 18.4566 12.0003 18.4626L12.9491 16.3126Z" fill="#F6B68E"/>
<path d="M14.7816 15.9623C14.7562 17.648 13.3781 18.4688 12 18.4627V13.5225L14.2495 13.522L14.7816 15.9623Z" fill="#E6A07A"/>
<path d="M18 3.87234C18.0532 4.55231 17.5358 5.87241 17.3213 6.54188H6.67969C6.22922 5.18953 6 3.77344 6 2.34797V0H14.1277C16.2661 0 18 1.73391 18 3.87234Z" fill="#403A5C"/>
<path d="M18 3.87234C18.0532 4.55231 17.5358 5.87241 17.3212 6.54188H12V0H14.1277C16.2661 0 18 1.73391 18 3.87234Z" fill="#261F3B"/>
<path d="M12 5.86969C11.2027 6.15188 10.3584 6.2986 9.50156 6.2986H7.49766C6.67031 6.2986 6 6.96938 6 7.79625V7.80141C6 8.62828 6.67031 9.29907 7.49766 9.29907V10.103C7.49766 12.5888 9.51281 14.6039 11.9986 14.6039L12.9488 9.86803L12 5.86969Z" fill="#FFD7B0"/>
<path d="M18 7.79625V7.8014C18 8.62828 17.3297 9.29906 16.5023 9.29906H16.5V10.103C16.5019 12.5639 14.4959 14.6044 12 14.6039V5.86968C12.712 5.61797 13.3861 5.25797 13.9978 4.79859C15.038 4.79156 16.0308 5.40703 16.5023 6.29859C17.3297 6.29859 18 6.96937 18 7.79625Z" fill="#F6B68E"/>
<path d="M4.40723 21H5.81348V24H4.40723V21Z" fill="#45BBE4"/>
<path d="M18.1865 21H19.5928V24H18.1865V21Z" fill="#3877CF"/>
</g>
<defs>
<clipPath id="clip0_587_2807">
<rect width="24" height="24" fill="white"/>
</clipPath>
</defs>
</svg>
