<svg width="20" height="18" viewBox="0 0 20 18" fill="none" xmlns="http://www.w3.org/2000/svg">
<path d="M16.7194 0.315796C17.2523 0.315796 17.6843 0.747806 17.6843 1.28071V2.97606L15.7545 4.90588V2.24562H2.24574V10.0614L6.10539 6.20224L10.2815 10.3789L8.91637 11.7425L6.10539 8.9314L2.24574 12.7902V15.7544H12.4092L13.0927 15.7556L14.3747 14.472L15.6575 15.7544H15.7545V13.0932L17.6843 11.1633V16.7193C17.6843 17.2522 17.2523 17.6842 16.7194 17.6842H1.28083C0.750128 17.6842 0.315918 17.25 0.315918 16.7193V1.28071C0.315918 0.747806 0.747929 0.315796 1.28083 0.315796H16.7194ZM18.4352 4.95472L19.7998 6.31932L12.2945 13.8246L10.9279 13.8225L10.93 12.46L18.4352 4.95472ZM12.3773 4.17545C13.1767 4.17545 13.8247 4.82345 13.8247 5.62281C13.8247 6.42218 13.1767 7.07018 12.3773 7.07018C11.578 7.07018 10.93 6.42218 10.93 5.62281C10.93 4.82345 11.578 4.17545 12.3773 4.17545Z" fill="#5B0400"/>
</svg>
