<svg width="24" height="24" viewBox="0 0 24 24" fill="none" xmlns="http://www.w3.org/2000/svg">
<path d="M16.6998 15.24C19.9518 15.26 19.5998 12.8 19.5998 12.8C17.9998 12.8 17.5998 11.2 17.5998 8V6C17.5998 2.908 15.0918 0.400002 11.9998 0.400002C10.4558 0.400002 9.05582 1.028 8.03982 2.04C7.02782 3.056 6.39982 4.456 6.39982 6V8C6.39982 11.2 5.99982 12.8 4.39982 12.8C4.39982 12.8 4.04782 15.26 7.29982 15.24H16.6998Z" fill="#663434"/>
<path d="M15.26 14.816C15.408 14.912 15.576 14.98 15.752 15.02L18.14 15.572C19.228 15.82 20 16.792 20 17.908V20.48C20 21.748 19.116 22.852 17.872 23.112C16.636 23.372 14.76 23.6 12 23.6C9.24 23.6 7.364 23.372 6.128 23.112C4.884 22.852 4 21.748 4 20.48V17.908C4 16.792 4.772 15.82 5.86 15.572L8.248 15.02C8.424 14.98 8.592 14.912 8.74 14.816H15.26Z" fill="#F4C811"/>
<path d="M15.2602 14.816C14.3722 15.376 12.8882 16.532 12.0002 18.4C11.1122 16.532 9.62823 15.376 8.74023 14.816C9.08823 14.604 9.35223 14.268 9.46823 13.864L9.72423 12.968H14.2762L14.5322 13.864C14.6482 14.268 14.9122 14.604 15.2602 14.816Z" fill="#E59A7A"/>
<path d="M17.6004 8C17.6004 8.664 17.0644 9.2 16.4004 9.2C16.4004 11.632 14.4324 13.6 12.0004 13.6C9.56839 13.6 7.60039 11.632 7.60039 9.2C6.93639 9.2 6.40039 8.664 6.40039 8C6.40039 7.336 6.93639 6.8 7.60039 6.8C12.0004 6.8 13.6004 4 13.6004 4C13.6004 4 13.6004 6.8 16.4004 6.8C17.0644 6.8 17.6004 7.336 17.6004 8Z" fill="#EDA580"/>
</svg>
