<svg width="9" height="13" viewBox="0 0 9 13" fill="none" xmlns="http://www.w3.org/2000/svg">
<path d="M7.14596e-06 1.54207V12.988L4.21843 8.76963L8.43685 12.988V1.54207C8.43685 1.13309 8.27438 0.740855 7.98519 0.451661C7.69599 0.162468 7.30376 0 6.89478 0H1.53739C1.3351 -9.40119e-07 1.1348 0.0399194 0.947969 0.117473C0.761139 0.195026 0.591451 0.308688 0.448631 0.451944C0.30581 0.5952 0.192668 0.765233 0.115684 0.952298C0.0386992 1.13936 -0.000609582 1.33978 7.14596e-06 1.54207ZM5.9761 7.23693L4.21843 6.29951L2.46075 7.23693L2.79353 5.2824L1.38739 3.8997L3.35131 3.61378L4.23249 1.83267L5.10898 3.61378L7.07289 3.8997L5.66675 5.30584L5.9761 7.23693Z" fill="white"/>
</svg>
