<svg width="10" height="15" viewBox="0 0 10 15" fill="none" xmlns="http://www.w3.org/2000/svg">
<path d="M4.8 10.2085L0 14.9605V2.35249C0 1.7287 0.2478 1.13046 0.688886 0.689375C1.12997 0.248289 1.72821 0.000489883 2.352 0.000489883H7.152C7.46489 -0.00589686 7.7759 0.0502217 8.06682 0.165558C8.35774 0.280894 8.62272 0.453129 8.84623 0.672172C9.06975 0.891214 9.2473 1.15266 9.36849 1.44119C9.48968 1.72972 9.55207 2.03954 9.552 2.35249V14.9605L4.8 10.2085ZM8.504 12.4325V2.35249C8.504 2.00665 8.36662 1.67497 8.12207 1.43042C7.87752 1.18588 7.54584 1.04849 7.2 1.04849H2.4C2.05416 1.04849 1.72248 1.18588 1.47794 1.43042C1.23339 1.67497 1.096 2.00665 1.096 2.35249V12.4325L4.808 8.72849L8.504 12.4325Z" fill="white"/>
<path d="M6.62448 7.68852L4.80048 6.73652L2.98448 7.68852L3.32849 5.67252L1.89648 4.27252L3.95248 3.85652L4.87249 1.93652L5.72048 3.92052L7.74448 4.21652L6.27249 5.65652L6.62448 7.68852ZM4.80048 5.88052L5.60048 6.31252L5.44048 5.40052L6.10449 4.75252L5.17648 4.61652L4.80048 3.74452L4.41649 4.54452L3.41649 4.74452L4.11248 5.42452L3.95248 6.31252L4.80048 5.88052Z" fill="white"/>
</svg>
