<svg width="33" height="37" viewBox="0 0 33 37" fill="none" xmlns="http://www.w3.org/2000/svg">
<path fill-rule="evenodd" clip-rule="evenodd" d="M0.871805 35.6033C0.871805 34.8765 0.871805 34.3571 0.871805 33.8377C0.871805 23.5576 0.871805 13.2793 0.871805 2.99752C0.871805 2.73516 0.852305 2.46925 0.875351 2.20688C0.905487 1.87184 0.733533 1.40029 1.08631 1.23898C1.53835 1.03689 1.73512 1.55984 1.98685 1.80979C7.2944 7.06593 12.5878 12.3345 17.89 17.5942C18.2623 17.9647 18.67 18.2075 18.0673 18.8014C12.4956 24.2897 6.9558 29.8082 1.40362 35.3161C1.32208 35.3959 1.19267 35.4349 0.871805 35.6033Z" fill="#4284F3"/>
<path fill-rule="evenodd" clip-rule="evenodd" d="M24.3265 24.1532C17.1398 28.2979 9.98864 32.4248 2.84277 36.5482C8.44814 30.8045 14.0305 25.0804 19.6181 19.3474C21.2401 21.0031 22.7416 22.5365 24.3265 24.1532Z" fill="#E94335"/>
<path fill-rule="evenodd" clip-rule="evenodd" d="M3.25391 0.471373C3.73254 0.368554 4.01263 0.696509 4.32641 0.877327C10.7082 4.55042 17.0776 8.24301 23.4665 11.9019C24.188 12.315 24.4114 12.5596 23.674 13.2226C22.465 14.3075 21.3535 15.4988 20.2136 16.6564C19.9105 16.9648 19.6906 17.1776 19.267 16.7521C13.9559 11.4428 8.62527 6.14942 3.30709 0.845418C3.23972 0.776282 3.27163 0.614963 3.25391 0.471373Z" fill="#34A753"/>
<path fill-rule="evenodd" clip-rule="evenodd" d="M32.9528 18.2979C32.9138 18.8811 32.6195 19.3545 32.0948 19.6594C30.2033 20.7567 28.2905 21.8203 26.4132 22.9425C25.9026 23.2509 25.635 23.0541 25.2981 22.7138C23.997 21.4091 22.6958 20.099 21.3556 18.8386C20.8752 18.3866 20.9301 18.1348 21.3822 17.704C22.7171 16.4365 24.0236 15.1371 25.2999 13.8076C25.7076 13.3786 26.009 13.3343 26.5178 13.6374C28.2746 14.7011 30.0632 15.7186 31.8431 16.745C32.4369 17.0942 32.9014 17.5268 32.9528 18.2979Z" fill="#FABB04"/>
</svg>
