<svg width="28" height="28" viewBox="0 0 28 28" fill="none" xmlns="http://www.w3.org/2000/svg">
<path d="M13.9994 0.583344L18.9297 7.79733L27.3142 10.2571L21.9768 17.1753L22.2283 25.9096L13.9994 22.9713L5.77037 25.9096L6.02193 17.1753L0.68457 10.2571L9.06904 7.79733L13.9994 0.583344ZM13.9994 4.71801L10.5253 9.80177L4.61586 11.5348L8.37828 16.4098L8.19986 22.5633L13.9994 20.4937L19.7977 22.5633L19.6205 16.4098L23.3817 11.5348L17.4734 9.80177L13.9994 4.71801ZM11.666 14C11.666 15.2887 12.7107 16.3333 13.9994 16.3333C15.2881 16.3333 16.3327 15.2887 16.3327 14H18.666C18.666 16.5773 16.5767 18.6667 13.9994 18.6667C11.422 18.6667 9.33269 16.5773 9.33269 14H11.666Z" fill="#8A0B00"/>
</svg>
