<svg width="28" height="28" viewBox="0 0 28 28" fill="none" xmlns="http://www.w3.org/2000/svg">
<path d="M6.72345 19.8333H23.3335V5.83333H4.66683V21.4493L6.72345 19.8333ZM7.53047 22.1667L2.3335 26.25V4.66667C2.3335 4.02234 2.85584 3.5 3.50016 3.5H24.5002C25.1445 3.5 25.6668 4.02234 25.6668 4.66667V21C25.6668 21.6444 25.1445 22.1667 24.5002 22.1667H7.53047ZM12.8335 16.3333H15.1668V18.6667H12.8335V16.3333ZM9.99536 10.2824C10.3676 8.41072 12.0192 7 14.0002 7C16.2553 7 18.0835 8.82817 18.0835 11.0833C18.0835 13.3385 16.2553 15.1667 14.0002 15.1667H12.8335V12.8333H14.0002C14.9666 12.8333 15.7502 12.0498 15.7502 11.0833C15.7502 10.1168 14.9666 9.33333 14.0002 9.33333C13.1512 9.33333 12.4434 9.93793 12.2838 10.7401L9.99536 10.2824Z" fill="#8A0B00"/>
</svg>
