<svg width="38" height="24" viewBox="0 0 38 24" fill="none" xmlns="http://www.w3.org/2000/svg">
<g clip-path="url(#clip0_7227_8554)">
<path d="M35.4824 5.47461H36.3089C36.6373 5.47969 36.9504 5.61628 37.18 5.85461C37.4095 6.09293 37.5369 6.41367 37.5344 6.7469V10.8047C37.5319 11.1346 37.4023 11.4504 37.1733 11.6846C36.9443 11.9188 36.634 12.0527 36.3089 12.0577H26.6474C26.3223 12.0527 26.012 11.9188 25.783 11.6846C25.5539 11.4504 25.4243 11.1346 25.4219 10.8047V6.7469C25.4243 6.41701 25.5539 6.10119 25.783 5.86702C26.012 5.63284 26.3223 5.49891 26.6474 5.49389H27.4739" stroke="white" stroke-width="0.98" stroke-miterlimit="10"/>
<path d="M35.3785 4.32744C35.3538 4.71845 35.2771 5.10427 35.1505 5.47443H27.7785C27.6998 5.09762 27.6679 4.7123 27.6835 4.32744C27.6835 3.29214 28.0889 2.29924 28.8104 1.56717C29.532 0.835101 30.5106 0.423828 31.531 0.423828C32.5515 0.423828 33.5301 0.835101 34.2516 1.56717C34.9732 2.29924 35.3785 3.29214 35.3785 4.32744Z" stroke="white" stroke-width="0.98" stroke-miterlimit="10"/>
<path d="M34.248 14.8535V12.0391" stroke="white" stroke-width="0.98" stroke-miterlimit="10"/>
<path d="M26.7525 12.666C26.7576 12.9814 26.7002 13.2945 26.5836 13.5869C26.467 13.8793 26.2937 14.1449 26.0739 14.3679C25.8541 14.5909 25.5923 14.7668 25.3041 14.885C25.016 15.0033 24.7073 15.0616 24.3965 15.0564" stroke="white" stroke-width="0.98" stroke-miterlimit="10" stroke-linecap="round"/>
<path d="M29.9342 12.0391V13.4945C29.9289 13.6744 29.96 13.8535 30.0254 14.0208C30.0909 14.1881 30.1893 14.3401 30.3148 14.4673C30.4402 14.5946 30.59 14.6945 30.7549 14.7609C30.9198 14.8274 31.0963 14.8589 31.2737 14.8535H35.2827C35.6078 14.8585 35.9181 14.9925 36.1471 15.2266C36.3761 15.4608 36.5057 15.7766 36.5082 16.1065C36.5149 16.2716 36.4878 16.4364 36.4285 16.5903C36.3693 16.7442 36.2793 16.884 36.1641 17.0009C36.049 17.1177 35.9112 17.209 35.7595 17.2691C35.6077 17.3292 35.4454 17.3567 35.2827 17.3499H36.3087C36.6362 17.3499 36.9503 17.4819 37.1819 17.7169C37.4136 17.9519 37.5437 18.2706 37.5437 18.6029C37.5437 18.9352 37.4136 19.2539 37.1819 19.4889C36.9503 19.7239 36.6362 19.8559 36.3087 19.8559H35.2827C35.6078 19.861 35.9181 19.9949 36.1471 20.2291C36.3761 20.4632 36.5057 20.7791 36.5082 21.1089C36.5033 21.4372 36.3726 21.7505 36.1438 21.9826C35.915 22.2147 35.6062 22.3473 35.2827 22.3523H34.5607" stroke="white" stroke-width="0.98" stroke-miterlimit="10" stroke-linecap="round"/>
<path d="M23.6741 23.6039H21.9261C21.6221 23.6039 21.3086 23.1894 21.3086 22.7653V14.534C21.3086 14.0135 21.6221 13.7051 21.9261 13.7051H23.6741C23.9781 13.7051 24.2916 14.1195 24.2916 14.534V22.7653C24.2916 23.1894 24.0826 23.6039 23.6741 23.6039Z" stroke="white" stroke-width="0.82" stroke-miterlimit="10"/>
<path d="M32.918 17.3496H35.2835" stroke="white" stroke-width="0.98" stroke-miterlimit="10" stroke-linecap="round"/>
<path d="M32.918 19.8555H35.2835" stroke="white" stroke-width="0.98" stroke-miterlimit="10" stroke-linecap="round"/>
<path d="M32.917 22.3516H34.665H24.5" stroke="white" stroke-width="0.98" stroke-miterlimit="10" stroke-linecap="round"/>
<path d="M28.7093 7.87427H28.0918C28.0445 7.87234 27.999 7.85553 27.9615 7.82617C27.9241 7.79681 27.8966 7.75635 27.8828 7.71041V7.14174C27.8872 7.08697 27.9106 7.03555 27.9489 6.9967C27.9872 6.95784 28.0378 6.93409 28.0918 6.92969H30.8658C30.9188 6.93434 30.9683 6.95844 31.005 6.99748C31.0418 7.03652 31.0632 7.08781 31.0653 7.14174V7.71041C31.0632 7.76434 31.0418 7.81563 31.005 7.85467C30.9683 7.8937 30.9188 7.91781 30.8658 7.92246H30.2483C30.1952 7.9246 30.1446 7.94635 30.1061 7.98361C30.0677 8.02088 30.0439 8.0711 30.0393 8.12487V10.5249C30.035 10.5771 30.0126 10.6261 29.9761 10.6631C29.9396 10.7002 29.8913 10.7229 29.8398 10.7273H29.3268C29.2737 10.7251 29.2231 10.7034 29.1846 10.6661C29.1462 10.6289 29.1224 10.5786 29.1178 10.5249V8.07668C28.9088 7.97065 28.8138 7.87427 28.7093 7.87427Z" fill="white"/>
<path d="M31.7864 6.92969H32.4039C32.4579 6.93409 32.5086 6.95784 32.5469 6.9967C32.5852 7.03555 32.6086 7.08697 32.6129 7.14174L33.3254 9.32969L34.0474 7.14174C34.0514 7.08845 34.0735 7.03821 34.1098 6.99956C34.1462 6.9609 34.1946 6.93621 34.2469 6.92969H34.8644C35.0734 6.92969 35.1779 7.14174 35.0734 7.24776L33.7339 10.4767C33.7339 10.5827 33.6389 10.5827 33.5344 10.5827H32.9169C32.8376 10.5718 32.7641 10.5345 32.7079 10.4767L31.4824 7.24776C31.4824 7.03571 31.5774 6.92969 31.7864 6.92969Z" fill="white"/>
<path d="M1.672 14.709V23.1909H0V14.709H1.672Z" fill="white"/>
<path d="M4.49355 14.6119C4.52012 15.052 4.38848 15.4869 4.12305 15.836C3.98219 15.9862 3.81037 16.1029 3.61987 16.1779C3.42936 16.2529 3.22488 16.2842 3.02105 16.2697V15.6047C3.10556 15.6092 3.19004 15.5951 3.26873 15.5635C3.34742 15.5319 3.41847 15.4835 3.47705 15.4215C3.58164 15.2516 3.63145 15.0528 3.61955 14.8528V14.6312H2.93555V13.3203H4.30355C4.43222 13.7383 4.49632 14.174 4.49355 14.6119Z" fill="white"/>
<path d="M14.754 14.8039V23.1895H13.101V17.3485L10.9825 23.1991H9.50055L7.42005 17.3485V23.1316H5.74805V14.7461H7.77155L10.2795 21.0497L12.74 14.7461L14.754 14.8039Z" fill="white"/>
</g>
<defs>
<clipPath id="clip0_7227_8554">
<rect width="38" height="24" fill="white"/>
</clipPath>
</defs>
</svg>
