<?xml version="1.0" encoding="utf-8"?>
<!-- Generator: Adobe Illustrator 26.3.1, SVG Export Plug-In . SVG Version: 6.00 Build 0)  -->
<svg version="1.1" id="Layer_1" xmlns="http://www.w3.org/2000/svg" xmlns:xlink="http://www.w3.org/1999/xlink" x="0px" y="0px"
	 viewBox="0 0 61.5 16.4" style="enable-background:new 0 0 61.5 16.4;" xml:space="preserve">
<style type="text/css">
	.st0{fill:#800D00;}
	.st1{fill:url(#SVGID_1_);}
	.st2{fill:#FFFFFF;}
	.st3{fill:none;stroke:#800D00;stroke-width:0.7481;stroke-linecap:round;stroke-miterlimit:10;}
</style>
<g>
	<path class="st0" d="M53.3,0H8.2l0,0C3.7,0,0,3.7,0,8.2s3.7,8.2,8.2,8.2l0,0h45.1c2.3,0,4.3-0.9,5.8-2.4s2.4-3.5,2.4-5.8
		C61.5,3.7,57.8,0,53.3,0z M0.8,8.2c0-4.1,3.3-7.4,7.4-7.4s7.4,3.3,7.4,7.4s-3.3,7.4-7.4,7.4S0.8,12.3,0.8,8.2z M53.3,0H8.2l0,0
		C3.7,0,0,3.7,0,8.2s3.7,8.2,8.2,8.2l0,0h45.1c2.3,0,4.3-0.9,5.8-2.4s2.4-3.5,2.4-5.8C61.5,3.7,57.8,0,53.3,0z M0.8,8.2
		c0-4.1,3.3-7.4,7.4-7.4s7.4,3.3,7.4,7.4s-3.3,7.4-7.4,7.4S0.8,12.3,0.8,8.2z"/>
	
		<linearGradient id="SVGID_1_" gradientUnits="userSpaceOnUse" x1="0" y1="14.2" x2="61.5" y2="14.2" gradientTransform="matrix(1 0 0 1 0 -6)">
		<stop  offset="0" style="stop-color:#FFFFFF;stop-opacity:0"/>
		<stop  offset="1" style="stop-color:#FFFFFF;stop-opacity:0.1"/>
	</linearGradient>
	<path class="st1" d="M53.3,0H8.2l0,0C3.7,0,0,3.7,0,8.2s3.7,8.2,8.2,8.2l0,0h45.1c2.3,0,4.3-0.9,5.8-2.4s2.4-3.5,2.4-5.8
		C61.5,3.7,57.8,0,53.3,0z M0.8,8.2c0-4.1,3.3-7.4,7.4-7.4s7.4,3.3,7.4,7.4s-3.3,7.4-7.4,7.4S0.8,12.3,0.8,8.2z M53.3,0H8.2l0,0
		C3.7,0,0,3.7,0,8.2s3.7,8.2,8.2,8.2l0,0h45.1c2.3,0,4.3-0.9,5.8-2.4s2.4-3.5,2.4-5.8C61.5,3.7,57.8,0,53.3,0z M0.8,8.2
		c0-4.1,3.3-7.4,7.4-7.4s7.4,3.3,7.4,7.4s-3.3,7.4-7.4,7.4S0.8,12.3,0.8,8.2z"/>
	<g>
		<g>
			<path class="st2" d="M20.8,10.4h2.3V12h-4.3V4.7h2V10.4z"/>
			<path class="st2" d="M26,4.7V12h-2V4.7H26z"/>
			<path class="st2" d="M29,4.8l1.6,5.1l1.6-5.2h2.1L31.9,12h-2.6l-2.5-7.2H29L29,4.8z"/>
			<path class="st2" d="M37.2,6.3v1.2h2.3V9h-2.3v1.3h2.7V12h-4.7V4.7h4.7v1.6C39.9,6.3,37.2,6.3,37.2,6.3z"/>
			<path class="st2" d="M48.5,4.7v1.6h-2V12h-2V6.3h-1.9V4.7H48.5z"/>
			<path class="st2" d="M51,4.8l1.6,5.1l1.6-5.2h2.1L53.9,12h-2.6l-2.5-7.2H51L51,4.8z"/>
		</g>
	</g>
	<g>
		<path class="st0" d="M6.7,6.7v3c0,0.3,0.3,0.5,0.6,0.3l2.6-1.5c0.2-0.1,0.2-0.5,0-0.7L7.3,6.4C7,6.2,6.7,6.4,6.7,6.7z"/>
		<path class="st3" d="M5.2,10.7C4.6,10,4.3,9.2,4.3,8.2s0.3-1.8,0.9-2.5"/>
		<path class="st3" d="M11.2,5.7c0.6,0.7,0.9,1.5,0.9,2.5s-0.3,1.8-0.9,2.5"/>
		<path class="st3" d="M5,12.8c-1.4-1-2.4-2.7-2.4-4.6S3.5,4.6,5,3.6"/>
		<path class="st3" d="M11.4,3.6c1.4,1,2.4,2.7,2.4,4.6s-0.9,3.6-2.4,4.6"/>
	</g>
</g>
</svg>
