<svg xmlns="http://www.w3.org/2000/svg" width="24" height="24" viewBox="0 0 24 24" fill="none">
<g clip-path="url(#clip0)">
<path d="M8.31549 6.43167L3.14111 16.31L7.68909 20.8576L8.48963 20.4381C8.55152 20.5083 8.61487 20.5771 8.68097 20.6432C9.55219 21.5144 10.6962 21.9501 11.8408 21.9501C12.9849 21.9499 14.1296 21.5143 15.0007 20.6432C16.1213 19.5226 16.5534 17.9166 16.1797 16.4102L17.5671 15.6834L8.31549 6.43167ZM14.0064 19.6488C13.4093 20.2459 12.6251 20.5443 11.8408 20.5443C11.1057 20.5442 10.3703 20.282 9.78949 19.7572L14.8793 17.0912C14.9998 18.0188 14.6898 18.9654 14.0064 19.6488Z" fill="white"/>
<path d="M11.8056 3.67267C11.3883 3.25537 10.8335 3.02557 10.2433 3.02557C9.6532 3.02557 9.09839 3.25537 8.68109 3.67267C8.48077 3.87299 8.32733 4.1026 8.22021 4.3476L19.6519 15.7792C19.9002 15.6703 20.1287 15.5154 20.3262 15.3178C21.1877 14.4565 21.1877 13.0548 20.3262 12.1933L11.8056 3.67267Z" fill="white"/>
<path d="M0.692848 16.9864C-0.16848 17.8477 -0.16848 19.2494 0.693032 20.1109L3.88841 23.3061C4.30552 23.7234 4.86033 23.9532 5.45048 23.9532C6.04063 23.9532 6.59544 23.7234 7.01274 23.3061C7.21305 23.1058 7.36668 22.8762 7.4738 22.6312L1.36723 16.525C1.11894 16.6339 0.890419 16.7888 0.692848 16.9864Z" fill="white"/>
<path d="M19.5626 5.13922C19.7426 5.13922 19.9226 5.07056 20.0599 4.93341L23.8398 1.15338C24.1144 0.878907 24.1144 0.433594 23.8398 0.159119C23.5653 -0.11554 23.1202 -0.11554 22.8455 0.159119L19.0655 3.93897C18.791 4.21344 18.791 4.65875 19.0655 4.93341C19.2028 5.07074 19.3828 5.13922 19.5626 5.13922Z" fill="white"/>
<path d="M15.1834 3.69316C15.302 3.77097 15.4359 3.80815 15.5679 3.80815C15.7972 3.80815 16.0218 3.69608 16.1568 3.49027L17.7608 1.0416C17.9737 0.716775 17.8829 0.2808 17.5581 0.0680316C17.2331 -0.144737 16.7973 -0.0539167 16.5845 0.270913L14.9805 2.71958C14.7677 3.04441 14.8586 3.4802 15.1834 3.69316Z" fill="white"/>
<path d="M23.9308 6.44078C23.718 6.11614 23.2822 6.02532 22.9574 6.23808L20.5087 7.84227C20.1839 8.05522 20.0932 8.49101 20.306 8.81584C20.441 9.02184 20.6656 9.13372 20.8947 9.13372C21.0269 9.13372 21.1606 9.09654 21.2794 9.01854L23.7279 7.41435C24.0529 7.20159 24.1437 6.76579 23.9308 6.44078Z" fill="white"/>
</g>
<defs>
<clipPath id="clip0">
<rect width="24" height="24" fill="white"/>
</clipPath>
</defs>
</svg>