<svg width="37" height="37" viewBox="0 0 37 37" fill="none" xmlns="http://www.w3.org/2000/svg">
<path fill-rule="evenodd" clip-rule="evenodd" d="M32.03 7.7296C32.249 8.23882 32.4436 8.75701 32.6255 9.28087C32.7582 9.66295 32.7442 10.0398 32.6684 10.4241C32.6005 10.8721 32.3147 11.1571 31.9313 11.3386C31.0329 11.7638 30.0782 12.0041 29.0977 12.1458C27.0976 12.4349 25.1463 12.235 23.2461 11.5476C22.9002 11.4223 22.5605 11.2798 22.3118 10.9884C22.1732 10.8261 22.0569 10.6544 22.0559 10.4296C21.8314 9.69372 22.1795 9.05528 22.4066 8.39806C22.4887 8.16114 22.5954 7.93282 22.6909 7.70063C22.7988 7.70931 22.8042 7.81087 22.8469 7.87638C23.0266 8.15199 23.2953 8.26129 23.6019 8.17861C24.089 8.04741 24.479 7.4252 24.3871 6.9257C24.3206 6.56457 24.1292 6.39118 23.7499 6.34994C23.6575 6.33993 23.5591 6.35154 23.4875 6.27197C24.2578 4.99151 25.2308 3.8733 26.2616 2.80077C26.4867 2.56659 26.7916 2.49061 27.0702 2.36102C27.2593 2.36102 27.4485 2.36102 27.6376 2.36102C28.1749 2.50599 28.5488 2.8692 28.9078 3.27157C29.7514 4.21753 30.5797 5.1732 31.2256 6.27112C31.1544 6.35154 31.0557 6.34607 30.9632 6.35003C30.6172 6.36485 30.4367 6.56505 30.3472 6.87964C30.2034 7.38613 30.6387 8.10366 31.157 8.19125C31.448 8.24043 31.6961 8.15869 31.8654 7.89705C31.9078 7.83098 31.9208 7.73168 32.03 7.7296Z" fill="#E76B2D"/>
<path fill-rule="evenodd" clip-rule="evenodd" d="M4.96294 29.2694C4.74235 28.7611 4.54782 28.2434 4.36773 27.7191C4.2404 27.3484 4.23615 26.9826 4.32686 26.6087C4.37263 26.1385 4.66835 25.8481 5.06185 25.6609C5.9508 25.2381 6.89703 24.9998 7.86791 24.8576C9.88073 24.5626 11.8448 24.7619 13.7573 25.4558C14.1449 25.5964 14.5183 25.7644 14.7677 26.1195C14.8661 26.2598 14.9496 26.4026 14.923 26.5836C15.1764 27.2963 14.8173 27.9123 14.6058 28.5491C14.5238 28.7963 14.4059 29.0317 14.3043 29.2725C14.2191 29.2589 14.195 29.1824 14.1529 29.1249C13.891 28.7669 13.5416 28.691 13.1674 28.9236C12.8246 29.1367 12.6329 29.4561 12.5956 29.8536C12.5516 30.3234 12.7946 30.5977 13.2736 30.6519C13.3566 30.6613 13.4431 30.6571 13.5047 30.729C12.7345 32.0092 11.7615 33.1271 10.731 34.1996C10.506 34.4337 10.2011 34.5094 9.92263 34.6391C9.71243 34.6391 9.50233 34.6391 9.29212 34.6391C8.73637 34.4488 8.35712 34.0364 7.98117 33.6136C7.1735 32.705 6.38526 31.7826 5.76731 30.729C5.83829 30.6485 5.93749 30.6607 6.02961 30.6486C6.48296 30.5891 6.73072 30.2667 6.67305 29.813C6.6251 29.435 6.43019 29.1468 6.12362 28.933C5.7675 28.6845 5.36191 28.7671 5.11301 29.13C5.07356 29.1873 5.05864 29.2722 4.96294 29.2694Z" fill="#ECA407"/>
<path fill-rule="evenodd" clip-rule="evenodd" d="M28.2709 28.7147C29.0933 28.9449 29.8804 29.251 30.5666 29.7761C32.0593 30.9181 32.8911 32.416 33.0091 34.3C33.0162 34.4142 33.0018 34.532 33.0589 34.6392C32.7858 34.6392 32.5125 34.6392 32.2394 34.6392C31.3159 34.546 30.4689 34.2335 29.6964 33.7262C28.8038 33.14 28.0936 32.3833 27.6113 31.4231C27.5132 31.2277 27.4127 31.0334 27.3165 30.8045C27.339 31.0346 27.2413 31.1967 27.1572 31.3544C26.288 32.9863 24.9675 34.0546 23.1743 34.5302C22.9213 34.5973 22.6561 34.5669 22.4046 34.6391C22.1735 34.6391 21.9423 34.6391 21.7111 34.6391C21.6982 32.6422 22.5344 31.0614 24.0764 29.831C24.7773 29.2718 25.592 28.9479 26.4485 28.7165C26.6619 28.7095 26.7452 28.8861 26.8507 29.0167C27.3162 29.5926 27.3085 29.5902 27.8375 29.0766C27.9712 28.9468 28.0529 28.7461 28.2709 28.7147Z" fill="#E76B2D"/>
<path fill-rule="evenodd" clip-rule="evenodd" d="M8.72104 8.2796C7.55884 7.9853 6.52718 7.45503 5.68939 6.58373C4.6382 5.49034 4.05639 4.18959 3.98107 2.66843C3.97597 2.56536 3.95002 2.46333 3.93359 2.36082C4.1858 2.36082 4.438 2.36082 4.69021 2.36082C5.80672 2.45521 6.80006 2.86646 7.68239 3.54624C8.59031 4.24575 9.25631 5.13101 9.66623 6.21024C9.6668 6.24686 9.70437 6.18306 9.66718 6.20241C9.65075 6.2109 9.64613 6.20288 9.64764 6.17815C9.65925 5.9838 9.7442 5.8124 9.83311 5.64797C10.7104 4.02469 12.0193 2.94018 13.818 2.46956C14.0712 2.4033 14.3364 2.43246 14.5881 2.36082C14.8192 2.36082 15.0504 2.36082 15.2816 2.36082C15.2946 4.35779 14.4577 5.93822 12.9165 7.16913C12.2158 7.72875 11.4005 8.05108 10.5446 8.28347C10.3308 8.29045 10.2476 8.11347 10.1415 7.98256C9.67624 7.40745 9.68407 7.41029 9.15333 7.92479C9.02091 8.05307 8.94351 8.25845 8.72104 8.2796Z" fill="#ECA407"/>
<path fill-rule="evenodd" clip-rule="evenodd" d="M28.2713 28.7147C28.0188 28.9769 27.7607 29.234 27.5164 29.5034C27.3996 29.6324 27.3282 29.6352 27.1968 29.5096C26.9331 29.2577 26.7467 28.9344 26.4488 28.7165C25.5621 27.6648 24.727 26.5771 24.02 25.3922C23.0294 23.732 22.3052 21.9647 21.8194 20.0967C21.7101 20.0149 21.6749 19.8933 21.6487 19.7691C21.437 18.7616 21.2859 17.7488 21.2237 16.717C21.1683 15.8003 21.165 14.8953 21.3292 13.9918C21.5152 12.7928 21.6726 11.5883 22.0559 10.4296C22.2916 10.9798 22.726 11.2834 23.2809 11.4706C24.3544 11.8328 25.445 12.0636 26.5809 12.1486C28.3023 12.2776 29.9475 11.9928 31.5608 11.427C32.0734 11.2471 32.4358 10.9092 32.6685 10.4241C33.0376 11.5731 33.2182 12.7601 33.3787 13.9512C33.7398 15.9349 33.463 17.884 33.0591 19.8261C33.038 19.9271 33.0177 20.0333 32.9216 20.0988C32.6604 20.9133 32.4351 21.7385 32.1165 22.535C31.2209 24.7746 29.9565 26.7832 28.3662 28.5913C28.332 28.6302 28.3028 28.6735 28.2713 28.7147Z" fill="#FEB500"/>
<path fill-rule="evenodd" clip-rule="evenodd" d="M8.72105 8.2796C8.98213 8.0088 9.24792 7.74263 9.50164 7.46513C9.60395 7.35319 9.66493 7.3512 9.76837 7.46626C10.0194 7.74565 10.285 8.01201 10.5447 8.28366C11.4565 9.36657 12.3134 10.487 13.0328 11.7121C13.9349 13.2485 14.6181 14.8721 15.0877 16.5885C15.118 16.6993 15.1554 16.8081 15.1893 16.9179C15.3255 16.9848 15.3214 17.124 15.3461 17.2416C15.561 18.2673 15.7089 19.2989 15.7729 20.3492C15.8253 21.2123 15.8065 22.0621 15.6901 22.9143C15.6329 23.0294 15.638 23.1595 15.603 23.28C15.4765 24.4018 15.2848 25.5101 14.9234 26.5836C14.7196 26.0571 14.3264 25.7529 13.8031 25.5623C12.0706 24.9306 10.2885 24.6981 8.45572 24.8712C7.35526 24.9751 6.29019 25.2434 5.25938 25.6429C4.80264 25.8199 4.51579 26.1691 4.32739 26.6089C3.96825 25.4505 3.77494 24.259 3.61571 23.0604C3.55058 22.8425 3.56974 22.6096 3.49612 22.3929C3.42033 21.7339 3.43647 21.0709 3.4729 20.4133C3.53095 19.3659 3.66498 18.3247 3.90586 17.3006C3.9388 17.1607 3.94059 17.0044 4.07717 16.9087C4.44443 15.5749 4.89665 14.2728 5.51262 13.0309C6.34616 11.3504 7.38792 9.81057 8.63044 8.4058C8.66442 8.3671 8.69094 8.32179 8.72105 8.2796Z" fill="#4CA8BE"/>
<path fill-rule="evenodd" clip-rule="evenodd" d="M21.3296 13.9918C21.3237 14.3579 21.3118 14.7229 21.2889 15.0892C21.2304 16.0311 21.3176 16.9719 21.4218 17.909C21.5039 18.6474 21.6608 19.3723 21.8197 20.0967C21.4823 20.4486 21.2303 20.8547 21.0464 21.3481C20.799 20.7649 20.6997 20.1843 20.6362 19.595C20.4886 18.2241 20.6618 16.8749 20.9254 15.5341C21.0279 15.0127 21.1175 14.4855 21.3296 13.9918Z" fill="#E76B2D"/>
<path fill-rule="evenodd" clip-rule="evenodd" d="M15.6551 22.9703C15.8062 20.9292 15.6439 18.9122 15.1885 16.9178C15.4821 16.5365 15.7797 16.1577 15.9409 15.6396C16.1934 16.2333 16.2986 16.8112 16.3544 17.3986C16.5359 19.3041 16.2024 21.1504 15.7003 22.9764C15.6819 22.9988 15.6669 22.9968 15.6551 22.9703Z" fill="#ECA407"/>
<path fill-rule="evenodd" clip-rule="evenodd" d="M13.5046 30.7291C13.155 30.7678 12.823 30.7488 12.6327 30.391C12.4044 29.9615 12.5025 29.5545 12.7646 29.1807C12.9946 28.8525 13.3058 28.6506 13.7274 28.7152C14.0433 28.7637 14.2065 28.9886 14.3041 29.2725C14.3811 29.9447 14.1514 30.3632 13.5046 30.7291Z" fill="#4D4D4D"/>
<path fill-rule="evenodd" clip-rule="evenodd" d="M23.4875 6.27187C23.8357 6.23516 24.169 6.25148 24.3604 6.60752C24.5835 7.02273 24.4974 7.42265 24.2483 7.79114C24.018 8.13197 23.7036 8.35029 23.2689 8.28394C22.943 8.2341 22.7691 8.00804 22.6909 7.70024C22.6072 7.0652 22.8474 6.63442 23.4875 6.27187Z" fill="#4D4D4D"/>
<path fill-rule="evenodd" clip-rule="evenodd" d="M15.6557 22.9703C15.6718 22.9646 15.6869 22.9666 15.7009 22.9762C15.6671 23.0773 15.6865 23.1954 15.6026 23.28C15.6004 23.1732 15.5673 23.0613 15.6557 22.9703Z" fill="#BEBB7C"/>
<path fill-rule="evenodd" clip-rule="evenodd" d="M4.07671 16.9086C3.85159 17.9851 3.66131 19.0659 3.58806 20.1663C3.5386 20.9107 3.56975 21.654 3.56201 22.3976C3.56843 22.5098 3.66584 22.6386 3.50283 22.7196C2.90271 20.3923 2.52412 18.0593 3.30867 15.6933C3.49301 16.1524 3.77627 16.5359 4.07671 16.9086Z" fill="#ECA407"/>
<path fill-rule="evenodd" clip-rule="evenodd" d="M4.96304 29.2694C5.25281 28.6191 5.8551 28.5095 6.36517 29.0116C6.59954 29.2423 6.72828 29.5235 6.75896 29.8454C6.81559 30.4404 6.44682 30.7646 5.76732 30.7291C5.16145 30.4285 4.88159 29.9485 4.96304 29.2694Z" fill="#4D4D4D"/>
<path fill-rule="evenodd" clip-rule="evenodd" d="M3.50293 22.7195C3.59543 22.6256 3.53153 22.5029 3.56211 22.3976C3.64376 22.6132 3.61459 22.8379 3.61525 23.0602C3.53965 22.9593 3.5219 22.8393 3.50293 22.7195Z" fill="#EBAF28"/>
<path fill-rule="evenodd" clip-rule="evenodd" d="M32.9219 20.0988C33.0282 19.4313 33.1866 18.7737 33.2724 18.1011C33.4287 16.8768 33.506 15.6532 33.3841 14.4215C33.3688 14.2661 33.3801 14.108 33.379 13.9513C33.69 14.8024 33.8428 15.6904 33.9739 16.5811C34.1474 17.7594 34.2136 18.9419 34.01 20.1254C33.941 20.5274 33.8526 20.9236 33.6724 21.3613C33.4973 20.8513 33.2221 20.4673 32.9219 20.0988Z" fill="#E76B2D"/>
<path fill-rule="evenodd" clip-rule="evenodd" d="M32.0298 7.7296C31.7493 8.3821 31.1447 8.49253 30.6309 7.98869C30.3619 7.72478 30.2194 7.40339 30.2345 7.03255C30.2573 6.47226 30.5688 6.24365 31.2254 6.27112C31.8285 6.5724 32.1143 7.04878 32.0298 7.7296Z" fill="#4D4D4D"/>
<path fill-rule="evenodd" clip-rule="evenodd" d="M29.1509 19.3605C29.1065 20.7755 28.9798 22.1785 28.514 23.5292C28.2802 24.2072 27.9675 24.8429 27.5007 25.3962C27.4003 25.5154 27.3638 25.5561 27.2302 25.4043C26.4675 24.5383 26.1459 23.4775 25.8883 22.3946C25.6503 21.3947 25.5564 20.3672 25.572 19.3443C25.5974 17.6644 25.7828 16.0022 26.5 14.4477C26.6982 14.0183 26.9504 13.6242 27.2568 13.2613C27.3807 13.1144 27.4227 13.2178 27.4894 13.296C28.0516 13.9548 28.3995 14.7264 28.6325 15.5486C28.8982 16.4861 29.0621 17.442 29.0997 18.4202C29.1118 18.7329 29.1534 19.0455 29.1509 19.3605Z" fill="#E76B2D"/>
<path fill-rule="evenodd" clip-rule="evenodd" d="M9.63648 23.8313C9.10168 23.2968 8.76963 22.6464 8.52913 21.9508C7.8653 20.0327 7.73863 18.0565 7.93986 16.0508C8.05218 14.9298 8.28136 13.8355 8.74688 12.8012C8.94141 12.3687 9.19069 11.972 9.4915 11.6032C9.62261 11.4425 9.67433 11.4902 9.78533 11.6182C10.4007 12.3264 10.7478 13.1724 10.9675 14.0594C11.611 16.6572 11.6006 19.2513 10.785 21.8173C10.5486 22.5612 10.2007 23.2528 9.63648 23.8313Z" fill="#ECA407"/>
</svg>
