<svg width="36" height="36" viewBox="0 0 36 36" fill="none" xmlns="http://www.w3.org/2000/svg">
<path fill-rule="evenodd" clip-rule="evenodd" d="M31.8956 26.3468C32.1989 26.8991 32.4752 27.4586 32.5675 28.0951C32.7661 29.4634 32.4303 30.7176 31.7074 31.8605C30.6208 33.5789 29.1023 34.6929 27.0518 35.0013C27.0242 35.0055 27.0003 35.0352 26.9747 35.0528C26.8638 35.0528 26.7528 35.0528 26.642 35.0528C26.4423 34.9993 26.2426 34.9993 26.0429 35.0528C25.9098 35.0528 25.7767 35.0528 25.6436 35.0528C25.288 34.9244 24.9269 34.8086 24.578 34.6639C24.1673 34.4939 24.1773 34.4855 24.366 34.0869C24.6718 33.4408 25.0086 32.8115 25.3707 32.1955C25.4688 31.744 25.8027 31.4365 26.071 31.0977C26.6358 30.3838 27.2897 29.7549 28.0664 29.2204C27.8956 29.1664 27.7457 29.149 27.6005 29.1133C27.3568 29.0696 27.1135 29.069 26.8706 29.1171C25.6006 29.3178 24.5772 29.974 23.6335 30.8113C23.237 31.1632 22.9144 31.5849 22.5017 31.9163C22.2876 31.4306 22.3364 30.9149 22.4056 30.4225C22.7859 27.7202 24.8571 25.4948 27.5189 24.9036C27.883 24.8228 28.2592 24.7963 28.6298 24.7447C29.6209 24.6815 30.4928 24.9859 31.2563 25.6087C31.5104 25.8161 31.7733 26.0223 31.8956 26.3468Z" fill="#E76B2D"/>
<path fill-rule="evenodd" clip-rule="evenodd" d="M8.87362 35.0528C8.76386 34.9324 8.60529 34.9701 8.47177 34.9406C5.67417 34.3229 3.54015 31.9148 3.30874 29.0683C3.23016 28.1017 3.48902 27.2044 4.02559 26.3919C4.12914 26.0113 4.44015 25.7895 4.71738 25.5667C5.36362 25.0476 6.11906 24.7752 6.94892 24.7192C7.08299 24.7101 7.21493 24.7213 7.3349 24.7919C10.3161 24.7892 13.1587 27.4126 13.5188 30.4118C13.5764 30.8922 13.6107 31.384 13.4564 31.8613C13.271 31.8755 13.1869 31.7248 13.0803 31.6204C12.5422 31.0932 12.0334 30.5348 11.3999 30.1134C10.6429 29.6097 9.83476 29.2362 8.92335 29.1183C8.71663 29.0677 8.50991 29.0701 8.30282 29.1145C8.14378 29.1518 7.97668 29.1425 7.8183 29.1954C8.83437 29.9444 9.68798 30.8464 10.4155 31.8711C10.4864 31.9711 10.563 32.0674 10.5487 32.2013C10.9581 32.8558 11.2879 33.5523 11.6398 34.2375C11.7361 34.4252 11.6967 34.4991 11.5228 34.5859C11.1547 34.7691 10.77 34.8938 10.3698 34.9783C10.3099 34.991 10.2325 34.9677 10.2046 35.0526C10.0937 35.0526 9.98275 35.0526 9.87188 35.0526C9.65003 34.9965 9.42828 34.9965 9.20643 35.0526C9.09537 35.0528 8.98459 35.0528 8.87362 35.0528Z" fill="#E76B2D"/>
<path fill-rule="evenodd" clip-rule="evenodd" d="M9.20605 35.0528C9.4279 34.9498 9.64965 34.948 9.8715 35.0528C9.64965 35.0528 9.42781 35.0528 9.20605 35.0528Z" fill="#E9773F"/>
<path fill-rule="evenodd" clip-rule="evenodd" d="M26.043 35.0528C26.2426 34.9455 26.4423 34.9474 26.642 35.0528C26.4423 35.0528 26.2427 35.0528 26.043 35.0528Z" fill="#E9763D"/>
<path fill-rule="evenodd" clip-rule="evenodd" d="M9.39524 16.6677C9.08951 16.3207 8.79595 15.9646 8.55981 15.5649C8.46193 15.517 8.42593 15.4218 8.39058 15.331C8.10165 14.5877 8.08179 13.8374 8.33945 13.0818C8.47761 12.9205 8.56473 13.0559 8.61669 13.1528C9.10612 14.0625 9.91287 14.6911 10.6155 15.4091C11.693 16.5104 12.7958 17.5874 13.8799 18.6823C14.7966 19.608 15.869 20.2435 17.1713 20.4164C18.76 20.6273 20.2086 20.2719 21.4685 19.2473C22.1415 18.7001 22.7176 18.0527 23.3322 17.4455C24.3653 16.4249 25.3839 15.3896 26.4166 14.3686C26.7743 14.0149 27.0939 13.6383 27.3272 13.1904C27.389 13.0718 27.4455 12.8883 27.6355 13.0686C27.9037 13.8254 27.8772 14.5769 27.5942 15.3229C27.5595 15.4145 27.5212 15.5086 27.425 15.5583C27.1863 15.9631 26.8906 16.3249 26.5799 16.6751C26.553 16.8299 26.4236 16.9088 26.326 17.0081C25.9801 17.3602 25.629 17.7071 25.2805 18.0564C25.1946 18.1425 25.1078 18.2255 24.9855 18.2572C24.268 18.9733 23.5505 19.6894 22.8331 20.4054C22.7074 20.4352 22.6272 20.3432 22.5338 20.2906C21.9944 19.9861 21.3843 20.0281 20.958 20.4021C20.5439 20.7652 20.4247 21.3506 20.645 21.9237C20.679 22.012 20.7597 22.0936 20.7003 22.2014C18.8939 23.1429 17.0875 23.1434 15.281 22.2016C15.2178 22.0675 15.3233 21.9714 15.3622 21.8629C15.553 21.332 15.4212 20.7512 15.0236 20.4023C14.6144 20.0431 14.0051 19.9872 13.5048 20.2565C13.392 20.3172 13.2996 20.4335 13.1487 20.4054C12.4249 19.6678 11.7098 18.9213 10.9485 18.2214C10.7945 18.1914 10.7115 18.0652 10.6108 17.9661C10.2723 17.6325 9.93653 17.296 9.60242 16.958C9.51836 16.8732 9.41277 16.8011 9.39524 16.6677Z" fill="#CB521B"/>
<path fill-rule="evenodd" clip-rule="evenodd" d="M9.39574 16.6677C9.93639 17.1626 10.455 17.6798 10.9489 18.2216C10.0622 18.6564 9.21964 19.1502 8.53981 19.889C7.36944 21.1608 6.99803 22.6591 7.24066 24.3393C7.26256 24.4917 7.30319 24.6413 7.33511 24.792C6.45441 24.7867 5.6432 25.0137 4.91662 25.5184C4.57063 25.7588 4.29719 26.0749 4.02562 26.3919C3.03441 22.2536 5.27337 18.1328 9.29841 16.6883C9.32931 16.6772 9.36308 16.6744 9.39574 16.6677Z" fill="#FEB500"/>
<path fill-rule="evenodd" clip-rule="evenodd" d="M24.9854 18.2574C25.5047 17.7178 26.0232 17.1774 26.5798 16.6753C29.2237 17.64 30.9777 19.466 31.8043 22.152C32.2287 23.5315 32.2665 24.9396 31.8958 26.3467C31.5951 26.0754 31.3439 25.7545 31.0076 25.5167C30.3571 25.0565 29.6335 24.8384 28.8464 24.803C28.7695 24.7995 28.6907 24.8067 28.6301 24.7445C28.7443 23.9673 28.8283 23.1898 28.6727 22.4072C28.3557 20.8115 27.417 19.6652 26.0724 18.8155C25.7275 18.5976 25.3725 18.395 24.9854 18.2574Z" fill="#FEB500"/>
<path fill-rule="evenodd" clip-rule="evenodd" d="M10.548 32.2013C9.75598 31.0365 8.81914 30.0104 7.65137 29.1793C7.85364 29.0711 8.06351 29.0584 8.27599 29.0577C8.49635 29.0141 8.71689 29.0147 8.93744 29.0573C10.0514 29.161 10.9806 29.6835 11.8478 30.3445C12.437 30.7934 12.9044 31.3718 13.4555 31.8614C13.1819 32.0714 12.846 32.0676 12.5296 32.125C11.8735 32.2439 11.209 32.1851 10.548 32.2013Z" fill="#88440B"/>
<path fill-rule="evenodd" clip-rule="evenodd" d="M27.6379 29.0575C27.8203 29.0867 28.0027 29.116 28.2708 29.1591C27.0722 30.0061 26.1263 31.0128 25.3709 32.1957C24.4803 32.2076 23.5887 32.2316 22.7173 31.9936C22.644 31.9736 22.5737 31.9424 22.502 31.9163C22.8328 31.3393 23.3611 30.9509 23.8472 30.5254C24.7121 29.7682 25.6762 29.2032 26.8435 29.0589C27.1082 29.0124 27.3729 29.015 27.6379 29.0575Z" fill="#88440B"/>
<path fill-rule="evenodd" clip-rule="evenodd" d="M13.1486 20.4056C13.8118 19.809 14.561 19.9405 14.9805 20.2446C15.5952 20.6901 15.7098 21.4425 15.2808 22.2019C14.6667 22.8417 13.9009 22.924 13.2801 22.4171C12.6842 21.9306 12.6335 21.1562 13.1486 20.4056Z" fill="#4CA8BE"/>
<path fill-rule="evenodd" clip-rule="evenodd" d="M20.7002 22.2017C20.1211 21.3293 20.5564 20.3067 21.3868 20.0547C21.9323 19.8893 22.413 20.0326 22.833 20.4055C23.6089 21.3974 23.011 22.4987 22.1469 22.6996C21.559 22.8362 21.0899 22.6368 20.7002 22.2017Z" fill="#4CA8BE"/>
<path fill-rule="evenodd" clip-rule="evenodd" d="M27.5618 13.0259C27.3085 13.2442 27.247 13.5904 27.02 13.8315C26.9161 13.942 26.8264 14.0712 26.717 14.1806C25.1423 15.7554 23.5731 17.3359 21.9909 18.9031C20.7011 20.1807 19.1235 20.7111 17.3357 20.5309C16.058 20.4022 14.9432 19.8434 14.027 18.9374C12.412 17.3403 10.8149 15.7249 9.20411 14.1236C8.87825 13.7997 8.71504 13.3671 8.41962 13.0256C8.35152 12.9164 8.42723 12.8398 8.48012 12.7581C8.76478 12.2703 9.06911 11.7981 9.51846 11.4401C9.55306 11.2934 9.68138 11.2356 9.79031 11.1652C10.3385 10.8108 10.8967 10.4726 11.4547 10.1337C12.4436 9.52292 13.3983 8.85144 14.4995 8.44273C16.9466 7.53457 19.376 7.56964 21.7899 8.56966C22.7691 8.9754 23.6309 9.58453 24.5275 10.1332C25.0783 10.4693 25.6308 10.803 26.1734 11.1523C26.29 11.2274 26.4295 11.2867 26.4677 11.4439C26.9134 11.8022 27.222 12.2678 27.4975 12.7595C27.5576 12.839 27.6296 12.9156 27.5618 13.0259Z" fill="#E76B2D"/>
<path fill-rule="evenodd" clip-rule="evenodd" d="M24.5249 10.226C23.8154 9.79738 23.1243 9.3342 22.3923 8.94841C21.3795 8.41472 20.296 8.08626 19.1483 7.95906C17.6516 7.79316 16.1966 7.93577 14.7743 8.42966C13.6126 8.83308 12.6061 9.52162 11.5721 10.1603C11.5347 10.1834 11.4959 10.2041 11.4577 10.2259C11.2448 9.95873 11.2446 9.54853 11.4571 9.22648C11.49 9.11328 11.5227 9.00009 11.5558 8.88689C11.5818 8.52791 11.8096 8.27304 12.0526 8.05982C12.5253 7.64526 13.0788 7.3414 13.6198 7.02389C13.6693 6.99485 13.7246 6.99355 13.7801 6.99634C14.4908 6.57296 15.1859 6.1212 15.9873 5.87356C17.6551 5.35815 19.2793 5.45715 20.8486 6.22753C21.3133 6.45559 21.7516 6.73775 22.2019 6.99504C22.6052 7.07316 22.8959 7.36116 23.2329 7.55916C23.6207 7.78685 24.0017 8.03477 24.2484 8.433C24.3352 8.57319 24.4366 8.70634 24.4229 8.88485C24.457 8.99823 24.4911 9.11171 24.5253 9.22518C24.738 9.54844 24.7378 9.95836 24.5249 10.226Z" fill="#B16B26"/>
<path fill-rule="evenodd" clip-rule="evenodd" d="M24.5244 10.2261C24.6274 9.8925 24.5852 9.55875 24.5247 9.22511C27.5246 8.45472 30.2937 7.14629 32.9818 5.61722C31.3852 8.20606 29.1576 10.0824 26.4675 11.4439C25.8198 11.038 25.1721 10.6321 24.5244 10.2261Z" fill="#FEB500"/>
<path fill-rule="evenodd" clip-rule="evenodd" d="M24.4223 8.88487C24.0644 8.03767 23.2657 7.68509 22.561 7.22711C22.4412 7.14936 22.321 7.07235 22.2012 6.99506C23.6244 5.50059 24.9022 3.8843 26.1698 2.25929C26.4827 1.85828 26.7982 1.45922 27.1127 1.05942C27.3058 1.08892 27.2273 1.24703 27.2337 1.34649C27.3601 3.32918 26.8277 5.1508 25.8702 6.86646C25.4642 7.59407 24.9571 8.2494 24.4223 8.88487Z" fill="#FEB500"/>
<path fill-rule="evenodd" clip-rule="evenodd" d="M27.5618 13.0259C27.5406 12.9371 27.5192 12.8483 27.4979 12.7595C28.6291 13.3342 29.6647 14.0526 30.6316 14.8701C31.8498 15.8998 32.9175 17.0654 33.7815 18.411C33.8387 18.4999 33.8899 18.5926 33.9877 18.7574C33.6967 18.5917 33.4794 18.4685 33.2628 18.3444C31.4148 17.2864 29.5136 16.3406 27.51 15.6096C27.4798 15.5986 27.4539 15.5757 27.4258 15.5584C27.6075 15.0524 27.7495 14.5441 27.7217 13.9927C27.7049 13.6603 27.6393 13.3441 27.5618 13.0259Z" fill="#FEB500"/>
<path fill-rule="evenodd" clip-rule="evenodd" d="M11.4566 9.2265C11.3965 9.55977 11.354 9.89296 11.4574 10.2261C10.8108 10.6307 10.1645 11.0355 9.51818 11.4401C6.81262 10.0768 4.57496 8.18788 2.96191 5.58279C5.65727 7.12411 8.43494 8.46103 11.4566 9.2265Z" fill="#FEB500"/>
<path fill-rule="evenodd" clip-rule="evenodd" d="M13.7794 6.99634C13.3522 7.2682 12.9285 7.54581 12.4968 7.81024C12.0689 8.07244 11.7784 8.44887 11.5552 8.8869C10.2673 7.38854 9.3516 5.69932 8.91283 3.76219C8.71046 2.86915 8.71575 1.96543 8.74609 1.05922C8.89315 1.03157 8.92943 1.16388 8.99299 1.24209C10.1981 2.72468 11.3517 4.24902 12.5994 5.697C12.981 6.14013 13.3855 6.56378 13.7794 6.99634Z" fill="#FEB500"/>
<path fill-rule="evenodd" clip-rule="evenodd" d="M8.47989 12.7581C8.45966 12.8473 8.43944 12.9364 8.4194 13.0256C8.15932 13.889 8.2201 14.7347 8.55987 15.5648C6.99962 16.1597 5.47667 16.8373 4.00763 17.6325C3.35741 17.9845 2.71785 18.3561 2.0127 18.753C2.23111 18.3023 2.4935 17.9546 2.75329 17.6087C4.27392 15.5858 6.17719 14.0081 8.38683 12.7897C8.41494 12.7741 8.44872 12.7684 8.47989 12.7581Z" fill="#FEB500"/>
<path fill-rule="evenodd" clip-rule="evenodd" d="M27.6383 29.0575C27.3734 29.0579 27.1086 29.0584 26.8438 29.0589C27.1085 28.9607 27.3733 28.9601 27.6383 29.0575Z" fill="#BE7B4E"/>
<path fill-rule="evenodd" clip-rule="evenodd" d="M8.93791 29.0573C8.71737 29.0575 8.49682 29.0576 8.27637 29.0577C8.49682 28.9593 8.71737 28.9598 8.93791 29.0573Z" fill="#B97A4E"/>
</svg>
