<svg width="35" height="35" viewBox="0 0 35 35" fill="none" xmlns="http://www.w3.org/2000/svg">
<path fill-rule="evenodd" clip-rule="evenodd" d="M1.1543 18.4666C1.1543 18.3815 1.1543 18.2963 1.1543 18.2112C1.20501 17.977 1.20501 17.743 1.1543 17.5088C1.1543 17.4237 1.1543 17.3385 1.1543 17.2534C1.38367 15.7381 2.08716 14.3757 2.5529 12.9367C2.73916 12.3617 2.95187 11.7944 3.19835 11.2404C4.08208 9.2545 5.47963 7.72882 7.34362 6.62889C8.7493 5.79937 10.2694 5.37169 11.9074 5.28955C12.9774 5.23596 14.0209 5.33538 15.0647 5.52958C15.6886 5.73539 16.3204 5.91432 16.9206 6.19388C18.2616 6.81864 19.3936 7.70708 20.3665 8.81478C21.4644 10.0647 22.0672 11.5676 22.5993 13.1095C22.7723 13.6111 22.962 14.1068 23.1308 14.6102C23.3931 15.3257 23.6871 16.0302 23.8981 16.7628C24.2998 18.1565 24.0132 19.3993 23.053 20.4869C22.961 20.5912 22.839 20.6608 22.7455 20.7627C22.5183 21.0415 22.2237 21.2288 21.8973 21.3658C21.6183 21.4829 21.4636 21.4182 21.3259 21.1475C21.1952 20.8903 21.1162 20.6132 21.0273 20.3407C20.5072 18.7442 18.8207 18.0072 17.2979 18.6114C17.1281 18.6787 16.9759 18.7748 16.8244 18.8731C16.3811 19.1608 16.35 19.1619 15.9285 18.8415C15.2758 18.3454 14.5557 17.9888 13.7507 17.8265C12.1155 17.497 10.606 17.7894 9.24523 18.7741C9.16773 18.8301 9.08568 18.8793 9.01167 18.9409C8.80263 19.1153 8.59813 19.1063 8.37242 18.9525C7.2251 18.1707 6.00079 18.2032 4.91693 19.0516C4.47685 19.396 4.2178 19.8719 4.0366 20.3926C3.9563 20.6236 3.88971 20.8592 3.79928 21.0863C3.66138 21.433 3.45836 21.5055 3.11857 21.3422C2.77887 21.1789 2.49791 20.9357 2.21678 20.692C1.64124 20.1156 1.20876 19.4677 1.18642 18.6163C1.18511 18.5647 1.19549 18.51 1.1543 18.4666Z" fill="#B16B26"/>
<path fill-rule="evenodd" clip-rule="evenodd" d="M15.0664 5.62742C16.5792 4.00075 18.4329 2.98854 20.6208 2.63086C23.2897 2.19463 25.8045 2.61812 28.0871 4.12862C29.9388 5.35388 31.2174 7.03519 31.9751 9.11633C32.5156 10.6011 33.0514 12.0875 33.5834 13.5752C33.6851 13.8597 33.7586 14.1542 33.8451 14.4441C33.8451 14.5079 33.8451 14.5718 33.8451 14.6356C33.7925 14.8484 33.7925 15.0613 33.8451 15.2741C33.8451 15.3592 33.8451 15.4444 33.8451 15.5295C33.7232 15.7299 33.7199 15.9673 33.6418 16.1818C33.4313 16.7592 33.0978 17.2563 32.675 17.6973C32.4817 18.1652 32.0672 18.3562 31.6293 18.4856C31.4137 18.5492 31.2875 18.3681 31.2107 18.1753C31.0892 17.8697 30.9959 17.5541 30.88 17.2461C30.2367 15.5363 28.1182 14.9556 26.7078 15.9655C26.3325 16.2343 26.2659 16.2346 25.9195 15.9673C25.147 15.3713 24.285 14.9877 23.3231 14.835C23.182 14.8128 23.11 14.7044 22.997 14.6525C22.5023 13.319 22.1194 11.9402 21.4533 10.6757C20.5386 8.93915 19.2102 7.60086 17.4921 6.64521C16.7912 6.25524 16.0563 5.95961 15.2838 5.7511C15.2006 5.72893 15.122 5.69838 15.0664 5.62742Z" fill="#88440B"/>
<path fill-rule="evenodd" clip-rule="evenodd" d="M1.1543 17.5089C1.25563 17.7431 1.2538 17.9771 1.1543 18.2113C1.1543 17.9771 1.1543 17.743 1.1543 17.5089Z" fill="#B87737"/>
<path fill-rule="evenodd" clip-rule="evenodd" d="M33.845 15.2742C33.7459 15.0614 33.7481 14.8486 33.845 14.6358C33.845 14.8485 33.845 15.0614 33.845 15.2742Z" fill="#91521D"/>
<path fill-rule="evenodd" clip-rule="evenodd" d="M18.7139 27.6546C18.5629 27.6808 18.5326 27.8227 18.4634 27.9235C17.533 29.2793 16.5376 30.577 15.1809 31.5445C14.3061 32.1683 13.3675 32.6136 12.2498 32.5189C11.3824 32.4452 10.6397 32.0668 9.94797 31.5741C8.48285 30.5305 7.41854 29.1272 6.44762 27.6417C5.98738 26.9375 5.58265 26.2016 5.1953 25.4558C5.12949 25.3289 5.07223 25.2136 4.89068 25.2395C4.09886 25.3525 3.46494 25.0206 2.96987 24.4528C2.04818 23.396 1.75736 22.1889 2.24369 20.837C2.27206 20.7582 2.28585 20.6741 2.30671 20.5926C2.59962 20.858 2.91733 21.0863 3.27039 21.2671C3.46371 21.3661 3.57238 21.3453 3.64334 21.1189C3.761 20.7438 3.88851 20.3702 4.04021 20.0078C4.76255 18.2827 6.97663 17.6972 8.45492 18.845C8.64947 18.996 8.76224 18.9787 8.94196 18.8315C11.0237 17.1254 14.0202 17.12 16.1323 18.8213C16.3203 18.9726 16.4311 18.9942 16.6359 18.8416C18.1742 17.6962 20.312 18.2792 21.0618 20.042C21.2073 20.384 21.3349 20.7356 21.4396 21.0919C21.5176 21.3573 21.6372 21.3636 21.8527 21.2499C22.1462 21.0949 22.4109 20.9011 22.6739 20.7026C22.8744 20.6063 22.9413 20.766 23.0094 20.8911C23.1066 21.0696 23.1574 21.2699 23.1777 21.4692C23.3026 22.6956 23.0113 23.7858 22.1021 24.666C21.8509 24.9033 21.5821 25.1144 21.2477 25.2251C20.9652 25.3654 20.6568 25.4142 20.3518 25.3978C20.1055 25.3846 20.0089 25.5115 19.9198 25.6918C19.6232 26.2912 19.2945 26.8725 18.9277 27.432C18.8701 27.5199 18.831 27.6244 18.7139 27.6546Z" fill="#F6CB77"/>
<path fill-rule="evenodd" clip-rule="evenodd" d="M18.7139 27.6546C18.7128 27.4098 18.8937 27.2545 19.0045 27.0651C19.2993 26.5613 19.5918 26.0564 19.8441 25.5292C19.9438 25.3209 20.0668 25.2173 20.3418 25.2584C20.6274 25.3011 20.9318 25.2374 21.207 25.1091C21.3156 25.198 21.322 25.3254 21.3481 25.4511C21.4701 26.0401 22.0294 26.4418 22.6141 26.3691C23.15 26.3024 23.5763 25.7907 23.566 25.2309C23.5616 24.9865 23.4762 24.7887 23.234 24.7055C22.9883 24.6212 22.8097 24.7315 22.6624 24.9322C22.4767 25.1856 22.4457 25.1818 22.2531 24.9384C22.1614 24.8223 22.0369 24.7338 21.9697 24.5974C22.6356 23.9508 23.0211 23.1738 23.0529 22.2379C23.0666 21.8356 23.081 21.43 22.9231 21.0459C22.8683 20.9128 22.8473 20.7512 22.6738 20.7026C23.3836 20.0123 23.8274 19.1925 23.9202 18.1931C23.9653 17.7084 23.91 17.2362 23.7569 16.781C23.5169 16.067 23.2513 15.3617 22.9965 14.6527C24.0139 14.7444 24.9632 15.0574 25.7607 15.6914C26.1642 16.012 26.4068 16.0105 26.8476 15.731C28.2937 14.8143 30.2697 15.477 30.9485 17.0536C31.1079 17.4239 31.2362 17.8088 31.3578 18.1936C31.429 18.419 31.5317 18.4395 31.7285 18.3403C32.073 18.1665 32.3751 17.935 32.6745 17.6974C33.4001 19.2504 32.7447 20.9671 31.7841 21.7655C31.3018 22.1664 30.7639 22.4183 30.1168 22.3099C29.9113 22.2755 29.8623 22.4115 29.7949 22.5436C29.1365 23.8337 28.3874 25.068 27.4967 26.2117C26.5826 27.3853 25.5688 28.4508 24.2245 29.1467C23.1029 29.7272 21.9697 29.7704 20.8266 29.2182C20.0247 28.8308 19.3184 28.3106 18.7139 27.6546Z" fill="#ECBD6B"/>
<path fill-rule="evenodd" clip-rule="evenodd" d="M8.74808 22.2249C8.18581 22.5384 7.62311 22.5614 7.05822 22.2302C7.03396 22.216 6.99599 22.2251 6.9643 22.2233C6.57869 21.9681 6.26806 21.6634 6.25977 21.1578C6.2918 20.9811 6.287 20.7948 6.38964 20.6356C7.39495 19.9565 8.59063 19.974 9.45288 20.6806C9.73733 21.3007 9.44311 21.9453 8.74808 22.2249Z" fill="#4D4D4D"/>
<path fill-rule="evenodd" clip-rule="evenodd" d="M15.642 20.6831C16.4682 19.9683 17.6762 19.9543 18.7222 20.6477C18.9777 21.2124 18.8466 21.6408 18.2764 22.1061C18.1758 22.1884 18.0677 22.2579 17.9402 22.2923C17.3776 22.5473 16.827 22.5096 16.2863 22.225C15.9237 22.0189 15.6314 21.7583 15.5463 21.321C15.502 21.0932 15.4921 20.8781 15.642 20.6831Z" fill="#4D4D4D"/>
<path fill-rule="evenodd" clip-rule="evenodd" d="M12.5486 27.9122C12.7649 27.5053 13.0106 27.37 13.3533 27.4668C13.6807 27.5594 13.8308 27.8337 13.7978 28.2795C13.7454 28.9847 13.0749 29.5109 12.3702 29.3996C11.6256 29.2819 11.1374 28.5921 11.3133 27.8957C11.3725 27.6617 11.5262 27.5096 11.7682 27.457C12.0205 27.4021 12.2293 27.4794 12.3929 27.6732C12.4534 27.7448 12.4967 27.831 12.5486 27.9122Z" fill="#E76B2D"/>
<path fill-rule="evenodd" clip-rule="evenodd" d="M21.9701 24.5974C22.2545 24.5966 22.3467 24.8167 22.4555 25.0362C22.5805 24.7422 22.7575 24.5318 23.0937 24.5331C23.448 24.5346 23.7073 24.8134 23.7173 25.2006C23.7356 25.9192 23.1888 26.504 22.4899 26.5132C21.7564 26.5227 21.1995 25.9719 21.1992 25.2359C21.1992 25.1935 21.2045 25.1512 21.2073 25.109C21.4947 24.9879 21.753 24.8235 21.9701 24.5974Z" fill="#E76B2D"/>
<path fill-rule="evenodd" clip-rule="evenodd" d="M15.642 20.6831C15.5754 21.3146 15.8365 21.8092 16.2863 22.225C15.7878 22.1025 15.4337 21.7804 15.1283 21.3895C15.0501 21.2895 15.0989 21.2157 15.1606 21.1358C15.2972 20.9592 15.4354 20.785 15.642 20.6831Z" fill="#FDFDFC"/>
<path fill-rule="evenodd" clip-rule="evenodd" d="M18.1999 22.1051C18.6204 21.7076 18.7847 21.2182 18.7228 20.6476C19.4718 21.3045 19.4597 21.2755 18.6819 21.945C18.5648 22.0457 18.4087 22.1009 18.2706 22.1772C18.2044 22.1949 18.1854 22.1665 18.1999 22.1051Z" fill="#FDFCFB"/>
<path fill-rule="evenodd" clip-rule="evenodd" d="M8.74805 22.2249C9.2775 21.8446 9.49343 21.3212 9.45276 20.6807C10.1823 21.268 10.1515 21.3054 9.47144 21.8794C9.26519 22.0534 9.04585 22.229 8.74805 22.2249Z" fill="#FDFDFC"/>
<path fill-rule="evenodd" clip-rule="evenodd" d="M6.38082 21.2152C6.43284 21.6338 6.7344 21.9079 6.9643 22.2233C6.4839 22.0895 6.14524 21.7652 5.84037 21.3929C5.75876 21.2934 5.80266 21.2198 5.86655 21.1418C6.00036 20.9782 6.13748 20.8179 6.31885 20.7032C6.41399 20.8649 6.3116 21.0505 6.38082 21.2152Z" fill="#FDFCFB"/>
<path fill-rule="evenodd" clip-rule="evenodd" d="M6.38132 21.2153C6.27309 21.0552 6.33453 20.8747 6.31926 20.7033C6.34283 20.6807 6.36639 20.6581 6.39004 20.6356C6.38708 20.8289 6.3842 21.0221 6.38132 21.2153Z" fill="#C0BDB7"/>
<path fill-rule="evenodd" clip-rule="evenodd" d="M18.1995 22.1051C18.2231 22.1291 18.2466 22.1532 18.2703 22.1772C18.1775 22.2648 18.0656 22.2977 17.9404 22.2922C18.0268 22.2298 18.1131 22.1675 18.1995 22.1051Z" fill="#F0E8D7"/>
<path fill-rule="evenodd" clip-rule="evenodd" d="M25.4849 18.0179C26.4923 17.2936 27.5131 17.3348 28.5441 17.965C28.6547 18.1202 28.6377 18.3077 28.6768 18.4812C28.6615 19.053 28.3357 19.3953 27.8382 19.6094C27.2393 19.8983 26.6504 19.8734 26.071 19.553C25.7824 19.3382 25.5034 19.1256 25.4069 18.7422C25.3411 18.4811 25.3273 18.2455 25.4849 18.0179Z" fill="#4D4D4D"/>
<path fill-rule="evenodd" clip-rule="evenodd" d="M25.4844 18.0179C25.4032 18.6352 25.6948 19.1101 26.0705 19.5529C25.5935 19.4372 25.2795 19.1015 24.9772 18.7479C24.8982 18.6553 24.9225 18.5813 24.9892 18.4983C25.1345 18.3172 25.2883 18.1461 25.4844 18.0179Z" fill="#FDFDFC"/>
<path fill-rule="evenodd" clip-rule="evenodd" d="M27.8379 19.6093C28.2069 19.335 28.4787 18.9961 28.559 18.5291C28.6412 18.3876 28.4708 18.1879 28.6645 18.0722C29.2781 18.65 29.2937 18.6128 28.6371 19.2001C28.4126 19.4008 28.1603 19.5828 27.8379 19.6093Z" fill="#FDFCFB"/>
<path fill-rule="evenodd" clip-rule="evenodd" d="M28.6647 18.0722C28.5616 18.2088 28.6745 18.3953 28.5592 18.5291C28.5541 18.3409 28.549 18.1528 28.5439 17.9647C28.5843 18.0007 28.6245 18.0364 28.6647 18.0722Z" fill="#D1C5AE"/>
</svg>
