<svg width="35" height="35" viewBox="0 0 35 35" fill="none" xmlns="http://www.w3.org/2000/svg">
<path fill-rule="evenodd" clip-rule="evenodd" d="M2.20818 30.493C2.7423 30.0718 3.18851 29.5606 3.66017 29.0755C3.74441 28.8001 3.99518 28.6628 4.17085 28.4636C4.28272 28.3367 4.40924 28.2228 4.52554 28.0992C4.58123 28.0418 4.64419 27.9909 4.69435 27.9292C5.36136 27.1098 6.21526 26.5753 7.20472 26.2218C7.72 26.0377 8.21118 25.7855 8.716 25.5703C8.83389 25.52 8.94969 25.4521 9.08752 25.4874C9.17351 25.678 8.9975 25.7462 8.90691 25.8376C7.73985 27.0135 6.56693 28.1834 5.39544 29.3548C5.12749 29.6228 5.12749 29.6228 5.38681 29.8833C5.7755 30.2736 5.7755 30.2735 6.16837 29.8807C7.29741 28.7516 8.4252 27.621 9.55826 26.4959C9.65187 26.403 9.72271 26.2337 9.91261 26.3078C9.96436 26.4232 9.90834 26.5218 9.86321 26.6215C9.4726 27.4862 9.1056 28.3613 8.72437 29.2301C8.60966 29.4917 8.46681 29.7215 8.26016 29.9185C7.99272 30.1735 7.73658 30.4405 7.47408 30.7008C7.38215 30.7919 7.29473 30.8908 7.15942 30.9222C5.99471 30.9361 4.82773 31.034 3.67005 30.8215C3.28832 30.7891 2.91102 30.7207 2.52971 30.6843C2.41114 30.6729 2.2981 30.6386 2.20801 30.553C2.20818 30.5329 2.20818 30.5129 2.20818 30.493Z" fill="#FEB500"/>
<path fill-rule="evenodd" clip-rule="evenodd" d="M4.84729 33.1915C4.78784 32.7135 4.7284 32.2356 4.66895 31.7577C4.72362 31.6892 4.80225 31.6697 4.88221 31.6665C5.27073 31.6507 5.65933 31.6509 6.04776 31.6665C6.12781 31.6696 6.20643 31.689 6.26153 31.7571C5.8674 32.1594 5.47177 32.5602 5.08082 32.9655C5.01568 33.0331 4.91269 33.0764 4.90725 33.1915C4.88723 33.1915 4.86722 33.1915 4.84729 33.1915Z" fill="#FEB602"/>
<path fill-rule="evenodd" clip-rule="evenodd" d="M3.66814 6.52742C3.16566 5.61507 2.82085 4.65316 2.72247 3.60835C2.69166 3.28087 2.70422 2.95482 2.69727 2.62818C2.84103 2.60783 2.81985 2.74055 2.8479 2.80804C4.07742 5.76554 6.25822 7.62724 9.36477 8.35169C12.0625 8.98076 14.589 9.99074 16.909 11.5019C18.0727 12.2599 19.1657 13.1131 20.1664 14.0804C20.2406 14.152 20.2961 14.2674 20.4321 14.2438C20.4633 14.3326 20.3884 14.3676 20.3421 14.413C19.6041 15.1394 18.8779 15.8778 18.1424 16.6067C18.0588 16.6896 17.9831 16.789 17.849 16.7957C17.731 16.7786 17.6575 16.693 17.5815 16.6154C15.7813 14.7775 13.7268 13.2738 11.502 11.9956C10.489 11.4137 9.42874 10.9244 8.36115 10.4544C6.91008 9.81566 5.61014 8.96687 4.51936 7.80927C4.28742 7.49954 4.0348 7.20523 3.82706 6.877C3.7574 6.76681 3.69066 6.65779 3.66814 6.52742Z" fill="#B16B26"/>
<path fill-rule="evenodd" clip-rule="evenodd" d="M32.7714 32.7021C31.3767 32.7618 30.0841 32.4103 28.8729 31.7319C28.4988 31.6243 28.2239 31.3568 27.9208 31.1363C27.809 31.0549 27.7015 30.966 27.5917 30.8806C26.4335 29.7875 25.5759 28.4895 24.946 27.0316C23.9355 24.6925 22.6903 22.4878 21.1309 20.4678C20.4349 19.566 19.6863 18.7088 18.8749 17.9076C18.77 17.804 18.6416 17.7149 18.6045 17.5573C18.6038 17.4334 18.6908 17.3598 18.7672 17.2827C19.5111 16.531 20.2666 15.791 21.0065 15.0353C21.0464 14.9947 21.0829 14.9387 21.1559 14.9673C21.1309 15.077 21.2178 15.128 21.2771 15.1904C24.2598 18.3238 26.1297 22.0269 27.1093 26.2349C27.8116 29.2515 29.7023 31.3398 32.5635 32.5411C32.6392 32.5729 32.7836 32.5458 32.7714 32.7021Z" fill="#B16B26"/>
<path fill-rule="evenodd" clip-rule="evenodd" d="M21.156 14.9673C20.3921 15.7385 19.6276 16.5092 18.8652 17.2819C18.7823 17.3659 18.6785 17.4338 18.6339 17.5515C18.5831 17.7014 18.4572 17.7911 18.3524 17.896C15.6056 20.6462 12.8547 23.3923 10.1088 26.1433C10.0596 26.1926 10.0176 26.2501 9.95316 26.282C9.94504 26.286 9.93382 26.2852 9.92403 26.2843C9.90761 26.283 9.90828 26.2697 9.92587 26.2467C9.84364 26.3182 9.75664 26.3847 9.67969 26.4615C8.43577 27.7033 7.19042 28.9438 5.95337 30.1925C5.81035 30.337 5.72109 30.3689 5.58386 30.1984C5.422 29.9974 5.08766 29.849 5.09084 29.6316C5.09344 29.4492 5.39429 29.2675 5.56954 29.092C6.69113 27.9678 7.81465 26.8457 8.9364 25.7217C9.01319 25.6449 9.08009 25.558 9.1516 25.4757C9.07892 25.3881 9.18191 25.3669 9.2149 25.334C12.0162 22.5394 14.8093 19.7366 17.6091 16.9408C17.6798 16.8702 17.7479 16.7959 17.8482 16.7658C18.1721 16.5295 18.425 16.2186 18.7099 15.9416C19.2879 15.3795 19.8588 14.8099 20.4326 14.2436C21.4423 13.2295 22.4522 12.2156 23.4616 11.2012C23.5456 11.1168 23.6258 11.0286 23.7077 10.9422C23.9601 10.7906 24.2253 10.8425 24.4171 11.0075C24.6031 11.1673 24.5987 11.4221 24.4815 11.6517C23.373 12.7569 22.2645 13.8621 21.156 14.9673Z" fill="#703305"/>
<path fill-rule="evenodd" clip-rule="evenodd" d="M24.4818 11.6517C24.4551 10.9592 24.4373 10.9428 23.708 10.9423C22.9896 10.8374 22.2713 10.7327 21.4697 10.6158C23.4659 9.7454 25.3986 8.90264 27.3999 8.02998C26.5313 10.0236 25.6942 11.9451 24.8571 13.8666C24.838 13.866 24.819 13.8654 24.7999 13.8648C24.6938 13.1271 24.5878 12.3894 24.4818 11.6517Z" fill="#FEB500"/>
<path fill-rule="evenodd" clip-rule="evenodd" d="M3.66892 6.52741C3.96282 6.93092 4.2568 7.33451 4.55062 7.73801C4.62581 7.89467 4.64674 8.06013 4.64674 8.23303C4.64574 14.7189 4.64574 21.2048 4.64699 27.6907C4.64699 27.8641 4.61995 28.0282 4.55103 28.1862C4.25412 28.4826 3.95729 28.779 3.66046 29.0755C3.65736 28.9658 3.65167 28.8562 3.65167 28.7465C3.65125 21.4493 3.65117 14.1521 3.65209 6.85497C3.65209 6.74579 3.66306 6.6366 3.66892 6.52741Z" fill="#4CA9BE"/>
<path fill-rule="evenodd" clip-rule="evenodd" d="M27.6618 30.8494C28.0655 31.1436 28.4694 31.4379 28.8731 31.732C28.7437 31.7375 28.6145 31.748 28.4853 31.748C21.2168 31.7488 13.9485 31.7487 6.6801 31.7491C6.54043 31.7491 6.40077 31.7544 6.2611 31.7571C5.73015 31.7574 5.19929 31.7576 4.66852 31.7579C4.42929 31.7548 4.18907 31.7376 3.9511 31.753C3.7267 31.7674 3.62128 31.7133 3.64615 31.4622C3.66968 31.2251 3.65234 30.984 3.6531 30.7446C4.83548 30.9262 6.02523 30.8606 7.2133 30.8491C7.38068 30.7739 7.5561 30.753 7.73889 30.7531C14.2048 30.7545 20.6707 30.7544 27.1367 30.7534C27.3191 30.7531 27.4959 30.7675 27.6618 30.8494Z" fill="#4CA8BE"/>
</svg>
