<svg width="40" height="40" viewBox="0 0 40 40" fill="none" xmlns="http://www.w3.org/2000/svg">
<g id="noun-schedule-123953 1" clip-path="url(#clip0_5_1531)">
<path id="Vector" d="M17.2893 16.6211H13.4364V20.4726H17.2893V16.6211Z" fill="#998448"/>
<path id="Vector_2" d="M17.2893 22.541H13.4364V26.3952H17.2893V22.541Z" fill="#998448"/>
<path id="Vector_3" d="M17.2893 28.4629H13.4364V32.3171H17.2893V28.4629Z" fill="#998448"/>
<path id="Vector_4" d="M10.3711 22.541H6.51867V26.3952H10.3711V22.541Z" fill="#998448"/>
<path id="Vector_5" d="M10.3711 28.4629H6.51867V32.3171H10.3711V28.4629Z" fill="#998448"/>
<path id="Vector_6" d="M11.992 5.31511C11.992 6.832 10.7627 8.06133 9.24489 8.06133C7.728 8.06133 6.49778 6.832 6.49778 5.31511V2.74711C6.49778 1.23022 7.728 0 9.24489 0C10.7627 0 11.992 1.23022 11.992 2.74711V5.31511Z" fill="#998448"/>
<path id="Vector_7" d="M30.7516 5.31511C30.7516 6.832 29.5249 8.06133 28.0058 8.06133C26.4893 8.06133 25.2573 6.832 25.2573 5.31511V2.74711C25.2578 1.23022 26.4898 0 28.0062 0C29.5253 0 30.752 1.23022 30.752 2.74711L30.7516 5.31511Z" fill="#998448"/>
<path id="Vector_8" d="M29.6191 40.0002C23.96 40.0002 19.352 35.3856 19.352 29.7144C19.352 24.038 23.9604 19.4282 29.6191 19.4282C35.2778 19.4282 39.8858 24.038 39.8858 29.7144C39.8853 35.3856 35.2778 40.0002 29.6191 40.0002ZM29.6191 21.9838C25.3676 21.9838 21.908 25.4518 21.908 29.7149C21.908 33.9731 25.3671 37.4416 29.6191 37.4416C33.8711 37.4416 37.3284 33.9731 37.3284 29.7149C37.328 25.4518 33.8707 21.9838 29.6191 21.9838Z" fill="#998448"/>
<path id="Vector_9" d="M29.7178 30.8908C29.2942 31.1055 28.7827 30.9344 28.5702 30.5135C28.3524 30.0873 28.5218 29.5731 28.9453 29.3584L34.4764 26.5708C34.8973 26.3553 35.4156 26.5264 35.6267 26.9486C35.8418 27.3744 35.6751 27.8837 35.2471 28.0993L29.7178 30.8908Z" fill="#998448"/>
<path id="Vector_10" d="M28.1311 29.9599C28.1876 29.227 28.8262 28.6822 29.5582 28.7395C30.2907 28.7964 30.8333 29.4368 30.776 30.1662C30.7204 30.895 30.0822 31.4439 29.3489 31.3866C28.62 31.3297 28.0764 30.6893 28.1311 29.9599Z" fill="#998448"/>
<path id="Vector_11" d="M29.6191 17.9131C30.1302 17.9131 30.6311 17.9571 31.1253 18.0198V16.6211H27.2729V18.1486C28.0311 17.9953 28.816 17.9131 29.6191 17.9131Z" fill="#998448"/>
<path id="Vector_12" d="M24.2084 19.2406V16.6211H20.3542V20.4726H22.3111C22.9 20.0038 23.5347 19.5913 24.2084 19.2406Z" fill="#998448"/>
<path id="Vector_13" d="M19.6587 35.3964C19.6578 35.3956 19.6569 35.3933 19.6556 35.3911C19.4156 35.0244 19.2 34.6409 19.0009 34.2471H2.81378V13.1316H34.2036V18.1173C34.2044 18.1173 34.2044 18.1178 34.2053 18.1182C34.6707 18.3218 35.1151 18.5604 35.5467 18.82C35.6258 18.8671 35.7044 18.9142 35.7827 18.9636C36.2133 19.2369 36.6316 19.5289 37.0222 19.8542V4H32.0947V4.53556C32.0947 6.85111 30.2093 8.73822 27.8916 8.73822C25.5738 8.73822 23.6902 6.85156 23.6902 4.53556V4H13.3316V4.53556C13.3316 6.85111 11.4458 8.73822 9.13022 8.73822C6.81111 8.73822 4.92889 6.85156 4.92889 4.53556V4H0V36.4587H20.4356C20.4347 36.4587 20.4347 36.4573 20.4338 36.4573C20.1556 36.12 19.9 35.7644 19.6587 35.3964Z" fill="#998448"/>
</g>
<defs>
<clipPath id="clip0_5_1531">
<rect width="40" height="40" fill="white"/>
</clipPath>
</defs>
</svg>
