<svg width="24" height="25" viewBox="0 0 24 25" fill="none" xmlns="http://www.w3.org/2000/svg">
<g clip-path="url(#clip0_3573_3630)">
<path d="M12 24.5497L5.63604 18.1858C2.12132 14.671 2.12132 8.97254 5.63604 5.45782C9.15076 1.9431 14.8492 1.9431 18.364 5.45782C21.8787 8.97254 21.8787 14.671 18.364 18.1858L12 24.5497ZM16.9497 16.7715C19.6834 14.0379 19.6834 9.6057 16.9497 6.87203C14.2161 4.13836 9.78392 4.13836 7.05025 6.87203C4.31658 9.6057 4.31658 14.0379 7.05025 16.7715L12 21.7213L16.9497 16.7715ZM12 13.8218C10.8954 13.8218 10 12.9264 10 11.8218C10 10.7172 10.8954 9.82178 12 9.82178C13.1046 9.82178 14 10.7172 14 11.8218C14 12.9264 13.1046 13.8218 12 13.8218Z" fill="#8A0B00"/>
<path d="M10 11.8218C10 12.9264 10.8954 13.8218 12 13.8218C13.1046 13.8218 14 12.9264 14 11.8218C14 10.7172 13.1046 9.82178 12 9.82178C10.8954 9.82178 10 10.7172 10 11.8218Z" fill="#D7B962"/>
</g>
<defs>
<clipPath id="clip0_3573_3630">
<rect width="24" height="24" fill="white" transform="translate(0 0.821777)"/>
</clipPath>
</defs>
</svg>
