<svg width="31" height="31" viewBox="0 0 31 31" fill="none" xmlns="http://www.w3.org/2000/svg">
<path d="M10.2617 10.9602V15.0305V19.1009L17.5455 22.5285C18.1882 22.7428 18.8309 22.3143 18.8309 21.6716V14.8163V7.96097C18.8309 7.31828 18.1882 6.88984 17.5455 7.10407L10.2617 10.9602Z" fill="#555555"/>
<path d="M8.11905 11.3887V18.8867C8.11905 18.8867 4.69141 19.1009 4.69141 15.2448C4.69141 11.3887 8.11905 11.3887 8.11905 11.3887Z" fill="#555555"/>
<path d="M24.1913 16.1016H21.6206C21.1921 16.1016 20.7637 15.6732 20.7637 15.2447V15.0305C20.7637 14.602 21.1921 14.1736 21.6206 14.1736H24.1913C24.6198 14.1736 25.0482 14.602 25.0482 15.0305V15.2447C25.0482 15.6732 24.6198 16.1016 24.1913 16.1016Z" fill="#555555"/>
<path d="M24.4056 10.9602L21.8349 11.8171C21.4064 12.0313 20.978 11.8171 20.7637 11.3886V11.1744C20.5495 10.7459 20.7637 10.3175 21.1922 10.1032L23.7629 9.24634C24.1914 9.03211 24.6198 9.24633 24.8341 9.67479V9.88901C25.0483 10.3175 24.8341 10.7459 24.4056 10.9602Z" fill="#555555"/>
<path d="M24.4056 19.3151L21.8349 18.4582C21.4064 18.244 20.978 18.4582 20.7637 18.8867V19.1009C20.5495 19.5293 20.7637 19.9578 21.1922 20.172L23.7629 21.0289C24.1914 21.2432 24.6198 21.0289 24.8341 20.6005V20.3863C25.0483 19.9578 24.8341 19.5293 24.4056 19.3151Z" fill="#555555"/>
</svg>
