<svg width="22" height="22" viewBox="0 0 22 22" fill="none" xmlns="http://www.w3.org/2000/svg">
<path id="Vector" fill-rule="evenodd" clip-rule="evenodd" d="M7.4918 0C5.57391 0 3.65549 0.730757 2.19298 2.19334C-0.730992 5.11744 -0.730992 9.86576 2.19298 12.7899C4.44997 15.047 7.79233 15.5602 10.5449 14.3333L11.2847 15.0732C11.5863 15.3748 11.9951 15.5441 12.421 15.5441C12.8474 15.5441 13.2556 15.3748 13.5572 15.0732L13.9547 14.6757C13.9655 14.6885 13.9772 14.7009 13.9896 14.7132L15.024 15.7482L14.6287 16.1447C14.4197 16.3536 14.4197 16.6933 14.6287 16.9022L19.2557 21.5295C19.883 22.1568 20.9014 22.1568 21.5293 21.5295C22.1572 20.9016 22.1566 19.8837 21.5293 19.2563L16.9023 14.6296C16.6933 14.4201 16.3532 14.4201 16.1437 14.6296L15.7821 14.9902L14.7471 13.9556C14.7347 13.9433 14.7224 13.9326 14.7096 13.9219L15.0733 13.5581C15.3749 13.2565 15.5437 12.8477 15.5431 12.4218C15.5437 11.9953 15.3749 11.5866 15.0733 11.2849C14.7219 10.9335 14.5081 10.7197 14.3324 10.5445C15.5592 7.79189 15.046 4.4499 12.7895 2.19334C11.3276 0.731293 9.40968 0 7.4918 0ZM7.4918 1.07149C9.13539 1.07149 10.779 1.69778 12.032 2.95089C14.5381 5.45711 14.5381 9.5261 12.032 12.0323C9.52539 14.5385 5.45713 14.5385 2.95049 12.0323C0.444917 9.52663 0.444381 5.45711 2.95049 2.95089C4.20354 1.69778 5.8482 1.07149 7.4918 1.07149ZM7.4918 2.12852C6.11874 2.12852 4.74462 2.65194 3.69782 3.69879C1.60422 5.79248 1.60422 9.19179 3.69782 11.2849C5.79142 13.3792 9.1911 13.3792 11.2847 11.2849C13.3783 9.19125 13.3783 5.79248 11.2847 3.69879C10.2379 2.65248 8.86485 2.12852 7.4918 2.12852ZM7.4918 3.20001C8.59056 3.20001 9.68932 3.61789 10.5272 4.45526C12.2029 6.13107 12.2029 8.85213 10.5272 10.5274C8.85146 12.2032 6.13106 12.2032 4.45533 10.5274C2.78013 8.85213 2.78066 6.13215 4.4564 4.45633C5.29427 3.61896 6.39303 3.20001 7.4918 3.20001ZM13.8021 11.5293L14.3158 12.043C14.4165 12.1432 14.4722 12.2793 14.4717 12.4218C14.4722 12.5638 14.4165 12.6999 14.3158 12.8006L12.7997 14.3157C12.6995 14.4158 12.5629 14.4726 12.421 14.4726C12.279 14.4726 12.1424 14.4158 12.0422 14.3157L11.5295 13.803C11.9758 13.5169 12.399 13.1799 12.7895 12.7899C13.1795 12.3993 13.516 11.9755 13.8021 11.5293ZM16.5235 15.7659L20.7707 20.0139C20.9797 20.2233 20.9797 20.5625 20.7707 20.7714C20.5618 20.9809 20.2221 20.9809 20.0132 20.7714L15.7649 16.5235L16.5235 15.7659Z" fill="#171A1F"/>
</svg>
