<svg width="22" height="22" viewBox="0 0 22 22" fill="none" xmlns="http://www.w3.org/2000/svg">
<g clip-path="url(#clip0_3121_1197)">
<path d="M22 10.9931C21.9656 8.00751 20.9268 5.43465 18.8355 3.28831C18.3609 2.79988 17.6867 2.76548 17.2327 3.21264C16.7718 3.65291 16.7786 4.3202 17.2602 4.82239C18.4985 6.08818 19.3309 7.58099 19.6335 9.32833C20.1495 12.2452 19.4203 14.818 17.4115 17.0194C17.2189 17.2258 17.0056 17.4184 16.9369 17.7073C16.813 18.1957 17.0125 18.6979 17.4459 18.9525C17.8931 19.2139 18.4228 19.1382 18.808 18.7461C20.1701 17.3702 21.1195 15.7536 21.6217 13.8824C21.8762 12.9331 22.0069 11.9769 22 10.9931Z" fill="white"/>
<path d="M17.6042 10.7317C17.5698 9.21824 16.9575 7.6704 15.7124 6.39085C15.2514 5.91618 14.5773 5.89554 14.1232 6.32894C13.6692 6.76233 13.6761 7.4365 14.1301 7.91806C15.8293 9.72043 15.8362 12.2933 14.137 14.0819C13.6761 14.5635 13.6692 15.2308 14.1164 15.671C14.5704 16.1182 15.2446 16.0907 15.7192 15.6022C16.9162 14.3984 17.6042 12.7129 17.6042 10.7317Z" fill="white"/>
<path d="M12.1007 1.30706C12.1007 4.54033 12.1007 7.76672 12.1007 11C12.1007 14.2195 12.1007 17.4459 12.1007 20.6654C12.1007 20.7961 12.1007 20.9268 12.0869 21.0507C12.0388 21.5253 11.6329 21.9312 11.1651 21.9931C10.7455 22.0482 10.4221 21.883 10.1263 21.5941C8.48907 19.95 6.84491 18.3127 5.20764 16.6685C5.09757 16.5585 4.9875 16.5103 4.82928 16.5103C3.96937 16.5172 3.10945 16.5241 2.24954 16.5103C0.99063 16.4897 0.027528 15.5816 0.0137694 14.3571C-0.00686846 12.1144 -0.00686846 9.87179 0.0137694 7.62914C0.0206487 6.53533 0.846165 5.63414 1.93309 5.53095C2.84804 5.44152 3.76987 5.50343 4.69169 5.50343C4.93935 5.50343 5.11821 5.43464 5.29707 5.25578C6.89307 3.64602 8.50282 2.04315 10.1057 0.440269C10.1814 0.364597 10.2502 0.295805 10.3327 0.227011C10.9587 -0.254539 11.8599 0.0550289 12.0663 0.811752C12.1076 0.976854 12.1007 1.14196 12.1007 1.30706ZM9.89932 3.77673C9.80989 3.85928 9.7411 3.9212 9.67918 3.98311C8.58538 5.07692 7.48469 6.16385 6.39776 7.26453C6.10195 7.56722 5.76486 7.71169 5.34523 7.70481C4.37525 7.69105 3.40526 7.70481 2.43528 7.69793C2.23578 7.69793 2.19451 7.75297 2.20139 7.93871C2.20827 9.97498 2.20827 12.0113 2.20139 14.0475C2.20139 14.2745 2.27706 14.3089 2.47656 14.3021C3.44654 14.2952 4.41652 14.3021 5.3865 14.2952C5.77862 14.2883 6.09507 14.4259 6.37712 14.7011C7.47093 15.8017 8.5785 16.9024 9.67231 18.0031C9.73422 18.065 9.78925 18.1476 9.84429 18.2233C9.86493 18.2026 9.88556 18.1889 9.9062 18.1682C9.89932 13.394 9.89932 8.606 9.89932 3.77673Z" fill="white"/>
</g>
<defs>
<clipPath id="clip0_3121_1197">
<rect width="22" height="22" fill="white" transform="matrix(1 0 0 -1 0 22)"/>
</clipPath>
</defs>
</svg>
