<svg width="32" height="32" viewBox="0 0 32 32" fill="none" xmlns="http://www.w3.org/2000/svg">
<g clip-path="url(#clip0_400_5612)">
<path d="M4.76752 0H27.2324C29.6786 0 31.6755 1.99688 31.6755 4.44306V27.5569C31.6755 30.0031 29.6786 32 27.2324 32H4.76752C2.32134 32 0.324463 30.0031 0.324463 27.5569V4.39314C0.324463 1.99688 2.32134 0 4.76752 0Z" fill="#4A566E"/>
<path d="M14.8018 20.9173L8.26206 14.3276L0.324463 22.2652V23.9626V27.5569C0.324463 30.0031 2.32134 32 4.76752 32H27.2324C29.6786 32 31.6755 30.0031 31.6755 27.5569V23.9626V19.0203L24.2371 11.532L14.8018 20.9173Z" fill="#00B594"/>
<path d="M14.6521 13.3791C16.1961 13.3791 17.4477 12.1275 17.4477 10.5835C17.4477 9.03949 16.1961 7.78784 14.6521 7.78784C13.1081 7.78784 11.8564 9.03949 11.8564 10.5835C11.8564 12.1275 13.1081 13.3791 14.6521 13.3791Z" fill="#FFCC03"/>
</g>
<defs>
<clipPath id="clip0_400_5612">
<rect width="32" height="32" fill="white"/>
</clipPath>
</defs>
</svg>
