<svg width="14" height="14" viewBox="0 0 14 14" fill="none" xmlns="http://www.w3.org/2000/svg">
<path d="M5.40005 12.3334H8.60005C9.48538 12.3334 10.2 11.6187 10.2 10.7334V3.26675C10.2 2.38141 9.48538 1.66675 8.60005 1.66675H5.40005C4.51472 1.66675 3.80005 2.38141 3.80005 3.26675V10.7334C3.80005 11.6187 4.51472 12.3334 5.40005 12.3334Z" fill="white"/>
<path d="M3.00008 3.76276V10.2375C3.00008 10.4081 2.84541 10.5308 2.68008 10.4988C1.89075 10.3548 1.66675 9.89612 1.66675 8.77612V5.2241C1.66675 4.1041 1.89075 3.64543 2.68008 3.50143C2.84541 3.46943 3.00008 3.59209 3.00008 3.76276Z" fill="white"/>
<path d="M12.3334 5.2241V8.77612C12.3334 9.89612 12.1094 10.3548 11.3201 10.4988C11.1547 10.5308 11.0001 10.4028 11.0001 10.2375V3.76276C11.0001 3.59209 11.1547 3.46943 11.3201 3.50143C12.1094 3.64543 12.3334 4.1041 12.3334 5.2241Z" fill="white"/>
</svg>
