<svg width="24" height="25" viewBox="0 0 24 25" fill="none" xmlns="http://www.w3.org/2000/svg">
<path d="M17.2073 3.11467L15.793 4.52888L18.0859 6.82178H13.0002V8.82177H18.0859L15.793 11.1147L17.2073 12.5289L21.9144 7.82177L17.2073 3.11467ZM9.50015 7.82177C9.50015 6.44106 8.38086 5.32177 7.00015 5.32177C5.61944 5.32177 4.50015 6.44106 4.50015 7.82177C4.50015 9.20249 5.61944 10.3218 7.00015 10.3218C8.38086 10.3218 9.50015 9.20249 9.50015 7.82177ZM11.5002 7.82177C11.5002 10.3071 9.48543 12.3218 7.00015 12.3218C4.51487 12.3218 2.50015 10.3071 2.50015 7.82177C2.50015 5.33649 4.51487 3.32177 7.00015 3.32177C9.48543 3.32177 11.5002 5.33649 11.5002 7.82177ZM5.91436 18.8218L8.20726 21.1147L6.79304 22.5289L2.08594 17.8218L6.79304 13.1147L8.20726 14.5289L5.91436 16.8218H11.0002V18.8218H5.91436ZM15.0002 19.8218H19.0002V15.8218H15.0002V19.8218ZM13.0002 14.8218C13.0002 14.2695 13.4479 13.8218 14.0002 13.8218H20.0002C20.5524 13.8218 21.0002 14.2695 21.0002 14.8218V20.8218C21.0002 21.3741 20.5524 21.8218 20.0002 21.8218H14.0002C13.4479 21.8218 13.0002 21.3741 13.0002 20.8218V14.8218Z" fill="#8A0B00"/>
<path d="M15.793 4.52888L17.2073 3.11467L21.9144 7.82177L17.2073 12.5289L15.793 11.1147L18.0859 8.82177H13.0002V6.82178H18.0859L15.793 4.52888Z" fill="#D7B962"/>
</svg>
