<svg width="40" height="40" viewBox="0 0 40 40" fill="none" xmlns="http://www.w3.org/2000/svg">
<g id="noun-dot-grid-5100823 1" clip-path="url(#clip0_5_1617)">
<path id="Vector" d="M2.85714 5.71429C4.4351 5.71429 5.71429 4.4351 5.71429 2.85714C5.71429 1.27919 4.4351 0 2.85714 0C1.27919 0 0 1.27919 0 2.85714C0 4.4351 1.27919 5.71429 2.85714 5.71429Z" fill="#998448"/>
<path id="Vector_2" d="M14.2857 5.71429C15.8637 5.71429 17.1428 4.4351 17.1428 2.85714C17.1428 1.27919 15.8637 0 14.2857 0C12.7077 0 11.4286 1.27919 11.4286 2.85714C11.4286 4.4351 12.7077 5.71429 14.2857 5.71429Z" fill="#998448"/>
<path id="Vector_3" d="M2.85714 17.143C4.4351 17.143 5.71429 15.8638 5.71429 14.2859C5.71429 12.7079 4.4351 11.4287 2.85714 11.4287C1.27919 11.4287 0 12.7079 0 14.2859C0 15.8638 1.27919 17.143 2.85714 17.143Z" fill="#998448"/>
<path id="Vector_4" d="M14.2857 17.143C15.8637 17.143 17.1428 15.8638 17.1428 14.2859C17.1428 12.7079 15.8637 11.4287 14.2857 11.4287C12.7077 11.4287 11.4286 12.7079 11.4286 14.2859C11.4286 15.8638 12.7077 17.143 14.2857 17.143Z" fill="#998448"/>
<path id="Vector_5" d="M25.7143 5.71429C27.2922 5.71429 28.5714 4.4351 28.5714 2.85714C28.5714 1.27919 27.2922 0 25.7143 0C24.1363 0 22.8571 1.27919 22.8571 2.85714C22.8571 4.4351 24.1363 5.71429 25.7143 5.71429Z" fill="#998448"/>
<path id="Vector_6" d="M25.7143 17.143C27.2922 17.143 28.5714 15.8638 28.5714 14.2859C28.5714 12.7079 27.2922 11.4287 25.7143 11.4287C24.1363 11.4287 22.8571 12.7079 22.8571 14.2859C22.8571 15.8638 24.1363 17.143 25.7143 17.143Z" fill="#998448"/>
<path id="Vector_7" d="M37.1428 5.71429C38.7208 5.71429 40 4.4351 40 2.85714C40 1.27919 38.7208 0 37.1428 0C35.5649 0 34.2857 1.27919 34.2857 2.85714C34.2857 4.4351 35.5649 5.71429 37.1428 5.71429Z" fill="#998448"/>
<path id="Vector_8" d="M37.1428 17.143C38.7208 17.143 40 15.8638 40 14.2859C40 12.7079 38.7208 11.4287 37.1428 11.4287C35.5649 11.4287 34.2857 12.7079 34.2857 14.2859C34.2857 15.8638 35.5649 17.143 37.1428 17.143Z" fill="#998448"/>
<path id="Vector_9" d="M2.85714 28.5712C4.4351 28.5712 5.71429 27.292 5.71429 25.7141C5.71429 24.1361 4.4351 22.8569 2.85714 22.8569C1.27919 22.8569 0 24.1361 0 25.7141C0 27.292 1.27919 28.5712 2.85714 28.5712Z" fill="#998448"/>
<path id="Vector_10" d="M14.2857 28.5712C15.8637 28.5712 17.1428 27.292 17.1428 25.7141C17.1428 24.1361 15.8637 22.8569 14.2857 22.8569C12.7077 22.8569 11.4286 24.1361 11.4286 25.7141C11.4286 27.292 12.7077 28.5712 14.2857 28.5712Z" fill="#998448"/>
<path id="Vector_11" d="M2.85714 39.9999C4.4351 39.9999 5.71429 38.7207 5.71429 37.1428C5.71429 35.5648 4.4351 34.2856 2.85714 34.2856C1.27919 34.2856 0 35.5648 0 37.1428C0 38.7207 1.27919 39.9999 2.85714 39.9999Z" fill="#998448"/>
<path id="Vector_12" d="M14.2857 39.9999C15.8637 39.9999 17.1428 38.7207 17.1428 37.1428C17.1428 35.5648 15.8637 34.2856 14.2857 34.2856C12.7077 34.2856 11.4286 35.5648 11.4286 37.1428C11.4286 38.7207 12.7077 39.9999 14.2857 39.9999Z" fill="#998448"/>
<path id="Vector_13" d="M25.7143 28.5712C27.2922 28.5712 28.5714 27.292 28.5714 25.7141C28.5714 24.1361 27.2922 22.8569 25.7143 22.8569C24.1363 22.8569 22.8571 24.1361 22.8571 25.7141C22.8571 27.292 24.1363 28.5712 25.7143 28.5712Z" fill="#998448"/>
<path id="Vector_14" d="M25.7143 39.9999C27.2922 39.9999 28.5714 38.7207 28.5714 37.1428C28.5714 35.5648 27.2922 34.2856 25.7143 34.2856C24.1363 34.2856 22.8571 35.5648 22.8571 37.1428C22.8571 38.7207 24.1363 39.9999 25.7143 39.9999Z" fill="#998448"/>
<path id="Vector_15" d="M37.1428 28.5712C38.7208 28.5712 40 27.292 40 25.7141C40 24.1361 38.7208 22.8569 37.1428 22.8569C35.5649 22.8569 34.2857 24.1361 34.2857 25.7141C34.2857 27.292 35.5649 28.5712 37.1428 28.5712Z" fill="#998448"/>
<path id="Vector_16" d="M37.1428 39.9999C38.7208 39.9999 40 38.7207 40 37.1428C40 35.5648 38.7208 34.2856 37.1428 34.2856C35.5649 34.2856 34.2857 35.5648 34.2857 37.1428C34.2857 38.7207 35.5649 39.9999 37.1428 39.9999Z" fill="#998448"/>
</g>
<defs>
<clipPath id="clip0_5_1617">
<rect width="40" height="40" fill="white"/>
</clipPath>
</defs>
</svg>
