<svg width="45" height="46" viewBox="0 0 45 46" fill="none" xmlns="http://www.w3.org/2000/svg">
<rect y="0.821777" width="45" height="45" rx="5.71429" fill="white"/>
<g clip-path="url(#clip0_4628_2238)">
<path d="M23 34.5497L16.636 28.1858C13.1213 24.671 13.1213 18.9725 16.636 15.4578C20.1508 11.9431 25.8492 11.9431 29.364 15.4578C32.8787 18.9725 32.8787 24.671 29.364 28.1858L23 34.5497ZM27.9497 26.7715C30.6834 24.0379 30.6834 19.6057 27.9497 16.872C25.2161 14.1384 20.7839 14.1384 18.0503 16.872C15.3166 19.6057 15.3166 24.0379 18.0503 26.7715L23 31.7213L27.9497 26.7715ZM23 23.8218C21.8954 23.8218 21 22.9264 21 21.8218C21 20.7172 21.8954 19.8218 23 19.8218C24.1046 19.8218 25 20.7172 25 21.8218C25 22.9264 24.1046 23.8218 23 23.8218Z" fill="#8A0B00"/>
<path d="M21 21.8218C21 22.9264 21.8954 23.8218 23 23.8218C24.1046 23.8218 25 22.9264 25 21.8218C25 20.7172 24.1046 19.8218 23 19.8218C21.8954 19.8218 21 20.7172 21 21.8218Z" fill="#D7B962"/>
</g>
<defs>
<clipPath id="clip0_4628_2238">
<rect width="24" height="24" fill="white" transform="translate(11 10.8218)"/>
</clipPath>
</defs>
</svg>
