<svg width="45" height="46" viewBox="0 0 45 46" fill="none" xmlns="http://www.w3.org/2000/svg">
<rect y="0.821777" width="45" height="45" rx="5.71429" fill="white"/>
<path fill-rule="evenodd" clip-rule="evenodd" d="M30.4738 13.4707C30.4712 11.9193 29.6516 11.1213 28.0874 11.1123C24.203 11.0945 20.3212 11.1047 16.4368 11.1073C14.1739 11.1085 13.521 11.7563 13.5197 14.0027C13.5172 21.0193 13.5147 28.0358 13.5261 35.0498C13.5274 35.4647 13.5337 35.7333 13.5185 36.3696C16.0347 34.1691 18.7099 32.0589 21.1485 29.8469C21.8103 29.2449 22.1896 29.2334 22.8616 29.8418C25.2976 32.0563 27.801 34.1971 30.4814 36.5414C30.4801 28.6467 30.489 21.0587 30.4738 13.4707ZM28.0416 31.3487C26.149 29.7463 24.3799 28.284 22.6592 26.7694C22.1857 26.3533 21.9172 26.3622 21.4501 26.7733C19.7268 28.2853 17.8381 29.7273 16.0614 31.2329C16.0728 30.7963 16.0677 30.6118 16.0677 30.3293C16.0601 25.5362 16.0601 20.7405 16.0627 15.9449C16.0639 14.4087 16.5247 13.9658 18.1245 13.9658C20.8659 13.9645 23.6099 13.9569 26.3527 13.9696C27.4574 13.9747 28.0365 14.5207 28.0365 15.5822C28.0492 20.7673 28.0416 25.9536 28.0416 31.3487Z" fill="#8A0B00"/>
<path fill-rule="evenodd" clip-rule="evenodd" d="M25.7635 26.6652C24.5735 25.6928 23.4612 24.8032 22.3819 23.883C22.0854 23.6297 21.9161 23.6348 21.6221 23.8855C20.539 24.8032 19.3515 25.6801 18.2354 26.5952C18.2417 26.3317 18.2392 26.2172 18.2392 26.0453C18.2354 23.1321 18.2354 20.2163 18.2366 17.3017C18.2366 16.3688 18.5268 16.1003 19.531 16.1003C21.2543 16.099 22.9775 16.0939 24.7021 16.1015C25.3957 16.1053 25.7597 16.4375 25.7597 17.0828C25.7674 20.2341 25.7635 23.3879 25.7635 26.6652Z" fill="#D7B962"/>
</svg>
