<svg width="32" height="33" viewBox="0 0 32 33" fill="none" xmlns="http://www.w3.org/2000/svg">
<path fill-rule="evenodd" clip-rule="evenodd" d="M19.3631 2.76653C14.3653 2.75053 10.2809 6.82907 10.2649 11.8531C10.2489 16.8625 14.3217 20.944 19.3442 20.9513C24.358 20.96 28.4249 16.9033 28.4482 11.872C28.4715 6.87998 24.3857 2.78398 19.3631 2.76653ZM19.3282 19.6203C15.0577 19.6102 11.5929 16.128 11.6002 11.8545C11.606 7.56653 15.0984 4.09307 19.3806 4.11344C23.6642 4.1338 27.1188 7.60143 27.1086 11.8778C27.0984 16.1673 23.6191 19.6305 19.3282 19.6203Z" fill="#8A0B00"/>
<path fill-rule="evenodd" clip-rule="evenodd" d="M19.3894 5.30469C15.7981 5.26978 12.8337 8.19778 12.8047 11.8094C12.7756 15.4341 15.6977 18.3971 19.3167 18.4145C22.9428 18.4305 25.8854 15.5156 25.9043 11.8836C25.9247 8.27924 23.0127 5.3396 19.3894 5.30469ZM19.3574 17.136C16.4497 17.1374 14.0817 14.768 14.0832 11.8589C14.0832 8.94542 16.441 6.59487 19.3647 6.59778C22.2781 6.60069 24.6316 8.96287 24.6214 11.8807C24.6141 14.7796 22.2548 17.1345 19.3574 17.136Z" fill="#D7B962"/>
<path fill-rule="evenodd" clip-rule="evenodd" d="M23.0868 10.8975C22.9471 10.4829 22.6271 10.2836 22.2039 10.2269C21.8475 10.1804 21.4897 10.1178 21.1304 10.0771C20.9428 10.0567 20.8337 9.97673 20.7537 9.80364C20.5966 9.45746 20.4148 9.12146 20.246 8.77819C20.0628 8.3971 19.7544 8.19055 19.337 8.19055C18.9195 8.19055 18.617 8.40728 18.4308 8.78255C18.262 9.12437 18.089 9.46473 17.9275 9.80946C17.8533 9.96364 17.7602 10.0538 17.5784 10.0742C17.2075 10.1135 16.8395 10.1789 16.4715 10.2269C16.0468 10.2836 15.7355 10.4916 15.5901 10.9004C15.4417 11.3135 15.5639 11.6713 15.8693 11.9709C16.137 12.2327 16.4002 12.496 16.6722 12.7476C16.8177 12.8786 16.8773 13.0066 16.8322 13.2102C16.7479 13.5927 16.6955 13.9811 16.6373 14.368C16.5762 14.7709 16.6999 15.1084 17.033 15.3469C17.3791 15.5927 17.7471 15.5855 18.1151 15.3949C18.4293 15.2335 18.745 15.0749 19.046 14.896C19.2555 14.7738 19.4315 14.7607 19.6424 14.8916C19.942 15.0749 20.2606 15.2276 20.5733 15.3906C20.7304 15.472 20.8948 15.5389 21.0577 15.5287C21.657 15.5331 22.1122 15.0764 22.0628 14.4916C22.0293 14.064 21.9508 13.6364 21.8606 13.216C21.8155 13.0124 21.8737 12.8844 22.0148 12.7535C22.281 12.5076 22.5326 12.2458 22.7959 11.9956C23.1188 11.6858 23.2293 11.3193 23.0868 10.8975ZM21.7021 11.5549C21.4795 11.7731 21.257 11.9898 21.0344 12.2095C20.8061 12.4306 20.7115 12.6938 20.7755 13.0138C20.838 13.3193 20.886 13.6276 20.9326 13.936C20.9486 14.0276 20.9748 14.128 20.8744 14.1978C20.7755 14.2662 20.6897 14.2109 20.6053 14.1673C20.3435 14.032 20.0817 13.8967 19.8242 13.7527C19.51 13.5767 19.2046 13.5753 18.8904 13.7527C18.6199 13.9055 18.342 14.0466 18.0642 14.1847C17.8839 14.2749 17.7704 14.2109 17.766 14.0262C17.8199 13.7091 17.865 13.3833 17.9304 13.0633C18.0046 12.7084 17.9144 12.4189 17.6526 12.1746C17.4286 11.9666 17.2177 11.7498 16.9995 11.5375C16.9282 11.4706 16.857 11.3993 16.8977 11.2887C16.9326 11.1782 17.0344 11.168 17.129 11.1549C17.4446 11.1098 17.7631 11.0633 18.0788 11.0196C18.39 10.9775 18.6039 10.8073 18.7391 10.528C18.8759 10.2415 19.0199 9.95637 19.1624 9.67128C19.2031 9.59128 19.2439 9.51128 19.3501 9.50982C19.4591 9.50982 19.5013 9.58837 19.5406 9.66692C19.689 9.95928 19.83 10.2531 19.9755 10.5455C20.1093 10.8131 20.3173 10.9789 20.6199 11.0196C20.9384 11.0647 21.2541 11.1113 21.5697 11.1564C21.6744 11.1709 21.782 11.184 21.817 11.3076C21.849 11.424 21.7704 11.488 21.7021 11.5549Z" fill="#D7B962"/>
<path fill-rule="evenodd" clip-rule="evenodd" d="M30 22.5316C29.6844 21.3229 28.1243 20.4945 26.965 21.0022C25.6312 21.5854 24.5247 22.1622 23.1952 22.7556C22.3661 23.1251 21.5796 23.7214 20.7185 24.104C20.7185 24.024 20.7156 23.9949 20.7185 23.9658C20.9105 22.6625 19.8996 21.5513 18.5207 21.5978C17.4618 21.6327 16.4029 21.5804 15.3425 21.6094C13.8938 21.6502 12.5527 21.3156 11.2945 20.5956C10.4771 20.1287 9.584 19.8698 8.64873 19.7767C8.46836 19.7578 8.42764 19.6953 8.42327 19.5251C8.39418 18.472 7.72073 17.8247 6.66182 17.8218C5.42545 17.8189 4.18909 17.8204 2.95273 17.8218C1.81527 17.8233 1.14036 18.4953 1.13745 19.6313C1.13454 20.5825 1.13745 21.5353 1.13745 22.4865C1.13745 24.1273 1.13454 25.7651 1.13891 27.4044C1.14036 28.4967 1.83563 29.192 2.92073 29.192C4.19636 29.1934 5.472 29.1949 6.74763 29.1905C7.472 29.1876 8.05527 28.792 8.30691 28.1098C8.37818 27.9164 8.45527 27.9178 8.61236 27.9789C9.76291 28.4196 10.9164 28.8502 12.0669 29.2909C14.6953 30.296 17.3295 30.3265 19.9564 29.3025C21.152 28.8385 22.2647 28.1898 23.4109 27.6167C25.248 26.6974 27.0807 25.7724 28.9105 24.8414C29.8036 24.3891 30.2385 23.4436 30 22.5316ZM7.12145 26.4618C7.12145 27.7694 7.12145 27.7694 4.75345 27.7694C2.38545 27.7694 2.38545 27.7694 2.38545 25.4014V20.6727C2.38545 19.3651 2.38545 19.3651 4.75345 19.3651C7.12145 19.3651 7.12145 19.3651 7.12145 20.6727V26.4618ZM28.0983 24.104C27.0917 24.6116 26.473 24.9916 25.465 25.5022C23.897 26.292 21.5403 27.2211 19.965 28.0022C17.465 29.0022 15.6923 29.0203 12.965 28.0022C11.7476 27.5498 10.1839 26.9531 8.96502 26.5022C8.78611 26.4353 8.72211 26.3553 8.72356 26.156C8.73229 24.1909 8.63854 23.4 8.62836 21.4349C8.62836 21.1978 8.69818 21.1731 8.90327 21.2051C9.76436 21.336 10.5338 21.3253 11.2945 21.75C12.4364 22.3871 13.6545 22.7629 14.965 22.7556C16.1636 22.7484 17.4676 22.7469 18.6676 22.7556C19.3935 22.7585 19.6002 23.1571 19.6336 23.8218C19.6743 24.5709 19.2359 24.4993 18.465 24.5022C16.8447 24.508 15.5839 24.5022 13.965 24.5022C13.7934 24.5022 13.1381 24.4963 12.965 24.5022C12.6668 24.5109 12.4563 25.268 12.465 25.5022C12.4723 25.7291 12.9978 25.6705 13.2858 25.672C14.2065 25.6764 15.1258 25.6734 16.0465 25.6734C16.7258 25.6734 17.4095 25.6589 18.0887 25.6793C18.752 25.6982 19.3556 25.8091 19.965 25.5022C21.0196 24.9698 22.1101 24.5854 23.1952 24.104C24.5727 23.4902 25.8516 22.8909 27.2349 22.2843C27.9404 21.9731 28.6568 22.0385 28.8444 22.7556C28.9942 23.3374 28.6961 23.8014 28.0983 24.104Z" fill="#8A0B00"/>
</svg>
