<svg width="19" height="21" viewBox="0 0 19 21" fill="none" xmlns="http://www.w3.org/2000/svg">
<path d="M1 20.8218C0.44772 20.8218 0 20.3741 0 19.8218V1.82178C0 1.2695 0.44772 0.821777 1 0.821777H15C15.5523 0.821777 16 1.2695 16 1.82178V4.82178H14V2.82178H2V18.8218H14V16.8218H16V19.8218C16 20.3741 15.5523 20.8218 15 20.8218H1ZM14 14.8218V11.8218H7V9.82178H14V6.82178L19 10.8218L14 14.8218Z" fill="#8A0B00"/>
<path d="M14 11.8218V14.8218L19 10.8218L14 6.82178V9.82178H7V11.8218H14Z" fill="#D7B962"/>
</svg>
