<svg width="25" height="25" viewBox="0 0 25 25" fill="none" xmlns="http://www.w3.org/2000/svg">
<path d="M12.4396 24.65C10.6146 24.65 8.78457 24.645 6.95957 24.655C6.77457 24.655 6.71957 24.615 6.72457 24.425C6.73957 24.09 6.73957 23.76 6.72457 23.425C6.71957 23.26 6.76457 23.215 6.92957 23.215C8.45457 23.22 9.97957 23.215 11.5046 23.225C11.6896 23.225 11.7396 23.18 11.7346 22.995C11.7246 22.14 11.7246 21.28 11.7346 20.42C11.7346 20.27 11.6996 20.225 11.5446 20.21C8.04957 19.835 5.17457 17.045 4.66957 13.55C4.62457 13.225 4.59457 12.905 4.58457 12.58C4.57957 12.45 4.60457 12.4 4.74957 12.405C5.11457 12.415 5.47957 12.415 5.84457 12.405C5.96957 12.4 6.01457 12.43 6.02457 12.57C6.15457 15.655 8.22457 18.1 11.2196 18.72C14.7096 19.445 18.2446 16.99 18.7946 13.47C18.8396 13.17 18.8846 12.87 18.8796 12.57C18.8796 12.43 18.9246 12.4 19.0546 12.405C19.4096 12.415 19.7696 12.415 20.1246 12.405C20.2896 12.4 20.3196 12.455 20.3146 12.605C20.2546 14.305 19.7296 15.845 18.6846 17.185C17.3246 18.935 15.5346 19.945 13.3296 20.215C13.1696 20.235 13.1646 20.3 13.1646 20.425C13.1696 21.29 13.1696 22.155 13.1646 23.02C13.1646 23.185 13.2046 23.23 13.3696 23.23C14.8946 23.225 16.4196 23.23 17.9446 23.22C18.1296 23.22 18.1846 23.26 18.1746 23.45C18.1596 23.785 18.1596 24.115 18.1746 24.45C18.1796 24.615 18.1346 24.66 17.9696 24.655C16.1246 24.65 14.2846 24.65 12.4396 24.65Z" fill="#5B0400"/>
<path d="M17.4495 5.2C17.4395 2.98 15.9095 1.11 13.7895 0.44C13.4995 0.35 13.5195 0.36 13.2495 0.3C12.9495 0.25 12.8145 0.25 12.4495 0.25C12.2495 0.25 11.8395 0.295 11.8095 0.3C9.25449 0.665 7.45449 2.735 7.44949 5.32C7.44449 7.66 7.44949 10.005 7.44949 12.345C7.44949 12.67 7.47949 12.995 7.53449 13.315C7.98949 15.805 10.3045 17.6 12.8095 17.4C15.4095 17.19 17.4345 15.07 17.4495 12.49C17.4695 10.06 17.4645 7.63 17.4495 5.2ZM13.8795 8.305C13.8945 8.655 13.8895 9.005 13.8795 9.355C13.8745 9.505 13.9095 9.555 14.0695 9.555C14.6545 9.545 15.2445 9.555 15.8345 9.545C15.9845 9.545 16.0345 9.575 16.0345 9.735C16.0245 10.32 16.0245 10.91 16.0345 11.5C16.0345 11.65 16.0045 11.7 15.8445 11.695C15.2495 11.685 14.6545 11.695 14.0595 11.69C13.9295 11.69 13.8845 11.72 13.8845 11.86C13.8945 12.215 13.8945 12.575 13.8845 12.93C13.8795 13.085 13.9195 13.13 14.0795 13.125C14.6995 13.115 15.3145 13.12 15.9395 13.12C15.7795 14.315 14.5645 15.945 12.5145 15.975C10.5245 16.005 9.18949 14.47 8.98449 13.12C9.59449 13.12 10.2045 13.115 10.8145 13.125C10.9845 13.13 11.0495 13.1 11.0395 12.91C11.0195 12.58 11.0245 12.245 11.0395 11.91C11.0445 11.74 11.0095 11.68 10.8245 11.685C10.2395 11.7 9.64949 11.685 9.05949 11.695C8.92949 11.695 8.88449 11.67 8.88449 11.53C8.89449 10.925 8.89449 10.325 8.88449 9.72C8.87949 9.555 8.94449 9.545 9.07449 9.545C9.66449 9.55 10.2495 9.545 10.8395 9.55C10.9895 9.55 11.0445 9.52 11.0395 9.36C11.0245 9.01 11.0295 8.66 11.0395 8.31C11.0445 8.16 11.0095 8.11 10.8495 8.11C10.2645 8.12 9.67449 8.11 9.08449 8.12C8.93449 8.12 8.88449 8.085 8.88949 7.93C8.89949 7.345 8.89949 6.755 8.88949 6.165C8.88949 6.015 8.92449 5.965 9.08449 5.97C9.67949 5.98 10.2745 5.97 10.8695 5.975C10.9995 5.975 11.0445 5.945 11.0395 5.805C11.0295 5.45 11.0295 5.09 11.0395 4.735C11.0445 4.58 11.0045 4.535 10.8445 4.54C10.2245 4.55 9.60949 4.545 8.98449 4.545C9.15949 3.275 10.4345 1.715 12.4095 1.69C14.4345 1.66 15.7445 3.235 15.9395 4.545C15.3295 4.545 14.7195 4.55 14.1095 4.54C13.9395 4.535 13.8745 4.565 13.8845 4.755C13.9045 5.085 13.8995 5.42 13.8845 5.755C13.8795 5.925 13.9145 5.985 14.0995 5.98C14.6845 5.965 15.2745 5.98 15.8645 5.97C15.9945 5.97 16.0395 5.995 16.0395 6.135C16.0295 6.74 16.0295 7.34 16.0395 7.945C16.0445 8.105 15.9795 8.12 15.8495 8.12C15.2595 8.115 14.6745 8.12 14.0845 8.115C13.9245 8.11 13.8695 8.14 13.8795 8.305Z" fill="#5B0400"/>
</svg>
