<svg width="33" height="34" viewBox="0 0 33 34" fill="none" xmlns="http://www.w3.org/2000/svg">
<path d="M32.9441 16.3228C32.9257 16.2214 32.9404 16.1189 32.9358 16.0172C32.9358 15.9647 32.9358 15.9122 32.9358 15.8597C32.9358 15.8281 32.9358 15.7965 32.9358 15.7647C32.9339 15.6731 32.9303 15.5817 32.9299 15.4905C32.9291 15.0098 32.8617 14.5349 32.7971 14.0607C32.7 13.3447 32.5486 12.6391 32.353 11.9431C32.0576 10.8922 31.6604 9.88142 31.1625 8.90955C30.8104 8.22259 30.4099 7.56555 29.9658 6.93486C29.4482 6.2 28.8705 5.51492 28.2417 4.87356C27.9438 4.56983 27.6317 4.28115 27.3102 4.00189C26.8257 3.58102 26.3212 3.18608 25.7911 2.82461C25.1334 2.37633 24.4498 1.97365 23.7327 1.62682C23.4173 1.47433 23.0987 1.32957 22.7755 1.19528C22.3596 1.0227 21.9352 0.873342 21.5072 0.735281C21.0196 0.578184 20.5245 0.448071 20.0235 0.341388C19.5311 0.236587 19.0345 0.153332 18.5339 0.0939233C18.0848 0.0405815 17.635 0.000627551 17.1823 0C17.1361 0 17.0903 0 17.0441 0C16.9949 0 16.9453 0 16.8962 0C16.6795 0 16.4625 0 16.2458 0C16.1661 0 16.0866 0 16.0069 0C15.9743 0 15.9415 0 15.9092 0C15.6511 0.00648469 15.393 0.00899476 15.1355 0.0322141C14.7761 0.0646376 14.4176 0.105847 14.0611 0.159816C13.6137 0.227592 13.17 0.316285 12.7288 0.419622C12.2088 0.541367 11.6967 0.690934 11.1926 0.865184C10.451 1.12122 9.7308 1.42956 9.0338 1.79166C8.4234 2.10878 7.83434 2.46021 7.26641 2.84866C6.56878 3.3256 5.91152 3.85274 5.29841 4.43281C4.81498 4.89009 4.3529 5.36891 3.92951 5.8835C3.51993 6.38094 3.1321 6.89428 2.78025 7.43481C2.44472 7.95003 2.13848 8.48177 1.85985 9.02983C1.56887 9.60216 1.31701 10.1914 1.09716 10.7943C0.872498 11.4099 0.68486 12.0368 0.536131 12.6751C0.386983 13.3158 0.281136 13.9641 0.206457 14.6178C0.1596 15.0271 0.126549 15.4378 0.119228 15.8488C0.109187 16.395 0.102493 16.9418 0.146003 17.4878C0.170059 17.7881 0.191396 18.0885 0.228422 18.3879C0.302264 18.9847 0.404973 19.5762 0.54157 20.1615C0.741968 21.0211 1.01307 21.8586 1.3486 22.6753C1.61092 23.3139 1.91486 23.9325 2.25646 24.5324C2.28553 24.5837 2.28888 24.6299 2.27403 24.6856C2.19328 24.9903 2.10626 25.2934 2.02447 25.5978C1.83788 26.2921 1.64606 26.9853 1.45633 27.679C1.26283 28.3858 1.06746 29.092 0.874172 29.7991C0.641978 30.649 0.407274 31.4976 0.178218 32.3486C0.114626 32.5848 0.0267684 32.8151 0.000202084 33.0606C-0.00188975 33.0889 0.0123348 33.1002 0.0393195 33.0985C0.0901511 33.0926 0.140983 33.0885 0.19056 33.0753C1.14276 32.8188 2.09727 32.5722 3.05094 32.3216C3.83789 32.1151 4.62421 31.9064 5.41241 31.7039C5.6262 31.6487 5.83998 31.5932 6.05356 31.5363C6.89971 31.3114 7.7469 31.0901 8.5941 30.8688C8.66166 30.8512 8.71835 30.8594 8.77943 30.8916C9.33963 31.1874 9.91132 31.4589 10.5012 31.6903C10.9501 31.8668 11.4064 32.0225 11.8689 32.1609C12.4481 32.3337 13.0353 32.4718 13.6296 32.5778C14.1331 32.668 14.6395 32.7391 15.1505 32.7774C15.5478 32.8077 15.9452 32.8305 16.3433 32.8354C16.591 32.8387 16.8382 32.8328 17.0861 32.8251C17.5005 32.8123 17.9139 32.7858 18.3259 32.7412C19.0257 32.6657 19.7185 32.5469 20.4023 32.3795C21.3225 32.154 22.2182 31.8541 23.087 31.4742C23.6108 31.2447 24.1216 30.9904 24.6186 30.709C25.3913 30.2718 26.1239 29.7737 26.8148 29.2148C27.093 28.9897 27.3677 28.759 27.6298 28.5151C27.948 28.2199 28.2542 27.9137 28.5519 27.5976C28.8142 27.3188 29.0646 27.0297 29.3058 26.733C29.6763 26.277 30.0216 25.8024 30.3392 25.3077C30.6142 24.8791 30.8738 24.4406 31.1083 23.9883C31.4581 23.3129 31.7637 22.6184 32.0191 21.9011C32.2373 21.2884 32.4197 20.6663 32.5628 20.0321C32.6755 19.5323 32.7653 19.029 32.8289 18.5203C32.8889 18.0392 32.9387 17.5578 32.937 17.0725C32.937 17.0311 32.937 16.9897 32.937 16.9483C32.937 16.9052 32.937 16.8621 32.937 16.8192C32.9416 16.7127 32.927 16.6056 32.9454 16.4996C32.9441 16.4414 32.9441 16.3822 32.9441 16.3228ZM29.5106 20.6029C28.9345 22.3776 28.0296 23.9674 26.8014 25.3729C25.6449 26.6962 24.2843 27.7591 22.7198 28.5617C21.526 29.1738 20.2676 29.5966 18.9483 29.8348C18.2904 29.9534 17.6269 30.0199 16.9577 30.0404C15.9793 30.071 15.0095 29.9982 14.0483 29.8195C12.8489 29.597 11.6992 29.2194 10.6004 28.687C10.108 28.4484 9.63562 28.1745 9.16768 27.8923C9.1181 27.8622 9.07564 27.853 9.01748 27.8685C7.34966 28.3078 5.68121 28.7446 4.01276 29.1817C3.99017 29.1876 3.96842 29.2027 3.93808 29.188C4.0228 28.8778 4.10731 28.5672 4.19245 28.2572C4.55852 26.9205 4.92418 25.584 5.29213 24.2484C5.30824 24.1898 5.29631 24.1475 5.26556 24.0992C4.94196 23.5938 4.62755 23.0828 4.35833 22.5446C4.03619 21.9009 3.76404 21.2378 3.54587 20.5521C3.25364 19.6325 3.06098 18.6933 2.96747 17.7335C2.86497 16.6839 2.88296 15.6371 3.0227 14.5912C3.22121 13.1051 3.65506 11.6919 4.3211 10.35C4.81289 9.35888 5.4191 8.44223 6.13556 7.5986C7.27707 6.25438 8.62485 5.16621 10.1826 4.34035C11.3819 3.70464 12.6493 3.25929 13.9837 3.0066C14.7769 2.8564 15.5762 2.77608 16.3837 2.76687C17.8772 2.74951 19.3344 2.96748 20.755 3.42706C21.9952 3.82806 23.1524 4.39871 24.2268 5.13671C25.5771 6.06444 26.7257 7.19738 27.6748 8.53218C28.4695 9.65048 29.0786 10.8625 29.5039 12.1672C29.7555 12.9395 29.9356 13.7283 30.0453 14.5326C30.1214 15.0932 30.1618 15.6568 30.1699 16.2232C30.1908 17.7202 29.9725 19.1803 29.5106 20.6029Z" fill="#1BD741"/>
<path d="M24.4591 20.048C23.6498 19.657 22.8474 19.252 22.0341 18.8686C21.7063 18.714 21.3827 18.5462 21.0342 18.4383C20.7095 18.3381 20.5141 18.4 20.3179 18.6751C19.9123 19.2443 19.458 19.7737 19.0024 20.3019C18.7806 20.559 18.5681 20.6132 18.2589 20.478C17.8155 20.2835 17.3686 20.0963 16.9407 19.8681C15.9265 19.3277 15.0216 18.6435 14.2296 17.8112C13.5805 17.1286 13.0266 16.3747 12.5459 15.5662C12.3608 15.2547 12.384 15.0368 12.6298 14.7859C12.8017 14.6107 12.9611 14.4249 13.117 14.2356C13.3086 14.0028 13.5123 13.7787 13.6374 13.4991C13.6912 13.379 13.7619 13.2664 13.7931 13.1365C13.8406 12.9389 13.7797 12.7611 13.7014 12.5828C13.2914 11.6461 12.9174 10.6945 12.5235 9.75111C12.4321 9.53272 12.3487 9.31098 12.2052 9.11833C12.0667 8.93215 11.887 8.83426 11.6533 8.83697C11.4918 8.83886 11.3304 8.83718 11.1689 8.83718C11.1689 8.83279 11.1689 8.8284 11.1689 8.82401C11.026 8.82401 10.8833 8.82401 10.7407 8.82401C10.5014 8.82401 10.2788 8.88718 10.0673 8.997C9.81732 9.12669 9.63554 9.33274 9.44916 9.53502C8.34049 10.7376 8.00517 12.153 8.31057 13.7358C8.45889 14.504 8.77538 15.2112 9.15505 15.8915C9.38787 16.3084 9.66316 16.6971 9.93677 17.0876C10.6246 18.0691 11.3814 18.9928 12.2198 19.8499C12.8141 20.4567 13.4448 21.0238 14.1204 21.5399C14.904 22.1383 15.7335 22.6621 16.6309 23.0736C17.3758 23.4152 18.1441 23.6926 18.9189 23.9568C19.5858 24.1839 20.2656 24.3143 20.9714 24.2883C21.3159 24.2756 21.6632 24.2603 21.9962 24.1691C22.7327 23.967 23.3814 23.5968 23.9537 23.0941C24.1776 22.8977 24.3834 22.6791 24.5016 22.4019C24.7323 21.8618 24.8432 21.2955 24.8652 20.7071C24.8779 20.3827 24.7459 20.1873 24.4591 20.048Z" fill="#1BD741"/>
</svg>
