<svg width="34" height="34" viewBox="0 0 34 34" fill="none" xmlns="http://www.w3.org/2000/svg">
<path fill-rule="evenodd" clip-rule="evenodd" d="M27.0312 4.99028C27.0251 2.83592 26.1411 1.96738 23.9774 1.95501C19.3859 1.92565 14.7912 1.93183 10.1982 1.95038C7.79342 1.95965 6.97279 2.7911 6.96661 5.22674C6.94961 10.3777 6.96042 15.5287 6.96042 20.6797C6.96042 24.3378 6.96042 27.9959 6.96042 32.0651C10.1302 29.2926 13.0263 26.8322 15.8205 24.2667C16.7447 23.4183 17.2887 23.4353 18.2036 24.2791C20.97 26.8198 23.8352 29.2508 26.8721 31.909C26.9648 31.4624 27.0343 31.2769 27.0343 31.0899C27.0405 22.3875 27.0529 13.6881 27.0312 4.99028ZM20.8278 18.9226L16.8745 16.048L12.9197 18.9226L14.4296 14.2723L10.4748 11.3993H15.3615L16.873 6.75056L18.3844 11.3993H23.2712L19.3179 14.2723L20.8278 18.9226Z" fill="#5B0400"/>
</svg>
