<?xml version="1.0" encoding="utf-8"?>
<!-- Generator: Adobe Illustrator 16.0.0, SVG Export Plug-In . SVG Version: 6.00 Build 0)  -->
<!DOCTYPE svg PUBLIC "-//W3C//DTD SVG 1.1//EN" "http://www.w3.org/Graphics/SVG/1.1/DTD/svg11.dtd">
<svg version="1.1" id="Layer_1" xmlns="http://www.w3.org/2000/svg" xmlns:xlink="http://www.w3.org/1999/xlink" x="0px" y="0px"
	 width="35.363px" height="34px" viewBox="0 0 35.363 34" enable-background="new 0 0 35.363 34" xml:space="preserve">
<g>
	<path fill-rule="evenodd" clip-rule="evenodd" fill="#F9BD16" d="M0.605,10.055c0.655-0.041,1.285-0.229,1.927-0.347
		c0.861-0.158,1.716-0.35,2.574-0.526c0.135-0.137,0.32-0.141,0.491-0.174c3.438-0.675,6.875-1.362,10.311-2.051
		c0.468-0.094,0.934-0.192,1.404-0.278c0.147-0.027,0.309-0.082,0.422,0.085c0.067,0.159,0.054,0.327,0.054,0.493
		c0.003,1.85,0.003,3.701,0,5.552c0,0.176,0.019,0.356-0.067,0.522c-0.135,0.176-0.332,0.163-0.519,0.165
		c-0.744,0.006-1.489,0.002-2.232,0.002c-3.355,0-6.71,0-10.064,0c-0.111,0-0.223,0.005-0.333,0
		c-0.221-0.008-0.331,0.087-0.323,0.315c0.005,0.123,0,0.245,0,0.366c0,4.255,0.001,8.51-0.005,12.764
		c0,0.204,0.092,0.453-0.16,0.598c-1.139-5.713-2.277-11.426-3.416-17.139c-0.01-0.051-0.041-0.098-0.062-0.147
		C0.605,10.188,0.605,10.121,0.605,10.055z"/>
	<path fill-rule="evenodd" clip-rule="evenodd" fill="#EB4233" d="M30.26,9.176c1.343,0.27,2.685,0.541,4.026,0.811
		c0.162,0.033,0.325,0.051,0.472,0.134c0,0.067,0,0.134,0,0.2c-0.215,0.548-0.271,1.134-0.383,1.704
		c-1.017,5.08-2.02,10.162-3.029,15.243c-0.01,0.053-0.037,0.103-0.057,0.155c-0.155-0.181-0.104-0.402-0.104-0.607
		c-0.004-4.209-0.003-8.421-0.003-12.63c0-0.818,0.033-0.748-0.768-0.756c-0.799-0.009-1.598,0.027-2.397-0.021
		c-0.04-0.008-0.078-0.023-0.113-0.044c-0.127-0.112-0.138-0.273-0.168-0.422c-0.267-1.334-0.534-2.668-0.801-4.002
		c-0.027-0.139-0.082-0.28-0.001-0.42c0.111-0.087,0.234-0.045,0.352-0.021c0.883,0.175,1.766,0.348,2.648,0.528
		C30.052,9.052,30.175,9.071,30.26,9.176z"/>
	<path fill-rule="evenodd" clip-rule="evenodd" fill="#4E71B7" d="M27.944,13.359c1.043-0.008,2.084-0.014,3.129-0.023
		c0.14-0.002,0.208,0.048,0.2,0.193c-0.005,0.089,0,0.178,0,0.267c0,4.365,0,8.73,0,13.095c0,0.177,0.011,0.354,0.016,0.532
		c-0.087,1.728-0.019,3.457-0.042,5.185c-0.001,0.131,0.03,0.267-0.036,0.393c-0.081,0.054-0.172,0.032-0.259,0.032
		c-4.331,0.001-8.661-0.001-12.992,0.008c-0.284,0-0.383-0.105-0.383-0.362c0.002-1.622-0.022-3.242,0.013-4.862
		c0.005-0.04,0.015-0.08,0.027-0.118c0.093-0.195,0.264-0.325,0.409-0.475c0.988-1.02,1.562-2.223,1.638-3.652
		c0.015-0.288,0.071-0.572,0.063-0.863c-0.012-0.397-0.024-0.418-0.411-0.42c-0.422-0.003-0.844,0.003-1.266-0.003
		c-0.152-0.002-0.317,0.018-0.421-0.142c-0.066-0.16-0.052-0.328-0.052-0.493c0.002-0.965-0.009-1.93,0.007-2.894
		c-0.005-0.044-0.005-0.087,0-0.131c-0.021-1.621-0.009-3.242-0.006-4.863c0.001-0.386,0.087-0.463,0.48-0.463
		c3.164-0.003,6.329-0.002,9.494-0.003C27.688,13.295,27.815,13.326,27.944,13.359z"/>
	<path fill-rule="evenodd" clip-rule="evenodd" fill="#557FC0" d="M17.672,27.711c0.004,1.622,0.006,3.242,0.01,4.863
		c0.001,0.423,0,0.423,0.438,0.423C22.483,32.998,26.848,33,31.211,33c-0.109,0.086-0.235,0.042-0.354,0.043
		c-4.291,0.002-8.582,0.004-12.873,0.001c-4.502-0.004-9.004-0.018-13.506-0.015c-0.306,0-0.391-0.079-0.389-0.387
		c0.011-1.701-0.002-3.402-0.006-5.102c0.06-0.127,0.029-0.263,0.029-0.394c0.002-4.457,0.006-8.913-0.005-13.37
		c0-0.323,0.059-0.427,0.41-0.426c4.257,0.015,8.513,0.009,12.77,0.008c0.133,0,0.266-0.018,0.396-0.028
		c0.123-0.122,0.282-0.116,0.438-0.116c3.11-0.002,6.222-0.002,9.332,0c0.155,0,0.313-0.002,0.44,0.112
		c0.017,0.009,0.034,0.02,0.05,0.031c-0.116,0.059-0.242,0.031-0.362,0.031c-3.142,0.001-6.283,0-9.427,0.001
		c-0.533,0-0.472-0.052-0.474,0.489c-0.004,1.599-0.006,3.198-0.01,4.796c-0.164,0.027-0.268-0.088-0.383-0.17
		c-1-0.711-2.131-1.086-3.34-1.073c-1.777,0.018-3.271,0.731-4.431,2.098c-0.899,1.062-1.352,2.313-1.326,3.682
		c0.037,2.071,0.931,3.744,2.711,4.836c2.039,1.251,4.116,1.201,6.167-0.034C17.262,27.902,17.402,27.675,17.672,27.711z"/>
	<path fill-rule="evenodd" clip-rule="evenodd" fill="#32AB51" d="M17.682,6.724c-0.978,0.188-1.957,0.369-2.934,0.562
		c-3.17,0.629-6.34,1.263-9.51,1.895C5.196,9.188,5.15,9.182,5.106,9.182c0-2.633,0.002-5.265-0.007-7.897
		C5.099,1.029,5.16,0.947,5.43,0.948c4.065,0.007,8.13,0.003,12.194,0.002c0.021,0,0.041,0.013,0.062,0.021
		c0.096,0.122,0.101,0.266,0.101,0.411c0.001,1.737,0.007,3.473,0,5.209C17.779,6.658,17.771,6.722,17.682,6.724z"/>
	<path fill-rule="evenodd" clip-rule="evenodd" fill="#0F9D58" d="M17.768,6.664c-0.115-0.077-0.085-0.197-0.085-0.303
		c0-1.796,0.001-3.593,0.003-5.39c0.111-0.005,0.222-0.015,0.332-0.015c3.945,0,7.891,0.005,11.837-0.01
		c0.352-0.001,0.415,0.104,0.411,0.428c-0.014,2.6-0.006,5.202-0.006,7.802c-1.102-0.216-2.2-0.43-3.302-0.646
		c-0.152-0.095-0.155-0.261-0.186-0.41c-0.171-0.837-0.333-1.676-0.504-2.513C26.17,5.113,26.17,5.112,25.66,5.214
		c-2.449,0.489-4.896,0.982-7.348,1.453C18.133,6.702,17.947,6.794,17.768,6.664z"/>
	<path fill-rule="evenodd" clip-rule="evenodd" fill="#F7A81C" d="M17.768,6.664c1.127-0.217,2.257-0.429,3.385-0.651
		c1.604-0.316,3.207-0.639,4.81-0.962c0.205-0.041,0.298-0.025,0.343,0.229c0.198,1.087,0.433,2.167,0.653,3.25
		c0.299,1.512,0.601,3.025,0.898,4.537c0.018,0.086,0.026,0.174,0.038,0.261c-0.088,0.008-0.176,0.022-0.264,0.022
		c-3.238,0.001-6.478,0.001-9.716,0c-0.079,0-0.153-0.013-0.231-0.02c-0.001-2.203-0.002-4.405-0.002-6.608
		C17.71,6.704,17.738,6.684,17.768,6.664z"/>
	<path fill-rule="evenodd" clip-rule="evenodd" fill="#FFFFFF" d="M17.672,27.711c-0.738,0.546-1.532,0.969-2.438,1.18
		c-3.431,0.805-6.841-1.729-7.108-5.249c-0.228-3.01,1.901-5.778,4.993-6.229c1.561-0.227,2.997,0.147,4.281,1.073
		c0.09,0.064,0.183,0.128,0.272,0.191c-0.003,0.014-0.002,0.027,0.006,0.039c-0.047,0.242-0.224,0.404-0.37,0.582
		c-0.211,0.258-0.435,0.505-0.637,0.77c-0.169,0.222-0.33,0.244-0.561,0.079c-0.88-0.629-1.869-0.808-2.918-0.608
		c-1.728,0.331-2.917,1.851-2.975,3.609c-0.055,1.716,1.251,3.332,2.886,3.685c1.733,0.374,3.383-0.425,4.14-1.887
		c0.087-0.168,0.162-0.342,0.245-0.511c0.04-0.082,0.059-0.246,0.226-0.139c0.075,0.121,0.073,0.256,0.073,0.388
		c0.003,0.844,0.001,1.688,0.001,2.532c0,0.158-0.014,0.311-0.105,0.446C17.676,27.678,17.674,27.694,17.672,27.711z"/>
	<path fill-rule="evenodd" clip-rule="evenodd" fill="#557FC0" d="M17.629,24.269c-0.495,1.452-1.471,2.375-2.988,2.688
		c-2.214,0.458-4.429-1.287-4.507-3.545c-0.07-2.007,1.184-3.616,3.147-3.981c1.05-0.196,2.035,0.026,2.904,0.663
		c0.172,0.126,0.257,0.133,0.392-0.04c0.357-0.454,0.733-0.892,1.102-1.337c0,1.155,0.001,2.311,0.002,3.466
		c-0.015,0.015-0.027,0.031-0.042,0.047c-0.153,0.088-0.323,0.067-0.489,0.068c-0.888,0.003-1.777-0.001-2.666,0.003
		c-0.407,0.001-0.429,0.026-0.433,0.438c-0.002,0.322-0.003,0.644,0.001,0.967c0.005,0.349,0.034,0.382,0.381,0.384
		c0.89,0.006,1.778,0,2.666,0.003c0.166,0,0.337-0.019,0.491,0.066C17.627,24.187,17.64,24.224,17.629,24.269z"/>
	<path fill-rule="evenodd" clip-rule="evenodd" fill="#E4E7EA" d="M24.521,20.193c-0.813,0-1.622-0.008-2.432,0.006
		c-0.235,0.004-0.338-0.04-0.326-0.306c0.021-0.476,0.013-0.954,0.003-1.431c-0.005-0.191,0.035-0.276,0.254-0.274
		c1.665,0.008,3.329,0.006,4.994,0.001c0.178,0,0.263,0.036,0.257,0.237c-0.011,0.51-0.011,1.021,0,1.532
		c0.005,0.197-0.074,0.241-0.254,0.239C26.186,20.189,25.353,20.193,24.521,20.193z"/>
	<path fill-rule="evenodd" clip-rule="evenodd" fill="#E4E7EA" d="M24.522,24.196c-0.811,0-1.623-0.013-2.433,0.007
		c-0.274,0.007-0.336-0.087-0.325-0.339c0.019-0.466,0.012-0.933,0.002-1.398c-0.003-0.19,0.033-0.277,0.253-0.276
		c1.666,0.008,3.33,0.008,4.994,0c0.213-0.001,0.263,0.075,0.258,0.271c-0.01,0.488-0.015,0.977,0.003,1.465
		c0.005,0.227-0.077,0.278-0.29,0.275C26.163,24.189,25.344,24.196,24.522,24.196z"/>
	<path fill-rule="evenodd" clip-rule="evenodd" fill="#E4E7EA" d="M24.521,28.198c-0.812,0-1.621-0.009-2.432,0.005
		c-0.234,0.004-0.337-0.04-0.325-0.306c0.021-0.476,0.013-0.955,0.003-1.432c-0.005-0.19,0.037-0.275,0.254-0.273
		c1.665,0.008,3.329,0.006,4.995,0.001c0.177-0.001,0.262,0.036,0.256,0.236c-0.011,0.51-0.011,1.022,0,1.532
		c0.005,0.197-0.074,0.241-0.254,0.239C26.186,28.194,25.352,28.198,24.521,28.198z"/>
	<path fill-rule="evenodd" clip-rule="evenodd" fill="#E4E7EA" d="M17.629,24.269c-0.006-0.022-0.012-0.045-0.018-0.069
		c-0.065-0.595-0.029-1.189-0.02-1.785c0.002-0.078,0.032-0.151,0.094-0.207l-0.006-0.025c0.619,0.004,1.239,0.009,1.859,0.012
		c0.14,0.001,0.255-0.011,0.261,0.195c0.059,1.642-0.245,3.174-1.321,4.479c-0.239,0.29-0.492,0.568-0.797,0.793
		c0-1.026,0.001-2.051-0.001-3.077C17.68,24.479,17.715,24.363,17.629,24.269z"/>
	<path fill-rule="evenodd" clip-rule="evenodd" fill="#FFFFFF" d="M17.686,22.208c-0.002,0.551,0,1.101-0.006,1.652
		c-0.001,0.115,0.044,0.246-0.068,0.34c-1.12-0.001-2.239-0.01-3.358,0.003c-0.25,0.003-0.323-0.063-0.313-0.313
		c0.021-0.487,0.011-0.975,0.003-1.463c-0.002-0.163,0.033-0.237,0.217-0.235C15.336,22.203,16.511,22.204,17.686,22.208z"/>
</g>
</svg>
