<svg width="47" height="34" viewBox="0 0 47 34" fill="none" xmlns="http://www.w3.org/2000/svg">
<path d="M46.9204 29.4529V0.491821H0V29.4529H22.592V31.1943H12.8584C12.2766 31.1943 11.8045 31.6658 11.8045 32.2482C11.8045 32.8306 12.2766 33.3021 12.8584 33.3021H34.0614C34.6432 33.3021 35.1153 32.8306 35.1153 32.2482C35.1153 31.6658 34.6432 31.1943 34.0614 31.1943H24.4712V29.4529H46.9204Z" fill="#BA3E25"/>
<path d="M32.1728 9.17889C31.9542 9.29848 31.8462 9.47737 31.8462 9.71656L31.8457 19.1947C31.8457 19.4339 31.9537 19.6128 32.1723 19.7324C32.3904 19.852 32.6257 19.9113 32.8787 19.9113H38.2875C38.5395 19.9113 38.7221 19.8042 38.8332 19.5904C38.9447 19.3761 39 19.1499 39 18.9107C39 18.6327 38.9397 18.391 38.8185 18.1867C38.6962 17.9834 38.5198 17.8812 38.2875 17.8812H34.2154V15.3439H36.4949C36.7469 15.3439 36.9295 15.2467 37.041 15.0529C37.1526 14.8585 37.2079 14.6627 37.2079 14.4634C37.2079 14.2247 37.1475 14.0134 37.0263 13.8285C36.9041 13.6447 36.7271 13.553 36.4949 13.553H34.2154V11.0301H38.2875C38.5198 11.0301 38.6962 10.9279 38.8185 10.7236C38.9397 10.5203 39 10.2786 39 10.0006C39 9.7614 38.9447 9.53518 38.8332 9.32091C38.7221 9.10664 38.5395 9 38.2875 9H32.8792C32.6262 9 32.3909 9.0593 32.1728 9.17889Z" fill="white"/>
<path d="M13.8317 19.9108C14.064 19.9108 14.2374 19.8037 14.3485 19.5899C14.46 19.3756 14.5158 19.1449 14.5158 18.8958C14.5158 18.6371 14.46 18.4029 14.3485 18.1942C14.2374 17.9849 14.064 17.8807 13.8317 17.8807H10.3682V9.70161C10.3682 9.45296 10.2445 9.27357 9.99648 9.16394C9.74901 9.05481 9.47771 9 9.1841 9C8.88997 9 8.61918 9.05481 8.3707 9.16394C8.12373 9.27407 8 9.45296 8 9.70161V19.1942C8 19.4334 8.10852 19.6123 8.32607 19.7319C8.54362 19.8515 8.77841 19.9108 9.03196 19.9108H13.8317Z" fill="white"/>
<path d="M18.6087 19.7319C18.8567 19.6118 18.9799 19.4334 18.9799 19.1942V9.70161C18.9799 9.45296 18.8567 9.27357 18.6087 9.16394C18.3607 9.05481 18.0899 9 17.7958 9C17.5017 9 17.2304 9.05481 16.9839 9.16394C16.7354 9.27407 16.6117 9.45296 16.6117 9.70161V19.1942C16.6117 19.4334 16.7354 19.6123 16.9839 19.7319C17.2309 19.8515 17.5022 19.9108 17.7958 19.9108C18.0904 19.9108 18.3612 19.8515 18.6087 19.7319Z" fill="white"/>
<path d="M21.0322 10.1197L23.873 19.2246C23.9526 19.4833 24.1458 19.6766 24.4496 19.8062C24.7523 19.9357 25.0758 20 25.4207 20C25.7762 20 26.1022 19.9352 26.4014 19.8062C26.6991 19.6771 26.8898 19.4833 26.9699 19.2246L29.7955 10.1197C29.8056 10.0903 29.8127 10.0604 29.8178 10.0305C29.8229 10.0006 29.8249 9.97617 29.8249 9.95574C29.8249 9.76689 29.7448 9.60245 29.583 9.46342C29.4212 9.32439 29.223 9.21178 28.9907 9.12757C28.7569 9.04285 28.5292 9.0005 28.3071 9.0005C28.1139 9.0005 27.9496 9.03289 27.8122 9.09767C27.6758 9.16195 27.5825 9.27407 27.5313 9.43352L25.4202 17.0899L23.2944 9.43352C23.2538 9.27407 23.1625 9.16195 23.02 9.09767C22.8796 9.03239 22.7112 9.0005 22.52 9.0005C22.307 9.0005 22.0824 9.04285 21.8435 9.12757C21.6062 9.21178 21.4054 9.32439 21.2441 9.46342C21.0824 9.60245 21.0007 9.76689 21.0007 9.95574C21.0007 9.98564 21.0109 10.04 21.0322 10.1197Z" fill="white"/>
</svg>
