<?xml version="1.0" encoding="utf-8"?>
<!-- Generator: Adobe Illustrator 26.0.1, SVG Export Plug-In . SVG Version: 6.00 Build 0)  -->
<svg version="1.0" id="Layer_1" xmlns="http://www.w3.org/2000/svg" xmlns:xlink="http://www.w3.org/1999/xlink" x="0px" y="0px"
	 viewBox="0 0 32 32" style="enable-background:new 0 0 32 32;" xml:space="preserve">
<style type="text/css">
	.st0{fill:#850E00;}
</style>
<path class="st0" d="M23.1,14.14c-1.6,0.02-3.19-0.01-4.79,0.02c-0.5,0.01-0.64-0.14-0.63-0.64c0.03-1.62,0.01-3.25,0.01-4.86
	c0.01-2.08,1.15-3.25,3.24-3.28c0.69-0.01,1.37-0.02,2.06,0c0.38,0.01,0.55-0.1,0.54-0.51c-0.02-1.29-0.01-2.58-0.01-3.88
	c0.01-0.36-0.14-0.49-0.49-0.49c-0.89,0.02-1.78-0.02-2.66,0.03c-4.43,0.27-7.53,3.59-7.55,8.03c-0.01,1.62-0.02,3.25,0.01,4.86
	c0.01,0.54-0.1,0.75-0.7,0.73c-1.19-0.05-2.38,0-3.57-0.02c-0.43-0.01-0.64,0.05-0.62,0.56c0.04,1.27,0.03,2.54,0.01,3.81
	c-0.01,0.4,0.12,0.52,0.51,0.51c1.24-0.02,2.48,0.01,3.73-0.02c0.48-0.01,0.65,0.1,0.65,0.62c-0.02,3.95-0.02,7.91,0,11.87h4.84
	c0.02-3.98,0.02-7.95,0-11.92c0-0.49,0.17-0.58,0.61-0.57c1.19,0.02,2.39-0.01,3.57,0.01c0.39,0.01,0.59-0.1,0.69-0.5
	c0.3-1.28,0.61-2.56,0.97-3.83C23.64,14.24,23.57,14.13,23.1,14.14z"/>
<g>
</g>
<g>
</g>
<g>
</g>
<g>
</g>
<g>
</g>
<g>
</g>
</svg>
