<?xml version="1.0" encoding="utf-8"?>
<!-- Generator: Adobe Illustrator 26.0.1, SVG Export Plug-In . SVG Version: 6.00 Build 0)  -->
<svg version="1.0" id="Layer_1" xmlns="http://www.w3.org/2000/svg" xmlns:xlink="http://www.w3.org/1999/xlink" x="0px" y="0px"
	 viewBox="0 0 32 32" style="enable-background:new 0 0 32 32;" xml:space="preserve">
<style type="text/css">
	.st0{fill:#850E00;}
	.st1{fill:none;stroke:#850E00;stroke-width:2;stroke-linecap:square;stroke-linejoin:round;stroke-miterlimit:10;}
</style>
<g>
	<path class="st0" d="M19.63,23.68c0.28-0.04,0.71-0.07,1.12-0.15c1.23-0.25,2.11-1.04,2.82-2c0.53-0.71,0.17-1.45-1.1-2.59
		c-0.58-0.52-1.28-0.55-1.86-0.08c-0.2,0.16-0.37,0.36-0.56,0.54c-1.15,1.07-2.76,1.09-3.89,0.01c-1.17-1.13-2.33-2.28-3.45-3.47
		c-1.06-1.11-1.03-2.72,0.01-3.85c0.18-0.19,0.37-0.36,0.54-0.56c0.48-0.58,0.47-1.28-0.04-1.87c-1.1-1.28-1.83-1.61-2.58-1.16
		c-0.06,0.04-0.12,0.08-0.17,0.12c-1.49,1.21-2.2,2.74-1.93,4.68c0.47,3.4,2.34,5.93,4.93,7.99C15.23,22.69,17.21,23.58,19.63,23.68
		z"/>
</g>
<path class="st1" d="M3.44,21.86l-2.19,8.09l7.86-1.71c2.15,1.3,4.66,2.04,7.35,2.04c7.89,0,14.28-6.4,14.28-14.29
	S24.35,1.72,16.47,1.72S2.18,8.1,2.18,15.99C2.18,18.08,2.63,20.08,3.44,21.86z"/>
<g>
</g>
<g>
</g>
<g>
</g>
<g>
</g>
<g>
</g>
<g>
</g>
</svg>
