<svg width="28" height="28" viewBox="0 0 28 28" fill="none" xmlns="http://www.w3.org/2000/svg">
<path d="M2.3335 13.9998C2.3335 12.9912 2.46148 12.0125 2.7021 11.079C3.97409 11.145 5.23672 10.5118 5.91726 9.33312C6.59728 8.15529 6.5149 6.74649 5.82324 5.67818C7.21429 4.31117 8.94654 3.29025 10.8805 2.75488C11.4594 3.88949 12.639 4.66645 14.0002 4.66645C15.3613 4.66645 16.5409 3.88949 17.1198 2.75488C19.0538 3.29025 20.7861 4.31117 22.1771 5.67818C21.4854 6.74649 21.403 8.15529 22.0831 9.33312C22.7636 10.5118 24.0263 11.145 25.2983 11.079C25.5388 12.0125 25.6668 12.9912 25.6668 13.9998C25.6668 15.0083 25.5388 15.9871 25.2983 16.9205C24.0263 16.8546 22.7636 17.4877 22.0831 18.6664C21.403 19.8443 21.4854 21.253 22.1771 22.3214C20.7861 23.6883 19.0538 24.7093 17.1198 25.2447C16.5409 24.1101 15.3613 23.3331 14.0002 23.3331C12.639 23.3331 11.4594 24.1101 10.8805 25.2447C8.94654 24.7093 7.21429 23.6883 5.82324 22.3214C6.5149 21.253 6.59728 19.8443 5.91726 18.6664C5.23672 17.4877 3.97409 16.8546 2.7021 16.9205C2.46148 15.9871 2.3335 15.0083 2.3335 13.9998ZM7.93799 17.4998C8.67311 18.7731 8.88384 20.2369 8.59637 21.6109C9.07213 21.9494 9.57856 22.2427 10.1092 22.4864C11.1556 21.5497 12.5292 20.9998 14.0002 20.9998C15.4711 20.9998 16.8447 21.5497 17.8911 22.4864C18.4217 22.2427 18.9282 21.9494 19.4039 21.6109C19.1165 20.2369 19.3272 18.7731 20.0624 17.4998C20.7974 16.2266 21.9597 15.3123 23.2932 14.8742C23.32 14.5851 23.3335 14.2935 23.3335 13.9998C23.3335 13.7061 23.32 13.4144 23.2932 13.1255C21.9597 12.6874 20.7974 11.7731 20.0624 10.4998C19.3272 9.22652 19.1165 7.76274 19.4039 6.38872C18.9282 6.05019 18.4217 5.75688 17.8911 5.5131C16.8447 6.44984 15.4711 6.99979 14.0002 6.99979C12.5292 6.99979 11.1556 6.44984 10.1092 5.5131C9.57856 5.75688 9.07213 6.05019 8.59637 6.38872C8.88384 7.76274 8.67311 9.22652 7.93799 10.4998C7.20288 11.7731 6.04063 12.6874 4.70709 13.1255C4.68033 13.4144 4.66683 13.7061 4.66683 13.9998C4.66683 14.2935 4.68033 14.5851 4.70709 14.8742C6.04063 15.3123 7.20288 16.2266 7.93799 17.4998ZM14.0002 17.4998C12.0671 17.4998 10.5002 15.9328 10.5002 13.9998C10.5002 12.0668 12.0671 10.4998 14.0002 10.4998C15.9332 10.4998 17.5002 12.0668 17.5002 13.9998C17.5002 15.9328 15.9332 17.4998 14.0002 17.4998ZM14.0002 15.1664C14.6445 15.1664 15.1668 14.6441 15.1668 13.9998C15.1668 13.3554 14.6445 12.8331 14.0002 12.8331C13.3558 12.8331 12.8335 13.3554 12.8335 13.9998C12.8335 14.6441 13.3558 15.1664 14.0002 15.1664Z" fill="#8A0B00"/>
</svg>
