<?xml version="1.0" encoding="utf-8"?>
<!-- Generator: Adobe Illustrator 16.0.0, SVG Export Plug-In . SVG Version: 6.00 Build 0)  -->
<!DOCTYPE svg PUBLIC "-//W3C//DTD SVG 1.1//EN" "http://www.w3.org/Graphics/SVG/1.1/DTD/svg11.dtd">
<svg version="1.1" id="Layer_1" xmlns="http://www.w3.org/2000/svg" xmlns:xlink="http://www.w3.org/1999/xlink" x="0px" y="0px"
	 width="28px" height="28px" viewBox="0 0 28 28" enable-background="new 0 0 28 28" xml:space="preserve">
<g>
	<polygon fill="#8A0B00" points="13.959,6.779 13.959,4.376 16.455,4.376 16.455,6.779 18.966,6.779 18.966,4.376 18.966,4.16 
		18.966,2.003 8.953,2.003 6.488,2.003 6.488,11.862 8.953,11.862 8.953,9.305 10.216,9.305 10.216,6.933 8.953,6.933 8.953,4.376 
		11.449,4.376 11.449,6.779 	"/>
	<path fill="#8A0B00" d="M2.76,14.758v2.158v2.494v2.467v2.557h2.403v-2.557h2.649v2.557h2.403v-2.557V19.41v-2.494v-2.158V14.45
		H2.76V14.758z M7.813,19.41H5.164v-2.494h2.649V19.41z"/>
	<path fill="#8A0B00" d="M23.205,9.305L23.205,9.305H14.56l0,0h-1.798v14.943h2.403v-2.371h2.742v2.371h2.403v-2.371h2.526v2.371
		h2.403V9.305H23.205z M20.31,11.77h2.526v2.68H20.31V11.77z M17.906,14.45h-2.742v-2.68h2.742V14.45z M15.164,19.41v-2.494h2.742
		v2.494H15.164z M20.31,19.41v-2.494h2.526v2.494H20.31z"/>
</g>
</svg>
