<?xml version="1.0" encoding="utf-8"?>
<!-- Generator: Adobe Illustrator 26.0.1, SVG Export Plug-In . SVG Version: 6.00 Build 0)  -->
<svg version="1.0" id="Layer_1" xmlns="http://www.w3.org/2000/svg" xmlns:xlink="http://www.w3.org/1999/xlink" x="0px" y="0px"
	 viewBox="0 0 32 32" style="enable-background:new 0 0 32 32;" xml:space="preserve">
<style type="text/css">
	.st0{fill:#850E00;}
</style>
<g>
	<path class="st0" d="M30.19,0.38c-3.61,4.21-7.22,8.42-10.85,12.61c-0.33,0.38-0.37,0.62-0.07,1.05
		c3.84,5.55,7.66,11.12,11.48,16.69c0.12,0.18,0.23,0.36,0.36,0.55c-0.22,0.14-0.42,0.08-0.61,0.08c-2.58,0.01-5.16-0.01-7.75,0.01
		c-0.43,0-0.68-0.12-0.93-0.48c-2.49-3.65-4.99-7.28-7.49-10.92c-0.13-0.19-0.27-0.39-0.44-0.63c-1.25,1.45-2.46,2.85-3.66,4.25
		c-2.09,2.43-4.19,4.86-6.26,7.3c-0.31,0.36-0.62,0.51-1.08,0.48C2.26,31.34,1.64,31.37,1,31.37c0.02-0.29,0.23-0.41,0.36-0.57
		C5,26.56,8.64,22.32,12.3,18.1c0.32-0.37,0.34-0.61,0.06-1.02C8.63,11.69,4.93,6.29,1.22,0.89C1.1,0.72,1,0.55,0.89,0.38
		c3.03,0,6.05,0,9.08,0C10,0.45,10.01,0.54,10.05,0.6c2.47,3.6,4.95,7.2,7.41,10.81c0.28,0.41,0.4,0.19,0.6-0.04
		c3.15-3.67,6.31-7.33,9.46-11C28.41,0.38,29.3,0.38,30.19,0.38z"/>
</g>
<g>
</g>
<g>
</g>
<g>
</g>
<g>
</g>
<g>
</g>
<g>
</g>
</svg>
