<?xml version="1.0" encoding="utf-8"?>
<!-- Generator: Adobe Illustrator 16.0.0, SVG Export Plug-In . SVG Version: 6.00 Build 0)  -->
<!DOCTYPE svg PUBLIC "-//W3C//DTD SVG 1.1//EN" "http://www.w3.org/Graphics/SVG/1.1/DTD/svg11.dtd">
<svg version="1.1" id="Layer_1" xmlns="http://www.w3.org/2000/svg" xmlns:xlink="http://www.w3.org/1999/xlink" x="0px" y="0px"
	 width="31.725px" height="34.802px" viewBox="0 -0.984 31.725 34.802" enable-background="new 0 -0.984 31.725 34.802"
	 xml:space="preserve">
<g>
	<path fill="#979797" d="M1.202,17.771c-0.005-3.3,0.922-6.207,3.54-8.404c2.374-1.992,5.071-2.714,7.986-1.571
		c2.534,0.995,4.867,1.03,7.44,0.021c3.392-1.331,6.409-0.297,8.955,2.246c0.494,0.496,0.509,0.713-0.112,1.17
		c-4.594,3.374-4.136,10.053,0.878,12.806c0.661,0.363,0.793,0.596,0.459,1.28c-1.139,2.322-2.46,4.519-4.257,6.384
		c-1.978,2.054-3.54,2.351-6.143,1.194c-2.215-0.983-4.396-0.972-6.619-0.031c-2.888,1.222-4.53,0.853-6.654-1.425
		C3.432,27.963,1.211,22.417,1.202,17.771z"/>
	<path fill="#979797" d="M15.406,6.314c0.121-3.178,3.286-6.627,6.408-7.034c0.518-0.068,0.63,0.117,0.688,0.568
		c0.408,3.184-2.998,7.321-6.213,7.609C15.243,7.555,15.382,6.939,15.406,6.314z"/>
</g>
</svg>
