<?xml version="1.0" encoding="utf-8"?>
<!-- Generator: Adobe Illustrator 26.0.1, SVG Export Plug-In . SVG Version: 6.00 Build 0)  -->
<svg version="1.0" id="Layer_1" xmlns="http://www.w3.org/2000/svg" xmlns:xlink="http://www.w3.org/1999/xlink" x="0px" y="0px"
	 viewBox="0 0 32 32" style="enable-background:new 0 0 32 32;" xml:space="preserve">
<style type="text/css">
	.st0{fill:#850E00;}
</style>
<g>
	<path class="st0" d="M0.5,23.03c0.15-0.54,0.27-1.09,0.45-1.62c0.44-1.33,1.19-2.47,2.16-3.46c1.07-1.1,2.16-2.18,3.24-3.26
		c0.62-0.62,1.35-0.66,1.86-0.12c0.49,0.51,0.44,1.23-0.15,1.83c-0.98,0.99-1.96,1.97-2.95,2.96c-1,1.01-1.78,2.15-2.06,3.56
		c-0.41,2.03,0.23,3.72,1.81,5.02c1.57,1.3,3.35,1.46,5.23,0.73c0.82-0.32,1.55-0.78,2.18-1.4c1.67-1.64,3.33-3.29,4.96-4.97
		c0.82-0.83,1.39-1.84,1.66-2.98c0.51-2.12-0.35-4.26-2.18-5.49c-0.12-0.08-0.24-0.15-0.36-0.23c-0.59-0.43-0.74-1.07-0.4-1.64
		c0.34-0.58,1.06-0.77,1.69-0.39c1.99,1.2,3.28,2.91,3.69,5.21c0.5,2.83-0.49,5.22-2.4,7.24c-1.6,1.7-3.28,3.34-4.96,4.97
		c-1.33,1.29-2.91,2.15-4.77,2.43c-0.07,0.01-0.14,0.06-0.21,0.1c-0.65,0-1.29,0-1.94,0c-0.1-0.13-0.25-0.1-0.39-0.13
		c-2.95-0.68-4.9-2.46-5.86-5.33c-0.12-0.36-0.2-0.73-0.3-1.09C0.5,24.33,0.5,23.68,0.5,23.03z"/>
	<path class="st0" d="M10.55,14.08c0.04-2.49,0.97-4.46,2.56-6.12c1.61-1.67,3.23-3.33,4.93-4.92c2.28-2.13,4.94-3.13,8.05-2.22
		c4.52,1.32,6.67,6.3,4.65,10.61c-0.4,0.85-0.89,1.63-1.54,2.31c-1.2,1.25-2.42,2.48-3.66,3.7c-0.53,0.52-1.25,0.5-1.73,0.01
		c-0.47-0.48-0.46-1.21,0.05-1.73c1-1.03,2.02-2.03,3.03-3.05c1-1.01,1.78-2.15,2.07-3.56c0.42-2.03-0.22-3.72-1.79-5.02
		c-1.57-1.31-3.35-1.47-5.23-0.75c-0.99,0.38-1.83,1.02-2.58,1.77c-1.4,1.4-2.8,2.79-4.2,4.2c-0.82,0.82-1.49,1.75-1.87,2.86
		c-0.79,2.31-0.04,4.67,2.02,5.99c0.89,0.57,1.12,1.32,0.72,1.94c-0.44,0.68-1.2,0.71-2.11,0.07
		C11.77,18.65,10.63,16.58,10.55,14.08z"/>
</g>
<g>
</g>
<g>
</g>
<g>
</g>
<g>
</g>
<g>
</g>
<g>
</g>
</svg>
