<svg width="32" height="31" viewBox="0 0 32 31" fill="none" xmlns="http://www.w3.org/2000/svg">
<path d="M19.5875 1.9828C21.2125 2.29619 22.2688 3.82097 21.9438 5.38793L21.8 6.07499C21.4687 7.68414 20.8562 9.21494 20 10.6071H29C30.6562 10.6071 32 11.9029 32 13.5C32 14.6149 31.3438 15.5853 30.3813 16.0674C31.0625 16.5978 31.5 17.4114 31.5 18.3214C31.5 19.7317 30.45 20.9069 29.0688 21.16C29.3438 21.6 29.5 22.1123 29.5 22.6607C29.5 23.9444 28.6312 25.0353 27.4312 25.4089C27.475 25.6078 27.5 25.8187 27.5 26.0357C27.5 27.6328 26.1562 28.9286 24.5 28.9286H18.4062C17.2188 28.9286 16.0625 28.5911 15.075 27.9582L12.6687 26.4094C11 25.3366 10 23.5286 10 21.594V19.2857V16.3928V14.8922C10 13.1324 10.8312 11.475 12.25 10.3721L12.7125 10.0165C14.3687 8.73883 15.5 6.94284 15.9125 4.94195L16.0562 4.2549C16.3812 2.68793 17.9625 1.66941 19.5875 1.9828ZM2 11.5714H6C7.10625 11.5714 8 12.4332 8 13.5V27C8 28.0667 7.10625 28.9286 6 28.9286H2C0.89375 28.9286 0 28.0667 0 27V13.5C0 12.4332 0.89375 11.5714 2 11.5714Z" fill="#5B0400"/>
</svg>
