<svg width="32" height="31" viewBox="0 0 32 31" fill="none" xmlns="http://www.w3.org/2000/svg">
<path d="M19.5875 29.008C21.2125 28.6932 22.2688 27.1613 21.9438 25.5871L21.8 24.8969C21.4687 23.2803 20.8562 21.7424 20 20.3437H29C30.6562 20.3437 32 19.042 32 17.4375C32 16.3174 31.3438 15.3426 30.3813 14.8582C31.0625 14.3254 31.5 13.508 31.5 12.5937C31.5 11.1769 30.45 9.99628 29.0688 9.74198C29.3438 9.29999 29.5 8.78534 29.5 8.23436C29.5 6.94472 28.6312 5.84882 27.4312 5.47343C27.475 5.27362 27.5 5.06171 27.5 4.84374C27.5 3.23925 26.1562 1.93749 24.5 1.93749H18.4062C17.2188 1.93749 16.0625 2.27655 15.075 2.91229L12.6687 4.46835C11 5.54608 10 7.36249 10 9.30604V11.625V14.5312V16.0389C10 17.8068 10.8312 19.4719 12.25 20.5799L12.7125 20.9371C14.3687 22.2207 15.5 24.025 15.9125 26.0351L16.0562 26.7254C16.3812 28.2996 17.9625 29.3228 19.5875 29.008ZM2 19.375H6C7.10625 19.375 8 18.5092 8 17.4375V3.87499C8 2.80331 7.10625 1.93749 6 1.93749H2C0.89375 1.93749 0 2.80331 0 3.87499V17.4375C0 18.5092 0.89375 19.375 2 19.375Z" fill="#5B0400"/>
</svg>
