<svg width="21" height="20" viewBox="0 0 21 20" fill="none" xmlns="http://www.w3.org/2000/svg">
<path d="M8.00032 0.833328V2.49999H13.0003V0.833328H14.667V2.49999H18.0003C18.4606 2.49999 18.8337 2.87309 18.8337 3.33333V16.6667C18.8337 17.1269 18.4606 17.5 18.0003 17.5H3.00033C2.54009 17.5 2.16699 17.1269 2.16699 16.6667V3.33333C2.16699 2.87309 2.54009 2.49999 3.00033 2.49999H6.33366V0.833328H8.00032ZM17.167 9.16666H3.83366V15.8333H17.167V9.16666ZM7.16699 10.8333V12.5H5.50032V10.8333H7.16699ZM11.3337 10.8333V12.5H9.66699V10.8333H11.3337ZM15.5003 10.8333V12.5H13.8337V10.8333H15.5003ZM6.33366 4.16666H3.83366V7.49999H17.167V4.16666H14.667V5.83333H13.0003V4.16666H8.00032V5.83333H6.33366V4.16666Z" fill="#0C0C0C"/>
</svg>
