<svg width="40" height="47" viewBox="0 0 40 47" fill="none" xmlns="http://www.w3.org/2000/svg">
<g id="noun-live-tv-4180653 1">
<g id="Layer 2">
<path id="Vector" d="M34.6667 11.0982H22.3822L28.7778 3.6241C29.0133 3.3283 29.1415 2.93708 29.1354 2.53284C29.1293 2.1286 28.9894 1.74291 28.7451 1.45702C28.5008 1.17113 28.1712 1.00738 27.8258 1.00024C27.4804 0.993111 27.1461 1.14316 26.8933 1.41878L20.5556 8.83571L14.2222 1.41878C13.9695 1.14316 13.6352 0.993111 13.2897 1.00024C12.9443 1.00738 12.6147 1.17113 12.3705 1.45702C12.1262 1.74291 11.9862 2.1286 11.9801 2.53284C11.974 2.93708 12.1023 3.3283 12.3378 3.6241L18.7289 11.0982H5.33333C3.91885 11.0982 2.56229 11.7558 1.5621 12.9263C0.561903 14.0968 0 15.6844 0 17.3397V34.7585C0 36.4139 0.561903 38.0014 1.5621 39.1719C2.56229 40.3424 3.91885 41 5.33333 41H34.6667C36.0812 41 37.4377 40.3424 38.4379 39.1719C39.4381 38.0014 40 36.4139 40 34.7585V17.3397C40 15.6844 39.4381 14.0968 38.4379 12.9263C37.4377 11.7558 36.0812 11.0982 34.6667 11.0982ZM37.3333 34.7481C37.3333 35.5758 37.0524 36.3696 36.5523 36.9548C36.0522 37.5401 35.3739 37.8689 34.6667 37.8689H5.33333C4.62609 37.8689 3.94781 37.5401 3.44772 36.9548C2.94762 36.3696 2.66667 35.5758 2.66667 34.7481V17.3397C2.66667 16.512 2.94762 15.7183 3.44772 15.133C3.94781 14.5478 4.62609 14.219 5.33333 14.219H34.6667C35.3739 14.219 36.0522 14.5478 36.5523 15.133C37.0524 15.7183 37.3333 16.512 37.3333 17.3397V34.7481Z" fill="#998448"/>
<path id="Vector_2" d="M24.089 24.8083L16.1467 18.9569C15.9561 18.8194 15.7376 18.7438 15.5136 18.7377C15.2897 18.7316 15.0685 18.7954 14.8726 18.9225C14.6767 19.0496 14.5132 19.2353 14.3989 19.4608C14.2847 19.6862 14.2237 19.9431 14.2223 20.2052V31.9028C14.2227 32.1665 14.2834 32.4252 14.3982 32.6522C14.5129 32.8791 14.6775 33.066 14.8748 33.1934C15.0721 33.3207 15.2949 33.384 15.5201 33.3766C15.7454 33.3691 15.9648 33.2913 16.1556 33.1511L24.089 27.3049C24.2699 27.1726 24.4191 26.9886 24.5225 26.7702C24.626 26.5519 24.6802 26.3063 24.6802 26.0566C24.6802 25.8069 24.626 25.5613 24.5225 25.343C24.4191 25.1246 24.2699 24.9406 24.089 24.8083Z" fill="#998448"/>
</g>
</g>
</svg>
