<svg width="40" height="40" viewBox="0 0 40 40" fill="none" xmlns="http://www.w3.org/2000/svg">
<path d="M30.0003 13.3346H28.3337V10.0013C28.3337 7.79116 27.4557 5.67155 25.8929 4.10875C24.3301 2.54594 22.2105 1.66797 20.0003 1.66797C17.7902 1.66797 15.6706 2.54594 14.1078 4.10875C12.545 5.67155 11.667 7.79116 11.667 10.0013V13.3346H10.0003C9.11627 13.3346 8.26842 13.6858 7.6433 14.3109C7.01818 14.9361 6.66699 15.7839 6.66699 16.668V33.3346C6.66699 34.2187 7.01818 35.0665 7.6433 35.6917C8.26842 36.3168 9.11627 36.668 10.0003 36.668H30.0003C30.8844 36.668 31.7322 36.3168 32.3573 35.6917C32.9825 35.0665 33.3337 34.2187 33.3337 33.3346V16.668C33.3337 15.7839 32.9825 14.9361 32.3573 14.3109C31.7322 13.6858 30.8844 13.3346 30.0003 13.3346ZM20.0003 28.3346C19.3411 28.3346 18.6966 28.1391 18.1484 27.7729C17.6003 27.4066 17.173 26.886 16.9207 26.2769C16.6684 25.6678 16.6024 24.9976 16.731 24.351C16.8597 23.7044 17.1771 23.1105 17.6433 22.6443C18.1095 22.1781 18.7034 21.8606 19.35 21.732C19.9966 21.6034 20.6668 21.6694 21.2759 21.9217C21.885 22.174 22.4056 22.6012 22.7719 23.1494C23.1382 23.6976 23.3337 24.342 23.3337 25.0013C23.3337 25.8854 22.9825 26.7332 22.3573 27.3583C21.7322 27.9834 20.8844 28.3346 20.0003 28.3346ZM25.167 13.3346H14.8337V10.0013C14.8337 8.63102 15.378 7.31685 16.3469 6.34792C17.3159 5.37898 18.63 4.83464 20.0003 4.83464C21.3706 4.83464 22.6848 5.37898 23.6537 6.34792C24.6226 7.31685 25.167 8.63102 25.167 10.0013V13.3346Z" fill="#BEBEBE"/>
</svg>
