<svg width="28" height="28" viewBox="0 0 28 28" fill="none" xmlns="http://www.w3.org/2000/svg">
<g clip-path="url(#clip0_3573_3677)">
<path fill-rule="evenodd" clip-rule="evenodd" d="M21.293 0.0279541C15.858 0.0279541 10.423 0.0279541 4.98804 0.0279541C4.73703 0.169831 4.677 0.399017 4.677 0.677314C4.68246 3.875 4.68246 7.06723 4.68246 10.2649C4.68246 10.7997 4.82434 10.947 5.3591 10.947C9.05882 10.947 12.764 10.947 16.4637 10.9416C16.6383 10.9416 16.7584 10.9852 16.8839 11.1107C17.6533 11.8856 18.4391 12.6441 19.2139 13.4135C19.3831 13.5827 19.5686 13.6918 19.8033 13.599C20.0488 13.5008 20.0816 13.2825 20.0761 13.0479C20.0707 12.6386 20.0707 12.2294 20.0761 11.8201C20.0761 11.5364 19.9779 11.1544 20.1198 11.0016C20.2835 10.8215 20.6709 10.9525 20.9601 10.947C21.4512 10.9361 21.6095 10.7888 21.6095 10.2922C21.6095 7.07815 21.6095 3.86409 21.6149 0.65003C21.6095 0.37719 21.5385 0.164374 21.293 0.0279541Z" fill="#D7B962"/>
<path fill-rule="evenodd" clip-rule="evenodd" d="M23.6229 24.0816C23.5901 22.3463 22.7661 21.1294 21.1891 20.4146C20.4961 20.1036 19.7649 20.1035 19.0228 20.1035C17.5658 20.0981 16.3817 20.6219 15.514 21.8115C15.4377 21.9098 15.3831 21.9534 15.2576 21.8825C14.7501 21.6096 14.199 21.4896 13.6205 21.4732C12.7584 21.4459 11.8962 21.4296 11.0995 21.8497C10.914 21.9479 10.8321 21.9043 10.723 21.746C10.2264 21.0585 9.56067 20.5892 8.75307 20.3218C7.84724 20.0217 6.91412 20.0544 5.98647 20.169C4.40945 20.36 3.03979 21.6751 2.73967 23.2358C2.6087 23.9124 2.66873 24.6 2.65781 25.2821C2.65236 25.8223 2.77241 25.9423 3.30717 25.9423C4.8951 25.9423 6.48304 25.9423 8.07642 25.9423C8.71487 25.9423 8.72578 25.9423 8.70941 26.5917C8.70396 26.8918 8.74761 27.1483 9.03136 27.312C11.7652 27.312 14.5045 27.312 17.2384 27.312C17.5003 27.1647 17.5876 26.9355 17.5604 26.6463C17.5494 26.5044 17.5713 26.3625 17.5549 26.2206C17.5276 26.0024 17.5931 25.9369 17.8223 25.9423C19.5521 25.9532 21.2819 25.9478 23.0172 25.9478C23.481 25.9478 23.6119 25.8114 23.6174 25.3421C23.6229 24.9165 23.6283 24.5017 23.6229 24.0816ZM8.81855 24.8946C8.79126 25.0365 8.7367 25.0747 8.59482 25.0747C7.78721 25.0692 6.97961 25.0692 6.172 25.0692C5.36439 25.0692 4.55678 25.0638 3.74918 25.0747C3.59093 25.0747 3.5309 25.0474 3.54182 24.8728C3.5691 24.3435 3.49271 23.8087 3.62913 23.2849C3.95108 22.008 5.04789 21.0912 6.43392 20.993C7.27973 20.933 8.13645 20.9166 8.92768 21.3313C9.39151 21.5769 9.77895 21.8988 10.0791 22.3299C10.15 22.4336 10.1446 22.4827 10.0572 22.57C9.3806 23.203 8.9768 23.9833 8.81855 24.8946ZM22.4933 25.0747C21.7021 25.0583 20.9163 25.0692 20.125 25.0692C19.3174 25.0692 18.5098 25.0638 17.7022 25.0747C17.5385 25.0747 17.4949 25.0201 17.4676 24.8728C17.3093 23.9833 16.9055 23.2194 16.2562 22.5919C16.1416 22.4827 16.1416 22.4172 16.2289 22.2917C16.6982 21.6478 17.3148 21.2113 18.0951 21.0749C19.0719 20.9002 20.0596 20.8402 20.9872 21.2931C22.1059 21.8334 22.7061 22.7337 22.7389 23.9888C22.7443 24.2616 22.7279 24.5399 22.7443 24.8128C22.7552 25.0092 22.7116 25.0802 22.4933 25.0747Z" fill="#8A0B00"/>
<path fill-rule="evenodd" clip-rule="evenodd" d="M22.0459 16.6494C21.9531 15.2579 20.5998 14.0574 19.1592 14.1229C17.544 14.1993 16.3272 15.4652 16.4036 16.9931C16.4799 18.5047 17.8223 19.667 19.4375 19.5742C20.8781 19.4978 22.1496 18.2209 22.0459 16.6494ZM19.2247 18.7175C18.1606 18.7175 17.2548 17.8499 17.2712 16.8403C17.2876 15.8199 18.1606 14.9959 19.2247 14.9959C20.2833 14.9959 21.1619 15.8254 21.1783 16.8403C21.1946 17.8499 20.2888 18.7175 19.2247 18.7175Z" fill="#8A0B00"/>
<path fill-rule="evenodd" clip-rule="evenodd" d="M9.89915 16.7585C9.86096 15.3015 8.53495 14.0737 7.04524 14.1174C5.47368 14.1611 4.21862 15.4107 4.25136 16.9058C4.2841 18.4283 5.59919 19.6233 7.20349 19.5797C8.70957 19.5469 9.93735 18.2591 9.89915 16.7585ZM7.06707 18.7175C6.00299 18.7011 5.14082 17.8771 5.1299 16.8622C5.11899 15.8472 6.00299 14.9959 7.07798 14.9959C8.14752 14.9959 9.04243 15.8472 9.03698 16.8622C9.02606 17.8717 8.12023 18.7339 7.06707 18.7175Z" fill="#8A0B00"/>
<path fill-rule="evenodd" clip-rule="evenodd" d="M13.1293 15.4707C11.5851 15.4816 10.3136 16.7258 10.3245 18.2155C10.3354 19.7052 11.6233 20.9384 13.1621 20.933C14.7118 20.9275 15.9778 19.6997 15.9778 18.1991C15.9723 16.6876 14.69 15.4598 13.1293 15.4707Z" fill="#8A0B00"/>
<path fill-rule="evenodd" clip-rule="evenodd" d="M17.1403 3.54755C16.9984 3.50935 16.9602 3.44932 16.9657 3.3129C16.9711 2.84362 16.9711 2.37433 16.9657 1.89959C16.9602 1.42485 16.7201 1.25569 16.2781 1.43576C14.9958 1.95416 13.7189 2.4671 12.442 2.99095C12.2892 3.05098 12.1418 3.08372 11.9781 3.08372C11.3997 3.07826 10.8213 3.0728 10.2483 3.08372C9.40253 3.09463 8.89505 3.60757 8.88959 4.45338C8.88413 4.89538 8.88413 5.34283 8.88959 5.78484C8.89505 6.22138 9.02601 6.60336 9.39162 6.8762C9.47347 6.93622 9.51167 7.01262 9.53349 7.1163C9.64809 7.77111 9.77359 8.42593 9.8991 9.07529C9.95912 9.39724 10.0955 9.51184 10.423 9.51729C10.9468 9.52275 11.4707 9.52275 11.9945 9.51729C12.3765 9.51184 12.5402 9.30993 12.4693 8.93341C12.3601 8.34954 12.251 7.77111 12.1418 7.18724C12.2564 7.17632 12.3328 7.23089 12.4092 7.26363C13.6861 7.76566 14.9576 8.27314 16.2345 8.77517C16.7147 8.96615 16.9657 8.79699 16.9711 8.2786C16.9766 7.79294 16.9766 7.30183 16.9657 6.81617C16.9602 6.65793 17.0093 6.59244 17.1676 6.54879C17.8551 6.35234 18.308 5.74664 18.308 5.05362C18.308 4.3497 17.8442 3.73853 17.1403 3.54755ZM11.1051 8.66603C10.7013 8.66603 10.7013 8.66603 10.6194 8.26768C10.5594 7.9621 10.5048 7.66198 10.4393 7.3564C10.412 7.23089 10.412 7.17087 10.5812 7.16541C11.2251 7.14904 11.2251 7.13812 11.3561 7.77111C11.3888 7.9239 11.4161 8.08215 11.4434 8.2404C11.5252 8.66603 11.5252 8.66603 11.1051 8.66603ZM11.8308 5.13002C11.8308 5.45743 11.8254 5.78484 11.8308 6.11224C11.8308 6.23775 11.8144 6.30869 11.6616 6.30323C11.1814 6.29232 10.7067 6.30323 10.2265 6.29778C9.94275 6.29232 9.77359 6.13407 9.76814 5.85577C9.75722 5.35921 9.75722 4.86264 9.76814 4.36607C9.77359 4.08777 9.90456 3.96226 10.1829 3.95681C10.6794 3.95135 11.176 3.95681 11.6726 3.95135C11.8035 3.95135 11.8417 3.98955 11.8363 4.11505C11.8254 4.45883 11.8308 4.79715 11.8308 5.13002ZM16.0817 7.67289C16.0817 7.69472 16.0707 7.722 16.0598 7.76566C15.2304 7.43279 14.4119 7.11084 13.5934 6.77798C13.2987 6.65793 12.8949 6.63064 12.7476 6.38508C12.6111 6.15044 12.7094 5.77938 12.7094 5.46834C12.7094 4.97723 12.7148 4.49157 12.7039 4.00046C12.7039 3.85313 12.7312 3.76582 12.8894 3.70579C13.888 3.31836 14.8812 2.91456 15.8743 2.51621C15.9725 2.47801 16.0871 2.37433 16.0871 2.60897C16.0817 4.29513 16.0817 5.98128 16.0817 7.67289ZM16.982 5.66479C16.982 5.25007 16.982 4.84081 16.982 4.42609C17.2931 4.52431 17.4349 4.72622 17.4295 5.05362C17.424 5.38103 17.2876 5.57202 16.982 5.66479Z" fill="white"/>
</g>
<defs>
<clipPath id="clip0_3573_3677">
<rect width="27" height="27" fill="white"/>
</clipPath>
</defs>
</svg>
