<svg width="40" height="40" viewBox="0 0 40 40" fill="none" xmlns="http://www.w3.org/2000/svg">
<g id="Group">
<path id="Vector" d="M12.2727 0C9.01482 0 6.36364 2.65118 6.36364 5.90909V6.36364H5.90909C2.65118 6.36364 0 9.01482 0 12.2727V34.0909C0 37.3488 2.65118 40 5.90909 40H27.7273C30.9852 40 33.6364 37.3488 33.6364 34.0909V33.6364H34.0909C37.3488 33.6364 40 30.9852 40 27.7273V5.90909C40 2.65118 37.3488 0 34.0909 0H12.2727ZM12.2727 1.81818H34.0909C36.373 1.81818 38.1818 3.627 38.1818 5.90909V27.7273C38.1818 30.0094 36.373 31.8182 34.0909 31.8182H33.6364V12.2727C33.6364 9.01482 30.9852 6.36364 27.7273 6.36364H8.18182V5.90909C8.18182 3.627 9.99064 1.81818 12.2727 1.81818ZM5.90909 8.18182H27.7273C30.0094 8.18182 31.8182 9.99064 31.8182 12.2727V28.0682L22.358 21.0795C22.2613 21.0073 22.1512 20.955 22.0342 20.9258C21.9171 20.8965 21.7954 20.8908 21.6761 20.9091C21.555 20.9283 21.4391 20.9718 21.3352 21.0369L15.8523 24.4176L10.6392 19.3466C10.5413 19.2497 10.4226 19.1764 10.2922 19.1321C10.1618 19.0878 10.023 19.0737 9.88636 19.0909C9.67403 19.1175 9.47786 19.2181 9.33239 19.375L1.81818 27.5852V12.2727C1.81818 9.99064 3.627 8.18182 5.90909 8.18182ZM14.2614 10.6676C12.1954 10.6676 10.4972 12.3658 10.4972 14.4318C10.4972 16.4978 12.1954 18.196 14.2614 18.196C16.3274 18.196 18.0256 16.4978 18.0256 14.4318C18.0256 12.3658 16.3274 10.6676 14.2614 10.6676ZM14.2614 12.5C15.3448 12.5 16.1932 13.3484 16.1932 14.4318C16.1932 15.5152 15.3448 16.3636 14.2614 16.3636C13.178 16.3636 12.3153 15.5152 12.3153 14.4318C12.3153 13.3484 13.178 12.5 14.2614 12.5ZM10.0426 21.2926L16.4773 27.5568C16.5627 27.6415 16.6642 27.7083 16.7757 27.7535C16.8871 27.7987 17.0065 27.8213 17.1268 27.82C17.2471 27.8187 17.3659 27.7936 17.4764 27.746C17.5869 27.6985 17.6869 27.6295 17.7705 27.543C17.8542 27.4565 17.9198 27.3543 17.9637 27.2423C18.0075 27.1303 18.0287 27.0107 18.026 26.8904C18.0233 26.7702 17.9968 26.6516 17.9479 26.5417C17.8991 26.4318 17.8289 26.3326 17.7415 26.25L17.2017 25.7244L21.7756 22.9119L29.5028 28.6222L3.4375 28.5085L10.0426 21.2926ZM1.81818 30.3125L31.8182 30.4545V34.0909C31.8182 36.373 30.0094 38.1818 27.7273 38.1818H5.90909C3.627 38.1818 1.81818 36.373 1.81818 34.0909V30.3125Z" fill="#998448"/>
</g>
</svg>
