<svg width="512" height="40" viewBox="0 0 512 40" fill="none" xmlns="http://www.w3.org/2000/svg">
<path d="M194.002 27.8006H183.911C181.501 27.8006 179.549 25.8468 179.549 23.4384V15.7028C179.549 14.3733 180.144 13.1831 181.081 12.384H181.082C181.843 11.7344 182.831 11.3418 183.911 11.3418H194.002L194.002 27.8006Z" fill="#B9B9B9"/>
<path d="M217.525 36.3986H197.369C194.256 36.3986 191.732 33.8749 191.732 30.7612V8.38015C191.732 5.26768 194.256 2.74402 197.369 2.74402H217.525V36.3986Z" fill="#B6B6B6"/>
<path d="M221.963 0.739958V38.402C221.963 38.8107 221.632 39.142 221.223 39.142H218.265C217.857 39.142 217.525 38.8107 217.525 38.402V0.739958C217.525 0.331274 217.857 0 218.265 0H221.223C221.632 0 221.963 0.331274 221.963 0.739958Z" fill="#B9B9B9"/>
<path d="M221.963 14.5204V8.78467H235.68C237.264 8.78467 238.548 10.0687 238.548 11.6525C238.548 13.2364 237.264 14.5204 235.68 14.5204H221.963Z" fill="#9B9B9B"/>
<path d="M221.963 30.3572V24.6215H235.68C237.264 24.6215 238.548 25.9055 238.548 27.4894C238.548 29.0732 237.264 30.3572 235.68 30.3572H221.963Z" fill="#9B9B9B"/>
<path d="M217.525 36.3986H197.369C194.256 36.3986 191.732 33.8749 191.732 30.7612V8.38015C191.732 5.26768 194.256 2.74402 197.369 2.74402C199.048 26.9105 217.525 29.1303 217.525 29.1303V36.3986Z" fill="#9B9B9B"/>
<path d="M217.523 36.3986V2.74402L215.898 2.74402V36.3986H217.523Z" fill="#9B9B9B"/>
<path d="M209.005 36.3986H197.369C194.256 36.3986 191.732 33.8749 191.732 30.7612V15.0496C191.732 30.9157 209.005 36.3986 209.005 36.3986Z" fill="#B8B8B8"/>
<path d="M191.732 27.8001V11.3419H190.679V27.8001H191.732Z" fill="#9B9B9B"/>
<path d="M223.969 14.5205V8.78479H221.961V14.5205H223.969Z" fill="#777373"/>
<path d="M223.969 30.3573V24.6216H221.961V30.3573H223.969Z" fill="#777373"/>
<path d="M191.731 27.8007H183.911C181.501 27.8007 179.549 25.8469 179.549 23.4384V15.7029C179.549 14.3734 180.144 13.1831 181.081 12.384H181.082C179.603 24.4413 191.731 26.2824 191.731 26.2824V27.8007Z" fill="#B8B8B8"/>
<path d="M313.574 27.8006H323.665C326.075 27.8006 328.027 25.8468 328.027 23.4384V15.7028C328.027 14.3733 327.432 13.1831 326.495 12.384H326.494C325.733 11.7344 324.745 11.3418 323.665 11.3418H313.574V27.8006Z" fill="#B9B9B9"/>
<path d="M290.053 36.3986H310.209C313.321 36.3986 315.845 33.8749 315.845 30.7612V8.38015C315.845 5.26768 313.321 2.74402 310.209 2.74402H290.053V36.3986Z" fill="#B6B6B6"/>
<path d="M285.615 0.739958V38.402C285.615 38.8107 285.947 39.142 286.355 39.142H289.313C289.722 39.142 290.053 38.8107 290.053 38.402V0.739958C290.053 0.331274 289.722 0 289.313 0H286.355C285.947 0 285.615 0.331274 285.615 0.739958Z" fill="#B9B9B9"/>
<path d="M290.053 36.3986H310.209C313.321 36.3986 315.845 33.8749 315.845 30.7612V8.38015C315.845 5.26768 313.321 2.74402 310.209 2.74402C308.53 26.9105 290.053 29.1303 290.053 29.1303V36.3986Z" fill="#9B9B9B"/>
<path d="M291.678 36.3986V2.74402L290.052 2.74402V36.3986H291.678Z" fill="#9B9B9B"/>
<path d="M298.572 36.3986H310.209C313.322 36.3986 315.845 33.8749 315.845 30.7612V15.0496C315.845 30.9157 298.572 36.3986 298.572 36.3986Z" fill="#B8B8B8"/>
<path d="M316.898 27.8001V11.3419H315.845V27.8001H316.898Z" fill="#9B9B9B"/>
<path d="M315.846 27.8007H323.666C326.076 27.8007 328.028 25.8469 328.028 23.4384V15.7029C328.028 14.3734 327.433 13.1831 326.496 12.384H326.495C327.974 24.4413 315.846 26.2824 315.846 26.2824L315.846 27.8007Z" fill="#B8B8B8"/>
<path d="M180 17H0V22H180V17Z" fill="#E4E4E4"/>
<path d="M512 18H328V23H512V18Z" fill="#E4E4E4"/>
</svg>
