<svg width="43" height="43" viewBox="0 0 43 43" fill="none" xmlns="http://www.w3.org/2000/svg">
<path fill-rule="evenodd" clip-rule="evenodd" d="M19.9497 25.2314C18.5757 25.2698 17.2899 25.6014 16.1302 26.3656C14.9478 27.1445 14.3913 28.5322 14.7216 29.8799C14.776 30.1026 14.8812 30.2625 15.0847 30.3767C16.4328 31.1342 17.0932 32.3037 17.1407 33.8365C17.1447 33.9622 17.1608 34.0876 17.1722 34.2129C17.1822 34.3235 17.1933 34.4338 17.2106 34.6135C16.9024 34.2873 16.642 34.0026 16.3297 33.7735C15.9027 33.4602 15.4455 33.4368 15.0751 33.7208C14.7163 33.9961 14.6147 34.43 14.804 34.9155C15.2802 36.1381 16.1011 37.1237 16.9913 38.0568C17.7926 38.8969 18.6669 39.6577 19.5764 40.3787C19.6532 40.4397 19.7522 40.4812 19.784 40.5879C19.4815 40.5879 19.179 40.5879 18.8764 40.5879C18.5915 40.4072 18.2546 40.4397 17.9438 40.3691C13.8837 39.4474 11.0813 35.7084 11.2957 31.551C11.5037 27.5185 14.6206 24.1306 18.5269 23.5589C18.7383 23.528 18.9504 23.5033 19.1621 23.4756C19.289 23.5327 19.3339 23.6546 19.3747 23.7692C19.5168 24.1692 19.6836 24.5563 19.9078 24.918C19.9658 25.0117 20.0213 25.1157 19.9497 25.2314Z" fill="#E76B2D"/>
<path fill-rule="evenodd" clip-rule="evenodd" d="M22.9607 40.5879C23.5476 40.077 24.1422 39.5749 24.7196 39.0536C25.8366 38.0451 26.871 36.9633 27.6051 35.632C27.7441 35.3798 27.8609 35.1127 27.9617 34.8427C28.1275 34.3987 28.0096 33.9817 27.6696 33.7208C27.3337 33.4632 26.8852 33.4514 26.5081 33.7088C26.1643 33.9436 25.8659 34.2318 25.5963 34.5705C25.5435 32.9111 25.8513 31.5015 27.471 30.5013C27.8784 30.2496 28.0571 29.9434 28.0947 29.5098C28.2121 28.1596 27.7112 27.1004 26.5808 26.348C25.4351 25.5854 24.155 25.2714 22.795 25.2314C22.7808 25.2102 22.7593 25.1824 22.7674 25.1648C23.0298 24.5973 23.2218 23.9955 23.5827 23.4757C27.4904 23.7842 30.7603 26.8032 31.3536 30.6503C32.0946 35.4559 28.8416 39.8293 24.0228 40.5072C23.9428 40.5184 23.8402 40.4787 23.7928 40.5879C23.5153 40.5879 23.2381 40.5879 22.9607 40.5879Z" fill="#E76B2D"/>
<path fill-rule="evenodd" clip-rule="evenodd" d="M20.007 15.4039C18.7194 13.3091 17.7065 11.1029 17.3276 8.65044C17.0989 7.1698 17.1585 5.7132 17.8576 4.34341C18.4845 3.11496 19.4878 2.36072 20.8171 2.02528C20.9809 1.98391 21.1654 2.00256 21.2969 1.86429C21.3725 1.86429 21.4481 1.86429 21.5238 1.86429C21.5742 1.91187 21.6245 1.91187 21.675 1.86429C21.9272 1.86429 22.1793 1.86429 22.4314 1.86429C22.6077 1.92655 22.7843 1.92655 22.9607 1.86429C23.0111 1.86429 23.0616 1.86429 23.112 1.86429C23.3412 2.00236 23.6083 1.99186 23.8575 2.04943C25.1557 2.34901 26.1207 3.11088 26.8442 4.20117C27.2543 4.81947 27.6599 5.43767 28.1203 6.02316C28.6828 6.73837 28.663 7.7722 28.041 8.42179C27.375 9.11723 27.0624 9.86759 27.3345 10.8251C26.4641 9.60745 26.0757 8.2718 26.3778 6.80236C26.5991 5.72593 26.2066 4.9338 25.4027 4.28686C24.1205 3.25517 22.0196 3.15419 20.6505 4.06412C19.4524 4.86043 19.0448 6.00686 19.2189 7.401C19.4199 9.01003 20.0259 10.4824 20.7304 11.9221C21.2505 12.9848 21.8522 14.0025 22.4517 15.0212C22.2818 15.0951 22.1706 14.9609 22.0449 14.898C21.3838 14.5669 20.8915 14.6433 20.3499 15.1591C20.2496 15.2548 20.1954 15.4278 20.007 15.4039Z" fill="#ECA407"/>
<path fill-rule="evenodd" clip-rule="evenodd" d="M22.96 1.8644C22.7836 1.99543 22.607 1.97271 22.4307 1.8644C22.607 1.8644 22.7835 1.8644 22.96 1.8644Z" fill="#F1BE4C"/>
<path fill-rule="evenodd" clip-rule="evenodd" d="M21.6747 1.8644C21.6242 1.94703 21.5739 1.95855 21.5234 1.8644C21.5739 1.8644 21.6242 1.8644 21.6747 1.8644Z" fill="#F5D182"/>
<path fill-rule="evenodd" clip-rule="evenodd" d="M20.0068 15.4039C20.1923 15.2062 20.3619 15 20.5924 14.8399C21.2739 14.3664 21.8636 14.6421 22.4517 15.0213C22.8746 15.4923 23.1253 16.066 23.4062 16.6217C23.6453 16.991 23.8214 17.3776 23.7374 17.8351C23.7817 18.0333 23.826 18.2316 23.8702 18.4298C24.0913 18.8289 24.0848 19.2524 24.0055 19.6838C24.0111 19.7908 24.0167 19.8979 24.0223 20.0048C24.2238 20.4977 24.1569 20.9787 23.9577 21.4536C23.887 22.1377 23.7561 22.8106 23.5824 23.4757C23.3937 24.0941 23.0929 24.6621 22.7949 25.2314C22.5977 25.4107 22.3974 25.5864 22.2467 25.8097C21.9301 26.2717 20.8327 26.2846 20.4966 25.8091C20.3465 25.5859 20.1463 25.4102 19.9496 25.2314C19.6512 24.6622 19.3507 24.094 19.1621 23.4756C18.9876 22.8105 18.8589 22.1368 18.7881 21.4525C18.6151 20.9769 18.5113 20.498 18.7223 20.0048C18.7282 19.8976 18.734 19.7904 18.7401 19.6833C18.6595 19.2521 18.653 18.8288 18.8745 18.4301C18.9188 18.2319 18.9629 18.0335 19.0071 17.8352C18.9232 17.3777 19.0991 16.9911 19.3383 16.6218C19.5613 16.2158 19.7841 15.8098 20.0068 15.4039Z" fill="#FEB500"/>
<path fill-rule="evenodd" clip-rule="evenodd" d="M24.0054 19.6838C23.9603 19.2658 23.9152 18.8478 23.8701 18.4298C24.4352 18.472 25.0019 18.499 25.5651 18.5591C27.1098 18.7242 28.2283 18.0512 28.7993 16.5976C28.9411 16.2368 29.0884 15.8782 29.2476 15.4828C29.9525 18.3321 27.8499 20.0803 25.6592 19.8485C25.1083 19.7904 24.5567 19.7385 24.0054 19.6838Z" fill="#E76B2D"/>
<path fill-rule="evenodd" clip-rule="evenodd" d="M23.958 21.4536C23.9796 20.9707 24.0011 20.4878 24.0226 20.0049C24.5974 20.366 25.1754 20.7219 25.7459 21.0895C26.959 21.8708 28.2276 21.7931 29.3336 20.8696C29.6281 20.6236 29.8932 20.3361 30.2585 20.148C30.1592 21.2544 28.9602 22.4916 27.789 22.7365C26.8253 22.938 25.9434 22.7453 25.1263 22.2116C24.7376 21.9578 24.3475 21.7062 23.958 21.4536Z" fill="#E76B2D"/>
<path fill-rule="evenodd" clip-rule="evenodd" d="M23.7375 17.8351C23.6271 17.4307 23.5167 17.0263 23.4062 16.6217C23.892 16.493 24.3835 16.3827 24.8623 16.2322C26.0124 15.8707 26.7594 14.8864 26.8264 13.6826C26.852 13.2222 26.8842 12.7621 26.9153 12.272C28.3294 14.523 27.3323 16.7303 25.3068 17.4344C24.7986 17.6109 24.2614 17.7038 23.7375 17.8351Z" fill="#E76B2D"/>
<path fill-rule="evenodd" clip-rule="evenodd" d="M18.875 18.43C18.8301 18.8478 18.7853 19.2655 18.7406 19.6832C18.0886 19.7428 17.4376 19.8367 16.7844 19.8559C14.7881 19.9148 13.3298 18.4538 13.3689 16.4594C13.3749 16.1475 13.4071 15.8362 13.4322 15.4497C13.6682 15.802 13.7664 16.1359 13.888 16.4577C14.5025 18.0834 15.6023 18.7421 17.3297 18.5376C17.8419 18.4771 18.3599 18.4645 18.875 18.43Z" fill="#E76B2D"/>
<path fill-rule="evenodd" clip-rule="evenodd" d="M18.7221 20.0048C18.744 20.4874 18.766 20.97 18.7879 21.4525C18.3874 21.7122 17.9881 21.9736 17.5863 22.2313C16.1073 23.1796 14.308 22.9562 13.2437 21.6895C12.8697 21.2445 12.6736 20.6978 12.3926 20.1773C12.6454 20.1445 12.7685 20.33 12.9169 20.4486C13.2998 20.7547 13.6441 21.1119 14.0964 21.3244C15.0928 21.7926 16.0456 21.7054 16.9655 21.1118C17.547 20.7362 18.1362 20.3732 18.7221 20.0048Z" fill="#E76B2D"/>
<path fill-rule="evenodd" clip-rule="evenodd" d="M19.3387 16.6218C19.2285 17.0263 19.118 17.4308 19.0077 17.8352C18.5317 17.7185 18.05 17.622 17.581 17.4819C15.6643 16.9092 14.7336 15.0767 15.396 13.1971C15.5037 12.8916 15.6286 12.592 15.8254 12.2946C15.8533 12.6943 15.8859 13.0937 15.9085 13.4938C15.9967 15.0404 16.7479 15.9544 18.2452 16.334C18.6105 16.4265 18.9744 16.5257 19.3387 16.6218Z" fill="#E76B2D"/>
<path fill-rule="evenodd" clip-rule="evenodd" d="M20.4964 25.8091C21.0798 26.1399 21.6632 26.1392 22.2468 25.8099C23.3233 26.4437 23.521 27.9992 22.5559 28.6396C22.723 28.0323 22.7759 27.4679 22.3035 27.0017C22.0406 26.742 21.7221 26.5993 21.3541 26.6107C20.8512 26.6263 20.4712 26.8638 20.2164 27.3017C19.9692 27.7265 20.0779 28.1687 20.198 28.6391C19.4069 28.2046 19.2361 26.4904 20.4964 25.8091Z" fill="#89440C"/>
</svg>
