<svg width="37" height="35" viewBox="0 0 37 35" fill="none" xmlns="http://www.w3.org/2000/svg">
<path d="M27.2505 22.34C27.2541 22.1667 27.2577 21.9935 27.2613 21.8203C27.261 21.6045 27.2607 21.3887 27.2605 21.173C27.2603 20.961 27.2569 20.7489 27.2615 20.5371C27.2633 20.4581 27.2784 20.37 27.3856 20.4695C28.1635 21.4852 29.2221 21.913 30.4677 21.9492C30.7284 21.9493 30.9894 21.9494 31.2503 21.9494C31.3357 21.9461 31.421 21.9429 31.5065 21.9397C31.5064 21.9397 31.5064 21.9397 31.5064 21.9397C31.6232 21.8336 31.7645 21.9001 31.8942 21.884C32.3008 21.816 32.7076 21.748 33.1143 21.6799C33.1143 21.6799 33.1143 21.6799 33.1144 21.6799C33.2186 21.5967 33.3224 21.596 33.4258 21.6815C34.2174 21.786 34.8548 22.1656 35.3645 22.7731C35.3606 22.4751 35.1981 22.2414 35.0265 22.0263C34.1366 20.9096 32.9583 20.3016 31.5656 20.072C31.0533 19.9875 30.5355 20.1314 30.0306 20.0344C28.5437 19.7488 27.6523 18.8231 27.2632 17.3788C27.0013 16.3937 26.4278 15.6211 25.6083 15.0422C24.3398 14.146 22.9638 13.9798 21.5065 14.518C21.3365 14.5808 21.1729 14.6616 21.006 14.7335C20.4744 14.9624 19.9835 14.7896 19.706 14.2774C19.635 14.1462 19.5604 14.0169 19.4874 13.8868C19.4629 14.9997 19.4691 16.1144 19.4057 17.225C19.3274 18.598 19.2952 19.9752 19.105 21.3406C19.0564 21.6887 19.0516 22.0428 19.0265 22.3941C19.0265 22.3942 19.0265 22.3942 19.0266 22.3942C19.0221 22.4657 19.0175 22.5374 19.0125 22.6191C18.8592 22.5493 18.914 22.43 18.9048 22.3315C18.8223 21.4507 18.7394 20.57 18.6574 19.6892C18.6238 19.3276 18.6245 18.9645 18.5941 18.6017C18.5342 17.8886 18.5443 17.1698 18.5127 16.4538C18.475 15.5984 18.437 14.7432 18.4439 13.8866C18.376 14.0073 18.3051 14.1264 18.2407 14.2488C17.9473 14.8067 17.4359 14.9829 16.8678 14.7042C16.2042 14.3788 15.5074 14.1931 14.769 14.2144C13.7562 14.2437 12.8562 14.5824 12.0628 15.2267C11.4328 15.7382 11.0313 16.3836 10.8171 17.1574C10.7923 17.2467 10.8075 17.3595 10.6744 17.3766C10.6743 17.3766 10.6743 17.3767 10.6743 17.3767C10.7605 17.4669 10.6978 17.5562 10.671 17.6445C10.2477 19.0452 8.64292 20.2892 7.09609 20.0402C7.00206 20.0251 6.90295 20.0231 6.80805 20.0329C4.93968 20.2274 3.40501 20.9606 2.50879 22.7202C2.50879 22.7417 2.50879 22.7631 2.50879 22.7846C2.76691 22.6365 2.93206 22.3841 3.16622 22.2032C3.56858 21.8924 4.02194 21.7587 4.50565 21.6813C4.50574 21.6813 4.50583 21.6813 4.50583 21.6812C4.60939 21.5959 4.71304 21.5967 4.81731 21.6797C5.22501 21.7419 5.61819 21.8909 6.03743 21.8838C6.03761 21.8839 6.03778 21.884 6.03796 21.8841C6.03778 21.8839 6.03761 21.8839 6.03743 21.8838C6.16689 21.8999 6.30833 21.8334 6.42502 21.9395C6.51056 21.9427 6.59593 21.946 6.68139 21.9492C6.94223 21.9491 7.20315 21.9491 7.46399 21.949C8.51853 21.9322 9.43759 21.5603 10.2287 20.8704C10.355 20.7603 10.4411 20.6039 10.5457 20.4689C10.6527 20.3696 10.668 20.4572 10.6701 20.5366C10.6751 20.7272 10.6715 20.918 10.6714 21.1086C10.6709 21.346 10.6705 21.5834 10.67 21.8209C10.6735 22.0151 10.6771 22.2092 10.6807 22.4035C10.6807 22.4036 10.6807 22.4037 10.6807 22.4038C10.794 22.7464 10.7247 23.0974 10.7286 23.445C10.6963 24.3224 11.0233 25.0526 11.6386 25.6617C12.0341 26.0532 12.4207 26.4551 12.8363 26.8242C13.5518 27.4595 14.1036 28.1802 14.1982 29.1727C14.1982 29.1727 14.1983 29.1727 14.1983 29.1726C14.2024 29.0632 14.2065 28.9538 14.2108 28.8445C14.2108 28.8445 14.2108 28.8444 14.2109 28.8443C14.2108 28.8444 14.2108 28.8445 14.2107 28.8445C14.2206 28.7348 14.1682 28.6137 14.2695 28.5208C14.3017 27.7981 14.5943 27.154 14.9013 26.5221C15.0917 26.13 15.332 25.7592 15.5792 25.3988C15.8354 25.0255 16.1878 24.7738 16.6529 24.716C16.653 24.716 16.6531 24.716 16.6533 24.7159C16.867 24.6183 17.0806 24.6188 17.2943 24.716C17.7482 24.8874 18.205 25.0517 18.655 25.2331C18.8821 25.3246 19.0839 25.2795 19.2982 25.1974C19.7413 25.0276 20.172 24.8222 20.6378 24.7161C20.8516 24.6191 21.0655 24.6182 21.2792 24.7161C22.0698 24.8744 22.4151 25.5154 22.7808 26.125C23.1947 26.8148 23.4594 27.567 23.6319 28.3507C23.6912 28.6195 23.6426 28.9045 23.7323 29.1714C23.8287 28.3254 24.2176 27.6393 24.8403 27.0674C25.3288 26.6189 25.7966 26.1476 26.2712 25.6839C26.8989 25.0708 27.2367 24.3348 27.2033 23.4443C27.2033 23.4442 27.2034 23.444 27.2034 23.4439C27.2033 23.444 27.2033 23.4441 27.2032 23.4442C27.2067 23.0756 27.1355 22.7038 27.2505 22.34ZM14.1487 22.0956C13.3548 22.2251 12.6338 21.9015 12.245 21.213C12.0382 20.8464 12.0247 20.4336 11.9749 20.031C11.951 19.8376 12.1026 19.8725 12.2156 19.8769C13.0821 19.9099 13.9011 20.144 14.6907 20.4868C15.2003 20.708 15.6877 20.9722 16.1562 21.3343C15.5331 21.768 14.8619 21.9792 14.1487 22.0956ZM25.9476 20.1282C25.8984 20.3907 25.8999 20.6628 25.8104 20.918C25.5577 21.6384 25.0414 22.0809 24.2943 22.1187C23.3877 22.1644 22.5609 21.8436 21.7653 21.3368C22.5127 20.7865 23.2978 20.4046 24.1429 20.1542C24.6542 20.0026 25.176 19.8852 25.7161 19.872C25.9187 19.867 25.9866 19.9205 25.9476 20.1282Z" fill="#E76B2D"/>
<path d="M10.6807 22.4035C10.6807 22.4036 10.6807 22.4038 10.6807 22.4039C10.6807 22.4038 10.6807 22.4037 10.6807 22.4035C10.6771 22.2093 10.6735 22.0152 10.67 21.821C10.5574 21.5898 10.6253 21.3452 10.6168 21.1063C10.5726 20.8961 10.6771 20.6695 10.5457 20.4691C10.4411 20.6041 10.355 20.7604 10.2287 20.8706C9.4375 21.5604 8.51845 21.9324 7.46399 21.9492C7.20315 22.0437 6.94232 22.048 6.68148 21.9494C6.59602 21.9461 6.51056 21.9429 6.42502 21.9396C6.29399 21.9354 6.15395 21.9937 6.03796 21.8843C6.03778 21.8842 6.03761 21.8841 6.03744 21.884C5.61819 21.891 5.22501 21.7421 4.81731 21.6799C4.71339 21.6805 4.60957 21.681 4.50565 21.6816C4.50574 21.6815 4.50583 21.6815 4.50583 21.6814C4.50583 21.6815 4.50574 21.6816 4.50565 21.6816C4.02203 21.7589 3.56858 21.8926 3.16622 22.2034C2.93206 22.3843 2.767 22.6366 2.50879 22.7848C2.50879 22.8278 2.50879 22.8707 2.50879 22.9138C2.63457 22.8948 2.73639 22.9653 2.84328 23.0091C3.65142 23.3397 4.33797 23.881 5.08567 24.3165C6.30982 25.0296 7.55715 25.136 8.84541 24.481C9.51325 24.1413 10.0695 23.6595 10.616 23.1603C10.732 22.9161 10.642 22.6543 10.6807 22.4035Z" fill="#88440B"/>
<path d="M35.365 22.7733C34.8552 22.1655 34.2177 21.786 33.4262 21.6815C33.3223 21.6811 33.2185 21.6805 33.1146 21.68L33.1147 21.6799H33.1146C32.708 21.748 32.3012 21.816 31.8946 21.884C31.7783 21.9939 31.6381 21.9355 31.5069 21.9398C31.4214 21.9429 31.3361 21.9462 31.2506 21.9494C30.9898 22.048 30.7289 22.0438 30.4681 21.9492C29.2225 21.913 28.1638 21.4852 27.3859 20.4696C27.247 20.6915 27.3642 20.9397 27.3146 21.1708C27.308 21.3883 27.3712 21.6112 27.2617 21.8202C27.2581 21.9934 27.2546 22.1667 27.251 22.3399C27.2903 22.6122 27.1988 22.8951 27.3164 23.1611C27.7701 23.5701 28.2226 23.9787 28.7496 24.2963C29.9803 25.0381 31.2403 25.1351 32.5356 24.4825C33.0811 24.2076 33.5749 23.8454 34.0967 23.5304C34.5156 23.2775 34.9297 23.0081 35.4232 22.9136C35.4232 22.8706 35.4232 22.8277 35.4232 22.7847C35.405 22.7746 35.3856 22.7707 35.365 22.7733Z" fill="#88440B"/>
<path d="M10.8177 17.1575C11.0319 16.3838 11.4334 15.7384 12.0635 15.2268C12.8568 14.5825 13.7568 14.2439 14.7696 14.2146C15.508 14.1932 16.2048 14.379 16.8684 14.7044C17.4365 14.983 17.948 14.8068 18.2413 14.249C18.3057 14.1266 18.3766 14.0075 18.4445 13.8868C18.7916 13.4681 19.1413 13.4681 19.488 13.887H19.4881C19.5611 14.0171 19.6358 14.1464 19.7067 14.2775C19.9842 14.7898 20.4751 14.9627 21.0067 14.7337C21.1735 14.6618 21.3371 14.5811 21.5072 14.5182C22.9644 13.98 24.3405 14.1461 25.609 15.0424C26.4285 15.6213 27.002 16.3938 27.2639 17.379C28.0787 16.8961 28.8182 16.3118 29.5068 15.6652C32.2238 13.114 33.8501 9.98877 34.371 6.29193C34.5001 5.3764 34.5489 4.45351 34.4959 3.52833C34.4729 3.13052 34.3312 2.93202 34.0367 2.88421C33.7201 2.83281 33.5418 3.01886 33.4088 3.2771C33.3009 3.48675 33.1861 3.69289 33.0689 3.89754C31.4707 6.68772 29.2601 8.85228 26.4216 10.348C23.1505 12.0717 19.6757 12.6182 16.0292 12.0203C12.8278 11.4953 10.0375 10.1089 7.63518 7.93C6.39485 6.80491 5.36322 5.50868 4.51301 4.06596C4.35556 3.79886 4.16689 3.59281 3.81849 3.68623C3.52599 3.76465 3.41219 3.97254 3.42033 4.40289C3.43493 5.17675 3.49301 5.94816 3.62046 6.71105C4.11099 9.65 5.32552 12.2511 7.28617 14.4924C8.27231 15.6196 9.38266 16.6076 10.6748 17.3769H10.675C10.8082 17.3596 10.7929 17.2469 10.8177 17.1575Z" fill="#B16B26"/>
<path d="M22.7807 26.1249C22.4151 25.5154 22.0698 24.8743 21.2791 24.7161C21.0654 24.7161 20.8516 24.7161 20.6378 24.7161C20.1719 24.8221 19.7412 25.0276 19.2982 25.1974C19.084 25.2795 18.8821 25.3246 18.655 25.2331C18.205 25.0517 17.7482 24.8874 17.2942 24.716C17.0804 24.716 16.8666 24.716 16.6529 24.716C16.6529 24.716 16.6531 24.7159 16.6532 24.7158C16.6531 24.7159 16.6529 24.7159 16.6529 24.7159C16.1877 24.7737 15.8352 25.0254 15.5792 25.3988C15.332 25.759 15.0916 26.1299 14.9013 26.522C14.5943 27.1539 14.3018 27.7981 14.2695 28.5207C14.2622 28.6309 14.3088 28.7507 14.2109 28.8442L14.2107 28.8445C14.2064 28.9538 14.2023 29.0632 14.1982 29.1725V29.1728C14.1978 29.8559 14.1968 30.5389 14.1975 31.2219C14.1977 31.4769 14.2827 31.6234 14.5674 31.4989C15.5205 31.1293 16.4742 30.7621 17.426 30.3896C17.9033 30.2027 18.3876 30.0261 18.9016 30.0125C19.4623 29.9975 19.9876 30.1871 20.505 30.3894C21.4569 30.7616 22.4106 31.1291 23.3636 31.4987C23.6497 31.6241 23.7321 31.4744 23.7326 31.2209C23.7335 30.5377 23.7326 29.8544 23.7323 29.1712C23.6427 28.9044 23.6911 28.6193 23.632 28.3505C23.4594 27.567 23.1947 26.8147 22.7807 26.1249ZM16.2732 29.1014C15.7392 28.7813 15.7114 28.2119 15.6702 27.5634C16.3812 28.1213 17.0012 28.6428 17.7939 29.0311C17.2489 29.2503 16.75 29.3872 16.2732 29.1014ZM21.732 29.0522C21.2497 29.4079 20.7228 29.2449 20.135 29.0461C20.9188 28.6313 21.5566 28.1296 22.244 27.5704C22.2456 28.183 22.1928 28.7123 21.732 29.0522Z" fill="#FEB500"/>
<path d="M18.9015 30.0127C18.3876 30.0264 17.9032 30.203 17.426 30.3898C16.4742 30.7624 15.5205 31.1297 14.5674 31.4991C14.6778 31.7385 14.8859 31.8683 15.1093 31.9769C15.5655 32.1984 16.019 32.1287 16.479 31.974C17.5681 31.6075 18.682 31.4801 19.8296 31.607C20.537 31.6854 21.2018 31.9205 21.8858 32.0857C22.4619 32.2248 23.0504 31.9797 23.3636 31.4989C22.4105 31.1293 21.4569 30.7619 20.505 30.3896C19.9876 30.1874 19.4622 29.9978 18.9015 30.0127Z" fill="#ECA407"/>
<path d="M27.2505 22.34C27.1355 22.7038 27.2067 23.0756 27.203 23.4441L27.2032 23.4439C27.2757 23.3636 27.1904 23.2201 27.316 23.1613L27.3159 23.1611C27.1983 22.8952 27.2898 22.6123 27.2505 22.34Z" fill="#E38554"/>
<path d="M10.6808 22.4039V22.4035C10.642 22.6542 10.732 22.9161 10.6162 23.1603C10.7402 23.2209 10.6559 23.364 10.7285 23.445L10.7286 23.4451C10.7248 23.0975 10.794 22.7466 10.6808 22.4039Z" fill="#E38351"/>
<path d="M18.4442 13.8867C18.4373 14.7433 18.4753 15.5985 18.513 16.454C18.5445 17.1699 18.5344 17.8887 18.5944 18.6019C18.6248 18.9647 18.6241 19.3277 18.6577 19.6893C18.7397 20.5701 18.8226 21.4508 18.9051 22.3316C18.9457 22.3525 18.9863 22.3734 19.0269 22.3942C19.0519 22.0429 19.0569 21.6888 19.1054 21.3407C19.2957 19.9753 19.3279 18.598 19.4061 17.2251C19.4695 16.1145 19.4631 14.9998 19.4877 13.8869C19.141 13.468 18.7913 13.4679 18.4442 13.8867Z" fill="#ECA407"/>
<path d="M25.7164 19.8719C25.1762 19.885 24.6544 20.0025 24.1432 20.1541C23.2981 20.4045 22.513 20.7864 21.7656 21.3367C22.5612 21.8435 23.388 22.1644 24.2946 22.1186C25.0417 22.0808 25.558 21.6383 25.8107 20.9179C25.9002 20.6627 25.8987 20.3906 25.9479 20.1281C25.9869 19.9205 25.919 19.867 25.7164 19.8719Z" fill="#4D4D4D"/>
<path d="M12.2158 19.877C12.1029 19.8726 11.9512 19.8377 11.9752 20.0311C12.025 20.4337 12.0384 20.8465 12.2453 21.2131C12.6339 21.9016 13.355 22.2251 14.1489 22.0957C14.8621 21.9793 15.5334 21.7681 16.1564 21.3345C15.688 20.9724 15.2006 20.7081 14.691 20.487C13.9014 20.1441 13.0824 19.91 12.2158 19.877Z" fill="#4D4D4D"/>
<path d="M27.2622 20.5371C27.2576 20.7489 27.261 20.961 27.2611 21.173C27.279 21.1728 27.2969 21.1721 27.3148 21.1709C27.3644 20.9397 27.2472 20.6916 27.3861 20.4696C27.2791 20.37 27.2639 20.4581 27.2622 20.5371Z" fill="#DC8657"/>
<path d="M10.6169 21.1063C10.6351 21.1078 10.6534 21.1086 10.6716 21.1087C10.6717 20.9181 10.6753 20.7273 10.6703 20.5367C10.6683 20.4574 10.6529 20.3698 10.5459 20.469C10.6773 20.6695 10.5728 20.8962 10.6169 21.1063Z" fill="#DE8657"/>
<path d="M7.46424 21.9493C7.2034 21.9494 6.94248 21.9494 6.68164 21.9495C6.94248 22.0481 7.2034 22.0438 7.46424 21.9493Z" fill="#D08255"/>
<path d="M31.2504 21.9495C30.9895 21.9495 30.7285 21.9494 30.4678 21.9493C30.7287 22.0438 30.9895 22.0481 31.2504 21.9495Z" fill="#D08255"/>
<path d="M10.6703 21.8211C10.6708 21.5836 10.6713 21.3462 10.6718 21.1088C10.6536 21.1087 10.6352 21.1078 10.617 21.1064C10.6257 21.3453 10.5577 21.5899 10.6703 21.8211Z" fill="#C57B4D"/>
<path d="M27.2615 21.8203C27.3711 21.6112 27.3078 21.3882 27.3144 21.1709C27.2965 21.1722 27.2786 21.1728 27.2607 21.173C27.261 21.3887 27.2613 21.6045 27.2615 21.8203Z" fill="#C57C4E"/>
<path d="M17.2947 24.7162C17.081 24.619 16.8674 24.6184 16.6537 24.716C16.6535 24.7161 16.6533 24.7162 16.6533 24.7162C16.867 24.7162 17.0807 24.7162 17.2947 24.7162Z" fill="#F8B147"/>
<path d="M20.6377 24.7161C20.8515 24.7161 21.0653 24.7161 21.279 24.7161C21.0653 24.6182 20.8516 24.619 20.6377 24.7161Z" fill="#F8B147"/>
<path d="M19.0123 22.6192C19.0175 22.5374 19.0219 22.4658 19.0265 22.3943L19.0264 22.3942C18.9858 22.3734 18.9452 22.3525 18.9045 22.3316C18.9139 22.4301 18.8591 22.5494 19.0123 22.6192Z" fill="#EA8919"/>
<path d="M6.42469 21.9396C6.30801 21.8336 6.16665 21.9 6.03711 21.8839C6.03728 21.884 6.03746 21.8841 6.03763 21.8843C6.15362 21.9938 6.29366 21.9354 6.42469 21.9396Z" fill="#DC7E4C"/>
<path d="M31.5068 21.9397C31.6381 21.9354 31.7783 21.9939 31.8947 21.884C31.765 21.9001 31.6237 21.8336 31.5068 21.9397Z" fill="#DC7E4C"/>
<path d="M4.81752 21.6799C4.71334 21.5968 4.6096 21.596 4.50603 21.6814L4.50586 21.6816C4.60977 21.681 4.71369 21.6805 4.81752 21.6799Z" fill="#E87B45"/>
<path d="M33.1144 21.6799L33.1143 21.68C33.2182 21.6805 33.322 21.681 33.4259 21.6815C33.3225 21.596 33.2187 21.5967 33.1144 21.6799Z" fill="#E87B45"/>
<path d="M14.2698 28.5209C14.1684 28.6139 14.2209 28.7349 14.2109 28.8446C14.2109 28.8446 14.211 28.8445 14.2112 28.8444C14.3091 28.7509 14.2625 28.631 14.2698 28.5209Z" fill="#F6AD49"/>
<path d="M16.2729 29.1014C16.7497 29.3872 17.2486 29.2503 17.7936 29.0311C17.0009 28.6427 16.381 28.1213 15.6699 27.5634C15.711 28.2119 15.7388 28.7812 16.2729 29.1014Z" fill="#89440B"/>
<path d="M21.7317 29.0522C22.1926 28.7123 22.2453 28.183 22.2438 27.5703C21.5563 28.1295 20.9186 28.6312 20.1348 29.046C20.7226 29.245 21.2496 29.4079 21.7317 29.0522Z" fill="#89440B"/>
</svg>
