<svg width="44" height="41" viewBox="0 0 44 41" fill="none" xmlns="http://www.w3.org/2000/svg">
<path fill-rule="evenodd" clip-rule="evenodd" d="M15.026 1.40826C15.6175 1.60558 16.2446 1.72429 16.7696 2.05918C17.7904 2.71019 18.337 3.55802 18.4029 4.61484C18.5091 6.32178 18.6014 8.02942 18.7 9.73675C18.6728 9.90714 18.5005 9.89876 18.3589 9.9203C16.8444 10.1498 15.3738 10.4938 13.9762 11.0367C13.8269 11.0946 13.6551 11.2087 13.4967 11.0346C13.3703 10.5927 13.3984 10.142 13.4544 9.70184C13.5644 8.83425 13.5037 7.96747 13.5094 7.10088C13.5429 6.17773 13.4439 5.26386 13.2193 4.35877C13.0202 3.55632 12.7262 2.81064 11.6436 2.52733C12.0905 2.03264 12.7047 1.74594 13.398 1.55012C13.5474 1.50792 13.7278 1.52378 13.844 1.40846C14.2381 1.40826 14.6322 1.40826 15.026 1.40826Z" fill="#B16B26"/>
<path fill-rule="evenodd" clip-rule="evenodd" d="M24.082 9.73635C24.1781 8.06652 24.3005 6.3974 24.3631 4.72657C24.4231 3.12029 25.7533 1.77477 27.6156 1.48139C27.6765 1.47171 27.7327 1.46363 27.7557 1.40826C28.1194 1.40826 28.483 1.40826 28.8468 1.40826C29.5556 1.59281 30.2643 1.77876 30.8121 2.22607C30.9277 2.32054 31.0297 2.42648 31.1381 2.52724C31.1199 2.54759 31.1023 2.57482 31.0766 2.58011C30.1637 2.77064 29.8663 3.36569 29.66 4.03057C29.3473 5.03771 29.2482 6.06181 29.2739 7.09769C29.2044 8.22314 29.3091 9.34551 29.3494 10.4688C29.3561 10.655 29.3719 10.8446 29.2908 11.0253C29.1433 11.2131 28.9634 11.1026 28.8166 11.0409C27.4302 10.4571 25.9391 10.1573 24.4239 9.9206C24.282 9.89846 24.109 9.90744 24.082 9.73635Z" fill="#B16B26"/>
<path fill-rule="evenodd" clip-rule="evenodd" d="M21.2998 39.8628C21.3037 39.7126 21.139 39.6625 21.0405 39.5789C20.2587 38.9154 19.4323 38.2851 18.6917 37.5919C17.5847 36.5557 17.4729 35.2873 18.2975 34.0824C18.5042 34.03 18.636 34.1562 18.7876 34.2269C20.5238 35.037 22.2577 35.037 23.9937 34.2269C24.1453 34.1562 24.2772 34.0299 24.4837 34.0824C25.3766 35.3868 25.1458 36.7339 23.8257 37.8496C23.1374 38.4315 22.4318 38.9992 21.7408 39.5789C21.642 39.662 21.4777 39.7126 21.4815 39.8628C21.4209 39.8628 21.3603 39.8628 21.2998 39.8628Z" fill="#88440B"/>
<path fill-rule="evenodd" clip-rule="evenodd" d="M24.4836 34.0824C22.4216 35.2331 20.3594 35.2332 18.2973 34.0824C17.0116 33.1803 16.3724 32.0436 16.3539 30.639C16.3352 29.2095 15.8398 27.8805 14.88 26.6826C13.8448 25.3907 13.3884 23.9718 13.4213 22.4275C13.443 21.4035 13.4078 20.3786 13.398 19.3542C13.2267 19.2128 13.2622 19.0302 13.2614 18.8586C13.2572 17.9467 13.2613 17.0349 13.2587 16.1231C13.2575 15.69 13.2297 15.6755 12.7583 15.8226C9.76829 16.7558 6.91643 16.4651 4.17515 15.167C3.97549 15.0724 3.8284 14.928 3.6357 14.8301C3.58495 14.6171 3.79639 14.7141 3.87861 14.7078C5.63379 14.5733 7.22111 14.0266 8.76378 13.3669C8.85799 13.2243 9.03217 13.1701 9.19436 13.1051C9.98444 12.7893 10.753 12.4404 11.5048 12.0669C12.0295 11.8059 12.5615 11.5548 13.0681 11.2689C13.2274 11.1787 13.3875 11.0825 13.5968 11.088C15.1241 10.4269 16.7555 10.0375 18.4513 9.81386C18.5367 9.80259 18.617 9.76289 18.6995 9.73665C19.098 9.79461 19.4799 9.68029 19.8708 9.65765C21.1741 9.58243 22.4712 9.59769 23.7664 9.74254C23.8693 9.75411 23.9765 9.73895 24.0816 9.73645C24.6371 9.8397 25.1933 9.94066 25.7482 10.0462C26.9465 10.274 28.1027 10.5973 29.1845 11.088C29.4597 11.0884 29.6544 11.2358 29.8625 11.3512C30.3221 11.6058 30.806 11.8272 31.2764 12.067C32.0145 12.4358 32.7703 12.7769 33.5459 13.0889C33.7209 13.1593 33.9137 13.2126 34.0172 13.3671C35.5599 14.0269 37.1471 14.5755 38.9032 14.7026C39.0518 14.7135 39.0521 14.7113 39.1453 14.8305C37.7602 15.6991 36.1828 16.1471 34.4688 16.3146C32.9007 16.4678 31.4001 16.2595 29.9375 15.7969C29.5749 15.6823 29.5258 15.7124 29.5235 16.0485C29.5174 16.9852 29.5238 17.9221 29.5197 18.859C29.5187 19.0307 29.5541 19.2132 29.3831 19.3546C29.3733 20.279 29.3476 21.2035 29.3578 22.1276C29.3709 23.2992 29.2568 24.4474 28.6644 25.5349C28.4461 25.9356 28.1805 26.3134 27.8952 26.6799C26.9545 27.8879 26.4459 29.2099 26.4271 30.6394C26.4089 32.0436 25.7693 33.1803 24.4836 34.0824Z" fill="#FEB500"/>
<path fill-rule="evenodd" clip-rule="evenodd" d="M34.0174 13.3668C33.0329 13.0237 32.1111 12.5831 31.198 12.1289C30.8624 11.6507 30.8572 11.0989 30.7106 10.5807C30.3968 9.46951 29.9906 8.39054 29.3294 7.38369C29.2594 7.27725 29.1661 7.17091 29.2114 7.03544C29.0686 6.82705 29.1028 6.59621 29.129 6.37914C29.2325 5.51964 29.2595 4.64787 29.5911 3.81869C29.7874 3.32729 29.9753 2.81045 30.6551 2.60455C30.807 2.55866 30.9762 2.55188 31.1376 2.52714C31.5108 2.78261 31.7022 3.13416 31.8644 3.49518C32.7308 5.42637 33.2512 7.42509 33.5789 9.46312C33.7873 10.7602 34.0053 12.0553 34.0174 13.3668Z" fill="#88440B"/>
<path fill-rule="evenodd" clip-rule="evenodd" d="M29.383 19.3543C29.3784 18.1685 29.3828 16.9826 29.3634 15.797C29.3575 15.4397 29.5807 15.553 29.7831 15.6283C30.9155 16.0501 32.1139 16.2407 33.3429 16.2581C35.1968 16.2842 36.9154 15.8597 38.5124 15.0861C38.7142 14.9884 38.8893 14.8396 39.1452 14.8304C37.9464 16.4447 36.431 17.7974 34.3912 18.7034C34.1042 18.8309 33.9647 18.9665 33.9515 19.2367C33.8885 20.5219 33.69 21.7966 33.4836 23.0705C33.4169 23.4824 33.1808 23.7063 32.8034 23.6862C32.4201 23.6659 32.2232 23.4362 32.2096 23.0144C32.1747 21.9272 32.1315 20.8404 32.0979 19.7531C32.0901 19.4969 32.0617 19.3608 31.6417 19.4155C30.8941 19.5125 30.1331 19.4567 29.383 19.3543Z" fill="#88440B"/>
<path fill-rule="evenodd" clip-rule="evenodd" d="M11.5831 12.1288C10.6701 12.583 9.74839 13.0237 8.76369 13.3667C8.76134 12.1547 8.95853 10.9561 9.14235 9.7579C9.38836 8.15361 9.76167 6.56868 10.3038 5.01377C10.5282 4.37004 10.7647 3.72751 11.1175 3.12139C11.2469 2.89923 11.3859 2.67558 11.6435 2.52724C12.4938 2.52654 12.8527 3.01704 13.0896 3.57219C13.379 4.24984 13.5341 4.95671 13.5736 5.67845C13.5914 5.99937 13.6296 6.31939 13.6595 6.63981C13.6725 6.77867 13.6504 6.91154 13.5696 7.03564C13.6156 7.15685 13.5362 7.2556 13.4728 7.35037C12.6276 8.6123 12.1993 9.98634 11.8693 11.3876C11.809 11.6431 11.7812 11.9089 11.5831 12.1288Z" fill="#88440B"/>
<path fill-rule="evenodd" clip-rule="evenodd" d="M3.63574 14.8301C3.86559 14.8226 4.01665 14.9613 4.19168 15.046C6.9989 16.4025 9.91425 16.6603 12.9541 15.6391C13.271 15.5325 13.4293 15.5026 13.4204 15.8718C13.3929 17.0323 13.4027 18.1934 13.3981 19.3543C12.5872 19.4561 11.7722 19.5046 10.9584 19.4011C10.6149 19.3575 10.7045 19.5632 10.6991 19.6794C10.6477 20.7535 10.6113 21.8281 10.5708 22.9025C10.569 22.9525 10.5711 23.0025 10.57 23.0525C10.5604 23.4408 10.3487 23.6672 9.97677 23.6863C9.61289 23.7052 9.35906 23.4855 9.3005 23.107C9.10309 21.8326 8.89454 20.5591 8.83074 19.2735C8.81757 19.0056 8.71094 18.8412 8.39117 18.7003C6.34768 17.8004 4.83434 16.4444 3.63574 14.8301Z" fill="#88440B"/>
<path fill-rule="evenodd" clip-rule="evenodd" d="M20.2061 30.6129C20.3333 30.5131 20.4925 30.5514 20.6394 30.5495C21.2346 30.5419 21.2617 30.5416 21.2033 30.047C21.0097 28.4109 20.9089 26.7716 20.8199 25.1294C20.776 24.3179 20.7889 23.5078 20.7555 22.6975C20.7329 22.1498 20.6683 21.5947 20.6899 21.0557C20.753 19.4815 20.7005 17.9066 20.7716 16.3344C20.8149 15.3774 20.8455 14.4166 20.9477 13.4626C21.0521 12.4857 21.0745 11.5016 21.2879 10.533C21.3173 10.3994 21.2974 10.2584 21.3002 10.1209C21.3604 10.0763 21.4207 10.0763 21.481 10.1209C21.597 11.1723 21.7155 12.2234 21.828 13.2749C21.8823 13.7836 21.8923 14.2963 21.9149 14.8045C21.9703 16.0516 22.0808 17.2987 22.0318 18.549C22.0082 19.1469 22.1151 19.7496 22.0935 20.341C22.0543 21.4019 22.0143 22.4626 22.0314 23.5235C22.0533 24.8971 21.9034 26.2646 21.8239 27.6337C21.7787 28.4119 21.7385 29.1968 21.5839 29.9727C21.4749 30.5191 21.5266 30.5379 22.1876 30.5488C22.3203 30.5509 22.4633 30.5207 22.5753 30.6128C22.4968 30.6999 22.3805 30.7269 22.2608 30.7317C21.6808 30.7552 21.1006 30.7552 20.5206 30.7317C20.4009 30.727 20.2846 30.7 20.2061 30.6129Z" fill="#ECA407"/>
<path fill-rule="evenodd" clip-rule="evenodd" d="M20.2062 30.6129C20.9959 30.613 21.7856 30.613 22.5753 30.613C22.8841 30.6759 23.0863 30.8213 23.1237 31.0953C23.1993 31.6492 22.6193 32.4824 22.0091 32.696C21.2403 32.9652 20.3727 32.7108 20.004 32.0923C19.8715 31.8698 19.7636 31.6325 19.6864 31.3927C19.558 30.9943 19.7145 30.7796 20.2062 30.6129Z" fill="#89440B"/>
<path fill-rule="evenodd" clip-rule="evenodd" d="M14.1318 19.6717C15.2316 20.2237 16.2796 20.7447 17.087 21.5289C17.1747 21.6141 17.2438 21.7122 17.3309 21.7978C17.5682 22.0309 17.4616 22.1261 17.1394 22.1792C16.5413 22.2775 15.9962 22.1972 15.5096 21.8914C14.8526 21.4784 14.2042 20.4491 14.1318 19.6717Z" fill="#4D4D4D"/>
<path fill-rule="evenodd" clip-rule="evenodd" d="M28.6853 19.7481C28.4438 20.55 28.1034 21.3145 27.2997 21.8683C26.7896 22.2193 26.1956 22.2934 25.5491 22.1571C25.2886 22.102 25.2669 22.0317 25.4019 21.856C25.8155 21.317 26.3934 20.9157 27.008 20.5507C27.5214 20.2458 28.0615 19.9719 28.5897 19.684C28.6216 19.7053 28.6534 19.7268 28.6853 19.7481Z" fill="#4D4D4D"/>
<path fill-rule="evenodd" clip-rule="evenodd" d="M21.4806 10.121C21.4204 10.121 21.3601 10.121 21.2998 10.121C21.3259 10.0102 21.2357 9.8776 21.3904 9.78034C21.5449 9.8776 21.4547 10.0102 21.4806 10.121Z" fill="#F5AC04"/>
</svg>
