<svg width="39" height="39" viewBox="0 0 39 39" fill="none" xmlns="http://www.w3.org/2000/svg">
<path fill-rule="evenodd" clip-rule="evenodd" d="M1.87802 26.5152C1.99665 26.508 2.11527 26.5007 2.23398 26.4932C2.50632 26.3668 2.79505 26.4148 3.0794 26.4142C5.84248 26.3968 8.60519 26.396 11.3681 26.4134C11.657 26.4218 11.9538 26.3483 12.2299 26.4934C12.5769 26.4416 12.5918 26.6305 12.5771 26.9109C12.4451 29.4441 10.2323 31.6491 7.7162 31.8422C4.78386 32.0673 2.32924 29.9767 1.94296 27.3136C1.93724 27.2749 1.90034 27.2408 1.87793 27.2045C1.87803 26.9749 1.87802 26.745 1.87802 26.5152Z" fill="#E76B2D"/>
<path fill-rule="evenodd" clip-rule="evenodd" d="M36.8085 26.4932C36.9273 26.5006 37.0459 26.508 37.1645 26.5152C37.1645 26.7449 37.1645 26.9747 37.1645 27.2045C36.9796 27.7635 36.8722 28.345 36.6095 28.8822C35.6064 30.9324 33.2558 32.1688 31.0187 31.8044C28.61 31.4121 26.7664 29.5328 26.4887 27.1854C26.4766 27.083 26.491 26.9755 26.4667 26.877C26.3907 26.5698 26.5201 26.4614 26.8126 26.4936C27.0879 26.3494 27.383 26.4228 27.6709 26.4138C30.1589 26.3904 32.6468 26.4097 35.1347 26.4039C35.4097 26.4032 35.685 26.3965 35.9596 26.4143C36.2451 26.413 36.5349 26.3663 36.8085 26.4932Z" fill="#E76B2D"/>
<path fill-rule="evenodd" clip-rule="evenodd" d="M17.5885 33.263C17.5877 26.4228 17.5868 19.5824 17.5859 12.7422C17.6979 12.6124 17.8534 12.6228 18.0003 12.6217C18.7231 12.6159 19.4457 12.6156 20.1684 12.622C20.315 12.6232 20.4714 12.6121 20.5801 12.7468C20.5784 17.588 20.5764 22.4293 20.5755 27.2705C20.5752 29.2668 20.5776 31.2629 20.5787 33.2591C20.4873 33.3729 20.3562 33.3638 20.2322 33.3645C19.4673 33.3688 18.7022 33.3686 17.9372 33.3645C17.8131 33.364 17.6825 33.3727 17.5885 33.263Z" fill="#E76B2D"/>
<path fill-rule="evenodd" clip-rule="evenodd" d="M20.5807 12.7467C19.5826 12.7451 18.5845 12.7436 17.5866 12.7421C15.4368 12.8221 13.3604 13.2659 11.3459 14.0098C10.4322 14.347 9.52852 14.717 8.54971 14.8314C8.27747 14.8633 8.00438 14.889 7.73176 14.9175C7.40603 14.9911 7.08144 15.0491 6.77135 14.8606C5.87769 14.6709 5.03265 14.3692 4.30929 13.7883C4.10781 13.6264 3.90604 13.4642 3.70312 13.1685C4.38234 13.46 4.99957 13.6524 5.6496 13.7306C7.00792 13.894 8.30751 13.6978 9.51269 13.0474C10.651 12.4331 11.7415 11.7325 12.9605 11.2711C14.3504 10.7449 15.7746 10.3781 17.2561 10.2411C17.3695 10.2306 17.4813 10.202 17.5938 10.1817C17.6746 10.1071 17.7741 10.084 17.8794 10.0794C18.6816 10.0441 19.4837 10.0461 20.2859 10.0791C20.3923 10.0835 20.4885 10.1157 20.5752 10.177C21.3442 10.2989 22.1201 10.374 22.8809 10.5513C24.6945 10.974 26.3929 11.6702 27.9691 12.6623C29.1948 13.4337 30.518 13.8455 31.9783 13.7793C32.81 13.7416 33.6033 13.5486 34.3819 13.2455C33.8177 13.9726 33.0326 14.3582 32.2008 14.6734C31.9341 14.8598 31.6457 14.9484 31.32 14.8697C29.8327 15.0052 28.4373 14.6496 27.0693 14.1047C25.1293 13.332 23.1061 12.9131 21.0275 12.7508C20.8792 12.7394 20.7296 12.7477 20.5807 12.7467Z" fill="#FEB500"/>
<path fill-rule="evenodd" clip-rule="evenodd" d="M24.9831 35.1868C25.4341 35.2519 25.6918 35.5051 25.7215 35.9477C25.7414 36.2446 25.7236 36.5441 25.7315 36.8421C25.7355 36.9893 25.6796 37.0548 25.5315 37.0419C25.4744 37.037 25.4169 37.0414 25.3594 37.0414C21.1839 37.0414 17.0082 37.0385 12.8327 37.0475C12.5292 37.0482 12.3868 36.9869 12.4306 36.6557C12.4665 36.3847 12.407 36.1075 12.473 35.8342C12.5667 35.4463 12.7656 35.2549 13.169 35.1911C13.2017 35.1812 13.2327 35.1677 13.2685 35.1666C16.5221 35.0664 19.7768 35.0886 23.0307 35.1188C23.6785 35.1248 24.3338 35.1234 24.9831 35.1868Z" fill="#ECA407"/>
<path fill-rule="evenodd" clip-rule="evenodd" d="M31.3198 14.8699C31.6134 14.8045 31.907 14.739 32.2006 14.6736C33.7365 18.6135 35.2724 22.5534 36.8083 26.4933C36.5343 26.4934 36.2603 26.4935 35.9864 26.4935C35.8304 26.4381 35.8181 26.2864 35.7691 26.1622C34.6091 23.2261 33.4722 20.2808 32.3218 17.3409C32.1589 16.9249 32.0023 16.5062 31.8076 16.0137C31.6168 16.5082 31.4413 16.9333 31.2753 17.3621C30.4084 19.5994 29.5262 21.8306 28.6625 24.069C28.3981 24.7544 28.1141 25.4322 27.863 26.1229C27.8132 26.2603 27.779 26.4135 27.6335 26.4944C27.3599 26.4941 27.0863 26.4937 26.8125 26.4934C27.6285 24.3908 28.4449 22.2885 29.2603 20.1858C29.9474 18.414 30.6334 16.6418 31.3198 14.8699Z" fill="#4CA8BE"/>
<path fill-rule="evenodd" clip-rule="evenodd" d="M6.77125 14.8607C7.09135 14.8796 7.41155 14.8986 7.73166 14.9176C9.19306 18.6686 10.6547 22.4196 12.1157 26.1707C12.1572 26.2769 12.1922 26.3858 12.2303 26.4935C11.9566 26.4938 11.683 26.4942 11.4093 26.4945C11.2735 26.4222 11.2401 26.2817 11.1913 26.1555C9.90927 22.8358 8.60329 19.5253 7.31601 16.2074C7.2998 16.1655 7.29017 16.1192 7.21274 16.0704C7.01021 16.5946 6.8072 17.1117 6.60648 17.629C5.73837 19.8658 4.86196 22.0993 3.99309 24.3357C3.75204 24.9564 3.5064 25.5752 3.2622 26.1947C3.2171 26.3094 3.19965 26.4454 3.05643 26.4935C2.78247 26.4935 2.50833 26.4934 2.23438 26.4933C3.7466 22.6157 5.25893 18.7382 6.77125 14.8607Z" fill="#4CA8BE"/>
<path fill-rule="evenodd" clip-rule="evenodd" d="M14.8311 35.1291C14.8898 34.1555 15.5084 33.4452 16.3985 33.3286C16.6476 33.2787 16.8994 33.307 17.1497 33.3064C18.5789 33.303 20.0081 33.3041 21.4373 33.306C21.5617 33.3062 21.689 33.2813 21.8103 33.3312C22.6705 33.4694 23.2806 34.1613 23.3254 35.0494C23.2736 35.2708 23.095 35.1567 22.9851 35.1572C21.2747 35.1663 19.5645 35.1635 17.8543 35.1635C16.9589 35.1635 16.0636 35.1648 15.1682 35.162C15.0557 35.1616 14.9382 35.1919 14.8311 35.1291Z" fill="#FEB500"/>
<path fill-rule="evenodd" clip-rule="evenodd" d="M14.8309 35.1291C17.5335 35.1294 20.2362 35.1304 22.9388 35.1279C23.0698 35.1278 23.2175 35.1775 23.3251 35.0493C23.4281 35.1799 23.5737 35.1268 23.7042 35.1358C24.1298 35.1654 24.5602 35.0784 24.9826 35.1867C24.3286 35.1908 23.6743 35.1978 23.0202 35.1983C19.874 35.2006 16.7279 35.2013 13.5816 35.2017C13.4441 35.2018 13.3064 35.1948 13.1689 35.191C13.5935 35.0743 14.0269 35.1647 14.4552 35.1372C14.58 35.1292 14.7057 35.1316 14.8309 35.1291Z" fill="#F2BB40"/>
<path fill-rule="evenodd" clip-rule="evenodd" d="M21.8102 33.3312C20.0064 33.3304 18.2024 33.3295 16.3984 33.3287C16.7894 33.2033 17.1929 33.3056 17.5887 33.2631C18.5854 33.2617 19.5821 33.2604 20.5789 33.2591C20.9879 33.3084 21.4059 33.2027 21.8102 33.3312Z" fill="#FEBD1E"/>
<path fill-rule="evenodd" clip-rule="evenodd" d="M17.5991 7.70055C16.7646 7.14444 16.2396 6.39562 16.1033 5.3822C15.8797 3.71788 17.1732 2.12937 18.8531 1.96717C20.3996 1.81794 21.7269 2.83184 22.1183 4.15479C22.5096 5.47784 21.9405 6.96756 20.7484 7.66775C20.6895 7.70236 20.6328 7.74108 20.5752 7.77788C20.1951 8.15701 19.6922 8.17074 19.211 8.2003C18.7901 8.22615 18.3756 8.11878 17.9747 7.98175C17.8198 7.92845 17.6917 7.83796 17.5991 7.70055Z" fill="#FEB500"/>
<path fill-rule="evenodd" clip-rule="evenodd" d="M17.5986 7.70055C18.578 8.21327 19.57 8.23959 20.5746 7.77778C20.5745 8.57762 20.5744 9.37735 20.5743 10.1771C19.5804 10.1787 18.5866 10.1803 17.5928 10.182C17.5947 9.35476 17.5968 8.52765 17.5986 7.70055Z" fill="#E76B2D"/>
</svg>
