<svg width="43" height="43" viewBox="0 0 43 43" fill="none" xmlns="http://www.w3.org/2000/svg">
<path fill-rule="evenodd" clip-rule="evenodd" d="M26.5135 27.5733C26.872 28.839 27.1085 30.1221 27.278 31.4158C27.4627 32.8248 27.4584 34.2384 27.4626 35.6528C27.4665 36.9401 28.2474 37.9315 29.5121 38.2791C31.1267 38.7229 32.3724 38.0715 32.6542 36.636C33.2782 37.0567 33.542 37.9229 33.266 38.694C33.0006 39.4353 32.4257 39.9197 31.5713 40.1595C31.4956 40.1808 31.3956 40.1541 31.3554 40.2431C24.7543 40.2431 18.1531 40.2431 11.552 40.2431C11.41 40.1145 11.2035 40.101 11.03 40.0281C9.52294 39.395 9.14812 37.6904 10.2987 36.6279C10.4102 36.6765 10.3608 36.7725 10.3769 36.8441C10.6739 38.1783 12.2889 38.8162 13.788 38.179C14.9935 37.6667 15.5225 36.7898 15.5286 35.6623C15.5363 34.2365 15.5258 32.8108 15.7171 31.391C15.9011 30.0261 16.1405 28.6702 16.5521 27.3401C17.2045 26.3835 18.2375 25.889 19.4414 25.6569C21.0836 25.3403 22.7295 25.349 24.3246 25.8663C25.302 26.1835 26.1179 26.6868 26.5135 27.5733Z" fill="#4CA8BE"/>
<path fill-rule="evenodd" clip-rule="evenodd" d="M22.3459 2.75692C22.5591 2.91346 22.839 2.89718 23.086 2.96536C24.9557 3.48157 26.2367 4.51357 26.8577 6.13119C26.611 6.1619 26.4706 5.9986 26.3122 5.891C25.0915 5.06172 23.7119 4.57367 22.1664 4.43187C20.8282 4.33072 19.5614 4.56271 18.342 5.02854C17.7046 5.27201 17.1448 5.62051 16.5797 5.9642C16.4473 6.04467 16.3293 6.17101 16.1328 6.1318C16.7634 4.5021 18.0529 3.46232 19.947 2.95717C20.1811 2.89472 20.4458 2.9069 20.6461 2.75681C21.2126 2.75692 21.7792 2.75692 22.3459 2.75692Z" fill="#FEB500"/>
<path fill-rule="evenodd" clip-rule="evenodd" d="M16.1331 6.13191C17.3741 5.28409 18.7113 4.59742 20.3116 4.40904C20.9293 4.33645 21.5558 4.19363 22.1868 4.35846C22.142 4.41139 22.0806 4.43597 22.0199 4.43709C23.7425 5.34787 24.9962 6.62426 25.833 8.20952C26.6555 9.76786 26.994 11.4211 26.9545 13.1178C26.9079 15.1236 26.5134 17.0891 25.7776 18.9983C25.5514 19.0755 25.4456 18.9158 25.3212 18.8151C23.33 17.1998 20.4116 17.0161 18.21 18.415C16.9793 19.197 16.2136 20.2535 16.003 21.5818C15.9415 21.9682 15.8787 22.3507 15.9798 22.7416C16.0184 22.8909 16.0334 23.0584 15.8896 23.1909C14.3304 22.372 13.2327 21.2057 12.4832 19.789C11.4139 17.7676 11.2909 15.6531 11.7343 13.4994C12.1846 11.3114 13.1334 9.29947 14.6927 7.51354C15.1271 7.01648 15.6559 6.59457 16.1331 6.13191Z" fill="#E76B2D"/>
<path fill-rule="evenodd" clip-rule="evenodd" d="M15.8898 23.191C15.7878 22.3648 15.7905 21.5483 16.1065 20.7466C17.3719 17.5366 21.8235 16.3496 24.9636 18.3949C25.2434 18.5772 25.4834 18.8049 25.7421 19.0115C26.205 19.1895 26.388 19.5766 26.5971 19.9207C27.1777 20.8766 27.432 21.8927 27.2162 22.9745C27.199 23.0608 27.166 23.1374 27.1048 23.2058C26.8369 23.9419 26.5408 24.6666 25.9608 25.2747C25.9259 25.3111 25.8843 25.3431 25.8459 25.3771C25.7296 25.3363 25.6805 25.2467 25.6467 25.1551C25.4381 24.5909 25.1417 24.0531 24.9693 23.4782C24.958 23.3284 25.0241 23.1916 25.0661 23.0507C25.5768 21.3347 24.3662 19.5704 22.3604 19.1766C19.9395 18.7011 18.1105 20.2258 17.8513 21.7444C17.7478 22.3497 17.9265 22.9008 18.0249 23.4734C17.8497 24.0896 17.5334 24.6642 17.3078 25.2658C17.2856 25.3247 17.2257 25.3631 17.1509 25.3766C16.6031 24.8543 16.2559 24.2407 16.0374 23.5677C15.996 23.4401 15.9394 23.3164 15.8898 23.191Z" fill="#FEB500"/>
<path fill-rule="evenodd" clip-rule="evenodd" d="M17.1505 25.3765C17.4157 24.7427 17.681 24.1091 17.9461 23.4752C18.0727 23.3108 18.2767 23.2529 18.4782 23.1974C20.4895 22.6428 22.5022 22.6428 24.5138 23.1975C24.7152 23.253 24.919 23.3111 25.0464 23.4747C25.3128 24.1089 25.579 24.7429 25.8454 25.377C26.0687 26.109 26.3692 26.8234 26.5131 27.5733C26.121 27.1217 25.7506 26.66 25.1829 26.3405C24.4186 25.9105 23.5685 25.6927 22.6855 25.6133C21.3525 25.4934 20.023 25.5258 18.7404 25.9403C17.8827 26.2173 17.1806 26.6585 16.6721 27.3191C16.6361 27.3658 16.6083 27.4005 16.5518 27.3403C16.676 26.6687 16.9651 26.0343 17.1505 25.3765Z" fill="#3D9CAC"/>
<path fill-rule="evenodd" clip-rule="evenodd" d="M27.1042 23.2057C27.1732 22.5064 27.2162 21.808 27.0144 21.1172C26.7841 20.3283 26.3468 19.6323 25.7415 19.0114C25.7608 18.4325 26.0572 17.9087 26.1934 17.3516C26.4784 16.188 26.6805 15.0224 26.7872 13.8339C26.9229 12.3224 26.7417 10.8528 26.235 9.41741C25.4767 7.26946 24.0258 5.55898 21.6904 4.38283C21.8943 4.3729 22.0402 4.36583 22.1863 4.35867C23.7405 4.45183 25.0948 4.97643 26.3198 5.78012C26.4987 5.89745 26.6781 6.01417 26.8575 6.13119C27.8251 6.94112 28.6767 7.82887 29.3372 8.84735C30.799 11.1015 31.5933 13.5146 31.497 16.0997C31.4057 18.5484 30.457 20.7158 28.3222 22.4197C27.9493 22.7173 27.5607 23.0019 27.1042 23.2057Z" fill="#CB521B"/>
<path fill-rule="evenodd" clip-rule="evenodd" d="M25.047 23.4747C22.6802 22.6892 20.3133 22.6897 17.9466 23.4752C17.5363 22.4521 17.6126 21.4711 18.2635 20.5292C19.0391 19.4067 20.7582 18.7614 22.256 19.0453C23.8536 19.3481 25.0487 20.4642 25.2587 21.7881C25.3519 22.3756 25.2423 22.9243 25.047 23.4747Z" fill="#4D4D4D"/>
</svg>
