<svg width="37" height="37" viewBox="0 0 37 37" fill="none" xmlns="http://www.w3.org/2000/svg">
<path fill-rule="evenodd" clip-rule="evenodd" d="M18.3463 35.7978C17.5369 35.4365 16.7271 35.0782 15.9768 34.5976C14.3208 33.5371 12.9068 32.2147 11.6866 30.6788C11.6316 30.6095 11.5765 30.5402 11.487 30.4276C10.7399 31.6624 10.7 33.0031 10.718 34.4207C10.1857 33.9859 9.82649 33.4884 9.51419 32.9568C8.58911 31.3824 8.11529 29.6537 7.79851 27.873C7.79133 27.8323 7.78127 27.7918 7.76286 27.7052C7.43079 28.0376 7.22382 28.4106 6.99988 28.7725C6.77746 29.1317 6.61746 29.5194 6.45476 29.9551C5.95315 29.1991 5.58577 28.4223 5.28504 27.6167C4.37685 25.1834 4.17715 22.6701 4.43987 20.1005C4.74018 17.1638 5.56271 14.3791 6.80888 11.7116C6.82696 11.6727 6.83913 11.631 6.8643 11.5636C6.33 11.5824 5.91125 11.8024 5.54412 12.159C5.38421 10.1409 6.34866 7.05011 9.8134 5.57915C9.23407 5.27056 8.62602 5.20459 7.98646 5.20721C9.18254 3.98933 11.9608 3.36768 14.6858 5.01782C14.5693 4.59139 14.3451 4.27233 14.1028 3.96712C13.4229 3.11096 12.5341 2.49438 11.6675 1.85187C11.5884 1.79332 11.4405 1.77812 11.471 1.62074C11.5821 1.62074 11.6934 1.62074 11.8047 1.62074C12.9215 1.69812 13.9924 1.9681 15.0264 2.39056C16.2633 2.89589 17.3301 3.63631 18.177 4.67958C18.3563 4.9004 18.4631 4.91053 18.6282 4.7056C19.9437 3.07354 21.7198 2.25295 23.7096 1.79848C24.1433 1.69947 24.5867 1.69728 25.0215 1.62074C25.1105 1.62074 25.1995 1.62074 25.2885 1.62074C25.3161 1.81149 25.1502 1.86065 25.0416 1.94056C24.2169 2.54676 23.3846 3.14306 22.7352 3.95005C22.4856 4.25982 22.2772 4.59189 22.132 4.99484C24.4265 3.76134 26.652 3.53942 28.8313 5.16083C28.2154 5.21523 27.604 5.26305 27.0151 5.57814C29.8674 6.85565 31.2846 9.04313 31.3339 12.1924C31.1047 12.0068 30.9277 11.8402 30.7042 11.7442C30.4798 11.6478 30.2537 11.5623 29.9579 11.5666C30.0553 11.7842 30.1423 11.9787 30.2297 12.173C31.2202 14.3724 31.9135 16.6621 32.2619 19.0485C32.721 22.1916 32.5704 25.2773 31.2867 28.2384C31.0351 28.8191 30.7477 29.3816 30.3763 29.9567C30.0746 29.12 29.647 28.3951 29.0814 27.6894C28.5705 30.1546 28.0056 32.5451 26.1489 34.3793C26.1285 33.0172 26.0837 31.6723 25.3423 30.4213C24.8409 31.0666 24.3378 31.6535 23.7914 32.2029C22.2856 33.7164 20.6007 34.9623 18.5898 35.7298C18.5503 35.7447 18.5163 35.7746 18.4798 35.7976C18.4352 35.7978 18.3907 35.7978 18.3463 35.7978Z" fill="#CB521B"/>
<path fill-rule="evenodd" clip-rule="evenodd" d="M7.66715 24.9238C7.19468 25.4635 6.885 26.0523 6.63563 26.7293C6.2609 26.1552 6.00612 25.5817 5.79248 24.9906C5.38236 23.8556 5.21527 22.6828 5.18756 21.4753C5.12826 18.8826 5.73994 16.4298 6.63132 14.0243C7.01002 13.002 7.46002 12.0135 7.96264 11.0483C8.0679 10.8464 8.06866 10.7488 7.82005 10.6661C7.44608 10.5418 7.08588 10.5227 6.64771 10.6956C6.96998 9.96526 7.44946 9.44329 7.97396 8.95992C8.50548 8.46997 9.13659 8.12049 9.80082 7.74433C9.3509 7.45036 8.86399 7.49808 8.36804 7.40153C9.1387 6.76662 10.0007 6.49097 10.9717 6.49047C11.9229 6.48996 12.796 6.75715 13.6476 7.18789C13.1257 6.012 12.0755 5.36078 11.1099 4.6109C12.8863 4.74462 14.301 5.16531 16.1384 6.58483C17.2893 7.47392 18.955 7.43219 20.1151 6.69532C20.6482 6.35674 21.1076 5.91393 21.6673 5.61201C22.7561 5.02441 23.9194 4.70864 25.1649 4.64089C24.2714 5.43766 23.1739 6.03304 22.6613 7.29019C23.546 6.7705 24.4294 6.5093 25.388 6.48954C26.3603 6.46935 27.2149 6.76121 28.0113 7.3837C27.5236 7.51692 27.0246 7.47367 26.552 7.74365C27.91 8.44049 29.0961 9.28093 29.7834 10.757C29.3345 10.4666 28.9372 10.5535 28.5316 10.692C28.35 10.754 28.3081 10.8152 28.4032 10.9951C28.9799 12.0854 29.4758 13.2121 29.8957 14.3723C30.4053 15.781 30.7973 17.2206 31.0279 18.7018C31.1781 19.6659 31.2755 20.636 31.2269 21.613C31.1567 23.026 30.9165 24.4023 30.3097 25.6974C30.2061 25.9183 30.1088 26.1409 29.9787 26.3473C29.9167 26.4455 29.9082 26.628 29.7688 26.6133C29.6444 26.6003 29.6441 26.4214 29.6 26.316C29.3928 25.821 29.0908 25.3878 28.7294 24.8924C28.2524 26.888 27.7231 28.7977 26.2684 30.3211C26.1589 29.9992 26.1355 29.6965 25.9314 29.4617C25.2557 28.6851 24.3493 28.7679 23.688 29.6456C22.8693 30.7323 21.9187 31.6888 20.7875 32.4557C19.933 33.0349 18.9806 33.3102 17.9586 33.2492C16.8543 33.1833 15.8835 32.7426 15.0249 32.0439C14.1529 31.3343 13.3616 30.5457 12.6982 29.6392C12.2984 29.0927 11.8225 28.7954 11.1372 28.9907C10.5025 29.1715 10.2239 29.6377 10.1744 30.3463C8.65677 28.8211 8.15474 26.8966 7.66715 24.9238Z" fill="#E76B2D"/>
<path fill-rule="evenodd" clip-rule="evenodd" d="M14.0037 24.6558C13.584 23.6288 13.2634 22.5671 12.908 21.5178C12.5273 20.3935 12.0991 19.2847 11.7833 18.1391C11.4032 16.7605 11.6106 15.4533 12.3425 14.2415C12.9155 13.2929 13.5203 12.3598 14.2349 11.5091C15.1088 10.4688 16.768 10.5981 17.6332 11.6971C17.8457 11.9669 18.0707 12.2272 18.2766 12.5016C18.3817 12.6415 18.4423 12.6395 18.5495 12.5018C18.8014 12.1784 19.0502 11.8494 19.3338 11.555C20.3927 10.4557 21.9431 10.5442 22.8404 11.7773C23.421 12.5751 23.9695 13.3994 24.4828 14.242C25.2682 15.5308 25.4521 16.9272 24.984 18.3637C24.3032 20.4527 23.5741 22.5258 22.8644 24.6054C22.8579 24.6248 22.8367 24.6391 22.8224 24.6558C22.7052 24.5431 22.7255 24.3954 22.7197 24.2543C22.7188 23.8684 22.7545 23.4816 22.6957 23.0971C22.5527 22.3665 22.5403 21.6199 22.4162 20.8849C22.2093 19.6595 21.6581 18.6606 20.6026 17.9815C19.4252 17.2239 18.1643 17.1112 16.8787 17.648C15.5351 18.2091 14.7736 19.2588 14.4818 20.6765C14.3721 21.2098 14.3549 21.7576 14.2066 22.2835C14.1362 22.4836 14.1708 22.6891 14.1749 22.8932C14.1727 23.3039 14.1991 23.7154 14.1593 24.1244C14.1419 24.3074 14.146 24.5056 14.0037 24.6558Z" fill="#ECA407"/>
<path fill-rule="evenodd" clip-rule="evenodd" d="M22.8187 24.2501C22.82 24.3854 22.8213 24.5205 22.8227 24.6559C22.7403 25.2496 22.7392 25.8609 22.3613 26.3809C22.1509 26.6705 21.8655 26.84 21.5585 26.9916C21.1577 27.2443 20.734 27.2136 20.3166 27.0625C19.7602 26.8612 19.2738 26.5219 18.7773 26.2097C18.515 26.0445 18.3114 26.0446 18.049 26.2097C17.5526 26.5219 17.0662 26.8612 16.5098 27.0625C16.0924 27.2136 15.6686 27.2442 15.2678 26.9916C14.464 26.6534 14.1301 26.0071 14.0709 25.1766C14.0586 25.0021 14.0268 24.8292 14.0039 24.6557C14.0829 24.0555 14.0817 23.4521 14.0746 22.8483C14.1652 22.6556 14.0544 22.4407 14.1407 22.2475C14.2614 21.6313 14.3033 21.0028 14.4579 20.3908C14.9642 18.3875 16.7229 17.0705 18.7631 17.2489C20.7114 17.4191 22.1944 18.8512 22.4929 20.815C22.6058 21.5576 22.6704 22.3034 22.7523 23.0483C22.8221 23.3288 22.765 23.6141 22.7853 23.8963C22.7938 24.0144 22.7525 24.1375 22.8187 24.2501Z" fill="#FEB500"/>
<path fill-rule="evenodd" clip-rule="evenodd" d="M15.2677 26.9916C16.0175 27.2166 16.6722 26.9805 17.295 26.5781C17.5546 26.4102 17.8282 26.2628 18.0812 26.0859C18.3117 25.9248 18.5106 25.9315 18.7454 26.0848C19.1521 26.3504 19.5727 26.5952 19.9931 26.8389C20.4894 27.1265 21.0189 27.1214 21.5583 26.9915C21.6164 28.0232 21.2442 28.8567 20.3892 29.4468C19.9252 29.767 19.4079 29.953 18.8291 29.9266C18.3866 29.9064 17.9387 29.9752 17.5011 29.8931C16.3683 29.6808 15.1577 28.6925 15.2677 26.9916Z" fill="#ECA407"/>
<path fill-rule="evenodd" clip-rule="evenodd" d="M15.6031 17.0484C15.0249 16.4544 14.269 16.3778 13.5952 16.116C13.4675 16.0664 13.2542 16.072 13.2472 15.9272C13.2406 15.7924 13.4421 15.7318 13.5677 15.6705C13.776 15.569 13.9912 15.4723 14.2136 15.4101C14.8927 15.2202 15.5331 15.7056 15.6007 16.4544C15.6165 16.6302 15.6031 16.8087 15.6031 17.0484Z" fill="#4D4D4D"/>
<path fill-rule="evenodd" clip-rule="evenodd" d="M21.2231 17.0473C21.1945 16.3832 21.221 15.7997 21.8633 15.4814C22.3416 15.2444 23.08 15.4364 23.6232 15.9478C22.851 16.355 21.9065 16.3543 21.2231 17.0473Z" fill="#4D4D4D"/>
<path fill-rule="evenodd" clip-rule="evenodd" d="M22.8183 24.2501C22.6717 23.8563 22.7888 23.448 22.752 23.0482C22.8996 23.442 22.7806 23.8504 22.8183 24.2501Z" fill="#F5A20B"/>
<path fill-rule="evenodd" clip-rule="evenodd" d="M14.1402 22.2475C14.1122 22.447 14.2066 22.6603 14.0741 22.8484C14.1029 22.6489 14.0072 22.4355 14.1402 22.2475Z" fill="#F5A20B"/>
<path fill-rule="evenodd" clip-rule="evenodd" d="M18.4104 25.5577C18.1795 24.6901 17.6505 24.0459 16.9944 23.4873C16.8759 23.3864 16.7507 23.2919 16.6418 23.1815C16.4689 23.0063 16.4187 22.8013 16.5413 22.5738C16.67 22.3345 16.8829 22.2405 17.1305 22.3168C17.4475 22.4145 17.7586 22.5398 18.0582 22.6823C18.2986 22.7966 18.5111 22.8122 18.7532 22.6889C19.0099 22.5582 19.2813 22.4548 19.5513 22.3527C19.8755 22.23 20.1369 22.3077 20.2766 22.5603C20.435 22.847 20.3273 23.0758 20.0988 23.2635C19.6418 23.6389 19.2062 24.0323 18.8811 24.5351C18.6761 24.852 18.5359 25.1957 18.4104 25.5577Z" fill="#4D4D4D"/>
</svg>
