<svg width="39" height="39" viewBox="0 0 39 39" fill="none" xmlns="http://www.w3.org/2000/svg">
<path fill-rule="evenodd" clip-rule="evenodd" d="M1.5332 16.6744C1.7205 16.1624 1.70154 15.6149 1.80711 15.0879C2.26062 12.825 3.07598 10.7443 4.80829 9.13287C5.97821 8.04459 7.37501 7.46249 8.9692 7.31949C10.2842 7.20158 11.5897 7.19471 12.8811 7.49661C15.2649 8.05379 17.1436 9.32182 18.4002 11.4542C18.4267 11.4808 18.4422 11.5128 18.4469 11.5502C18.1157 13.811 16.0857 15.6638 13.8743 15.7246C13.7008 15.7061 13.5091 15.7759 13.3647 15.6189C12.5032 14.9472 11.6013 14.351 10.523 14.0783C9.40963 13.7965 8.46154 14.0985 7.67351 14.9076C6.74173 15.8641 6.2556 17.0289 6.12328 18.3505C6.11227 18.4598 6.10531 18.5515 6.21221 18.6132C6.26653 18.8773 6.25966 19.1465 6.22736 19.4084C6.13057 20.1938 6.17694 20.9798 6.1872 21.7655C6.15748 22.2061 6.24823 22.6373 6.30197 23.0704C6.40274 23.8843 6.56197 24.6874 6.78711 25.4776C6.92812 25.9726 7.16171 26.4181 7.45408 26.8364C7.51494 27.0771 7.66159 27.2737 7.79217 27.4777C8.65248 28.823 9.67137 30.03 10.9068 31.048C10.9517 31.0849 10.9945 31.1241 11.0155 31.1805C9.6775 32.3818 8.00629 32.1406 6.59973 30.9864C5.26992 29.8952 4.38194 28.4714 3.61809 26.9614C2.50655 24.7643 1.86922 22.4286 1.61526 19.9838C1.60665 19.901 1.65037 19.7911 1.5332 19.7416C1.5332 19.6254 1.5332 19.5094 1.5332 19.3931C1.57626 19.3546 1.5674 19.3028 1.56914 19.2536C1.56757 19.2045 1.57609 19.1527 1.5332 19.1142C1.5332 19.0212 1.5332 18.9282 1.5332 18.8354C1.59059 18.6728 1.59059 18.5101 1.5332 18.3475C1.5332 18.1848 1.5332 18.0221 1.5332 17.8594C1.59059 17.6969 1.59059 17.5341 1.5332 17.3715C1.5332 17.139 1.5332 16.9067 1.5332 16.6744Z" fill="#B16B26"/>
<path fill-rule="evenodd" clip-rule="evenodd" d="M20.3572 11.4542C21.7575 9.07996 23.8933 7.79569 26.5588 7.36487C28.0216 7.12839 29.5034 7.16118 30.9518 7.51491C32.9862 8.01181 34.4374 9.28515 35.4881 11.0542C36.4853 12.733 36.9415 14.5788 37.151 16.4994C37.1601 16.5828 37.1079 16.6906 37.2242 16.7441C37.2242 16.8835 37.2242 17.023 37.2242 17.1623C37.1656 17.3483 37.1656 17.5341 37.2242 17.72C37.2242 17.9291 37.2242 18.1382 37.2242 18.3474C37.1668 18.51 37.1668 18.6727 37.2242 18.8353C37.2242 18.9282 37.2242 19.0212 37.2242 19.1141C37.1812 19.1526 37.1899 19.2045 37.1882 19.2537C37.1898 19.3028 37.1812 19.3545 37.2242 19.393C37.2242 19.5093 37.2242 19.6254 37.2242 19.7415C37.0467 20.1257 37.085 20.5472 37.0225 20.9504C36.5309 24.1198 35.4438 27.0464 33.4849 29.6114C32.73 30.6001 31.8474 31.4584 30.6145 31.8321C29.6852 32.1138 28.805 32.0015 28.0225 31.3825C28.8177 30.971 29.3064 30.2603 29.7867 29.5488C30.3066 28.7786 30.7691 27.9726 31.2052 27.1517C31.2552 27.0577 31.281 26.9577 31.313 26.8582C32.1849 25.5324 32.3235 24.0025 32.5229 22.4912C32.5542 22.2535 32.6224 22.0138 32.5705 21.7685C32.5798 20.8432 32.6389 19.9177 32.5253 18.9948C32.5098 18.8676 32.5136 18.7407 32.5471 18.6159C32.5665 18.5536 32.6602 18.5519 32.6496 18.4535C32.4744 16.8332 31.8845 15.4257 30.5207 14.4482C29.6133 13.7979 28.6264 13.8818 27.6396 14.2641C26.813 14.5846 26.084 15.0707 25.3934 15.6188C25.2492 15.7756 25.0582 15.7064 24.8857 15.725C22.8841 15.6664 20.9944 14.1399 20.4339 12.1258C20.3814 11.937 20.3175 11.7493 20.3096 11.5502C20.3146 11.5127 20.3304 11.4807 20.3572 11.4542Z" fill="#B16B26"/>
<path fill-rule="evenodd" clip-rule="evenodd" d="M37.2243 17.72C37.124 17.534 37.112 17.3482 37.2243 17.1623C37.2243 17.3482 37.2243 17.534 37.2243 17.72Z" fill="#C48F5A"/>
<path fill-rule="evenodd" clip-rule="evenodd" d="M1.5332 17.3714C1.64822 17.534 1.63795 17.6967 1.5332 17.8594C1.5332 17.6968 1.5332 17.534 1.5332 17.3714Z" fill="#C08750"/>
<path fill-rule="evenodd" clip-rule="evenodd" d="M37.224 18.8353C37.1124 18.6727 37.1159 18.51 37.224 18.3474C37.224 18.5099 37.224 18.6726 37.224 18.8353Z" fill="#BA7C3F"/>
<path fill-rule="evenodd" clip-rule="evenodd" d="M1.5332 18.3474C1.64126 18.51 1.64466 18.6727 1.5332 18.8353C1.5332 18.6726 1.5332 18.5099 1.5332 18.3474Z" fill="#BA7C3F"/>
<path fill-rule="evenodd" clip-rule="evenodd" d="M1.59257 19.2565C1.59936 19.3135 1.60574 19.3704 1.5332 19.3929C1.5332 19.3464 1.5332 19.3 1.5332 19.2535C1.55465 19.2222 1.57452 19.2216 1.59257 19.2565Z" fill="#DDBFA1"/>
<path fill-rule="evenodd" clip-rule="evenodd" d="M37.164 19.2563C37.1544 19.1967 37.1591 19.143 37.2234 19.1141C37.2234 19.1607 37.2234 19.2071 37.2234 19.2536C37.2049 19.2831 37.1852 19.2855 37.164 19.2563Z" fill="#D4AD86"/>
<path fill-rule="evenodd" clip-rule="evenodd" d="M1.59257 19.2565C1.57278 19.256 1.55291 19.255 1.5332 19.2535C1.5332 19.207 1.5332 19.1606 1.5332 19.114C1.59754 19.143 1.60301 19.1964 1.59257 19.2565Z" fill="#D4AD86"/>
<path fill-rule="evenodd" clip-rule="evenodd" d="M37.1644 19.2563C37.1841 19.2559 37.204 19.2549 37.2238 19.2535C37.2238 19.3 37.2238 19.3464 37.2238 19.3929C37.1513 19.3703 37.1568 19.3138 37.1644 19.2563Z" fill="#DDBFA1"/>
<path fill-rule="evenodd" clip-rule="evenodd" d="M20.355 11.5153C20.5269 12.125 20.6835 12.7403 21.0288 13.2844C21.9136 14.6783 23.1673 15.4775 24.8184 15.6374C25.0271 15.6777 25.2356 15.6872 25.4438 15.633C26.6927 15.4051 27.9474 15.2628 29.2169 15.4202C29.8798 15.5025 30.5178 15.6621 31.0245 16.1434C31.1437 16.2566 31.248 16.3785 31.3065 16.5345C31.2888 16.6902 31.1626 16.6826 31.0563 16.6937C30.9338 16.7066 30.8093 16.699 30.6902 16.7384C30.5784 16.7631 30.4647 16.7687 30.3508 16.7694C30.2251 16.7657 30.0994 16.7633 29.9778 16.8049C29.9078 16.8218 29.8368 16.8305 29.765 16.8338C29.641 16.8353 29.5168 16.8352 29.3998 16.8869C28.7043 17.0581 27.9939 17.1541 27.293 17.2973C26.9156 17.3744 26.5564 17.4887 26.2192 17.6721C26.097 17.7305 25.989 17.8084 25.8975 17.909C25.5831 18.1813 25.2626 18.4451 24.8811 18.6221C23.9292 18.7356 23.3476 19.2733 23.0923 20.1847C23.0822 20.2182 23.07 20.2508 23.058 20.2836C23.0052 20.4252 23.0339 20.5721 23.0293 20.717C23.0306 21.1052 23.0302 21.4931 23.031 21.8811C23.0308 22.0449 23.027 22.2086 23.0327 22.3723C23.0381 22.5148 23.0307 22.6564 23.0046 22.7967C22.9432 22.9699 22.9616 23.15 22.9606 23.3285C22.9596 23.696 22.9611 24.0634 22.9605 24.4307C22.9572 24.5677 22.9605 24.7046 22.9823 24.8405C22.9569 25.1041 22.9744 25.3704 22.934 25.633C22.8902 25.7685 22.8817 25.9087 22.8849 26.0498C22.8515 26.6991 22.5536 27.2349 22.1619 27.7305C21.9467 27.9082 21.7454 28.0994 21.5805 28.3265C21.1694 28.7557 20.6215 28.8897 20.0745 29.0259C19.9198 29.0426 19.7613 29.018 19.6099 29.0701C19.4553 29.1158 19.3005 29.1352 19.1452 29.0736C18.996 29.0164 18.8393 29.0398 18.6854 29.0317C18.1157 28.9399 17.6003 28.7314 17.1762 28.3271C17.0092 28.0941 16.799 27.903 16.5802 27.7201C16.1976 27.229 15.9475 26.6811 15.8706 26.059C15.8654 25.9273 15.8752 25.795 15.8504 25.6642C15.7851 25.3891 15.7905 25.1091 15.7912 24.8293C15.7992 24.7065 15.7949 24.5835 15.7952 24.4605C15.7965 24.086 15.7951 23.7114 15.7952 23.3371C15.7936 23.1571 15.8137 22.9755 15.752 22.8002C15.7211 22.6391 15.7204 22.4763 15.7221 22.3131C15.7306 22.1491 15.7252 21.9851 15.7254 21.821C15.7274 21.4338 15.7246 21.0463 15.7267 20.6594C15.723 20.5331 15.7459 20.4046 15.6992 20.2814C15.6859 20.2498 15.6744 20.2172 15.6635 20.1849C15.4195 19.2668 14.8178 18.7527 13.8861 18.6112C13.4979 18.4456 13.1708 18.19 12.86 17.9105C12.7702 17.8075 12.6579 17.7381 12.5306 17.6906C11.7906 17.2537 10.9431 17.2222 10.1323 17.0531C9.87268 16.999 9.60366 16.9907 9.35302 16.8939C9.23974 16.8353 9.1167 16.8341 8.99332 16.8332C8.92161 16.831 8.85082 16.8213 8.78101 16.8054C8.65938 16.7637 8.53352 16.7655 8.40708 16.7701C8.27344 16.7707 8.14004 16.768 8.00855 16.7413C7.83475 16.6387 7.561 16.8053 7.44922 16.5349C7.72445 15.9755 8.2322 15.7248 8.78979 15.5717C9.88394 15.2713 10.9976 15.3244 12.1095 15.4505C12.5124 15.4962 12.9119 15.5714 13.3128 15.6333C13.521 15.6865 13.7295 15.6778 13.9384 15.6374C16.0137 15.5241 17.7908 13.961 18.3243 11.7807C18.3462 11.6912 18.3755 11.6037 18.4014 11.5153C18.9636 11.4277 19.0059 11.4735 18.955 12.0318C18.898 12.6567 18.9364 13.2841 18.9313 13.9103C18.9255 14.6296 18.9238 15.349 18.931 16.0683C18.9537 18.3537 19.0774 20.6329 19.358 22.9023C19.3722 23.0174 19.3941 23.1319 19.3813 23.2019C19.4576 22.3839 19.5625 21.5217 19.628 20.6553C19.6946 19.7767 19.7184 18.896 19.7701 18.0172C19.8824 16.1036 19.7927 14.19 19.8251 12.2769C19.8267 12.1841 19.8176 12.0916 19.8089 11.9992C19.7579 11.467 19.8011 11.429 20.355 11.5153Z" fill="#FEB500"/>
<path fill-rule="evenodd" clip-rule="evenodd" d="M32.5467 18.6158C32.7001 18.8389 32.6613 19.1087 32.6732 19.3471C32.7108 20.0975 32.6925 20.8509 32.6898 21.603C32.6895 21.6799 32.6483 21.7565 32.626 21.8333C32.6502 22.0283 32.49 22.1136 32.385 22.2279C31.8049 22.8599 31.2655 23.5194 30.8916 24.301C30.7248 24.6495 30.6285 25.0176 30.5665 25.3936C30.5091 25.7435 30.5744 26.0822 30.7209 26.4075C30.848 26.6893 31.0265 26.8928 31.3621 26.8956C31.2984 27.3325 31.0171 27.6666 30.8083 28.0307C30.1949 29.1006 29.5861 30.1763 28.6828 31.043C28.4952 31.2229 28.2924 31.3669 28.022 31.3825C27.1624 30.7901 26.739 29.9183 26.493 28.9459C26.2237 27.8814 26.3317 26.8366 26.7139 25.8125C27.4367 23.8752 28.4285 22.0979 29.8494 20.5824C30.6217 19.7589 31.4703 19.028 32.5467 18.6158Z" fill="#703305"/>
<path fill-rule="evenodd" clip-rule="evenodd" d="M11.016 31.1804C10.803 31.1286 10.6594 30.9682 10.5083 30.8321C9.29422 29.7384 8.2808 28.4796 7.44723 27.0754C7.41891 27.0276 7.40964 26.9686 7.39142 26.9148C7.90463 26.7997 8.15594 26.4661 8.20264 25.8375C8.23783 25.3646 8.13987 24.915 7.95473 24.4831C7.58857 23.6285 7.02527 22.9117 6.38967 22.2445C6.27715 22.1264 6.09804 22.0392 6.13564 21.8263C6.08786 21.7324 6.06691 21.6352 6.06575 21.5278C6.05656 20.6163 6.07436 19.7056 6.13497 18.7958C6.13969 18.7247 6.14938 18.6581 6.21281 18.6131C7.24047 18.9918 8.06262 19.6745 8.79708 20.4508C10.4723 22.222 11.6983 24.2807 12.2827 26.6475C12.7006 28.3399 12.3075 29.9123 11.016 31.1804Z" fill="#703305"/>
<path fill-rule="evenodd" clip-rule="evenodd" d="M17.2174 28.2472C17.6266 28.6474 18.1301 28.8489 18.6843 28.9439C18.8355 29.0354 19.0154 28.9236 19.1672 29.0118C19.3082 29.0698 19.4493 29.0095 19.5902 29.0118C19.742 28.9237 19.9219 29.0354 20.0732 28.9439C20.5984 28.7881 21.1467 28.6809 21.54 28.2472C21.7528 28.0877 21.9393 27.902 22.0985 27.6885C22.4843 27.2192 22.7498 26.6975 22.7959 26.0807C22.8834 25.9544 22.7786 25.7967 22.863 25.6699C22.8906 25.3897 22.8018 25.0996 22.9328 24.8279C22.8694 24.7088 22.9131 24.5803 22.9001 24.4566C22.9001 24.0753 22.8999 23.6939 22.9001 23.3126C22.9156 23.1455 22.8641 22.974 22.9329 22.8103C22.9337 22.6695 22.9344 22.5287 22.9351 22.3879C23.0093 22.2154 22.9509 22.0342 22.9698 21.8578C22.9698 21.4606 22.9696 21.0635 22.9698 20.6663C22.983 20.5207 22.9401 20.3714 22.999 20.2289C23.0021 20.2039 23.0049 20.1789 23.0078 20.1539C23.2701 20.0954 23.5352 20.1386 23.7988 20.1339C24.4434 20.1222 24.7381 19.8425 24.786 19.1924C24.8017 18.9792 24.734 18.7514 24.8827 18.5578C25.2057 18.324 25.5288 18.0903 25.8519 17.8564C25.8814 17.8823 25.8967 17.9148 25.8984 17.9541C25.7306 18.3821 25.5836 18.8154 25.574 19.2825C25.5312 19.4879 25.5206 19.6997 25.454 19.9003C25.4425 20.5352 25.1905 21.0785 24.7604 21.5234C24.5338 21.7578 24.4437 22.0134 24.3947 22.3173C24.1496 23.84 23.8931 25.3608 23.6428 26.8827C23.5362 27.5311 23.2227 28.0563 22.7073 28.4597C22.1502 28.8958 21.6426 29.4078 21.0116 29.7339C19.8141 30.3526 18.6141 30.3185 17.4836 29.5653C16.9347 29.1996 16.432 28.7634 15.9189 28.3461C15.2396 27.7937 15.1171 26.9959 14.9919 26.1981C14.7811 24.8578 14.556 23.5197 14.3454 22.1793C14.3058 21.9269 14.1941 21.735 14.0198 21.5505C13.5849 21.0904 13.3178 20.5478 13.3038 19.9003C13.2377 19.7 13.2258 19.4894 13.1843 19.2844C13.1429 18.8238 13.0096 18.3857 12.8555 17.9527C12.8589 17.9135 12.8758 17.8814 12.9057 17.8561C13.2278 18.0891 13.5497 18.3222 13.8718 18.5553C13.9922 18.6903 13.9673 18.8574 13.9682 19.0163C13.9695 19.2255 13.9922 19.4282 14.0714 19.6251C14.2018 19.9494 14.438 20.1116 14.7852 20.1303C15.1066 20.1476 15.4296 20.0939 15.7497 20.1533C15.7528 20.1787 15.7558 20.2039 15.7588 20.2292C15.8147 20.349 15.7765 20.4761 15.7878 20.5994C15.7878 20.9951 15.7878 21.3909 15.7878 21.7863C15.8065 21.9632 15.7481 22.1454 15.8227 22.3187C15.8234 22.4825 15.8241 22.6464 15.8247 22.8102C15.8932 22.9713 15.842 23.1404 15.8575 23.305C15.8575 23.677 15.8576 24.0491 15.8576 24.421C15.8734 24.5557 15.8221 24.6963 15.8919 24.8268C15.8991 25.109 15.866 25.3947 15.9613 25.6697C15.9075 25.8067 15.9069 25.9437 15.9617 26.0806C16.0469 26.6801 16.2934 27.2099 16.6587 27.6881C16.818 27.9014 17.0042 28.0878 17.2174 28.2472Z" fill="#ECA407"/>
<path fill-rule="evenodd" clip-rule="evenodd" d="M25.5033 19.2587C25.4993 18.7847 25.5896 18.3359 25.8593 17.9353C25.9265 17.823 26.0226 17.7368 26.1174 17.6493C26.5175 17.3243 27.009 17.2553 27.491 17.1635C28.1338 17.041 28.7775 16.9238 29.4209 16.8043C29.5344 16.7447 29.669 16.8183 29.781 16.7476C29.8464 16.7433 29.9116 16.739 29.977 16.7347C30.0902 16.6743 30.2251 16.7499 30.3365 16.6777C30.4491 16.6734 30.5619 16.6691 30.6745 16.6649C30.8848 16.635 31.095 16.6081 31.3031 16.68C30.8681 17.023 30.4336 17.3668 29.9979 17.709C29.5414 18.0674 29.1129 18.4562 28.7129 18.877C27.8236 19.8126 26.7587 20.1042 25.5176 19.7406C25.4481 19.5819 25.475 19.4203 25.5033 19.2587Z" fill="#88440B"/>
<path fill-rule="evenodd" clip-rule="evenodd" d="M12.8981 17.9354C13.1388 18.3437 13.2335 18.7913 13.2542 19.2587C13.2825 19.4204 13.3094 19.5818 13.2398 19.7406C11.9985 20.1052 10.9336 19.8118 10.0448 18.8769C9.38752 18.1855 8.64578 17.5938 7.884 17.0246C7.73727 16.915 7.59783 16.7953 7.45508 16.6802C7.6394 16.61 7.82628 16.6323 8.01333 16.6652C8.14938 16.6693 8.28517 16.6735 8.42105 16.6777C8.53242 16.7499 8.66731 16.6742 8.7805 16.7347C8.84583 16.739 8.91124 16.7434 8.97658 16.7477C9.08844 16.8184 9.223 16.7447 9.3366 16.8044C10.0716 16.945 10.8053 17.093 11.5423 17.2233C11.9348 17.2926 12.2991 17.417 12.6239 17.6501C12.7316 17.7297 12.83 17.818 12.8981 17.9354Z" fill="#88440B"/>
<path fill-rule="evenodd" clip-rule="evenodd" d="M31.3025 16.68C31.0929 16.675 30.8833 16.67 30.6738 16.6649C30.8615 16.5087 31.1218 16.7044 31.3066 16.5343C31.3697 16.5848 31.3955 16.6341 31.3025 16.68Z" fill="#E2AD46"/>
<path fill-rule="evenodd" clip-rule="evenodd" d="M8.01312 16.6653C7.82706 16.6702 7.641 16.6752 7.45486 16.6802C7.36262 16.6353 7.38597 16.5858 7.44931 16.535C7.60979 16.6977 7.85008 16.5145 8.01312 16.6653Z" fill="#DFAA44"/>
<path fill-rule="evenodd" clip-rule="evenodd" d="M13.9391 15.6375C13.7299 15.7309 13.5213 15.7419 13.3135 15.6334C13.3274 15.6167 13.3447 15.6119 13.3652 15.6189C13.5565 15.625 13.7476 15.6311 13.9391 15.6375Z" fill="#F4BB3A"/>
<path fill-rule="evenodd" clip-rule="evenodd" d="M25.4438 15.6329C25.236 15.7428 25.0275 15.7296 24.8184 15.6372C25.0098 15.6311 25.2012 15.6248 25.3928 15.6186C25.413 15.6114 25.4301 15.6162 25.4438 15.6329Z" fill="#F4BC3D"/>
<path fill-rule="evenodd" clip-rule="evenodd" d="M25.5026 19.2587C25.5073 19.4193 25.512 19.58 25.5169 19.7406C25.4957 19.7938 25.4744 19.847 25.4533 19.9003C25.4546 19.6854 25.3888 19.4652 25.5026 19.2587Z" fill="#EBAF2E"/>
<path fill-rule="evenodd" clip-rule="evenodd" d="M13.2393 19.7406C13.2441 19.58 13.2487 19.4194 13.2536 19.2587C13.3674 19.4652 13.3014 19.6854 13.3029 19.9005C13.2817 19.8472 13.2605 19.7939 13.2393 19.7406Z" fill="#EBAF2E"/>
<path fill-rule="evenodd" clip-rule="evenodd" d="M20.3551 11.5153C19.8699 11.5169 19.8715 11.5167 19.9302 11.9893C19.9418 12.0809 19.9354 12.1749 19.9354 12.2677C19.9356 13.9519 19.9823 15.6377 19.9206 17.3195C19.8717 18.6557 19.8256 19.9947 19.676 21.3287C19.5891 22.1036 19.4917 22.878 19.4234 23.7119C19.2307 23.4599 19.2889 23.1997 19.2592 22.9799C19.1494 22.1693 19.0925 21.3511 19.019 20.5357C18.7735 17.8178 18.8278 15.095 18.8214 12.3728C18.821 12.2568 18.8141 12.1388 18.8317 12.0252C18.9099 11.5166 18.9128 11.517 18.4014 11.5153C18.3993 11.495 18.3989 11.4745 18.4001 11.4541C19.0522 11.4541 19.7044 11.4541 20.3564 11.4541C20.3576 11.4745 20.3572 11.495 20.3551 11.5153Z" fill="#ECA407"/>
<path fill-rule="evenodd" clip-rule="evenodd" d="M19.3172 28.1005C19.1165 27.3238 18.6172 26.7557 18.0256 26.2525C17.955 26.1925 17.8784 26.1396 17.8096 26.0778C17.6135 25.9018 17.4909 25.7015 17.6414 25.4369C17.7926 25.1712 18.0209 25.1166 18.2959 25.2215C19.0181 25.4967 19.7393 25.4967 20.4615 25.2215C20.7365 25.1166 20.965 25.1712 21.116 25.4369C21.2665 25.7015 21.1434 25.9011 20.9484 26.0782C20.7085 26.296 20.4564 26.5017 20.2298 26.7326C19.8511 27.1188 19.5765 27.5713 19.4403 28.1005C19.3993 28.1473 19.3583 28.1473 19.3172 28.1005Z" fill="#89440B"/>
<path fill-rule="evenodd" clip-rule="evenodd" d="M24.8826 18.5579C24.8769 18.8921 24.9237 19.2286 24.8185 19.5576C24.673 20.0127 24.4094 20.2339 23.9326 20.2451C23.623 20.2523 23.3068 20.2759 23.0078 20.1539C23.2407 19.3776 23.6895 18.8118 24.5091 18.6003C24.6334 18.5683 24.7554 18.5483 24.8826 18.5579Z" fill="#4D4D4D"/>
<path fill-rule="evenodd" clip-rule="evenodd" d="M15.749 20.1536C15.3663 20.2825 14.9708 20.2827 14.5832 20.2152C14.1836 20.1458 13.9115 19.7538 13.8768 19.2506C13.8609 19.0199 13.872 18.7874 13.8711 18.5556C14.6543 18.5835 15.3425 19.0735 15.6171 19.7988C15.6616 19.9169 15.7051 20.0354 15.749 20.1536Z" fill="#4D4D4D"/>
<path fill-rule="evenodd" clip-rule="evenodd" d="M23.0011 20.6493C23.0008 21.0664 23.0004 21.4835 23 21.9008C22.9794 21.934 22.9585 21.9341 22.9376 21.9009C22.9373 21.4838 22.9369 21.0668 22.9365 20.6496C22.9579 20.6171 22.9794 20.6153 23.0011 20.6493Z" fill="#F5BF42"/>
<path fill-rule="evenodd" clip-rule="evenodd" d="M15.756 21.8315C15.7559 21.4143 15.7559 20.9972 15.7559 20.5799C15.7776 20.5467 15.7992 20.5468 15.8205 20.5802C15.8205 20.9974 15.8204 21.4146 15.8204 21.8317C15.7988 21.8642 15.7773 21.8639 15.756 21.8315Z" fill="#F5BD3B"/>
<path fill-rule="evenodd" clip-rule="evenodd" d="M15.8263 24.4804C15.8263 24.0863 15.8262 23.6921 15.8262 23.298C15.8477 23.2652 15.8691 23.2655 15.8903 23.2982C15.8902 23.6924 15.8902 24.0865 15.8901 24.4807C15.8686 24.5141 15.8475 24.5123 15.8263 24.4804Z" fill="#F5BD3D"/>
<path fill-rule="evenodd" clip-rule="evenodd" d="M22.9312 23.2979C22.9311 23.692 22.9311 24.0862 22.931 24.4802C22.91 24.5129 22.8888 24.5129 22.8674 24.4805C22.8673 24.0864 22.8672 23.6923 22.8672 23.2982C22.8884 23.2644 22.9097 23.2659 22.9312 23.2979Z" fill="#F5BE3F"/>
<path fill-rule="evenodd" clip-rule="evenodd" d="M17.2171 28.2472C16.9487 28.1432 16.7633 27.956 16.6582 27.6884C16.8731 27.8461 17.0592 28.0325 17.2171 28.2472Z" fill="#F5B622"/>
<path fill-rule="evenodd" clip-rule="evenodd" d="M22.0985 27.6886C21.994 27.9565 21.8083 28.1431 21.54 28.2473C21.6977 28.0325 21.8839 27.8464 22.0985 27.6886Z" fill="#F5B622"/>
<path fill-rule="evenodd" clip-rule="evenodd" d="M19.3168 28.1005C19.3579 28.1005 19.3989 28.1005 19.4399 28.1005C19.4268 28.1855 19.505 28.3318 19.3621 28.3309C19.2807 28.3305 19.3162 28.1843 19.3168 28.1005Z" fill="#BE7706"/>
<path fill-rule="evenodd" clip-rule="evenodd" d="M15.8902 23.2983L15.8581 23.2975L15.826 23.2981C15.8254 23.1355 15.8248 22.9731 15.8242 22.8105C15.9543 22.9585 15.8697 23.1355 15.8902 23.2983Z" fill="#FBBD26"/>
<path fill-rule="evenodd" clip-rule="evenodd" d="M22.9309 23.2979L22.8989 23.2973L22.8668 23.2982C22.8871 23.1353 22.8028 22.9582 22.9326 22.8102C22.9321 22.9728 22.9314 23.1353 22.9309 23.2979Z" fill="#FBBE29"/>
<path fill-rule="evenodd" clip-rule="evenodd" d="M12.8983 17.9354C12.8069 17.8403 12.7154 17.7452 12.624 17.6501C12.7617 17.6592 12.8343 17.7568 12.9056 17.8565C12.9033 17.8828 12.9008 17.9092 12.8983 17.9354Z" fill="#F6C040"/>
<path fill-rule="evenodd" clip-rule="evenodd" d="M26.1169 17.6494C26.0641 17.7746 25.9595 17.8531 25.8589 17.9354C25.8565 17.9092 25.854 17.8829 25.8516 17.8565C25.9193 17.7611 25.9892 17.6681 26.1169 17.6494Z" fill="#F6C040"/>
<path fill-rule="evenodd" clip-rule="evenodd" d="M20.0728 28.944C19.9274 29.0779 19.7502 28.9856 19.5898 29.0119C19.7354 28.879 19.9121 28.9689 20.0728 28.944Z" fill="#F5BD3D"/>
<path fill-rule="evenodd" clip-rule="evenodd" d="M15.7562 21.8315C15.7777 21.8323 15.7992 21.8324 15.8206 21.8317C15.8211 21.9942 15.8218 22.1566 15.8223 22.319C15.6921 22.1712 15.7773 21.9942 15.7562 21.8315Z" fill="#F0B32D"/>
<path fill-rule="evenodd" clip-rule="evenodd" d="M22.937 21.901C22.9578 21.9018 22.9787 21.9017 22.9995 21.9008C22.9801 22.0634 23.0637 22.2399 22.9346 22.388C22.9353 22.2256 22.9361 22.0633 22.937 21.901Z" fill="#F0B431"/>
<path fill-rule="evenodd" clip-rule="evenodd" d="M19.1665 29.0119C19.006 28.9857 18.8288 29.0779 18.6836 28.944C18.8442 28.9689 19.021 28.879 19.1665 29.0119Z" fill="#F5BD3D"/>
<path fill-rule="evenodd" clip-rule="evenodd" d="M23.0003 20.6493L22.968 20.6486L22.9357 20.6497C22.9507 20.5086 22.8813 20.3549 22.9983 20.229C22.9991 20.3691 22.9996 20.5092 23.0003 20.6493Z" fill="#FBBD26"/>
<path fill-rule="evenodd" clip-rule="evenodd" d="M22.8627 25.67C22.8432 25.8075 22.9202 25.9607 22.7956 26.0809C22.8171 25.9438 22.7348 25.7897 22.8627 25.67Z" fill="#F4BB3A"/>
<path fill-rule="evenodd" clip-rule="evenodd" d="M15.9615 26.0809C15.8584 25.944 15.855 25.8071 15.9611 25.67C15.9612 25.8069 15.9614 25.944 15.9615 26.0809Z" fill="#F4BB3A"/>
<path fill-rule="evenodd" clip-rule="evenodd" d="M29.7811 16.7477C29.6726 16.8402 29.545 16.8113 29.4209 16.8044C29.5276 16.7003 29.6593 16.756 29.7811 16.7477Z" fill="#F1B835"/>
<path fill-rule="evenodd" clip-rule="evenodd" d="M15.8207 20.5802L15.7883 20.5792L15.7559 20.5798C15.7567 20.4631 15.7574 20.3463 15.7581 20.2296C15.8664 20.331 15.8097 20.4617 15.8207 20.5802Z" fill="#FBBA1C"/>
<path fill-rule="evenodd" clip-rule="evenodd" d="M15.8261 24.4804C15.8475 24.4812 15.8688 24.4813 15.89 24.4807C15.8905 24.5962 15.891 24.7117 15.8915 24.8272C15.7764 24.7291 15.8385 24.5977 15.8261 24.4804Z" fill="#F0B430"/>
<path fill-rule="evenodd" clip-rule="evenodd" d="M22.8675 24.4805C22.8888 24.4812 22.9101 24.4812 22.9313 24.4803C22.9319 24.5962 22.9325 24.7122 22.9331 24.828C22.8172 24.7299 22.8795 24.5982 22.8675 24.4805Z" fill="#F0B42F"/>
<path fill-rule="evenodd" clip-rule="evenodd" d="M9.33642 16.8044C9.21238 16.8113 9.08503 16.8404 8.97656 16.7477C9.09812 16.756 9.22986 16.7003 9.33642 16.8044Z" fill="#F1B835"/>
<path fill-rule="evenodd" clip-rule="evenodd" d="M30.336 16.6778C30.228 16.7709 30.1004 16.7413 29.9766 16.7348C30.083 16.6314 30.2145 16.6861 30.336 16.6778Z" fill="#F1B736"/>
<path fill-rule="evenodd" clip-rule="evenodd" d="M8.78026 16.7347C8.65647 16.7412 8.52896 16.771 8.4209 16.6777C8.54229 16.6861 8.67386 16.6314 8.78026 16.7347Z" fill="#F1B736"/>
</svg>
