<svg width="38" height="38" viewBox="0 0 38 38" fill="none" xmlns="http://www.w3.org/2000/svg">
<path fill-rule="evenodd" clip-rule="evenodd" d="M15.5275 2.43086C15.8727 2.43086 16.2179 2.43086 16.5631 2.43086C16.6926 2.48207 16.822 2.48207 16.9514 2.43086C16.973 2.43086 16.9946 2.43086 17.0161 2.43086C17.1133 2.49871 17.2271 2.46663 17.3298 2.46903C17.9511 2.48369 18.3889 2.85699 18.8205 3.23079C19.0276 3.41003 19.2035 3.45607 19.4054 3.24608C19.4349 3.21549 19.3987 3.25472 19.4304 3.22583C20.3677 2.36981 21.4569 2.38865 22.5865 2.69198C24.374 3.172 26.0138 3.96506 27.5209 5.03998C29.0544 6.13381 30.2791 7.5015 31.2157 9.13251C32.3188 11.0534 32.9827 13.1253 33.3381 15.3022C33.5204 16.4196 33.5827 17.5448 33.6133 18.6779C33.6845 21.3223 33.2986 23.8948 32.4838 26.4014C31.874 28.2773 31.0372 30.0524 29.8009 31.6047C28.3229 33.4607 26.4544 34.756 24.142 35.368C23.6399 35.5009 23.1182 35.483 22.6055 35.5364C22.5532 35.5419 22.4975 35.5279 22.4531 35.5692C22.2804 35.5692 22.1078 35.5692 21.9352 35.5692C21.5253 35.5156 21.1154 35.5156 20.7055 35.5692C20.5977 35.5692 20.4897 35.5692 20.3819 35.5692C20.3162 35.5139 20.2373 35.5475 20.1652 35.5362C20.0989 35.5259 19.997 35.5735 19.9884 35.457C19.9822 35.3752 20.0489 35.3241 20.1145 35.2833C20.1708 35.2483 20.2362 35.2434 20.2992 35.2302C21.476 34.9834 22.5522 34.5259 23.4771 33.7385C24.3211 33.0199 24.8799 32.1166 25.2101 31.0708C25.5071 30.1302 25.604 29.1558 25.5994 28.1744C25.5979 27.825 25.5932 27.4713 25.5383 27.1232C25.4713 26.6101 25.3772 26.1033 25.238 25.6037C24.7937 24.0076 23.769 22.9061 22.3285 22.1491C21.1042 21.5057 19.7968 21.0569 18.5281 20.5176C16.0919 19.4821 14.5148 17.7245 13.9415 15.1068C13.6192 13.6344 13.7656 12.2011 14.2125 10.7767C14.7913 8.93329 15.6962 7.26879 16.9043 5.76724C17.2722 5.31009 17.7165 4.92178 18.0521 4.56966C17.1464 5.48679 16.1524 6.45944 15.3712 7.61864C14.2957 9.21438 13.5518 10.9399 13.3354 12.8692C13.3282 12.9335 13.3161 12.9966 13.3044 13.0603C13.1971 13.6561 13.1976 13.6444 12.5943 13.6503C10.5761 13.67 9.17274 15.1311 8.87444 16.957C8.70617 17.9871 8.95922 18.9684 9.15879 19.9595C9.21113 20.2197 9.34604 20.469 9.27529 20.7478C9.09449 21.0444 8.78861 21.2283 8.59435 21.5168C8.15639 22.1671 7.92877 22.8481 8.24676 23.6165C8.38861 23.9594 8.6418 24.2337 8.88075 24.5084C9.33768 25.0334 9.7153 25.6377 10.3409 26.0006C10.4782 26.0803 10.6482 26.1143 10.7443 26.2598C11.0062 26.7609 11.1714 27.3053 11.476 27.7903C11.9186 28.495 12.5566 28.9303 13.3059 29.2343C13.3649 29.2583 13.4332 29.2409 13.4976 29.2348C14.3952 29.3792 15.0853 28.9912 15.4317 28.1531C15.4978 27.9931 15.508 27.755 15.7519 27.7675C15.9779 27.779 16.0609 27.988 16.1302 28.1658C16.6201 29.4234 16.492 30.6056 15.6796 31.6988C15.1573 32.4955 14.3646 32.8605 13.4737 33.0328C11.7962 33.3573 10.1463 33.2537 8.55646 32.5947C6.79811 31.8657 5.53183 30.6332 4.85599 28.8389C4.58928 28.1307 4.48361 27.3792 4.3839 26.631C4.07575 24.3191 3.97816 21.9942 4.0618 19.667C4.16648 16.7545 4.59154 13.8942 5.77298 11.1978C6.83876 8.76495 8.24867 6.55838 10.2397 4.77093C11.2991 3.81995 12.4993 3.081 13.8749 2.66018C14.3634 2.51075 14.8715 2.50352 15.3748 2.46365C15.4273 2.4594 15.4828 2.47088 15.5275 2.43086Z" fill="#4CA8BE"/>
<path fill-rule="evenodd" clip-rule="evenodd" d="M20.7051 35.5692C21.1149 35.4584 21.5249 35.4716 21.9347 35.5692C21.5249 35.5692 21.1149 35.5692 20.7051 35.5692Z" fill="#72BBCC"/>
<path fill-rule="evenodd" clip-rule="evenodd" d="M16.9518 2.43086C16.8223 2.53235 16.6929 2.50841 16.5635 2.43086C16.6929 2.43086 16.8223 2.43086 16.9518 2.43086Z" fill="#75BCCD"/>
<path fill-rule="evenodd" clip-rule="evenodd" d="M25.6704 27.087C25.2535 27.6887 24.889 28.3246 24.4486 28.9113C23.513 30.1576 22.506 31.3313 21.173 32.1766C19.4658 33.2592 17.8591 33.208 16.2076 32.0284C16.0063 31.8845 15.8031 31.7431 15.6008 31.6005C16.0763 30.8687 16.3541 30.0851 16.2486 29.1955C16.1895 28.6974 16.0382 28.2361 15.7284 27.7674C15.3841 28.9294 14.718 29.5843 13.463 29.3671C13.075 29.1612 12.8684 28.7882 12.6395 28.4447C12.1716 27.7421 11.699 27.0406 11.3412 26.2713C10.8856 25.5722 10.5762 24.8004 10.2396 24.0428C9.84983 23.1658 9.51832 22.2658 9.23539 21.3484C9.17469 21.1516 9.11138 20.9569 9.18425 20.7496C9.0436 20.0767 8.88695 19.4067 8.76535 18.7302C8.53405 17.4416 8.67257 16.2124 9.45592 15.1188C10.2823 13.9653 11.4215 13.4479 12.8313 13.5333C13.0387 13.5459 13.1161 13.5073 13.1344 13.29C13.3934 10.2384 14.785 7.73323 16.8741 5.56625C17.2866 5.13834 17.7382 4.754 18.1888 4.36845C18.2901 4.28169 18.3818 4.17143 18.615 4.12079C18.0977 4.6222 17.6653 5.09309 17.2539 5.5819C15.6206 7.52275 14.4555 9.70772 14.0247 12.2192C13.4537 15.5472 15.0591 18.8176 18.2459 20.2278C19.3284 20.7069 20.4345 21.1321 21.5253 21.5926C22.323 21.9294 23.0748 22.3492 23.7321 22.9202C24.8644 23.9035 25.4036 25.1902 25.6186 26.6396C25.6408 26.7882 25.6536 26.9379 25.6704 27.087Z" fill="#F6CB77"/>
<path fill-rule="evenodd" clip-rule="evenodd" d="M9.18483 20.7496C9.31146 20.9084 9.31656 21.1106 9.37527 21.293C9.90586 22.9435 10.5494 24.5461 11.3864 26.0675C11.417 26.1228 11.4294 26.1882 11.4501 26.2489C11.2483 26.505 11.0153 26.5266 10.6774 26.3206C10.1645 26.1383 9.77088 25.7953 9.42676 25.3878C9.11486 25.0182 8.81529 24.6375 8.49397 24.2761C7.68166 23.3621 7.8614 22.3077 8.46727 21.4352C8.65885 21.1595 8.9002 20.9306 9.18483 20.7496Z" fill="#E9B863"/>
<path fill-rule="evenodd" clip-rule="evenodd" d="M18.6563 4.06328C18.6407 3.96923 18.7192 3.91413 18.7546 3.92631C18.8766 3.96845 18.7572 4.00584 18.7354 4.03941C18.7246 4.05627 18.6857 4.05521 18.6563 4.06328Z" fill="#B3BD93"/>
<path fill-rule="evenodd" clip-rule="evenodd" d="M18.7969 26.9472C19.0285 26.4847 19.3105 26.3114 19.6759 26.3997C19.9961 26.4771 20.2007 26.7158 20.2272 27.1087C20.2524 27.4832 20.2653 27.8608 20.1992 28.2351C20.0774 28.9228 19.4855 29.4219 18.792 29.4189C18.0971 29.416 17.5085 28.9107 17.3984 28.22C17.3372 27.8353 17.3338 27.4475 17.3807 27.0624C17.429 26.6676 17.6627 26.4265 18.002 26.3852C18.3261 26.3458 18.59 26.5145 18.7564 26.8673C18.7683 26.8921 18.7813 26.9164 18.7969 26.9472Z" fill="#F15B20"/>
<path fill-rule="evenodd" clip-rule="evenodd" d="M11.3772 19.8425C12.4407 19.0611 13.751 19.0559 14.823 19.8288C14.8932 20.0023 14.9536 20.1785 14.974 20.366C14.9186 20.9399 14.6551 21.3682 14.1065 21.595C13.573 21.9068 13.0073 21.9273 12.4248 21.7752C12.3782 21.7631 12.3414 21.7141 12.3002 21.6823C12.1807 21.6603 12.0764 21.6056 11.9799 21.5339C11.6512 21.3303 11.3998 21.0722 11.2968 20.6806C11.2191 20.3848 11.2262 20.11 11.3772 19.8425Z" fill="#4D4D4D"/>
<path fill-rule="evenodd" clip-rule="evenodd" d="M11.3769 19.8425C11.3064 20.5163 11.5195 21.0794 12.0342 21.5248C12.0483 21.5848 12.0327 21.6148 11.9654 21.5921C11.5308 21.4087 11.1715 21.1281 10.8667 20.7683C10.733 20.6107 10.7101 20.4889 10.8609 20.3256C11.0221 20.1512 11.1829 19.9802 11.3769 19.8425Z" fill="#FDFCFC"/>
<path fill-rule="evenodd" clip-rule="evenodd" d="M14.1064 21.595C14.4609 21.2763 14.759 20.9228 14.8307 20.4287C14.888 20.2538 14.7956 20.0637 14.8854 19.8921C15.6985 20.5586 15.6149 20.5431 14.9707 21.1427C14.7279 21.3686 14.4609 21.5715 14.1064 21.595Z" fill="#FDFDFC"/>
<path fill-rule="evenodd" clip-rule="evenodd" d="M14.8856 19.8921C14.8739 20.0717 14.9371 20.2588 14.831 20.4287C14.8286 20.2288 14.8259 20.0289 14.8232 19.8289C14.8439 19.8499 14.8648 19.8711 14.8856 19.8921Z" fill="#BBBBBA"/>
<path fill-rule="evenodd" clip-rule="evenodd" d="M11.9658 21.5921C11.9887 21.5697 12.0116 21.5472 12.0346 21.5248C12.123 21.5772 12.2116 21.6297 12.3002 21.6822C12.1749 21.7039 12.0656 21.666 11.9658 21.5921Z" fill="#F4ECDD"/>
</svg>
