<svg width="20" height="20" viewBox="0 0 20 20" fill="none" xmlns="http://www.w3.org/2000/svg">
<g clip-path="url(#clip0_4369_2769)">
<path fill-rule="evenodd" clip-rule="evenodd" d="M1.18159 5.45456C2.2725 2.54547 4.99977 0.63638 8.54523 0.545471C10.9089 0.63638 13.2725 1.72729 14.6361 4.27274C15.9998 6.72729 15.9089 9.36365 14.4543 11.7273C13.9089 12.5455 14.0907 13 14.727 13.5455C16.1816 14.9091 17.5452 16.3637 18.9998 17.8182C19.3634 18.1818 19.9089 18.4546 19.2725 19.0909C18.727 19.7273 18.2725 19.0909 17.9998 18.8182C16.5452 17.4546 15.1816 16.0909 13.818 14.6364C13.0907 13.9091 12.727 13.7273 11.818 14.3637C9.18159 16 5.72705 15.7273 3.36341 13.6364C0.999773 11.6364 0.181589 8.36365 1.18159 5.45456ZM8.18159 13.7273C11.2725 13.7273 13.818 11.3637 13.9089 8.00002C13.9089 4.8182 11.3634 2.27274 8.18159 2.27274C5.09068 2.27274 2.54523 4.8182 2.45432 8.00002C2.36341 11.0909 4.99977 13.7273 8.18159 13.7273Z" fill="#5B0400"/>
<path fill-rule="evenodd" clip-rule="evenodd" d="M11.0903 7.27277C10.7266 7.36368 10.4539 7.54549 10.4539 8.00004C10.4539 8.45458 10.7266 8.72731 11.1812 8.72731C11.6357 8.6364 11.9085 8.36368 11.8175 7.90913C11.7266 7.45458 11.4539 7.27277 11.0903 7.27277Z" fill="#5B0400"/>
<path fill-rule="evenodd" clip-rule="evenodd" d="M7.99936 8.72731C8.54482 8.6364 8.81754 8.45458 8.81754 8.00004C8.90845 7.54549 8.63572 7.27277 8.18118 7.27277C7.72663 7.27277 7.45391 7.54549 7.45391 8.00004C7.363 8.45458 7.72663 8.6364 7.99936 8.72731Z" fill="#5B0400"/>
<path fill-rule="evenodd" clip-rule="evenodd" d="M4.45463 8C4.54554 8.45455 4.81827 8.72727 5.27282 8.63636C5.63645 8.54546 5.90918 8.27273 5.90918 7.90909C5.81827 7.45455 5.54554 7.18182 5.091 7.27273C4.63645 7.27273 4.45463 7.63636 4.45463 8Z" fill="#5B0400"/>
</g>
<defs>
<clipPath id="clip0_4369_2769">
<rect width="20" height="20" fill="white" transform="matrix(-1 0 0 1 20 0)"/>
</clipPath>
</defs>
</svg>
