<svg width="20" height="20" viewBox="0 0 20 20" fill="none" xmlns="http://www.w3.org/2000/svg">
    <path d="M14.134 13.453c-.959 0-1.822.414-2.421 1.072l-5.39-3.338a3.256 3.256 0 0 0 0-2.374l5.39-3.338a3.266 3.266 0 0 0 2.42 1.072 3.277 3.277 0 0 0 3.274-3.274A3.277 3.277 0 0 0 14.134 0a3.277 3.277 0 0 0-3.05 4.46L5.694 7.8a3.266 3.266 0 0 0-2.42-1.073A3.277 3.277 0 0 0 0 10a3.277 3.277 0 0 0 3.274 3.274c.958 0 1.821-.414 2.42-1.073l5.39 3.338a3.277 3.277 0 0 0 3.05 4.46 3.277 3.277 0 0 0 3.273-3.273 3.277 3.277 0 0 0-3.273-3.273zm-2.08-10.18c0-1.146.933-2.08 2.08-2.08s2.08.934 2.08 2.08c0 1.147-.933 2.08-2.08 2.08a2.082 2.082 0 0 1-2.08-2.08zm-8.78 8.807A2.082 2.082 0 0 1 1.194 10c0-1.147.933-2.08 2.08-2.08 1.146 0 2.08.933 2.08 2.08s-.934 2.08-2.08 2.08zm8.78 4.646c0-1.146.933-2.08 2.08-2.08s2.08.933 2.08 2.08-.933 2.08-2.08 2.08a2.082 2.082 0 0 1-2.08-2.08z" fill="#000"/>
</svg>
