<svg width="40" height="40" viewBox="0 0 40 40" fill="none" xmlns="http://www.w3.org/2000/svg">
<path fill-rule="evenodd" clip-rule="evenodd" d="M27.2221 23.5043C26.1814 22.2718 24.9263 21.3986 23.3398 20.8994C22.6395 20.6784 22.196 20.8082 21.7067 21.319C20.2995 22.791 19.7055 22.7725 18.2409 21.2966C17.9325 20.9844 17.6559 20.7016 17.1306 20.7619C14.456 21.0617 12.0129 23.6805 12.0317 26.1825C12.0383 27.0712 12.3966 27.4367 13.34 27.4251C15.5434 27.3965 17.7492 27.4143 19.9534 27.4143C22.1944 27.4143 24.4345 27.4089 26.6755 27.4205C27.2851 27.4235 27.8447 27.3177 27.9077 26.664C28.0108 25.5613 28.037 24.4733 27.2221 23.5043ZM25.3845 25.7599C23.5853 25.7166 21.7828 25.7467 19.9804 25.7467C18.1419 25.7467 16.3035 25.7181 14.4658 25.7599C13.6828 25.7776 13.6689 25.3944 13.9062 24.9385C14.5051 23.7832 15.5785 23.1326 16.8034 22.6713C17.138 22.5461 17.2411 22.8312 17.4178 22.9881C19.0926 24.4756 20.8722 24.4717 22.5724 22.9711C22.7867 22.7833 22.9103 22.5592 23.2989 22.7145C24.4084 23.162 25.3738 23.7624 25.9817 24.7715C26.3475 25.3797 26.3475 25.7807 25.3845 25.7599Z" fill="#870E00"/>
<path fill-rule="evenodd" clip-rule="evenodd" d="M20.036 11.5757C17.9578 11.5517 16.4671 13.0879 16.4581 15.257C16.4777 15.7059 16.4425 16.1525 16.5833 16.5992C17.0979 18.2242 18.7318 19.2744 20.4434 19.0565C22.3114 18.8185 23.5223 17.3619 23.5223 15.3404C23.5255 13.1335 22.1027 11.5989 20.036 11.5757ZM20.0229 17.4044C18.8799 17.4245 18.218 16.6409 18.2254 15.2778C18.2319 13.9858 18.8946 13.2332 20.0114 13.2455C21.1209 13.2595 21.7558 14.0129 21.7574 15.3188C21.7583 16.6293 21.1299 17.3835 20.0229 17.4044Z" fill="#870E00"/>
</svg>
