<svg width="321" height="104" viewBox="0 0 321 104" fill="none" xmlns="http://www.w3.org/2000/svg">
<path d="M40.2711 103.165H3.59612C2.61212 103.165 1.65912 102.756 0.982118 102.041C0.299118 101.321 -0.0468874 100.381 0.00511255 99.394C0.0321126 98.871 0.115123 98.343 0.250123 97.825C1.00612 94.915 3.39611 92.694 6.33711 92.169C7.94111 91.882 9.56712 92.092 11.0001 92.757C12.2201 87.11 17.2151 83 23.1231 83C28.9581 83 33.8861 86.963 35.1881 92.556C35.8741 92.43 36.5681 92.401 37.2781 92.477C40.8671 92.858 43.6971 95.861 43.8601 99.462C43.8951 100.478 43.5491 101.371 42.8871 102.056C42.2061 102.761 41.2521 103.165 40.2711 103.165ZM7.75212 93.832C7.38912 93.832 7.01812 93.865 6.65212 93.931C4.43112 94.328 2.55412 96.073 1.98212 98.275C1.87812 98.677 1.81412 99.085 1.79212 99.488C1.76612 99.98 1.93912 100.449 2.28012 100.809C2.62612 101.173 3.09312 101.374 3.59612 101.374H40.2711C40.7701 101.374 41.2541 101.169 41.6001 100.811C41.9221 100.478 42.0901 100.049 42.0751 99.603C41.9511 96.861 39.7621 94.539 37.0901 94.256C36.2951 94.172 35.5201 94.258 34.7671 94.505L33.7631 94.834L33.6031 93.79C32.8041 88.574 28.3961 84.789 23.1211 84.789C17.6791 84.789 13.1411 88.865 12.5661 94.27L12.4061 95.777L11.1641 94.908C10.1571 94.204 8.97712 93.832 7.75212 93.832Z" fill="#8F999E"/>
<path d="M315.688 46.507H285.471C284.27 46.507 283.096 46.021 282.25 45.173C281.442 44.362 280.998 43.301 281 42.183C281.002 41.651 281.052 41.116 281.149 40.592C281.753 37.326 284.224 34.651 287.446 33.779C288.891 33.388 290.376 33.37 291.81 33.726C293.809 29.614 297.946 27 302.565 27C307.905 27 312.631 30.616 314.075 35.699C317.467 35.924 320.157 38.755 320.157 42.203C320.14 44.597 318.136 46.507 315.688 46.507ZM289.734 35.261C289.128 35.261 288.517 35.344 287.914 35.507C285.353 36.2 283.388 38.324 282.909 40.918C282.831 41.338 282.791 41.766 282.789 42.189C282.787 42.827 283.046 43.438 283.516 43.909C284.028 44.423 284.74 44.717 285.47 44.717H315.687C317.13 44.717 318.356 43.581 318.366 42.236C318.366 39.596 316.245 37.475 313.638 37.475C313.556 37.489 313.488 37.497 313.419 37.5L312.665 37.534L312.504 36.796C311.496 32.157 307.315 28.79 302.564 28.79C298.404 28.79 294.703 31.284 293.136 35.144L292.815 35.932L292.012 35.652C291.267 35.393 290.501 35.261 289.734 35.261Z" fill="#8F999E"/>
<path d="M258.592 16.21H258.511C258.511 14.028 256.742 12.259 254.561 12.259V12.178C256.743 12.178 258.511 10.409 258.511 8.22803H258.592C258.592 10.41 260.361 12.178 262.542 12.178V12.259C260.361 12.259 258.592 14.028 258.592 16.21Z" fill="#CCCCCC"/>
<path d="M103.03 33.3079H102.948C102.948 31.1259 101.179 29.3579 98.998 29.3579V29.2759C101.18 29.2759 102.948 27.5069 102.948 25.3259H103.03C103.03 27.5079 104.799 29.2759 106.981 29.2759V29.3569C104.799 29.3569 103.03 31.1259 103.03 33.3079Z" fill="#CCCCCC"/>
<path d="M191.399 16.455H191.231C191.231 11.958 187.585 8.311 183.088 8.311V8.14301C187.585 8.14301 191.231 4.497 191.231 0H191.399C191.399 4.497 195.045 8.14301 199.542 8.14301V8.311C195.044 8.311 191.399 11.957 191.399 16.455Z" fill="#CCCCCC"/>
<path d="M280.988 55.6881H280.866C280.866 52.4131 278.211 49.7581 274.936 49.7581V49.6361C278.211 49.6361 280.866 46.9811 280.866 43.7061H280.988C280.988 46.9811 283.643 49.6361 286.918 49.6361V49.7581C283.643 49.7581 280.988 52.4131 280.988 55.6881Z" fill="#CCCCCC"/>
<path d="M50.052 73.8231H49.93C49.93 70.5481 47.275 67.8931 44 67.8931V67.7711C47.275 67.7711 49.93 65.1161 49.93 61.8411H50.052C50.052 65.1161 52.707 67.7711 55.982 67.7711V67.8931C52.706 67.8931 50.052 70.5481 50.052 73.8231Z" fill="#CCCCCC"/>
</svg>
