<svg width="24" height="25" viewBox="0 0 24 25" fill="none" xmlns="http://www.w3.org/2000/svg">
<g clip-path="url(#clip0_3121_1193)">
<path d="M6.0252 5.57243C6.87276 5.61241 7.65318 5.64439 8.4336 5.69236C9.11332 5.73233 9.65877 6.12408 9.84339 6.70771C10.028 7.29133 9.81821 7.91493 9.30632 8.2827C9.03779 8.47458 8.73569 8.57851 8.40003 8.57051C6.49513 8.48257 4.59863 8.40262 2.69374 8.29069C1.70353 8.23473 1.17485 7.58714 1.2336 6.63575C1.33429 4.90086 1.41821 3.17397 1.51052 1.43908C1.56087 0.65558 2.14828 0.0559637 2.93709 -4.67058e-07C3.66716 -0.0479698 4.36367 0.447713 4.50632 1.15126C4.57346 1.47905 4.52311 1.80684 4.50632 2.13463C4.48954 2.43044 4.47276 2.72625 4.45597 3.07803C4.95108 2.8062 5.39583 2.54237 5.86576 2.31052C11.1273 -0.223857 17.7063 1.19124 21.3315 5.65238C26.2574 11.7125 24.1427 20.4429 16.9343 23.8008C10.7581 26.6789 3.22241 24.2085 0.193036 18.3163C-0.209761 17.5328 0.0587703 16.6933 0.822407 16.3256C1.60283 15.9498 2.46716 16.2376 2.87835 17.0211C4.05318 19.2357 5.85737 20.7867 8.31611 21.6182C13.8714 23.489 19.9133 20.0672 20.8616 14.5267C21.7259 9.44995 18.1007 4.74096 12.7553 4.02143C10.4476 3.70163 7.77066 4.30924 6.0252 5.57243Z" fill="white"/>
<path d="M11.1001 18.0994C10.6551 18.0994 10.255 18.0142 9.89986 17.8438C9.54711 17.6709 9.26539 17.4342 9.05469 17.1335C8.84399 16.8329 8.73153 16.4896 8.71733 16.1037H9.78267C9.80871 16.4162 9.94721 16.6731 10.1982 16.8743C10.4491 17.0755 10.7498 17.1761 11.1001 17.1761C11.3795 17.1761 11.6269 17.1122 11.8423 16.9844C12.0601 16.8542 12.2306 16.6754 12.3537 16.4482C12.4792 16.2209 12.5419 15.9616 12.5419 15.6705C12.5419 15.3745 12.478 15.1106 12.3501 14.8786C12.2223 14.6465 12.0459 14.4643 11.821 14.3317C11.5985 14.1991 11.3428 14.1316 11.054 14.1293C10.8338 14.1293 10.6125 14.1671 10.3899 14.2429C10.1674 14.3187 9.98745 14.4181 9.85014 14.5412L8.84517 14.392L9.25355 10.7273H13.2521V11.6683H10.1662L9.93537 13.7031H9.97798C10.12 13.5658 10.3082 13.451 10.5426 13.3587C10.7794 13.2663 11.0327 13.2202 11.3026 13.2202C11.7453 13.2202 12.1394 13.3255 12.4851 13.5362C12.8331 13.7469 13.1065 14.0346 13.3054 14.3991C13.5066 14.7614 13.6061 15.178 13.6037 15.6491C13.6061 16.1203 13.4995 16.5405 13.2841 16.9098C13.071 17.2791 12.7751 17.5703 12.3963 17.7834C12.0199 17.9941 11.5878 18.0994 11.1001 18.0994Z" fill="white"/>
</g>
<defs>
<clipPath id="clip0_3121_1193">
<rect width="24" height="25" fill="white"/>
</clipPath>
</defs>
</svg>
