<svg width="24" height="25" viewBox="0 0 24 25" fill="none" xmlns="http://www.w3.org/2000/svg">
<path d="M11.1001 18.0994C10.6551 18.0994 10.255 18.0142 9.89986 17.8438C9.54711 17.6709 9.26539 17.4342 9.05469 17.1335C8.84399 16.8329 8.73153 16.4896 8.71733 16.1037H9.78267C9.80871 16.4162 9.94721 16.6731 10.1982 16.8743C10.4491 17.0755 10.7498 17.1761 11.1001 17.1761C11.3795 17.1761 11.6269 17.1122 11.8423 16.9844C12.0601 16.8542 12.2306 16.6754 12.3537 16.4482C12.4792 16.2209 12.5419 15.9616 12.5419 15.6705C12.5419 15.3745 12.478 15.1106 12.3501 14.8786C12.2223 14.6465 12.0459 14.4643 11.821 14.3317C11.5985 14.1991 11.3428 14.1316 11.054 14.1293C10.8338 14.1293 10.6125 14.1671 10.3899 14.2429C10.1674 14.3187 9.98745 14.4181 9.85014 14.5412L8.84517 14.392L9.25355 10.7273H13.2521V11.6683H10.1662L9.93537 13.7031H9.97798C10.12 13.5658 10.3082 13.451 10.5426 13.3587C10.7794 13.2663 11.0327 13.2202 11.3026 13.2202C11.7453 13.2202 12.1394 13.3255 12.4851 13.5362C12.8331 13.7469 13.1065 14.0346 13.3054 14.3991C13.5066 14.7614 13.6061 15.178 13.6037 15.6491C13.6061 16.1203 13.4995 16.5405 13.2841 16.9098C13.071 17.2791 12.7751 17.5703 12.3963 17.7834C12.0199 17.9941 11.5878 18.0994 11.1001 18.0994Z" fill="white"/>
<path d="M17.9814 5.57427C17.1338 5.61424 16.3534 5.64621 15.573 5.69417C14.8932 5.73413 14.3478 6.12579 14.1632 6.70927C13.9785 7.29275 14.1883 7.9162 14.7002 8.28388C14.9688 8.47571 15.2709 8.57961 15.6065 8.57162C17.5115 8.4837 19.408 8.40377 21.3129 8.29187C22.3032 8.23592 22.8318 7.58849 22.7731 6.63733C22.6724 4.90287 22.5885 3.1764 22.4962 1.44193C22.4458 0.658623 21.8584 0.0591536 21.0696 0.00320309C20.3395 -0.0447545 19.643 0.450807 19.5003 1.15418C19.4332 1.48189 19.4835 1.8096 19.5003 2.13731C19.5171 2.43305 19.5339 2.72879 19.5507 3.08048C19.0556 2.80872 18.6108 2.54495 18.1409 2.31316C12.8792 -0.220599 6.30009 1.19415 2.67486 5.6542C-2.2511 11.7128 -0.136377 20.4411 7.07214 23.7981C13.2485 26.6756 20.7843 24.2058 23.8137 18.315C24.2165 17.5317 23.9479 16.6924 23.1843 16.3248C22.4039 15.9491 21.5395 16.2368 21.1283 17.0201C19.9535 19.2342 18.1492 20.7848 15.6905 21.6161C10.1351 23.4864 4.09306 20.0654 3.1448 14.5264C2.28045 9.45084 5.90568 4.74301 11.2512 4.02365C13.559 3.70393 16.2359 4.31139 17.9814 5.57427Z" fill="white"/>
</svg>
