<svg width="40" height="40" viewBox="0 0 40 40" fill="none" xmlns="http://www.w3.org/2000/svg">
<g id="Group">
<g id="Group_2">
<path id="Vector" d="M37.4208 36.0752C37.4208 37.1215 36.733 37.383 36.1312 37.383H5.18079C4.14911 37.383 3.89119 36.6419 3.89119 36.0752V24.3047H37.4208V36.0752ZM35.1855 17.7656L33.2511 22.9969H28.0927L30.0271 17.7656H35.1855ZM25.4705 17.7656L23.5361 22.9969H18.3777L20.3121 17.7656H25.4705ZM15.7985 17.7656L13.8641 22.9969H8.7057L10.6401 17.7656H15.7985ZM10.4682 15.3679L6.94325 11.0521L11.8437 9.35189L15.3686 13.6677L10.4682 15.3679ZM16.0994 7.82609L20.9999 6.12591L24.5248 10.4418L19.5813 12.1419L16.0994 7.82609ZM25.2556 4.64371L30.1561 2.94353L33.681 7.25937L28.7805 8.95954L25.2556 4.64371ZM5.99754 15.2807C6.98623 15.2807 7.80298 16.109 7.80298 17.1117C7.80298 18.1144 6.98623 18.9426 5.99754 18.9426C5.00885 18.9426 4.1921 18.1144 4.1921 17.1117C4.1921 16.109 4.96586 15.2807 5.99754 15.2807ZM40 36.0752V22.343V21.6891V18.4195C40 17.6348 39.4842 16.4578 38.0656 16.4578H11.1989L36.776 7.52093C38.1086 7.04139 38.2375 5.77716 37.9796 5.03606L36.733 1.33054C36.2602 -0.0208851 35.0135 -0.151668 34.2828 0.109898L1.31199 11.6188C-0.020594 12.0983 -0.149554 13.3626 0.108366 14.1037L1.39797 17.8092C1.39797 17.8092 1.39797 17.8092 1.39797 17.8528C1.35498 18.0272 1.26901 18.2015 1.26901 18.4195V21.6891V22.343V36.0752C1.26901 37.6446 2.30069 39.9987 5.13781 39.9987H36.0882C37.6787 40.0423 40 38.996 40 36.0752Z" fill="#998448"/>
</g>
</g>
</svg>
