<svg width="12" height="17" viewBox="0 0 12 17" fill="none" xmlns="http://www.w3.org/2000/svg">
<path d="M10.8333 0H0.833333C0.61232 0 0.400358 0.0877973 0.244078 0.244078C0.0877975 0.400358 1.80443e-09 0.61232 1.80443e-09 0.833333V15.8333C-1.04795e-05 15.9926 0.0456406 16.1486 0.131545 16.2828C0.21745 16.4169 0.340008 16.5236 0.4847 16.5903C0.629393 16.6569 0.790156 16.6807 0.947946 16.6588C1.10574 16.6369 1.25394 16.5702 1.375 16.4667L5.83333 12.725L10.2417 16.425C10.3195 16.5022 10.4119 16.5633 10.5134 16.6048C10.6149 16.6463 10.7237 16.6673 10.8333 16.6667C10.9426 16.6695 11.0511 16.6467 11.15 16.6C11.3022 16.5375 11.4325 16.4313 11.5244 16.2949C11.6163 16.1585 11.6658 15.9979 11.6667 15.8333V0.833333C11.6667 0.61232 11.5789 0.400358 11.4226 0.244078C11.2663 0.0877973 11.0543 0 10.8333 0ZM10 14.05L6.36667 11C6.21693 10.8753 6.02821 10.807 5.83333 10.807C5.63846 10.807 5.44974 10.8753 5.3 11L1.66667 14.05V1.66667H10V14.05Z" fill="#424856"/>
</svg>
