<svg width="11" height="14" viewBox="0 0 11 14" fill="none" xmlns="http://www.w3.org/2000/svg">
<path d="M10.0075 0H0.992481C0.446617 0 0 0.415385 0 0.923077V13.0769C0 13.5846 0.446617 14 0.992481 14H10.0075C10.5534 14 11 13.5846 11 13.0769V0.923077C11 0.415385 10.5534 0 10.0075 0Z" fill="#B1974F"/>
<path d="M10 1.00066V13H1L1.00066 1L10 1.00066Z" fill="white"/>
<path d="M8.6846 2.55408H2.31617C2.17915 2.55408 2.06805 2.44337 2.06805 2.30682C2.06805 2.17027 2.17915 2.05957 2.31617 2.05957H8.6846C8.82166 2.05957 8.93272 2.17027 8.93272 2.30682C8.93272 2.44337 8.82166 2.55408 8.6846 2.55408Z" fill="#B1974F"/>
<path d="M8.6846 3.72888H2.31617C2.17915 3.72888 2.06805 3.61818 2.06805 3.48163C2.06805 3.34508 2.17915 3.23438 2.31617 3.23438H8.6846C8.82166 3.23438 8.93272 3.34508 8.93272 3.48163C8.93272 3.61818 8.82166 3.72888 8.6846 3.72888Z" fill="#B1974F"/>
<path d="M5.50039 4.90271H2.31617C2.17915 4.90271 2.06805 4.79201 2.06805 4.65546C2.06805 4.51891 2.17915 4.4082 2.31617 4.4082H5.50039C5.63745 4.4082 5.74851 4.51891 5.74851 4.65546C5.74851 4.79201 5.63745 4.90271 5.50039 4.90271Z" fill="#B1974F"/>
<path d="M8.6846 6.07849H2.31617C2.17915 6.07849 2.06805 5.96779 2.06805 5.83124C2.06805 5.69469 2.17915 5.58398 2.31617 5.58398H8.6846C8.82166 5.58398 8.93272 5.69469 8.93272 5.83124C8.93272 5.96779 8.82166 6.07849 8.6846 6.07849Z" fill="#B1974F"/>
<path d="M8.6846 7.25232H2.31617C2.17915 7.25232 2.06805 7.14161 2.06805 7.00507C2.06805 6.86852 2.17915 6.75781 2.31617 6.75781H8.6846C8.82166 6.75781 8.93272 6.86852 8.93272 7.00507C8.93272 7.14161 8.82166 7.25232 8.6846 7.25232Z" fill="#B1974F"/>
<path d="M8.6846 8.42615H2.31617C2.17915 8.42615 2.06805 8.31544 2.06805 8.17889C2.06805 8.04234 2.17915 7.93164 2.31617 7.93164H8.6846C8.82166 7.93164 8.93272 8.04234 8.93272 8.17889C8.93272 8.31544 8.82166 8.42615 8.6846 8.42615Z" fill="#B1974F"/>
<path d="M8.6846 9.60193H2.31617C2.17915 9.60193 2.06805 9.49122 2.06805 9.35467C2.06805 9.21813 2.17915 9.10742 2.31617 9.10742H8.6846C8.82166 9.10742 8.93272 9.21813 8.93272 9.35467C8.93272 9.49122 8.82166 9.60193 8.6846 9.60193Z" fill="#B1974F"/>
<path d="M8.6846 10.7758H2.31617C2.17915 10.7758 2.06805 10.6651 2.06805 10.5285C2.06805 10.392 2.17915 10.2812 2.31617 10.2812H8.6846C8.82166 10.2812 8.93272 10.392 8.93272 10.5285C8.93272 10.6651 8.82166 10.7758 8.6846 10.7758Z" fill="#B1974F"/>
<path d="M5.50039 11.9506H2.31617C2.17915 11.9506 2.06805 11.8399 2.06805 11.7033C2.06805 11.5668 2.17915 11.4561 2.31617 11.4561H5.50039C5.63745 11.4561 5.74851 11.5668 5.74851 11.7033C5.74851 11.8399 5.63745 11.9506 5.50039 11.9506Z" fill="#B1974F"/>
</svg>
