<svg width="28" height="28" viewBox="0 0 28 28" fill="none" xmlns="http://www.w3.org/2000/svg">
<g clip-path="url(#clip0_368_2201)">
<path d="M14 23.3333H23.3333V25.6666H14C7.55667 25.6666 2.33333 20.4432 2.33333 14C2.33333 7.55665 7.55667 2.33331 14 2.33331C20.4433 2.33331 25.6667 7.55665 25.6667 14C25.6667 16.6264 24.7988 19.0501 23.3341 21H20.1735C22.1112 19.2898 23.3333 16.7876 23.3333 14C23.3333 8.84532 19.1547 4.66665 14 4.66665C8.84534 4.66665 4.66666 8.84532 4.66666 14C4.66666 19.1547 8.84534 23.3333 14 23.3333ZM14 11.6666C12.7113 11.6666 11.6667 10.622 11.6667 9.33331C11.6667 8.04465 12.7113 6.99998 14 6.99998C15.2887 6.99998 16.3333 8.04465 16.3333 9.33331C16.3333 10.622 15.2887 11.6666 14 11.6666ZM9.33333 16.3333C8.04466 16.3333 7 15.2887 7 14C7 12.7113 8.04466 11.6666 9.33333 11.6666C10.622 11.6666 11.6667 12.7113 11.6667 14C11.6667 15.2887 10.622 16.3333 9.33333 16.3333ZM18.6667 16.3333C17.378 16.3333 16.3333 15.2887 16.3333 14C16.3333 12.7113 17.378 11.6666 18.6667 11.6666C19.9554 11.6666 21 12.7113 21 14C21 15.2887 19.9554 16.3333 18.6667 16.3333ZM14 21C12.7113 21 11.6667 19.9553 11.6667 18.6666C11.6667 17.3779 12.7113 16.3333 14 16.3333C15.2887 16.3333 16.3333 17.3779 16.3333 18.6666C16.3333 19.9553 15.2887 21 14 21Z" fill="white"/>
</g>
<defs>
<clipPath id="clip0_368_2201">
<rect width="28" height="28" fill="white"/>
</clipPath>
</defs>
</svg>
