<svg width="28" height="28" viewBox="0 0 28 28" fill="none" xmlns="http://www.w3.org/2000/svg">
<g clip-path="url(#clip0_368_2199)">
<path d="M18.6667 4.66669C19.311 4.66669 19.8333 5.18903 19.8333 5.83335V10.7334L25.9155 6.47585C26.1794 6.2911 26.5432 6.35529 26.7279 6.61922C26.7965 6.71727 26.8333 6.83405 26.8333 6.95374V21.0463C26.8333 21.3685 26.5721 21.6297 26.25 21.6297C26.1303 21.6297 26.0135 21.5928 25.9155 21.5242L19.8333 17.2667V22.1667C19.8333 22.811 19.311 23.3334 18.6667 23.3334H2.33334C1.68901 23.3334 1.16667 22.811 1.16667 22.1667V5.83335C1.16667 5.18903 1.68901 4.66669 2.33334 4.66669H18.6667ZM17.5 7.00002H3.50001V21H17.5V7.00002ZM8.63334 10.3001C8.72209 10.3001 8.809 10.3254 8.88388 10.3731L13.9647 13.6063C14.1821 13.7446 14.2462 14.0332 14.1078 14.2506C14.0712 14.3081 14.0223 14.357 13.9647 14.3938L8.88388 17.627C8.66644 17.7653 8.378 17.7013 8.23964 17.4838C8.19198 17.4089 8.16667 17.322 8.16667 17.2332V10.7668C8.16667 10.5091 8.37561 10.3001 8.63334 10.3001ZM24.5 10.3149L19.8333 13.5812V14.4189L24.5 17.6852V10.3149Z" fill="white"/>
</g>
<defs>
<clipPath id="clip0_368_2199">
<rect width="28" height="28" fill="white"/>
</clipPath>
</defs>
</svg>
