<svg width="21" height="24" viewBox="0 0 21 24" fill="none" xmlns="http://www.w3.org/2000/svg">
<path d="M17.5706 5.41211H18.3806C18.6911 5.42494 18.9847 5.5567 19.2006 5.7801C19.4166 6.0035 19.5383 6.30141 19.5406 6.61211V10.6121C19.5382 10.9218 19.4161 11.2186 19.2 11.4404C18.9838 11.6622 18.6902 11.7918 18.3806 11.8021H9.05063C8.74025 11.7943 8.44522 11.6655 8.2285 11.4431C8.01178 11.2208 7.89053 10.9226 7.89063 10.6121V6.61211C7.89045 6.30066 8.01137 6.00134 8.22784 5.77742C8.4443 5.55349 8.73935 5.42249 9.05063 5.41211H9.86063" stroke="#3B3B3B" stroke-width="0.91" stroke-miterlimit="10"/>
<path d="M17.4802 4.85178C17.48 5.04335 17.4599 5.23438 17.4202 5.42178H10.0402C10.0402 5.23178 10.0402 5.04178 10.0402 4.85178C10.014 4.34637 10.0909 3.84091 10.2663 3.36618C10.4416 2.89145 10.7118 2.45737 11.0602 2.09037C11.4087 1.72337 11.8282 1.43112 12.2933 1.23141C12.7583 1.0317 13.2591 0.928711 13.7652 0.928711C14.2712 0.928711 14.772 1.0317 15.2371 1.23141C15.7021 1.43112 16.1216 1.72337 16.4701 2.09037C16.8185 2.45737 17.0887 2.89145 17.2641 3.36618C17.4394 3.84091 17.5164 4.34637 17.4902 4.85178H17.4802Z" stroke="#3B3B3B" stroke-width="0.91" stroke-miterlimit="10"/>
<path d="M16.4023 14.5216V11.8516" stroke="#3B3B3B" stroke-width="0.91" stroke-miterlimit="10"/>
<path d="M9.14219 11.7617V12.4017C9.1502 12.7009 9.09819 12.9986 8.98921 13.2774C8.88024 13.5561 8.71651 13.8102 8.5077 14.0246C8.2989 14.239 8.04924 14.4094 7.77349 14.5257C7.49773 14.642 7.20147 14.7018 6.90219 14.7017H5.24219" stroke="#3B3B3B" stroke-width="0.91" stroke-miterlimit="10"/>
<path d="M12.2823 11.8516V13.2316C12.2755 13.3994 12.3029 13.5669 12.3628 13.7238C12.4227 13.8807 12.5138 14.0239 12.6307 14.1445C12.7476 14.2651 12.8878 14.3608 13.0428 14.4256C13.1978 14.4904 13.3643 14.5231 13.5323 14.5216H17.3923C17.6903 14.5489 17.9674 14.6866 18.1692 14.9076C18.371 15.1287 18.4828 15.4172 18.4828 15.7166C18.4828 16.0159 18.371 16.3044 18.1692 16.5255C17.9674 16.7466 17.6903 16.8843 17.3923 16.9116H18.3923C18.6903 16.9389 18.9674 17.0766 19.1692 17.2976C19.371 17.5187 19.4828 17.8072 19.4828 18.1066C19.4828 18.4059 19.371 18.6944 19.1692 18.9155C18.9674 19.1366 18.6903 19.2743 18.3923 19.3016H17.3923C17.7035 19.3119 17.9986 19.4429 18.215 19.6669C18.4315 19.8908 18.5524 20.1901 18.5523 20.5016C18.5524 20.813 18.4315 21.1123 18.215 21.3363C17.9986 21.5602 17.7035 21.6912 17.3923 21.7016H16.6723" stroke="#3B3B3B" stroke-width="0.91" stroke-miterlimit="10"/>
<path d="M4.28201 23.0716H2.20201C2.09954 23.0665 1.99908 23.0412 1.90639 22.9972C1.81371 22.9532 1.73061 22.8914 1.66187 22.8152C1.59313 22.739 1.54009 22.65 1.5058 22.5533C1.4715 22.4566 1.45662 22.3541 1.46201 22.2516V14.2516C1.45662 14.1492 1.4715 14.0467 1.5058 13.95C1.54009 13.8533 1.59313 13.7643 1.66187 13.6881C1.73061 13.6119 1.81371 13.5501 1.90639 13.5061C1.99908 13.462 2.09954 13.4368 2.20201 13.4316H4.28201C4.48982 13.442 4.68514 13.5339 4.82556 13.6875C4.96599 13.841 5.04017 14.0437 5.03201 14.2516V22.2516C5.04017 22.4595 4.96599 22.6623 4.82556 22.8158C4.68514 22.9693 4.48982 23.0613 4.28201 23.0716Z" stroke="#3B3B3B" stroke-width="0.91" stroke-miterlimit="10"/>
<path d="M15.1719 16.9121H17.4119" stroke="#3B3B3B" stroke-width="0.91" stroke-miterlimit="10" stroke-linecap="round"/>
<path d="M15.1719 19.3018H17.4119" stroke="#3B3B3B" stroke-width="0.91" stroke-miterlimit="10" stroke-linecap="round"/>
<path d="M15.1502 21.7021H16.7602H5.16016" stroke="#3B3B3B" stroke-width="0.91" stroke-miterlimit="10"/>
<path d="M12.0166 7.3916L11.9746 7.42871C11.9105 7.49636 11.8617 7.57637 11.8291 7.66211L11.7812 7.59961C11.7203 7.51903 11.6466 7.44962 11.5645 7.3916H12.0166Z" fill="white" stroke="#3B3B3B"/>
<path d="M14.3691 7.29199L14.3916 7.36133L14.3662 7.29199H14.3691Z" fill="white" stroke="#3B3B3B"/>
</svg>
