<svg width="18" height="18" viewBox="0 0 18 18" fill="none" xmlns="http://www.w3.org/2000/svg">
<g clip-path="url(#clip0_204_64)">
<path d="M14.2051 12.952L18 16.7469L16.7469 18L12.952 14.2051C11.5875 15.2968 9.85699 15.9498 7.97491 15.9498C3.57276 15.9498 0 12.3771 0 7.97491C0 3.57276 3.57276 0 7.97491 0C12.3771 0 15.9498 3.57276 15.9498 7.97491C15.9498 9.85699 15.2968 11.5875 14.2051 12.952ZM12.4273 12.2945C13.5108 11.1778 14.1776 9.65461 14.1776 7.97491C14.1776 4.54792 11.4019 1.7722 7.97491 1.7722C4.54792 1.7722 1.7722 4.54792 1.7722 7.97491C1.7722 11.4019 4.54792 14.1776 7.97491 14.1776C9.65461 14.1776 11.1778 13.5108 12.2945 12.4273L12.4273 12.2945Z" fill="white"/>
</g>
<defs>
<clipPath id="clip0_204_64">
<rect width="18" height="18" fill="white"/>
</clipPath>
</defs>
</svg>
