<svg width="70" height="70" viewBox="0 0 70 70" fill="none" xmlns="http://www.w3.org/2000/svg">
<circle cx="35" cy="35" r="33.5" fill="#AA0100" stroke="white" stroke-width="3"/>
<path d="M19.5 26.5438C19.5141 30.1413 20.353 33.0317 22.1084 35.6336C22.7033 36.5147 23.4219 37.3196 24.1343 38.1159C24.5842 38.6184 25.2206 38.6114 25.6582 38.2033C26.0957 37.7951 26.0948 37.2043 25.6537 36.6842C25.5654 36.5846 25.4717 36.4954 25.3806 36.4002C20.7163 31.5336 20.3362 23.9182 24.5029 18.633C24.8812 18.154 25.3161 17.7187 25.7121 17.2529C26.0259 16.8849 26.1417 16.4243 25.8226 16.0589C25.5936 15.7967 25.1835 15.5704 24.8459 15.559C24.5586 15.5503 24.2033 15.8168 23.9752 16.0537C21.0177 19.1145 19.5451 22.7811 19.5 26.5438ZM51.4974 27.2141C51.477 23.607 50.4932 20.5034 48.4603 17.7467C47.9478 17.0671 47.3894 16.4226 46.7888 15.8177C46.3689 15.3868 45.7741 15.413 45.3604 15.7828C44.9264 16.17 44.8928 16.7521 45.2835 17.2476C45.3781 17.3674 45.4912 17.4722 45.5973 17.5824C47.476 19.5466 48.7251 22.0164 49.1875 24.681C49.6499 27.3456 49.3049 30.0859 48.196 32.5571C47.5113 34.0686 46.5629 35.4491 45.394 36.6353C44.8849 37.1597 44.8857 37.7715 45.3383 38.1972C45.7909 38.6228 46.3919 38.5809 46.9223 38.0757C47.0327 37.9699 47.1397 37.8589 47.2431 37.747C50.0371 34.7037 51.4523 31.1263 51.5 27.2185L51.4974 27.2141ZM25.2215 27.0184C25.2799 29.6667 26.1708 31.989 28.0147 33.9232C28.2156 34.1492 28.471 34.3214 28.7571 34.424C29.2176 34.5586 29.6348 34.389 29.8841 33.9616C30.1979 33.4224 29.9928 32.9836 29.603 32.5544C26.5863 29.2384 26.581 24.7398 29.5783 21.4543C30.1484 20.8303 30.1908 20.2473 29.6994 19.7937C29.2274 19.3619 28.591 19.4441 28.0306 20.0375C26.1717 22.0049 25.2754 24.3456 25.2242 27.0184H25.2215ZM45.7829 26.5883C45.6945 26.0849 45.6061 25.1497 45.3692 24.2521C44.9321 22.6035 44.0525 21.1023 42.8236 19.9073C42.3489 19.4371 41.7267 19.41 41.2944 19.8059C40.8445 20.2167 40.8392 20.7962 41.2838 21.3171C41.397 21.4499 41.5243 21.5706 41.6374 21.7043C43.4282 23.8334 44.0434 26.2492 43.3999 28.9508C43.0658 30.3493 42.3489 31.5598 41.3528 32.6139C40.7641 33.2371 40.8596 34.0359 41.541 34.3567C42.0714 34.6067 42.5133 34.4336 42.8978 34.0289C44.7876 32.0624 45.6698 29.9429 45.7856 26.5883H45.7829ZM35.5261 22.5259C34.6311 22.5212 33.7548 22.7791 33.008 23.2668C32.2612 23.7546 31.6775 24.4504 31.3305 25.2662C30.9836 26.082 30.8891 26.9812 31.0589 27.8501C31.2288 28.719 31.6554 29.5186 32.2848 30.1478C32.9141 30.777 33.7181 31.2075 34.5949 31.385C35.4717 31.5624 36.3821 31.4788 37.2108 31.1447C38.0396 30.8106 38.7496 30.241 39.251 29.5079C39.7524 28.7748 40.0227 27.9112 40.0278 27.0262C40.0349 26.4374 39.9237 25.853 39.7007 25.307C39.4776 24.761 39.147 24.2643 38.7282 23.8456C38.3094 23.4269 37.8107 23.0947 37.261 22.8681C36.7113 22.6416 36.1216 22.5252 35.5261 22.5259ZM35.4598 29.3861C34.9834 29.3783 34.52 29.2312 34.1281 28.9633C33.7361 28.6954 33.4332 28.3187 33.2575 27.8808C33.0818 27.4428 33.0412 26.9633 33.1408 26.5025C33.2404 26.0418 33.4758 25.6206 33.8172 25.292C34.1587 24.9634 34.5909 24.7421 35.0593 24.6561C35.5278 24.5701 36.0115 24.6232 36.4495 24.8087C36.8874 24.9942 37.2601 25.3038 37.5203 25.6984C37.7805 26.0931 37.9167 26.5551 37.9117 27.0262C37.9119 27.3416 37.848 27.6539 37.724 27.9445C37.6 28.2351 37.4184 28.4982 37.1898 28.7182C36.9612 28.9382 36.6903 29.1107 36.3932 29.2254C36.096 29.3401 35.7786 29.3947 35.4598 29.3861Z" fill="white"/>
<rect x="20.5" y="43.5" width="28" height="14" rx="2" stroke="white"/>
<path d="M28.8444 54.5H24.5654V47.086H25.9514V53.268H28.8444V54.5ZM31.3675 54.5H29.9815V47.086H31.3675V54.5ZM36.573 54.5H34.989L32.503 47.086H34.01L34.923 50.034C35.1064 50.6207 35.2714 51.1817 35.418 51.717C35.5647 52.2523 35.6674 52.641 35.726 52.883L35.803 53.246C35.979 52.4247 36.276 51.354 36.694 50.034L37.618 47.086H39.103L36.573 54.5ZM44.5851 54.5H40.1631V47.086H44.5411V48.219H41.5601V50.232H44.2111V51.354H41.5601V53.367H44.5851V54.5Z" fill="white"/>
</svg>
