<svg width="19" height="18" viewBox="0 0 19 18" fill="none" xmlns="http://www.w3.org/2000/svg">
<g clip-path="url(#clip0_7611_9193)">
<path d="M17.3645 0.635742H1.63592C1.09486 0.635742 0.65625 1.06106 0.65625 1.58571V16.4135C0.65625 16.9381 1.09486 17.3635 1.63592 17.3635H17.3645C17.9056 17.3635 18.3442 16.9381 18.3442 16.4135V1.58571C18.3442 1.06106 17.9056 0.635742 17.3645 0.635742Z" stroke="#3B3B3B" stroke-miterlimit="10"/>
<path d="M0.703125 10.8384L4.20194 7.85985C4.38727 7.70238 4.62692 7.6183 4.87326 7.62433C5.11959 7.63035 5.35458 7.72604 5.53149 7.89237L10.0333 12.1333" stroke="#3B3B3B" stroke-miterlimit="10"/>
<path d="M18.3442 13.3826L13.9707 9.3622C13.876 9.27516 13.7644 9.20733 13.6423 9.16268C13.5203 9.11804 13.3903 9.09749 13.2599 9.10223C13.1295 9.10697 13.0015 9.13691 12.8832 9.19029C12.7649 9.24367 12.6588 9.31942 12.5712 9.41309L5.12891 17.3649" stroke="#3B3B3B" stroke-miterlimit="10"/>
<path d="M11.7634 7.2C12.5129 7.2 13.1205 6.59558 13.1205 5.85C13.1205 5.10442 12.5129 4.5 11.7634 4.5C11.0139 4.5 10.4062 5.10442 10.4062 5.85C10.4062 6.59558 11.0139 7.2 11.7634 7.2Z" fill="#3B3B3B"/>
</g>
<defs>
<clipPath id="clip0_7611_9193">
<rect width="19" height="18" fill="white"/>
</clipPath>
</defs>
</svg>
