<svg width="18" height="18" viewBox="0 0 18 18" fill="none" xmlns="http://www.w3.org/2000/svg">
<path d="M11.5909 2C12.0177 2 12.3636 2.36377 12.3636 2.8125V6.225L16.3921 3.25995C16.5669 3.13128 16.8078 3.17599 16.9301 3.3598C16.9756 3.42808 17 3.50941 17 3.59277V13.4073C17 13.6316 16.827 13.8135 16.6136 13.8135C16.5344 13.8135 16.457 13.7878 16.3921 13.7401L12.3636 10.775V14.1875C12.3636 14.6362 12.0177 15 11.5909 15H0.772727C0.345965 15 0 14.6362 0 14.1875V2.8125C0 2.36377 0.345965 2 0.772727 2H11.5909ZM10.8182 3.625H1.54545V13.375H10.8182V3.625ZM4.94545 5.92329C5.00424 5.92329 5.0618 5.94092 5.1114 5.9741L8.47659 8.22578C8.62062 8.32214 8.66304 8.52307 8.5714 8.67452C8.54714 8.71458 8.51476 8.74862 8.47659 8.77422L5.1114 11.0259C4.96738 11.1223 4.77634 11.0777 4.68469 10.9262C4.65312 10.874 4.63636 10.8135 4.63636 10.7517V6.24829C4.63636 6.06881 4.77475 5.92329 4.94545 5.92329ZM15.4545 5.93356L12.3636 8.20831V8.79169L15.4545 11.0664V5.93356Z" fill="white"/>
</svg>
