<svg width="19" height="17" viewBox="0 0 19 17" fill="none" xmlns="http://www.w3.org/2000/svg">
<path d="M0 15.1937V0.679848C0.215689 0.160129 0.616329 -0.00108748 1.15178 5.5127e-06C5.50401 0.00984246 9.85607 0.0116661 14.2079 0.00547248C14.7639 0.00547248 15.3209 -0.00272497 15.8795 0.00547248C16.5029 0.0180419 16.8318 0.359602 16.8453 0.992446C16.8523 1.30559 16.8577 1.61982 16.8453 1.93187C16.8361 2.13299 16.9073 2.19474 17.0992 2.18545C17.3834 2.17233 17.6681 2.17998 17.9523 2.18545C18.6662 2.19255 18.9984 2.52318 18.9984 3.24456C19.0005 7.06639 19.0005 10.8882 18.9984 14.7101C18.9984 16.0594 18.0914 16.9895 16.7633 16.9922C11.9287 17.0013 7.09364 17.0024 2.25826 16.9955C1.82317 17.0038 1.3946 16.8875 1.02182 16.66C0.4702 16.3195 0.189267 15.7894 0 15.1937ZM9.49838 16.1157C11.8839 16.1157 14.2698 16.1157 16.656 16.1157C17.0518 16.1157 17.4163 16.0534 17.7194 15.7686C18.0677 15.4407 18.1329 15.0243 18.1319 14.5696C18.1275 11.0615 18.1275 7.55332 18.1319 4.04518C18.1319 3.01011 18.1319 3.01722 17.1122 3.05383C16.9008 3.06148 16.8426 3.12761 16.8426 3.33692C16.848 6.88259 16.848 10.4283 16.8426 13.9739C16.8426 14.1832 16.883 14.3324 17.117 14.3909C17.3964 14.4603 17.5522 14.65 17.4503 14.9489C17.3484 15.2478 17.1154 15.2817 16.8437 15.2189C16.2656 15.0855 15.9858 14.6691 15.9858 13.9116C15.9858 9.71454 15.9875 5.51726 15.9911 1.3198C15.9911 0.991899 15.9297 0.873855 15.5716 0.874948C10.8125 0.888792 6.05294 0.888792 1.29305 0.874948C0.915598 0.874948 0.857362 0.997365 0.857901 1.34111C0.869045 5.73859 0.871561 10.1362 0.865449 14.5341C0.865449 15.6479 1.32217 16.1129 2.41463 16.1135C4.77606 16.1157 7.13731 16.1164 9.49838 16.1157Z" fill="#383838"/>
<path d="M5.19485 4.80601C5.87373 4.80601 6.55315 4.80163 7.23257 4.80601C7.62512 4.80928 7.77934 4.95411 7.78096 5.34595C7.78779 6.73514 7.78779 8.12433 7.78096 9.51353C7.78096 9.90263 7.61919 10.0671 7.23743 10.0688C5.86672 10.0753 4.49584 10.0753 3.12478 10.0688C2.73493 10.0688 2.58556 9.91466 2.58556 9.52227C2.58089 8.13308 2.58089 6.7437 2.58556 5.35414C2.58556 4.94973 2.72414 4.81147 3.11885 4.80764C3.81175 4.80163 4.50303 4.80601 5.19485 4.80601ZM5.19485 9.19218C5.67638 9.19218 6.15844 9.18399 6.63943 9.19601C6.84217 9.20093 6.9209 9.14136 6.91874 8.92276C6.90904 7.93433 6.90904 6.94554 6.91874 5.95638C6.92144 5.72794 6.85026 5.65471 6.62379 5.65745C5.66074 5.66801 4.69751 5.66801 3.7341 5.65745C3.51572 5.65745 3.42783 5.71592 3.43052 5.95256C3.44131 6.94099 3.44131 7.92978 3.43052 8.91894C3.43052 9.13754 3.50979 9.19765 3.71254 9.19218C4.20431 9.18508 4.69877 9.19218 5.1927 9.19218H5.19485Z" fill="#383838"/>
<path d="M8.42209 3.48839C6.71528 3.48839 5.00882 3.48839 3.30273 3.48839C3.16714 3.49482 3.03126 3.48548 2.89777 3.46053C2.69287 3.41134 2.5888 3.25941 2.59311 3.04628C2.58929 2.95094 2.62012 2.8575 2.67976 2.78367C2.73939 2.70983 2.82368 2.66074 2.91665 2.6457C3.03879 2.62641 3.16263 2.62055 3.28601 2.62821H13.5614C13.6726 2.62299 13.7841 2.62682 13.8947 2.63969C14.1184 2.6763 14.2473 2.81675 14.2516 3.04847C14.2559 3.28018 14.1357 3.43101 13.9103 3.46872C13.7755 3.48671 13.6396 3.49347 13.5037 3.48894C11.8098 3.48931 10.116 3.48912 8.42209 3.48839Z" fill="#383838"/>
<path d="M11.6892 4.80601C12.367 4.80601 13.0454 4.80601 13.7237 4.80601C14.0197 4.80601 14.25 4.90054 14.2484 5.23883C14.2468 5.57711 14.0068 5.66455 13.7162 5.664C12.3469 5.664 10.978 5.664 9.60946 5.664C9.30857 5.664 9.07671 5.5547 9.07994 5.23008C9.08318 4.90546 9.31558 4.80054 9.61916 4.80382C10.3077 4.81092 10.9985 4.80601 11.6892 4.80601Z" fill="#383838"/>
<path d="M11.6892 7.84289C10.9985 7.84289 10.3083 7.83961 9.61755 7.84289C9.31936 7.84289 9.0821 7.74287 9.07833 7.41662C9.07455 7.09036 9.30534 6.97942 9.6073 6.97942C10.9762 6.98343 12.3449 6.98343 13.7135 6.97942C14.0063 6.97942 14.243 7.06686 14.2468 7.40623C14.2505 7.74561 14.0144 7.83906 13.7216 7.83906C13.0447 7.83943 12.3672 7.8407 11.6892 7.84289Z" fill="#383838"/>
<path d="M11.652 10.0196C10.9737 10.0196 10.2954 10.0152 9.61755 10.0196C9.31666 10.0223 9.08426 9.91028 9.0821 9.58949C9.07995 9.2687 9.31397 9.15722 9.61377 9.15776C10.9827 9.16177 12.3516 9.16177 13.7205 9.15776C14.0117 9.15776 14.2511 9.24301 14.2511 9.58512C14.2511 9.92723 14.0181 10.0179 13.7237 10.0174C13.0308 10.0179 12.3406 10.0196 11.652 10.0196Z" fill="#383838"/>
<path d="M5.19431 12.1957C4.50357 12.1957 3.81337 12.1957 3.12263 12.1957C2.82552 12.1957 2.59581 12.1001 2.59689 11.7635C2.59797 11.4268 2.83738 11.3372 3.1291 11.3372C4.498 11.3372 5.86708 11.3372 7.23635 11.3372C7.53723 11.3372 7.77018 11.4465 7.76694 11.7706C7.7637 12.0946 7.5313 12.2012 7.22772 12.1979C6.551 12.1908 5.87266 12.1957 5.19431 12.1957Z" fill="#383838"/>
<path d="M11.6822 11.3405C12.3606 11.3405 13.0389 11.3405 13.7172 11.3405C14.0084 11.3405 14.2484 11.4235 14.2489 11.7667C14.2495 12.1099 14.0187 12.199 13.7226 12.1985C12.3541 12.1963 10.9854 12.1963 9.61647 12.1985C9.3145 12.1985 9.08264 12.0935 9.07725 11.7706C9.07185 11.4476 9.30696 11.3334 9.60784 11.3377C10.304 11.3405 10.9915 11.3405 11.6822 11.3405Z" fill="#383838"/>
<path d="M5.15064 14.3752C4.4847 14.3752 3.81876 14.3752 3.15282 14.3752C2.77537 14.3752 2.57694 14.2194 2.59365 13.938C2.61414 13.5959 2.84762 13.5155 3.13557 13.5155C4.49225 13.5155 5.84893 13.5155 7.20561 13.5155C7.57336 13.5155 7.79875 13.6904 7.77179 13.956C7.73512 14.3052 7.49301 14.3817 7.18566 14.3779C6.50786 14.3691 5.82844 14.3752 5.15064 14.3752Z" fill="#383838"/>
</svg>
