<?xml version="1.0" encoding="utf-8"?>
<!-- Generator: Adobe Illustrator 16.0.0, SVG Export Plug-In . SVG Version: 6.00 Build 0)  -->
<!DOCTYPE svg PUBLIC "-//W3C//DTD SVG 1.1//EN" "http://www.w3.org/Graphics/SVG/1.1/DTD/svg11.dtd">
<svg version="1.1" id="Layer_1" xmlns="http://www.w3.org/2000/svg" xmlns:xlink="http://www.w3.org/1999/xlink" x="0px" y="0px"
	 width="32px" height="32px" viewBox="0 0 32 32" enable-background="new 0 0 32 32" xml:space="preserve">
<g>
	<path fill="#F9A01B" d="M21.659,25.446c0,3.039-2.464,5.504-5.504,5.504H6.057c-3.04,0-5.503-2.465-5.503-5.504V6.553
		C0.553,3.514,3.017,1.05,6.057,1.05h10.098c3.04,0,5.504,2.464,5.504,5.503V25.446z"/>
	<g>
		<path fill="#4890CD" d="M27.137,4.295h-0.044c0.706,0.86,1.147,1.947,1.147,3.147v17.116c0,1.2-0.441,2.286-1.146,3.146h0.043
			c2.38,0,4.309-1.93,4.309-4.309V8.604C31.445,6.224,29.517,4.295,27.137,4.295z"/>
	</g>
	<g>
		<path fill="#FFFFFF" d="M20.157,10.155c0,0.764,0,1.528,0,2.293c-0.036,0.088-0.065,0.18-0.108,0.265
			c-0.215,0.408-0.554,0.632-1.017,0.636c-0.948,0.006-1.899,0.004-2.849,0c-0.145-0.001-0.249,0.04-0.353,0.143
			c-0.573,0.582-1.151,1.157-1.729,1.734c-0.155,0.155-0.313,0.186-0.467,0.099c-0.155-0.086-0.214-0.245-0.17-0.449
			c0.108-0.501,0.216-1.002,0.327-1.512c-0.161-0.034-0.322-0.001-0.479-0.04c-0.492-0.119-0.852-0.507-0.873-1.013
			c-0.023-0.543-0.011-1.088-0.012-1.632c-0.001-0.521,0.018-1.043-0.004-1.563c-0.028-0.658,0.187-1.181,0.958-1.394
			c0.011,0,0.023,0,0.035,0c0.048,0.031,0.101,0.017,0.152,0.017c1.821,0.001,3.642,0.001,5.463,0c0.052,0,0.104,0.014,0.152-0.017
			c0.012,0,0.022,0,0.034,0c0.402,0.038,0.67,0.266,0.857,0.608c0.051,0.094,0.049,0.198,0.08,0.295
			C20.157,8.8,20.157,9.98,20.157,10.155"/>
		<path fill="#FFFFFF" d="M3.548,25.515c0.044-0.059,0.106-0.035,0.161-0.035c3.101,0,6.202,0,9.302,0
			c0.055,0,0.118-0.021,0.162,0.035C9.965,25.515,6.756,25.515,3.548,25.515z"/>
		<path fill="#FFFFFF" d="M19.185,7.723c-0.044,0.057-0.106,0.034-0.162,0.034c-1.813,0.001-3.629,0.001-5.444,0
			c-0.055,0-0.117,0.022-0.162-0.034C15.339,7.723,17.262,7.723,19.185,7.723z"/>
		<path fill="#FFFFFF" d="M2.396,22.099c0.01,0.064,0.024,0.129-0.028,0.184c0-0.059,0-0.114,0-0.174
			C2.376,22.104,2.385,22.101,2.396,22.099z"/>
		<path fill="#FFFFFF" d="M2.887,24.002c0.008-0.146-0.01-0.277-0.172-0.341c-0.163-0.063-0.258,0.035-0.349,0.146
			c0,0.209,0,0.416,0,0.625c0.123,0.615,0.495,0.974,1.112,1.078c0.023,0,0.046,0,0.07,0c0.06-0.035,0.125-0.019,0.187-0.019
			c3.083-0.002,6.167-0.002,9.25,0c0.063,0,0.127-0.018,0.188,0.019c0.023,0,0.046,0,0.069,0c0.012-0.01,0.023-0.026,0.037-0.028
			c0.677-0.142,1.105-0.662,1.108-1.353c0.002-0.575,0.013-1.153-0.003-1.733c-0.022-0.842-0.381-1.52-1.05-2.033
			c-0.396-0.305-0.862-0.44-1.335-0.541c-0.456-0.096-0.828-0.258-1.058-0.709c-0.168-0.332-0.532-0.403-0.875-0.264
			c-0.03,0.012-0.055,0.045-0.099,0.008c0-0.102,0.012-0.213-0.003-0.32c-0.023-0.176,0.045-0.28,0.183-0.389
			c0.568-0.445,0.915-1.035,1.036-1.747c0.024-0.144,0.067-0.174,0.202-0.174c0.373,0,0.644-0.234,0.69-0.598
			c0.028-0.217,0.027-0.438-0.007-0.658c-0.023-0.149-0.086-0.282-0.205-0.37c-0.1-0.073-0.108-0.159-0.11-0.267
			c-0.013-0.549,0.049-1.101-0.041-1.647c-0.168-1.017-1.096-1.894-2.118-1.973c-0.814-0.064-1.632-0.064-2.446,0
			c-1.097,0.087-2.074,1.11-2.14,2.206c-0.027,0.452-0.011,0.903-0.012,1.354c0,0.144-0.007,0.266-0.142,0.362
			c-0.094,0.066-0.135,0.181-0.165,0.297c-0.043,0.172-0.022,0.346-0.023,0.519c-0.003,0.498,0.253,0.764,0.749,0.775
			c0.093,0.002,0.133,0.026,0.147,0.12c0.117,0.782,0.505,1.403,1.136,1.875c0.045,0.033,0.091,0.063,0.089,0.135
			c-0.006,0.172-0.002,0.344-0.002,0.521c-0.032-0.006-0.05-0.004-0.064-0.01c-0.398-0.166-0.707-0.078-0.946,0.272
			c-0.084,0.125-0.169,0.248-0.248,0.377c-0.048,0.078-0.11,0.121-0.201,0.146c-0.396,0.104-0.792,0.207-1.183,0.326
			c-0.923,0.278-1.675,1.19-1.747,2.106c-0.029,0.06,0.013,0.127-0.028,0.185c0,0.174,0,0.348,0,0.521
			c0.013,0.011,0.029,0.019,0.037,0.028c0.08,0.117,0.191,0.15,0.318,0.104c0.122-0.045-0.311,0.025-0.318-0.104
			c-0.003-0.064-0.04,1.042-0.039,0.978 M12.209,23.467 M11.33,14.946c0.135,0.004,0.225,0.029,0.219,0.188
			c-0.005,0.132,0.002,0.265-0.002,0.396c-0.005,0.132-0.171,0.221-0.29,0.161c-0.042-0.021-0.03-0.057-0.03-0.088
			c-0.002-0.092,0-0.184,0-0.275c0-0.069-0.007-0.139,0.002-0.207C11.237,15.053,11.167,14.94,11.33,14.946z M5.528,15.321
			c0,0.069,0.006,0.139-0.002,0.208c-0.008,0.065,0.054,0.173-0.094,0.167c-0.114-0.005-0.229,0.001-0.232-0.158
			c-0.002-0.144-0.003-0.288,0-0.432c0.002-0.093,0.045-0.148,0.145-0.159c0.13-0.014,0.211,0.006,0.184,0.167
			C5.519,15.181,5.528,15.252,5.528,15.321z M9.341,19.396c-0.291,0.229-0.584,0.453-0.872,0.687
			c-0.074,0.061-0.123,0.053-0.193-0.005c-0.288-0.232-0.581-0.459-0.871-0.688c-0.04-0.031-0.088-0.055-0.087-0.119
			c0.002-0.203,0.001-0.406,0-0.606c0-0.062,0.019-0.089,0.082-0.064c0.667,0.25,1.333,0.216,2-0.002
			c0.004-0.002,0.011,0.002,0.029,0.007c0,0.217-0.003,0.436,0.001,0.653C9.431,19.329,9.384,19.36,9.341,19.396z"/>
		<path fill="#FFFFFF" d="M16.295,11.544c-0.638,0-1.273-0.001-1.91,0c-0.136,0-0.234-0.048-0.286-0.179
			c-0.044-0.112-0.005-0.202,0.073-0.282c0.058-0.06,0.133-0.066,0.208-0.066c1.285,0,2.568-0.001,3.853,0.001
			c0.188,0,0.295,0.105,0.291,0.268c-0.004,0.159-0.116,0.257-0.306,0.257C17.577,11.545,16.937,11.544,16.295,11.544z"/>
	</g>
</g>
<path fill="#F9A01B" d="M18.833,9.334c0,0.195-0.158,0.354-0.354,0.354H14.1c-0.195,0-0.354-0.159-0.354-0.354l0,0
	c0-0.196,0.159-0.354,0.354-0.354h4.379C18.675,8.979,18.833,9.138,18.833,9.334L18.833,9.334z"/>
<path fill="#4890CD" d="M18.833,10.424c0,0.195-0.158,0.354-0.354,0.354H14.1c-0.195,0-0.354-0.159-0.354-0.354l0,0
	c0-0.196,0.159-0.354,0.354-0.354h4.379C18.675,10.07,18.833,10.229,18.833,10.424L18.833,10.424z"/>
<path fill="#EF4537" d="M18.833,11.544c0,0.195-0.158,0.354-0.354,0.354H14.1c-0.195,0-0.354-0.159-0.354-0.354l0,0
	c0-0.196,0.159-0.354,0.354-0.354h4.379C18.675,11.189,18.833,11.348,18.833,11.544L18.833,11.544z"/>
<path fill="#EF4537" d="M22.185,2.456h-1.363c1.125,1.008,1.838,2.467,1.838,4.097v18.894c0,1.63-0.713,3.09-1.839,4.098h1.365
	c2.753,0,4.984-2.232,4.984-4.986V7.442C27.17,4.688,24.938,2.456,22.185,2.456z"/>
</svg>
