<svg width="67" height="67" viewBox="0 0 67 67" fill="none" xmlns="http://www.w3.org/2000/svg">
<circle cx="33.5" cy="33.5" r="32" fill="#8A0B00" stroke="#D7B962" stroke-width="3"/>
<path fill-rule="evenodd" clip-rule="evenodd" d="M50.9827 20.5591C50.8052 20.5591 50.6277 20.5591 50.4502 20.5591C40.1559 20.5591 30.039 20.5591 19.7446 20.5591C18.5022 20.5591 17.2598 20.5591 16.0173 20.5591C15.3074 20.5591 14.9524 20.7364 14.7749 21.4454C14.7749 28.3591 14.7749 35.0954 14.7749 42.0091C14.9524 42.7182 15.4849 42.8954 16.1948 42.8954C19.3896 42.8954 22.5844 42.8954 25.7792 42.8954C27.0217 42.8954 28.0866 42.8954 29.329 42.8954C29.5065 42.8954 29.684 42.8954 29.684 43.25C29.684 43.7818 29.684 44.1364 29.684 44.6682C29.684 44.8454 29.684 45.0227 29.329 45.0227C28.4416 45.0227 27.5541 45.0227 26.8442 45.0227C26.1342 45.0227 25.6017 45.5545 25.6017 46.0864C25.6017 46.7954 26.1342 47.15 26.8442 47.15C31.2814 47.15 35.7186 47.15 40.1559 47.15C40.3333 47.15 40.5108 47.15 40.5108 47.15C41.0433 46.9727 41.3983 46.4409 41.2208 46.0864C41.2208 45.5545 40.6883 45.0227 40.1559 45.0227C39.2684 45.0227 38.381 45.0227 37.4935 45.0227C37.316 45.0227 37.1385 45.0227 37.1385 44.6682C37.1385 44.3136 37.1385 43.7818 37.1385 43.4273C37.1385 43.0727 37.1385 43.0727 37.4935 43.0727C41.7533 43.0727 46.1905 43.0727 50.4502 43.0727C51.638 43.0727 52.1954 42.8954 52.2553 42.1666C52.2553 35.253 52.2553 28.7136 52.2553 21.7999C52.2553 20.9333 51.6926 20.5591 50.9827 20.5591ZM35.1862 44.6682C35.1862 44.8454 35.1862 44.8454 35.0087 44.8454C34.4762 44.8454 34.1212 44.8454 33.5888 44.8454C33.0563 44.8454 32.7013 44.8454 32.1688 44.8454C31.9914 44.8454 31.9914 44.8454 31.9914 44.6682C31.9914 44.1364 31.9914 43.6045 31.9914 43.0727C31.9914 42.8954 31.9914 42.8954 32.1688 42.8954C33.0563 42.8954 34.1212 42.8954 35.0087 42.8954C35.1862 42.8954 35.1862 42.8954 35.1862 43.0727C35.1862 43.6045 35.1862 44.1364 35.1862 44.6682ZM49.2021 39.9999C43.8774 39.9999 39.2608 39.9999 33.9361 39.9999C28.6115 39.9999 22.9394 39.9015 17.6147 39.9015C17.2598 39.9015 17.3617 39.9212 17.3617 39.5666C17.3617 33.8939 17.3617 29.6393 17.3617 23.9666C17.3617 23.6121 17.4429 23.5333 17.7979 23.5333C28.4472 23.5333 38.5528 23.5333 49.2021 23.5333C49.5571 23.5333 49.6383 23.7893 49.6383 23.9666C49.6383 29.6393 49.6383 33.7166 49.6383 39.5666C49.6383 39.7439 49.5571 39.9999 49.2021 39.9999Z" fill="white"/>
<path d="M42.5386 29.7906V31.2674H44.9358V32.6402H42.5386V34.2418H45.2498V35.6666H40.7485V28.3658H45.2498V29.7906H42.5386Z" fill="white"/>
<path d="M38.9538 28.3658L36.3472 35.6666H34.107L31.5005 28.3658H33.4057L35.2271 33.8778L37.059 28.3658H38.9538Z" fill="white"/>
<path d="M29.7114 28.3658V35.6666H27.9214V28.3658H29.7114Z" fill="white"/>
<path d="M23.6758 34.2938H26.0206V35.6666H21.8857V28.3658H23.6758V34.2938Z" fill="white"/>
</svg>
