<?xml version="1.0" encoding="utf-8"?>
<!-- Generator: Adobe Illustrator 16.0.0, SVG Export Plug-In . SVG Version: 6.00 Build 0)  -->
<!DOCTYPE svg PUBLIC "-//W3C//DTD SVG 1.1//EN" "http://www.w3.org/Graphics/SVG/1.1/DTD/svg11.dtd">
<svg version="1.1" id="Layer_1" xmlns="http://www.w3.org/2000/svg" xmlns:xlink="http://www.w3.org/1999/xlink" x="0px" y="0px"
	 width="22px" height="22px" viewBox="0 0 22 22" enable-background="new 0 0 22 22" xml:space="preserve">
<g>
	<g>
		<path fill-rule="evenodd" clip-rule="evenodd" fill="#FED564" stroke="#CE1313" stroke-width="0.75" stroke-miterlimit="10" d="
			M16.437,5.181c1.204-0.966,2.367-1.901,3.533-2.835c0.101-0.082,0.197-0.172,0.305-0.238c0.256-0.16,0.541,0.042,0.578,0.405
			c0.009,0.08,0.004,0.16,0.004,0.241c0,4.608,0,9.217,0,13.826c0,0.035-0.001,0.07,0.001,0.106
			c0.009,0.233-0.057,0.423-0.222,0.538c-0.158,0.111-0.309,0.057-0.453-0.061c-0.687-0.554-1.373-1.104-2.06-1.655
			c-0.549-0.442-1.099-0.883-1.687-1.355c0,0.263,0.004,0.488-0.001,0.713c-0.004,0.355,0.021,0.715-0.019,1.072
			c-0.103,0.951-0.68,1.617-1.433,1.622c-1.484,0.01-2.97,0.004-4.454,0.004c-2.579,0-5.156,0-7.733,0
			c-1.017-0.001-1.606-0.751-1.606-2.045c0-3.937-0.001-7.874,0-11.811c0-0.989,0.473-1.736,1.207-1.91
			c0.116-0.027,0.236-0.026,0.355-0.027c4.042-0.001,8.084-0.001,12.125,0c0.956,0,1.557,0.775,1.559,1.999
			C16.438,4.225,16.437,4.68,16.437,5.181z"/>
		<path fill-rule="evenodd" clip-rule="evenodd" fill="#CE1313" d="M6.456,9.676c0-1.02-0.001-2.04,0-3.06
			c0.001-0.63,0.388-0.855,0.933-0.541c1.771,1.021,3.54,2.044,5.308,3.068c0.523,0.304,0.522,0.757-0.003,1.062
			c-1.77,1.021-3.54,2.042-5.312,3.063c-0.527,0.303-0.924,0.073-0.926-0.534C6.454,11.716,6.456,10.696,6.456,9.676z"/>
		<path fill-rule="evenodd" clip-rule="evenodd" fill="#CE1313" d="M20.858,20c0,0.483-0.306,0.874-0.68,0.874H1.47
			c-0.376,0-0.68-0.391-0.68-0.874l0,0c0-0.484,0.304-0.876,0.68-0.876h18.709C20.553,19.124,20.858,19.516,20.858,20L20.858,20z"/>
	</g>
	<linearGradient id="SVGID_1_" gradientUnits="userSpaceOnUse" x1="16.2188" y1="9.6641" x2="20.6094" y2="9.6641">
		<stop  offset="0" style="stop-color:#FED564"/>
		<stop  offset="1" style="stop-color:#CE1313"/>
	</linearGradient>
	<path fill-rule="evenodd" clip-rule="evenodd" fill="url(#SVGID_1_)" d="M20.609,2.496v14.266l-0.188,0.266l-4.203-3.406V5.652
		l4.141-3.313C20.359,2.34,20.516,2.184,20.609,2.496z"/>
</g>
</svg>
