<?xml version="1.0" encoding="utf-8"?>
<!-- Generator: Adobe Illustrator 26.0.1, SVG Export Plug-In . SVG Version: 6.00 Build 0)  -->
<svg version="1.0" id="Layer_1" xmlns="http://www.w3.org/2000/svg" xmlns:xlink="http://www.w3.org/1999/xlink" x="0px" y="0px"
	 viewBox="0 0 28 28" style="enable-background:new 0 0 28 28;" xml:space="preserve">
<style type="text/css">
	.st0{fill:#850E00;}
</style>
<g>
	<g>
		<path class="st0" d="M22.48,5.39c2.49,0,4.52,2.03,4.52,4.52v12.56c0,2.49-2.03,4.52-4.52,4.52H5.54c-2.49,0-4.52-2.03-4.52-4.52
			V9.91c0-2.49,2.03-4.52,4.52-4.52H22.48 M22.48,4.39H5.54c-3.05,0-5.52,2.47-5.52,5.52v12.56c0,3.05,2.47,5.52,5.52,5.52h16.94
			c3.05,0,5.52-2.47,5.52-5.52V9.91C28,6.87,25.53,4.39,22.48,4.39L22.48,4.39z"/>
	</g>
</g>
<g>
	<polygon class="st0" points="19.59,0 14,5.24 8.41,0 9.82,0 14,3.92 18.18,0 	"/>
</g>
<g>
	<g>
		<path class="st0" d="M24.48,9.01c0,0.89-0.72,1.6-1.6,1.6c-0.89,0-1.6-0.72-1.6-1.6c0-0.89,0.72-1.6,1.6-1.6
			C23.76,7.41,24.48,8.13,24.48,9.01z"/>
	</g>
</g>
<g>
	<g>
		<g>
			<path class="st0" d="M11.75,12.45c0.04,0,0.08,0.01,0.12,0.03l3.03,1.75l3.03,1.75c0.1,0.06,0.12,0.15,0.12,0.21
				c0,0.06-0.02,0.15-0.12,0.21l-3.03,1.75l-3.03,1.75c-0.04,0.02-0.08,0.03-0.12,0.03c-0.1,0-0.25-0.08-0.25-0.25v-3.5v-3.5
				C11.5,12.53,11.65,12.45,11.75,12.45 M11.75,11.45c-0.65,0-1.25,0.52-1.25,1.25v3.5v3.5c0,0.73,0.6,1.25,1.25,1.25
				c0.21,0,0.42-0.05,0.62-0.17l3.03-1.75l3.03-1.75c0.83-0.48,0.83-1.68,0-2.15l-3.03-1.75l-3.03-1.75
				C12.17,11.5,11.95,11.45,11.75,11.45L11.75,11.45z"/>
		</g>
	</g>
</g>
<g>
</g>
<g>
</g>
<g>
</g>
<g>
</g>
<g>
</g>
<g>
</g>
</svg>
