<?xml version="1.0" encoding="utf-8"?>
<!-- Generator: Adobe Illustrator 26.0.1, SVG Export Plug-In . SVG Version: 6.00 Build 0)  -->
<svg version="1.0" id="Layer_1" xmlns="http://www.w3.org/2000/svg" xmlns:xlink="http://www.w3.org/1999/xlink" x="0px" y="0px"
	 viewBox="0 0 28 28" style="enable-background:new 0 0 28 28;" xml:space="preserve">
<style type="text/css">
	.st0{fill:#5B0400;}
</style>
<g>
	<path class="st0" d="M22.21,7.35c1.46,0,2.65,1.19,2.65,2.65v11.94c0,1.46-1.19,2.65-2.65,2.65H6.11c-1.46,0-2.65-1.19-2.65-2.65
		V10c0-1.46,1.19-2.65,2.65-2.65H22.21 M22.21,4.75H6.11c-2.9,0-5.25,2.35-5.25,5.25v11.94c0,2.9,2.35,5.25,5.25,5.25h16.1
		c2.9,0,5.25-2.35,5.25-5.25V10C27.46,7.1,25.11,4.75,22.21,4.75L22.21,4.75z"/>
</g>
<g>
	<polygon class="st0" points="7.36,0.72 10.91,0.72 14,3.62 17.09,0.72 20.64,0.72 14,6.94 	"/>
</g>
<g>
	<g>
		<path class="st0" d="M10.42,15.97V12.9c0-0.84,0.91-1.36,1.63-0.94l2.66,1.53l2.66,1.53c0.73,0.42,0.73,1.47,0,1.89l-2.66,1.53
			l-2.66,1.53c-0.73,0.42-1.63-0.1-1.63-0.94V15.97z"/>
	</g>
</g>
<circle class="st0" cx="21.24" cy="10.62" r="1.73"/>
<g>
</g>
<g>
</g>
<g>
</g>
<g>
</g>
<g>
</g>
<g>
</g>
</svg>
