<svg width="40" height="40" viewBox="0 0 40 40" fill="none" xmlns="http://www.w3.org/2000/svg">
<g id="noun-schedule-123953 1" clip-path="url(#clip0_0_192)">
<path id="Vector" d="M17.2893 16.6213H13.4364V20.4729H17.2893V16.6213Z" fill="#998448"/>
<path id="Vector_2" d="M17.2893 22.541H13.4364V26.3952H17.2893V22.541Z" fill="#998448"/>
<path id="Vector_3" d="M17.2893 28.4631H13.4364V32.3174H17.2893V28.4631Z" fill="#998448"/>
<path id="Vector_4" d="M10.3711 22.541H6.51868V26.3952H10.3711V22.541Z" fill="#998448"/>
<path id="Vector_5" d="M10.3711 28.4631H6.51868V32.3174H10.3711V28.4631Z" fill="#998448"/>
<path id="Vector_6" d="M11.992 5.31511C11.992 6.832 10.7627 8.06133 9.24488 8.06133C7.72799 8.06133 6.49777 6.832 6.49777 5.31511V2.74711C6.49777 1.23022 7.72799 0 9.24488 0C10.7627 0 11.992 1.23022 11.992 2.74711V5.31511Z" fill="#998448"/>
<path id="Vector_7" d="M30.7515 5.31511C30.7515 6.832 29.5249 8.06133 28.0058 8.06133C26.4893 8.06133 25.2573 6.832 25.2573 5.31511V2.74711C25.2578 1.23022 26.4898 0 28.0062 0C29.5253 0 30.752 1.23022 30.752 2.74711L30.7515 5.31511Z" fill="#998448"/>
<path id="Vector_8" d="M29.6191 40C23.96 40 19.352 35.3853 19.352 29.7142C19.352 24.0378 23.9604 19.428 29.6191 19.428C35.2778 19.428 39.8858 24.0378 39.8858 29.7142C39.8853 35.3853 35.2778 40 29.6191 40ZM29.6191 21.9835C25.3675 21.9835 21.908 25.4515 21.908 29.7146C21.908 33.9729 25.3671 37.4413 29.6191 37.4413C33.8711 37.4413 37.3284 33.9729 37.3284 29.7146C37.328 25.4515 33.8707 21.9835 29.6191 21.9835Z" fill="#998448"/>
<path id="Vector_9" d="M29.7178 30.8906C29.2942 31.1053 28.7827 30.9341 28.5702 30.5133C28.3524 30.087 28.5218 29.5728 28.9453 29.3582L34.4764 26.5706C34.8973 26.355 35.4155 26.5262 35.6267 26.9484C35.8418 27.3742 35.6751 27.8835 35.2471 28.099L29.7178 30.8906Z" fill="#998448"/>
<path id="Vector_10" d="M28.1311 29.9599C28.1876 29.227 28.8262 28.6822 29.5582 28.7395C30.2907 28.7964 30.8333 29.4368 30.776 30.1662C30.7204 30.895 30.0822 31.4439 29.3489 31.3866C28.62 31.3297 28.0764 30.6893 28.1311 29.9599Z" fill="#998448"/>
<path id="Vector_11" d="M29.6191 17.9133C30.1302 17.9133 30.6311 17.9573 31.1253 18.02V16.6213H27.2729V18.1489C28.0311 17.9956 28.816 17.9133 29.6191 17.9133Z" fill="#998448"/>
<path id="Vector_12" d="M24.2084 19.2409V16.6213H20.3542V20.4729H22.3111C22.9 20.004 23.5347 19.5916 24.2084 19.2409Z" fill="#998448"/>
<path id="Vector_13" d="M19.6587 35.3964C19.6578 35.3956 19.6569 35.3933 19.6556 35.3911C19.4156 35.0244 19.2 34.6409 19.0009 34.2471H2.81378V13.1316H34.2036V18.1173C34.2044 18.1173 34.2044 18.1178 34.2053 18.1182C34.6707 18.3218 35.1151 18.5604 35.5467 18.82C35.6258 18.8671 35.7044 18.9142 35.7827 18.9636C36.2133 19.2369 36.6316 19.5289 37.0222 19.8542V4H32.0947V4.53556C32.0947 6.85111 30.2093 8.73822 27.8916 8.73822C25.5738 8.73822 23.6902 6.85156 23.6902 4.53556V4H13.3316V4.53556C13.3316 6.85111 11.4458 8.73822 9.13022 8.73822C6.81111 8.73822 4.92889 6.85156 4.92889 4.53556V4H0V36.4587H20.4356C20.4347 36.4587 20.4347 36.4573 20.4338 36.4573C20.1556 36.12 19.9 35.7644 19.6587 35.3964Z" fill="#998448"/>
</g>
<defs>
<clipPath id="clip0_0_192">
<rect width="40" height="40" fill="white"/>
</clipPath>
</defs>
</svg>
