<svg width="48" height="48" viewBox="0 0 48 48" fill="none" xmlns="http://www.w3.org/2000/svg">
<g id="icons8-setting (1) 1">
<path id="Vector" d="M39.6001 27.1996C39.7001 26.4996 39.8001 25.7996 39.8001 24.9996C39.8001 24.1996 39.7001 23.4996 39.6001 22.7996L44.1001 19.5996C44.5001 19.2996 44.7001 18.6996 44.4001 18.1996L40.0001 10.7996C39.7001 10.2996 39.2001 10.0996 38.7001 10.3996L33.7001 12.6996C32.5001 11.7996 31.3001 11.0996 29.9001 10.4996L29.4001 4.99961C29.3001 4.49961 28.9001 4.09961 28.4001 4.09961H19.8001C19.3001 4.09961 18.8001 4.49961 18.8001 4.99961L18.3001 10.4996C16.9001 11.0996 15.6001 11.7996 14.5001 12.6996L9.50011 10.3996C9.00011 10.1996 8.40011 10.3996 8.20011 10.7996L3.90011 18.1996C3.60011 18.6996 3.80011 19.2996 4.20011 19.5996L8.70011 22.7996C8.60011 23.4996 8.50011 24.1996 8.50011 24.9996C8.50011 25.7996 8.60011 26.4996 8.70011 27.1996L4.00011 30.3996C3.60011 30.6996 3.40011 31.2996 3.70011 31.7996L8.00011 39.1996C8.30011 39.6996 8.80011 39.8996 9.30011 39.5996L14.3001 37.2996C15.5001 38.1996 16.7001 38.8996 18.1001 39.4996L18.6001 44.9996C18.7001 45.4996 19.1001 45.8996 19.6001 45.8996H28.2001C28.7001 45.8996 29.2001 45.4996 29.2001 44.9996L29.7001 39.4996C31.1001 38.8996 32.4001 38.1996 33.5001 37.2996L38.5001 39.5996C39.0001 39.7996 39.6001 39.5996 39.8001 39.1996L44.1001 31.7996C44.4001 31.2996 44.2001 30.6996 43.8001 30.3996L39.6001 27.1996ZM24.0001 34.9996C18.5001 34.9996 14.0001 30.4996 14.0001 24.9996C14.0001 19.4996 18.5001 14.9996 24.0001 14.9996C29.5001 14.9996 34.0001 19.4996 34.0001 24.9996C34.0001 30.4996 29.5001 34.9996 24.0001 34.9996Z" fill="#998448"/>
<path id="Vector_2" d="M24 13C17.4 13 12 18.4 12 25C12 31.6 17.4 37 24 37C30.6 37 36 31.6 36 25C36 18.4 30.6 13 24 13ZM24 30C21.2 30 19 27.8 19 25C19 22.2 21.2 20 24 20C26.8 20 29 22.2 29 25C29 27.8 26.8 30 24 30Z" fill="#998448"/>
</g>
</svg>
