<svg width="17" height="17" viewBox="0 0 17 17" fill="none" xmlns="http://www.w3.org/2000/svg">
<path d="M15.9813 1.20253C15.9775 1.19315 15.9756 1.18377 15.97 1.17627C15.955 1.14439 15.9363 1.11251 15.9119 1.08814C15.8856 1.06188 15.8556 1.04313 15.8219 1.02813C15.8144 1.02438 15.805 1.02063 15.7975 1.01875C15.7694 1.00938 15.7413 1.00375 15.7113 1.00188C15.7056 1.00188 15.7 1 15.6944 1C15.6644 1 15.6325 1.00375 15.6025 1.015L1.20638 5.81373C1.08638 5.85311 1.00388 5.96562 1.00013 6.09314C0.996378 6.22065 1.07513 6.33504 1.19325 6.38192L7.99944 8.99975L10.6169 15.8069C10.6619 15.9231 10.7744 16 10.8982 16C10.9 16 10.9019 16 10.9057 16C11.0332 15.9981 11.1438 15.9156 11.185 15.7937L15.985 1.3938C15.9944 1.3638 15.9981 1.33379 16 1.30379C16 1.29629 15.9981 1.29066 15.9981 1.28316C15.9963 1.25691 15.9906 1.23065 15.9813 1.20253ZM2.19449 6.12127L14.5825 1.992L8.15882 8.41468L2.19449 6.12127ZM10.8794 14.8074L8.58631 8.84223L15.01 2.41768L10.8794 14.8074Z" fill="#171A1F" stroke="#444B54"/>
</svg>
