<svg width="16" height="15" viewBox="0 0 16 15" fill="none" xmlns="http://www.w3.org/2000/svg">
<path d="M14.975 6.06003C14.7643 5.80702 14.5005 5.60334 14.2025 5.46339C13.9044 5.32343 13.5793 5.2506 13.25 5.25003H9.83L10.25 4.17753C10.4247 3.70795 10.4829 3.20299 10.4195 2.70597C10.3562 2.20896 10.1733 1.73473 9.88639 1.32396C9.59951 0.913183 9.21727 0.578131 8.77245 0.347541C8.32764 0.116951 7.83353 -0.00229457 7.3325 3.34434e-05C7.18823 0.000334465 7.04711 0.0422399 6.92605 0.120726C6.805 0.199211 6.70915 0.310946 6.65 0.442533L4.5125 5.25003H2.75C2.15326 5.25003 1.58097 5.48709 1.15901 5.90904C0.737053 6.331 0.5 6.9033 0.5 7.50003V12.75C0.5 13.3468 0.737053 13.9191 1.15901 14.341C1.58097 14.763 2.15326 15 2.75 15H12.2975C12.8239 14.9999 13.3335 14.8152 13.7377 14.4781C14.142 14.141 14.4153 13.6728 14.51 13.155L15.4625 7.90503C15.5214 7.58057 15.5083 7.24712 15.424 6.92829C15.3398 6.60946 15.1865 6.31305 14.975 6.06003ZM4.25 13.5H2.75C2.55109 13.5 2.36032 13.421 2.21967 13.2804C2.07902 13.1397 2 12.9489 2 12.75V7.50003C2 7.30112 2.07902 7.11036 2.21967 6.9697C2.36032 6.82905 2.55109 6.75003 2.75 6.75003H4.25V13.5ZM14 7.63503L13.0475 12.885C13.0156 13.0598 12.9226 13.2175 12.7853 13.3301C12.6479 13.4427 12.4751 13.5029 12.2975 13.5H5.75V6.15753L7.79 1.56753C7.99999 1.62875 8.195 1.73284 8.36274 1.87322C8.53048 2.0136 8.66729 2.18723 8.76455 2.38315C8.8618 2.57907 8.91739 2.79303 8.92779 3.01151C8.9382 3.22999 8.9032 3.44826 8.825 3.65253L8.4275 4.72503C8.3428 4.95173 8.31421 5.19554 8.34416 5.43568C8.37411 5.67582 8.46171 5.90515 8.5995 6.10409C8.73729 6.30303 8.92116 6.46568 9.13543 6.57816C9.3497 6.69064 9.588 6.74961 9.83 6.75003H13.25C13.3602 6.74985 13.4691 6.77395 13.5689 6.82062C13.6687 6.86729 13.757 6.93537 13.8275 7.02003C13.8997 7.10353 13.9527 7.20194 13.9825 7.30825C14.0123 7.41456 14.0183 7.52615 14 7.63503Z" fill="#424856"/>
</svg>
