<svg width="40" height="40" viewBox="0 0 40 40" fill="none" xmlns="http://www.w3.org/2000/svg">
<g id="Group">
<g id="Group_2">
<path id="Vector" d="M30.5094 19.5892C30.1877 19.4207 29.8123 19.4628 29.5442 19.6313C26.8633 21.19 23.5925 22.0747 20 22.0747C16.4075 22.0747 13.1367 21.1479 10.4558 19.6313C10.1877 19.4628 9.75871 19.4628 9.49062 19.5892C3.16354 22.7909 0 29.0679 0 36.2717C0 41.2427 40 41.2427 40 36.2717C40 29.0679 36.8365 22.7909 30.5094 19.5892Z" fill="#998448"/>
<path id="Vector_2" d="M19.9999 18.7888C26.6037 18.7888 31.9571 14.5828 31.9571 9.39442C31.9571 4.20602 26.6037 0 19.9999 0C13.3962 0 8.04285 4.20602 8.04285 9.39442C8.04285 14.5828 13.3962 18.7888 19.9999 18.7888Z" fill="#998448"/>
</g>
</g>
</svg>
